<svg width="253" height="253" viewBox="0 0 253 253" fill="none" xmlns="http://www.w3.org/2000/svg">
<circle cx="126.5" cy="126.5" r="126.5" fill="#1F567F"/>
<path d="M198.188 161.279H175.748V165.279H198.188V161.279Z" fill="white"/>
<path d="M198.188 172.669H175.748V176.669H198.188V172.669Z" fill="white"/>
<path d="M80.8975 163.519H54.8075V167.519H80.8975V163.519Z" fill="white"/>
<path d="M80.8975 174.909H54.8075V178.909H80.8975V174.909Z" fill="white"/>
<path d="M201.088 69.9792C196.268 64.8992 192.588 64.7792 187.278 69.3292C179.531 75.9958 171.804 82.6625 164.098 89.3292C160.588 92.3892 156.768 94.1792 152.028 94.0792C143.438 93.8992 134.838 94.0792 126.238 94.0792C117.638 94.0792 109.038 93.9292 100.448 94.1292C95.3075 94.2492 91.1775 92.3492 87.3775 88.9992C79.8175 82.3192 72.1575 75.7592 64.4975 69.1892C59.4075 64.8192 56.0375 64.9192 51.2475 69.6192C43.4575 77.2792 42.5375 87.2592 43.1575 97.4192C43.9575 110.419 47.2275 122.949 51.7875 135.029C56.7875 148.129 62.1175 161.029 67.5375 173.959C68.4252 175.707 69.9022 177.085 71.7075 177.849C77.4975 180.319 83.4375 182.389 89.3275 184.599C91.1069 185.297 93.0269 185.563 94.929 185.373C96.8311 185.184 98.6609 184.545 100.268 183.509C102.96 182.47 105.733 181.651 108.558 181.059C115.398 179.579 119.748 180.789 120.078 179.529C120.408 178.269 115.978 177.359 115.458 174.459C114.818 170.939 120.108 165.389 125.978 165.069C132.198 164.719 138.228 170.259 137.788 173.939C137.408 177.069 132.438 178.439 132.868 179.779C133.208 180.779 136.208 179.959 140.978 180.599C144.726 181.046 148.377 182.1 151.788 183.719C155.618 185.419 159.198 186.019 163.158 184.429C168.658 182.219 174.348 180.499 179.718 178.009C181.947 176.821 183.74 174.954 184.838 172.679C187.438 167.379 189.398 161.749 191.748 156.319C199.808 137.599 207.048 118.609 208.748 97.9592C209.538 87.7592 208.528 77.8492 201.088 69.9792ZM87.5275 125.719C89.0902 125.697 90.5999 126.285 91.7354 127.359C92.8709 128.433 93.5426 129.908 93.6075 131.469C93.589 133.033 92.9836 134.534 91.9113 135.673C90.8389 136.812 89.3779 137.506 87.8175 137.619C86.2595 137.553 84.785 136.896 83.6945 135.781C82.6039 134.667 81.9792 133.178 81.9475 131.619C81.9429 130.108 82.5195 128.652 83.5582 127.554C84.5969 126.456 86.018 125.799 87.5275 125.719ZM76.7775 148.999C75.2126 148.946 73.7279 148.293 72.63 147.177C71.5321 146.06 70.9048 144.565 70.8775 142.999C70.8905 142.227 71.0563 141.464 71.3656 140.756C71.6748 140.048 72.1212 139.408 72.6791 138.874C73.2369 138.339 73.8952 137.92 74.6158 137.641C75.3364 137.363 76.1051 137.229 76.8775 137.249C77.6233 137.243 78.3623 137.391 79.0476 137.686C79.7329 137.98 80.3494 138.414 80.8582 138.959C81.3669 139.505 81.7567 140.15 82.0027 140.854C82.2488 141.558 82.3458 142.306 82.2875 143.049C82.3082 144.559 81.7461 146.019 80.718 147.125C79.69 148.232 78.2751 148.899 76.7675 148.989L76.7775 148.999ZM87.9575 160.469C86.3976 160.413 84.9155 159.774 83.8044 158.678C82.6933 157.582 82.0342 156.108 81.9575 154.549C81.9514 153.047 82.5089 151.597 83.5198 150.487C84.5308 149.376 85.9216 148.684 87.4175 148.549C88.1898 148.51 88.9621 148.625 89.6895 148.888C90.4169 149.15 91.0848 149.555 91.6543 150.078C92.2239 150.601 92.6837 151.232 93.007 151.934C93.3303 152.637 93.5107 153.396 93.5375 154.169C93.582 155.732 93.0283 157.253 91.9895 158.422C90.9507 159.591 89.5051 160.32 87.9475 160.459L87.9575 160.469ZM98.4875 149.049C96.9849 148.901 95.5934 148.192 94.5907 147.063C93.5879 145.934 93.0476 144.469 93.0775 142.959C93.0923 142.181 93.2642 141.413 93.5829 140.703C93.9016 139.993 94.3604 139.354 94.932 138.826C95.5035 138.297 96.176 137.889 96.909 137.627C97.6419 137.365 98.4204 137.253 99.1975 137.299C99.9498 137.319 100.69 137.493 101.372 137.811C102.055 138.128 102.665 138.582 103.165 139.144C103.666 139.706 104.046 140.365 104.282 141.08C104.518 141.794 104.605 142.55 104.538 143.299C104.518 144.074 104.346 144.837 104.032 145.546C103.717 146.254 103.266 146.894 102.704 147.428C102.142 147.962 101.481 148.38 100.757 148.658C100.034 148.936 99.2624 149.069 98.4875 149.049ZM182.298 146.779C182.304 147.227 182.222 147.672 182.057 148.088C181.892 148.504 181.646 148.884 181.334 149.205C181.022 149.526 180.65 149.783 180.239 149.961C179.827 150.138 179.385 150.233 178.938 150.239H170.688C170.528 150.239 170.376 150.302 170.263 150.415C170.151 150.527 170.088 150.68 170.088 150.839V159.369C170.094 159.817 170.012 160.262 169.847 160.678C169.682 161.094 169.436 161.474 169.124 161.795C168.812 162.116 168.44 162.373 168.029 162.551C167.617 162.728 167.175 162.823 166.728 162.829H159.728C159.28 162.823 158.838 162.728 158.426 162.551C158.015 162.373 157.643 162.116 157.331 161.795C157.019 161.474 156.773 161.094 156.608 160.678C156.443 160.262 156.361 159.817 156.368 159.369V150.839C156.368 150.68 156.304 150.527 156.192 150.415C156.079 150.302 155.927 150.239 155.768 150.239H147.518C147.07 150.233 146.628 150.138 146.216 149.961C145.805 149.783 145.433 149.526 145.121 149.205C144.809 148.884 144.563 148.504 144.398 148.088C144.233 147.672 144.151 147.227 144.158 146.779V139.559C144.151 139.111 144.233 138.667 144.398 138.25C144.563 137.834 144.809 137.454 145.121 137.133C145.433 136.812 145.805 136.555 146.216 136.378C146.628 136.2 147.07 136.106 147.518 136.099H155.768C155.927 136.099 156.079 136.036 156.192 135.923C156.304 135.811 156.368 135.658 156.368 135.499V126.969C156.361 126.521 156.443 126.077 156.608 125.66C156.773 125.244 157.019 124.864 157.331 124.543C157.643 124.222 158.015 123.965 158.426 123.788C158.838 123.61 159.28 123.516 159.728 123.509H166.728C167.175 123.516 167.617 123.61 168.029 123.788C168.44 123.965 168.812 124.222 169.124 124.543C169.436 124.864 169.682 125.244 169.847 125.66C170.012 126.077 170.094 126.521 170.088 126.969V135.499C170.088 135.658 170.151 135.811 170.263 135.923C170.376 136.036 170.528 136.099 170.688 136.099H178.938C179.385 136.106 179.827 136.2 180.239 136.378C180.65 136.555 181.022 136.812 181.334 137.133C181.646 137.454 181.892 137.834 182.057 138.25C182.222 138.667 182.304 139.111 182.298 139.559V146.779Z" fill="white"/>
</svg>
