<svg width="658" height="382" viewBox="0 0 658 382" fill="none" xmlns="http://www.w3.org/2000/svg">
<path d="M307.15 300.535H258.513C258.513 274.459 241.341 248.764 228.49 226.855L227.267 224.739C216.21 205.626 201.835 187.891 197.581 165.659C196.351 159.193 196.116 152.193 199.133 146.357C202.355 140.125 208.909 136.105 215.712 134.392C296.737 113.632 313.667 221.809 307.15 300.535Z" fill="url(#paint0_linear)"/>
<path d="M286.236 300.535H284.149C283.913 289.502 282.87 278.501 281.03 267.62C278.869 254.493 275.646 241.562 271.393 228.956C262.948 203.666 249.979 180.12 233.118 159.464C231.726 157.699 232.957 156.755 234.421 158.322C253.01 178.134 267.061 201.758 275.597 227.55C279.899 240.404 282.935 253.648 284.662 267.093C286.138 278.175 286.665 289.363 286.236 300.535Z" fill="url(#paint1_linear)"/>
<path d="M393.872 300.535H443.373C443.373 237.077 515.135 174.754 461.036 167.995C441.777 165.586 428.032 175.457 418.242 190.798C393.872 228.876 393.872 300.535 393.872 300.535Z" fill="url(#paint2_linear)"/>
<path d="M339.692 300.535H400.47C410.37 209.134 407.668 -20.0068 275.311 2.50307C173.716 19.7553 337.1 151.761 339.692 300.535Z" fill="url(#paint3_linear)"/>
<path d="M306.476 52.9709C314.48 61.9484 321.121 72.0684 326.98 82.5617C332.798 93.0722 337.78 104.024 341.881 115.316C346.087 126.584 349.673 138.073 352.624 149.732C355.597 161.39 358.145 173.165 360.173 185.057C364.251 208.855 367.03 232.858 368.499 256.958C369.422 271.486 370.015 286.007 370.147 300.535H374.284C374.826 285.927 374.797 271.296 374.284 256.658C373.45 232.251 370.947 207.929 366.793 183.863C364.713 171.825 362.004 159.867 358.789 148.078C355.613 136.241 351.7 124.614 347.073 113.266C344.876 107.561 342.203 102.011 339.582 96.4675C336.711 91.034 333.958 85.564 330.656 80.4016C324.248 69.9594 316.999 59.9494 308.336 51.272C305.722 48.5114 304.016 50.0491 306.476 52.9709Z" fill="url(#paint4_linear)"/>
<path d="M291.948 300.535H342.372C342.372 300.535 355.67 194.269 298.597 194.357C246.65 194.379 281.359 260.041 291.948 300.535Z" fill="url(#paint5_linear)"/>
<path d="M306.989 220.579C314.487 244.48 317.665 269.517 319.437 294.45C319.547 296.464 319.65 298.514 319.76 300.535H324.153C324.08 298.375 323.977 296.259 323.831 294.135C321.993 268.923 317.782 243.609 308.519 219.979C307.721 218.148 306.337 218.705 306.989 220.579Z" fill="url(#paint6_linear)"/>
<path d="M412.808 300.535H415.972C417.136 290.906 418.593 281.277 420.409 271.757C423.083 258.449 426.652 245.336 431.093 232.508C432.287 229.315 433.634 226.203 434.879 223.069C435.531 221.502 436.094 219.905 436.827 218.36L439.097 213.813L441.345 209.244C442.059 207.704 442.871 206.212 443.776 204.777L449.107 196.092C450.212 194.305 449.326 193.573 448.082 195.36L442.297 203.854C441.32 205.27 440.444 206.753 439.675 208.292L437.185 212.81L434.718 217.416C433.934 218.932 433.312 220.528 432.58 222.095C431.225 225.258 429.768 228.37 428.493 231.563C423.635 244.434 419.827 257.678 417.107 271.164C415.242 280.879 413.809 290.669 412.808 300.535Z" fill="url(#paint7_linear)"/>
<path d="M106.765 340.349H77.3575C77.3575 324.583 66.9813 309.052 59.2192 295.805L58.487 294.531C51.8014 282.976 43.1094 272.255 40.5391 258.818C39.8069 254.908 39.6458 250.675 41.4764 247.146C43.4243 243.375 47.3858 240.965 51.5012 239.911C100.49 227.367 110.705 292.759 106.765 340.349Z" fill="#FBFEFF"/>
<path d="M94.119 340.349H92.8595C92.7151 333.68 92.0837 327.03 90.9702 320.453C89.6531 312.516 87.6939 304.699 85.1121 297.079C80.0064 281.79 72.1659 267.556 61.9725 255.069C61.1304 254 61.8773 253.436 62.756 254.381C73.9956 266.357 82.4916 280.637 87.653 296.23C90.2657 304 92.1124 312.008 93.167 320.138C94.0593 326.836 94.3778 333.597 94.119 340.349Z" fill="url(#paint8_linear)"/>
<path d="M159.188 340.349H189.094C189.094 301.985 232.495 264.31 199.77 260.239C188.127 258.774 179.824 264.749 173.9 274.02C159.188 297.035 159.188 340.349 159.188 340.349Z" fill="url(#paint9_linear)"/>
<path d="M126.434 340.349H163.164C169.147 285.092 167.514 146.576 87.4994 160.211C26.1135 170.617 124.867 250.412 126.434 340.349Z" fill="url(#paint10_linear)"/>
<path d="M106.348 190.695C111.117 196.186 115.267 202.186 118.723 208.585C122.238 214.929 125.25 221.54 127.73 228.356C130.274 235.172 132.442 242.121 134.225 249.174C136.027 256.219 137.564 263.336 138.787 270.527C141.253 284.907 142.935 299.41 143.825 313.972C144.382 322.76 144.741 331.547 144.821 340.334H147.355C147.684 331.503 147.662 322.657 147.355 313.811C146.849 299.058 145.335 284.356 142.822 269.809C141.563 262.531 139.893 255.303 137.982 248.178C136.063 241.022 133.698 233.994 130.901 227.133C129.561 223.684 127.972 220.33 126.368 216.976C124.633 213.689 122.97 210.386 120.971 207.267C117.175 200.892 112.648 194.982 107.483 189.656C105.901 187.993 104.883 188.931 106.348 190.695Z" fill="url(#paint11_linear)"/>
<path d="M54.9355 342.449H85.4198C85.4198 342.449 93.4747 278.207 58.9557 278.251C27.5635 278.273 48.5355 317.969 54.9355 342.449Z" fill="url(#paint12_linear)"/>
<path d="M106.655 292.019C111.188 306.467 113.114 321.603 114.183 336.687L114.374 340.349H117.024C116.98 339.045 116.914 337.764 116.834 336.482C115.721 321.244 113.173 305.954 107.578 291.653C107.08 290.54 106.275 290.884 106.655 292.019Z" fill="url(#paint13_linear)"/>
<path d="M170.633 340.349H172.545C173.277 334.49 174.134 328.706 175.225 322.95C176.841 314.905 178.999 306.979 181.683 299.225C182.416 297.291 183.221 295.417 183.975 293.52C184.371 292.568 184.708 291.609 185.154 290.672L186.531 287.926L187.886 285.165C188.316 284.236 188.805 283.336 189.35 282.47L192.572 277.22C193.246 276.144 192.704 275.697 191.95 276.795L188.449 281.921C187.858 282.776 187.327 283.672 186.86 284.601L185.359 287.333L183.895 290.079C183.419 290.994 183.045 291.961 182.606 292.905C181.786 294.816 180.907 296.698 180.138 298.631C177.201 306.412 174.899 314.417 173.255 322.569C172.098 328.461 171.224 334.388 170.633 340.349Z" fill="url(#paint14_linear)"/>
<path d="M212.065 188.169C199.031 181.257 180.834 209.361 180.834 209.361C187.095 190.234 208.177 141.077 189.841 128.907C174.961 119.029 158.683 138.038 153.228 152.786C157.621 135.79 175.811 82.8766 158.317 75.8102C143.027 69.6372 131.838 94.7393 129.722 109.275C127.913 94.1974 125.629 43.0925 97.5022 49.6976C70.4084 56.7054 85.8958 103.71 93.0354 120.852C84.9072 110.673 64.5356 89.8111 53.947 105.98C36.7754 132.187 101.427 174.813 101.427 174.813C101.427 174.813 62.6317 162.196 62.9246 185.928C63.342 219.517 102.379 236.682 131.077 238.498C90.0697 234.917 94.0093 272.746 123.19 287.56C147.721 300.008 177.656 297.936 200.664 282.939C216.115 266.522 231.858 198.677 212.065 188.169Z" fill="#FBFEFF"/>
<path d="M196.292 232.749C194.637 237.919 192.726 243.001 190.661 247.966C189.059 251.763 187.24 255.464 185.213 259.052C172.483 242.559 160.935 225.185 150.657 207.062C153.949 202.424 157.001 197.621 159.803 192.673C162.835 187.246 165.661 181.476 168.217 175.713C170.773 169.95 173.028 163.997 175.034 158.08C177.076 152.163 178.787 146.137 180.16 140.03C178.573 146.055 176.649 151.986 174.397 157.795C172.201 163.653 169.718 169.394 166.994 174.981C164.27 180.568 161.231 186.119 158.038 191.303C155.265 195.754 152.264 200.058 149.046 204.198C141.021 189.97 133.866 175.269 127.62 160.175C130.602 154.662 133.291 148.997 135.675 143.201C137.022 140.22 138.055 137.064 139.271 134.04C140.303 130.906 141.467 127.808 142.405 124.689C144.308 118.487 146.168 112.123 147.684 105.767C149.2 99.4112 150.562 93.0404 151.507 86.6111C150.35 92.9892 148.775 99.2867 147.054 105.533C145.334 111.779 143.261 118.018 141.196 124.074C140.142 127.113 138.904 130.122 137.777 133.169C136.459 136.098 135.338 139.159 133.903 142.022C131.609 147.063 129.047 151.979 126.229 156.748C114.71 127.078 105.839 96.4476 99.7208 65.2143C105.032 96.719 113.119 127.692 123.886 157.773C118.653 156.455 113.545 154.686 108.618 152.486C102.682 149.817 96.9646 146.685 91.5194 143.12C85.8322 139.382 80.3946 135.278 75.2412 130.833C69.8514 126.194 64.7892 121.188 60.0906 115.851C64.6498 121.412 69.5846 126.656 74.8604 131.543C79.9433 136.233 85.3245 140.59 90.9702 144.585C96.4006 148.416 102.122 151.817 108.083 154.756C113.559 157.436 119.274 159.598 125.152 161.214C131.523 176.695 138.238 191.486 145.714 206.468C140.759 207.665 135.668 208.212 130.571 208.094C124.374 207.881 118.22 206.982 112.221 205.414C105.899 203.762 99.7278 201.577 93.7748 198.882C87.4913 196.084 81.4491 192.773 75.7098 188.982C81.3923 193.025 87.3948 196.598 93.6576 199.666C99.6169 202.622 105.814 205.071 112.184 206.988C118.269 208.828 124.539 209.989 130.879 210.452C136.348 210.793 141.839 210.392 147.201 209.258C157.077 227.807 168.25 245.636 180.636 262.611C176.098 263.872 171.475 264.809 166.804 265.416C160.777 266.188 154.704 266.53 148.629 266.441C142.349 266.338 136.081 265.849 129.861 264.977C123.405 264.081 117.018 262.75 110.741 260.993C117.032 263.022 123.451 264.627 129.956 265.797C136.233 266.932 142.575 267.68 148.944 268.037C155.121 268.375 161.315 268.273 167.477 267.73C172.559 267.269 177.599 266.43 182.555 265.218C197.31 284.938 213.486 303.743 231.324 320.753L236.64 314.976C218.626 298.69 202.223 280.559 187.146 261.564C189.203 257.508 191.02 253.334 192.587 249.064C194.454 243.902 196.153 238.637 197.588 233.328C199.023 228.019 200.356 222.681 201.528 217.343C202.699 212.004 203.783 206.659 204.647 201.306C203.563 206.6 202.26 211.873 200.869 217.116C199.477 222.359 197.947 227.587 196.292 232.749Z" fill="#14426F"/>
<path d="M493.966 211.609C505.484 199.095 536.027 222.644 536.027 222.644C521.887 204.242 480.111 158.871 495.386 138.617C507.783 122.17 532.732 136.603 544.375 150.538C533.098 133.696 493.014 83.1695 509.336 68.7878C523.593 56.2148 545.385 79.2226 553.272 94.2121C549.449 77.1283 532.344 20.6779 565.479 17.0679C597.654 14.2926 598.804 71.3508 597.618 92.7256C602.553 78.5416 616.708 48.0574 634.421 61.5677C663.141 83.4844 609.173 154.565 609.173 154.565C609.173 154.565 646.475 126.044 655.262 151.981C667.71 188.667 631.829 222.278 601.308 235.276C644.556 215.644 654.764 258.306 628.695 285.612C606.793 308.568 573.446 317.773 542.683 310.282C519.587 298.361 476.464 230.597 493.966 211.609Z" fill="#FCFFFF"/>
<path d="M528.199 254.029C531.978 259.016 536.012 263.82 540.157 268.418C543.356 271.932 546.755 275.26 550.336 278.384C557.853 255.561 563.745 232.233 567.969 208.577C562.616 204.803 557.459 200.758 552.518 196.458C547.143 191.713 541.834 186.536 536.862 181.242C531.89 175.948 527.159 170.397 522.692 164.693C518.2 159.043 514.025 153.149 510.185 147.038C514.221 152.98 518.587 158.691 523.264 164.143C527.906 169.643 532.783 174.966 537.909 179.99C543.035 185.013 548.439 189.89 553.902 194.306C558.625 198.081 563.54 201.611 568.628 204.879C571.9 186.332 574.044 167.603 575.05 148.795C569.69 143.942 564.592 138.809 559.774 133.418C557.168 130.694 554.839 127.662 552.349 124.835C550.028 121.818 547.597 118.889 545.363 115.872C540.919 109.861 536.452 103.644 532.366 97.3242C528.28 91.0047 524.362 84.5901 520.869 77.9631C524.574 84.451 528.697 90.6972 532.966 96.8263C537.235 102.955 541.878 108.953 546.476 114.73C548.783 117.659 551.295 120.427 553.682 123.305C556.238 125.992 558.632 128.885 561.29 131.448C565.719 136.051 570.39 140.414 575.284 144.519C576.437 107.854 574.344 71.1583 569.03 34.8619C575.332 71.1567 578.412 107.938 578.235 144.775C583.415 141.346 588.288 137.475 592.8 133.205C598.23 128.027 603.244 122.43 607.796 116.466C612.548 110.221 616.887 103.672 620.787 96.8629C624.868 89.7525 628.453 82.3683 631.515 74.7631C628.666 82.5519 625.287 90.1364 621.402 97.4633C617.679 104.514 613.504 111.316 608.902 117.828C604.464 124.06 599.545 129.936 594.191 135.402C589.256 140.415 583.862 144.955 578.081 148.964C577.093 168.244 575.452 186.895 573.072 206.08C578.928 205.483 584.681 204.124 590.185 202.038C596.84 199.432 603.186 196.097 609.107 192.094C615.356 187.874 621.235 183.131 626.682 177.917C632.436 172.465 637.731 166.548 642.513 160.226C637.884 166.8 632.726 172.986 627.092 178.723C621.75 184.231 615.955 189.279 609.766 193.815C603.854 198.148 597.481 201.814 590.764 204.748C584.945 207.215 578.819 208.883 572.552 209.705C568.924 233.661 563.609 257.33 556.648 280.537C562.064 280.167 567.448 279.414 572.758 278.282C579.605 276.809 586.339 274.851 592.91 272.424C599.701 269.905 606.33 266.97 612.761 263.636C619.442 260.182 625.881 256.28 632.034 251.957C625.977 256.576 619.616 260.784 612.996 264.552C606.61 268.192 600.007 271.438 593.224 274.269C586.637 277.003 579.864 279.264 572.955 281.035C567.254 282.481 561.453 283.499 555.601 284.081C547.114 311.175 536.737 337.83 523.864 363.166L515.868 358.926C529.21 334.315 540.135 308.334 549.208 281.87C545.414 278.249 541.837 274.408 538.495 270.366C534.482 265.467 530.616 260.393 527.02 255.171C523.425 249.95 519.925 244.656 516.607 239.296C513.29 233.936 510.061 228.539 507.088 223.054C510.303 228.393 513.73 233.628 517.252 238.798C520.774 243.968 524.421 249.057 528.199 254.029Z" fill="#14426F"/>
<path d="M67.0765 331.73C76.3836 329.958 83.0985 336.944 83.5452 337.39C83.9552 335.926 88.012 322.745 101.171 318.095C107.06 316.072 113.456 316.072 119.346 318.095C118.479 315.825 118.267 313.357 118.734 310.972C119.201 308.587 120.328 306.381 121.986 304.604C123.645 302.828 125.769 301.553 128.116 300.925C130.464 300.296 132.941 300.339 135.265 301.048C137.988 296.813 141.897 293.471 146.504 291.44C151.111 289.409 156.214 288.777 161.178 289.624C166.141 290.471 170.746 292.759 174.42 296.203C178.093 299.646 180.672 304.094 181.837 308.993C183.173 306.889 185.09 305.217 187.355 304.178C189.621 303.139 192.139 302.778 194.605 303.139C197.071 303.5 199.38 304.567 201.253 306.211C203.126 307.856 204.483 310.007 205.16 312.405C208.064 309.367 211.72 307.152 215.758 305.986C219.796 304.82 224.07 304.744 228.147 305.766C232.223 306.788 235.956 308.872 238.966 311.806C241.976 314.739 244.154 318.418 245.281 322.467C248.355 319.999 251.984 318.318 255.854 317.57C259.724 316.823 263.719 317.03 267.49 318.176C279.053 321.837 286.332 334.08 283.813 346.5H52.8925C54.2619 338.972 59.9882 333.055 67.0765 331.73Z" fill="#FE5722"/>
<path d="M301.643 331.73C310.95 329.958 317.665 336.944 318.112 337.39C318.522 335.926 322.579 322.745 335.738 318.095C341.627 316.072 348.023 316.072 353.912 318.095C353.046 315.825 352.834 313.357 353.301 310.972C353.768 308.587 354.895 306.381 356.553 304.604C358.212 302.828 360.336 301.553 362.683 300.925C365.031 300.296 367.508 300.339 369.832 301.048C372.555 296.813 376.463 293.471 381.071 291.44C385.678 289.409 390.781 288.777 395.745 289.624C400.708 290.471 405.313 292.759 408.986 296.203C412.66 299.646 415.239 304.094 416.404 308.993C417.74 306.889 419.657 305.217 421.922 304.178C424.188 303.139 426.705 302.778 429.172 303.139C431.638 303.5 433.947 304.567 435.82 306.211C437.693 307.856 439.05 310.007 439.727 312.405C442.63 309.367 446.287 307.152 450.325 305.986C454.363 304.82 458.637 304.744 462.714 305.766C466.79 306.788 470.523 308.872 473.533 311.806C476.542 314.739 478.721 318.418 479.848 322.467C482.921 319.999 486.551 318.318 490.421 317.57C494.291 316.823 498.285 317.03 502.057 318.176C513.62 321.837 520.898 334.08 518.379 346.5H287.43C288.829 338.972 294.54 333.055 301.643 331.73Z" fill="url(#paint15_linear)"/>
<path d="M404.021 334.981C413.328 333.209 420.043 340.195 420.49 340.642C420.9 339.177 424.957 325.996 438.116 321.346C444.005 319.323 450.401 319.323 456.291 321.346C455.424 319.076 455.212 316.608 455.679 314.223C456.146 311.838 457.273 309.632 458.931 307.856C460.59 306.079 462.714 304.805 465.061 304.176C467.409 303.547 469.886 303.59 472.21 304.299C474.933 300.064 478.841 296.723 483.449 294.691C488.056 292.66 493.159 292.029 498.123 292.876C503.086 293.722 507.691 296.01 511.364 299.454C515.038 302.898 517.617 307.346 518.782 312.244C520.118 310.14 522.035 308.468 524.3 307.429C526.566 306.39 529.083 306.03 531.55 306.391C534.016 306.751 536.325 307.818 538.198 309.463C540.071 311.107 541.428 313.258 542.105 315.657C545.009 312.618 548.665 310.403 552.703 309.237C556.741 308.071 561.015 307.995 565.092 309.017C569.168 310.04 572.901 312.124 575.911 315.057C578.921 317.991 581.099 321.669 582.226 325.718C585.296 323.246 588.923 321.561 592.792 320.808C596.661 320.055 600.655 320.258 604.428 321.398C615.99 325.059 623.269 337.302 620.75 349.722H389.801C391.199 342.209 396.926 336.314 404.021 334.981Z" fill="url(#paint16_linear)"/>
<g opacity="0.38">
<path opacity="0.38" d="M37.6541 356.422C37.6541 364.016 133.984 370.174 252.816 370.174C371.648 370.174 467.963 364.016 467.963 356.422C467.963 348.828 371.641 342.633 252.801 342.633C133.962 342.633 37.6541 348.821 37.6541 356.422Z" fill="#69A6DA"/>
</g>
<path opacity="0.4" d="M114.33 382C144.495 382 168.949 378.148 168.949 373.396C168.949 368.644 144.495 364.792 114.33 364.792C84.164 364.792 59.7099 368.644 59.7099 373.396C59.7099 378.148 84.164 382 114.33 382Z" fill="#69A6DA"/>
<path opacity="0.38" d="M517.72 379.291C568.333 379.291 609.363 369.685 609.363 357.835C609.363 345.986 568.333 336.38 517.72 336.38C467.107 336.38 426.077 345.986 426.077 357.835C426.077 369.685 467.107 379.291 517.72 379.291Z" fill="#69A6DA"/>
<path d="M374.826 316.828H279.47V342.48H374.826V316.828Z" fill="#14426F"/>
<path d="M486.057 87.3873H169.25C165.452 87.3873 162.374 90.4658 162.374 94.2633V318.329C162.374 322.127 165.452 325.205 169.25 325.205H486.057C489.855 325.205 492.933 322.127 492.933 318.329V94.2633C492.933 90.4658 489.855 87.3873 486.057 87.3873Z" fill="#14426F"/>
<path d="M478.464 96.0574H175.825C173.492 96.0574 171.6 97.9491 171.6 100.283V298.156C171.6 300.489 173.492 302.381 175.825 302.381H478.464C480.797 302.381 482.689 300.489 482.689 298.156V100.283C482.689 97.9491 480.797 96.0574 478.464 96.0574Z" fill="#DEE3F3"/>
<path d="M243.846 340.246H410.451C411.872 340.246 413.236 340.811 414.241 341.816C415.246 342.821 415.811 344.185 415.811 345.606V356.415H238.485V345.606C238.485 344.185 239.05 342.821 240.055 341.816C241.061 340.811 242.424 340.246 243.846 340.246Z" fill="#14426F"/>
<g style="mix-blend-mode:multiply" opacity="0.55">
<path d="M396.208 142.666H197.61C192.345 142.666 188.076 146.935 188.076 152.2V279.446C188.076 284.712 192.345 288.98 197.61 288.98H396.208C401.474 288.98 405.742 284.712 405.742 279.446V152.2C405.742 146.935 401.474 142.666 396.208 142.666Z" fill="#C6C2E1"/>
</g>
<path d="M400.624 136.969H202.026C196.76 136.969 192.492 141.238 192.492 146.503V273.749C192.492 279.015 196.76 283.283 202.026 283.283H400.624C405.889 283.283 410.158 279.015 410.158 273.749V146.503C410.158 141.238 405.889 136.969 400.624 136.969Z" fill="white"/>
<path d="M400.624 136.969H202.026C199.501 136.969 197.08 137.972 195.294 139.757C193.509 141.543 192.506 143.964 192.506 146.489V154.836H410.158V146.489C410.158 145.237 409.911 143.998 409.432 142.842C408.952 141.686 408.25 140.636 407.364 139.752C406.479 138.868 405.428 138.167 404.271 137.689C403.114 137.212 401.875 136.967 400.624 136.969Z" fill="#69A6DA"/>
<path d="M379.41 148.993C380.93 148.993 382.163 147.76 382.163 146.24C382.163 144.719 380.93 143.486 379.41 143.486C377.889 143.486 376.656 144.719 376.656 146.24C376.656 147.76 377.889 148.993 379.41 148.993Z" fill="#D1CEE8"/>
<path d="M390.621 148.993C392.142 148.993 393.374 147.76 393.374 146.24C393.374 144.719 392.142 143.486 390.621 143.486C389.101 143.486 387.868 144.719 387.868 146.24C387.868 147.76 389.101 148.993 390.621 148.993Z" fill="#D1CEE8"/>
<path d="M401.832 148.993C403.353 148.993 404.585 147.76 404.585 146.24C404.585 144.719 403.353 143.486 401.832 143.486C400.311 143.486 399.079 144.719 399.079 146.24C399.079 147.76 400.311 148.993 401.832 148.993Z" fill="#D1CEE8"/>
<g style="mix-blend-mode:multiply" opacity="0.35">
<path d="M183.148 179.301C181.295 181.337 179.121 185.679 178.234 187.554C177.348 189.429 176.287 190.439 173.65 191.677C169.989 193.339 166.115 194.935 162.374 196.407V206.058C169.989 201.482 176.88 197.205 177.019 197.161C182.84 199.358 187.703 194.547 189.27 191.054C190.002 189.487 188.918 188.857 188.874 188.125C188.874 187.737 189.35 185.467 189.27 185.196C188.816 183.16 183.338 184.94 183.8 183.966C184.198 182.625 184.991 181.436 186.077 180.554C188.757 178.723 190.815 176.694 190.815 175.926C190.778 174.564 183.778 178.606 183.148 179.301Z" fill="#5A57A6"/>
</g>
<path d="M184.7 186.089C184.744 186.705 185.674 187.232 185.052 188.521C183.668 191.398 179.348 195.389 174.178 193.551C173.951 193.632 145.619 209.998 143.423 209.998C141.226 209.998 126.383 195.938 121.52 178.511C120.363 174.359 120.788 169.474 124.706 167.373C124.706 167.373 127.95 168.156 130.051 172.133C133.273 178.21 142.91 198.333 145.048 199.095C147.714 197.322 160.675 193.463 171.183 189.004C173.519 187.986 174.419 187.122 175.254 185.606C176.089 184.09 177.978 180.48 179.648 178.803C180.212 178.225 186.421 174.9 186.421 175.992C186.421 176.621 184.598 178.298 182.218 179.807C181.269 180.512 180.563 181.494 180.197 182.619C179.794 183.417 184.649 181.952 185.052 183.629C185.147 183.9 184.7 185.767 184.7 186.089Z" fill="#F9B8B0"/>
<path d="M123.629 166.889C125.433 167.308 127.124 168.115 128.584 169.253C130.045 170.391 131.24 171.833 132.087 173.48C132.518 174.339 132.902 175.222 133.237 176.123C134.745 179.96 136.817 183.446 138.363 187.268C136.298 188.931 133.808 189.7 131.706 190.476C129.727 191.212 127.608 191.497 125.504 191.311C125.144 191.295 124.79 191.219 124.457 191.084C124.035 190.853 123.665 190.536 123.373 190.154C122.729 189.412 122.101 188.657 121.491 187.891C120.923 187.253 120.492 186.505 120.224 185.694C120.028 184.562 120.132 183.398 120.525 182.318" fill="#6B65AE"/>
<g style="mix-blend-mode:multiply" opacity="0.35">
<g style="mix-blend-mode:multiply" opacity="0.35">
<path d="M127.335 177.368C127.211 177.191 127.045 177.048 126.851 176.951C126.655 176.897 126.447 176.913 126.261 176.996C126.076 177.079 125.925 177.223 125.834 177.405C125.661 177.773 125.588 178.179 125.621 178.584C125.642 180.142 125.889 181.688 126.353 183.175L125.87 191.267C127.841 191.392 129.816 191.106 131.67 190.425C132.541 190.102 133.486 189.766 134.438 189.377C133.442 184.837 130.359 180.978 127.335 177.368Z" fill="#6B65AE"/>
</g>
</g>
<path d="M114.784 158.835C114.784 158.835 114.674 163.902 115.45 164.231C116.51 164.662 117.605 165 118.723 165.242L118.796 175.75L104.817 173.641L95.1954 168.288C95.1954 168.288 105.191 164.978 105.279 163.975C105.367 162.972 104.73 157.385 104.73 157.385" fill="#F9B8B0"/>
<path d="M93.3063 310.589V310.626C89.4839 328.764 91.2999 353.676 90.4504 367.325C90.6482 367.384 95.6495 368.006 95.6495 368.006C95.6495 368.006 107.476 310.458 109.628 299.444C109.768 298.741 109.858 298.029 109.899 297.313C110.412 289.024 102.943 288.599 98.725 295.453C97.9954 296.638 97.3518 297.874 96.7992 299.151C96.5649 299.693 96.3379 300.242 96.1109 300.828C95.3844 302.722 94.7659 304.656 94.2582 306.62L94.2143 306.833C94.0385 307.411 93.8994 308.004 93.753 308.59V308.722C93.5699 309.344 93.4381 309.96 93.3063 310.589Z" fill="#F9B8B0"/>
<path d="M115.699 245.498C115.56 246.963 114.762 254.139 113.795 262.56C112.975 269.641 112.074 277.623 111.371 283.942C110.851 288.68 110.471 292.466 110.309 294.245C110.239 295.274 110.099 296.296 109.892 297.306V297.343C108.091 305.625 102.372 306.13 98.908 304.182C98.4357 303.933 97.9934 303.631 97.5899 303.281C96.8474 302.651 96.3328 301.794 96.1254 300.843C95.9057 299.144 95.6861 296.823 95.4883 294.062V294.025C95.4883 294.025 95.4883 294.025 95.4883 293.989V293.93C95.0709 288.548 94.7048 281.628 94.3899 274.891C94.0092 266.609 93.7675 258.628 93.7089 254.124C93.7089 253.861 93.7089 253.626 93.6723 253.392C93.6137 239.589 106.297 230.743 114.176 235.027C114.272 235.065 114.365 235.112 114.454 235.166C114.55 235.233 114.651 235.294 114.754 235.349C115.655 235.949 115.955 238.007 115.977 240.372C115.941 242.057 115.823 243.939 115.699 245.498Z" fill="#F9B8B0"/>
<path d="M96.3963 297.584L95.4297 293.967C95.4297 293.967 95.4297 293.967 95.4297 294.011C95.4945 298.25 95.0918 302.484 94.2288 306.635L94.1849 306.847C94.0457 307.419 93.8993 308.026 93.7235 308.605V308.737C93.5267 309.339 93.3893 309.96 93.3135 310.589V310.626C93.3135 312.266 96.7917 304.987 97.5972 303.303L97.7583 302.959L96.8137 299.166L96.3963 297.584Z" fill="#F9B8B0"/>
<path d="M123.725 314.075C123.358 333.063 129.224 355.389 130.776 369.185C130.967 369.185 135.565 368.57 135.565 368.57C135.565 368.57 136.444 310.399 136.503 298.902C136.509 298.168 136.47 297.435 136.385 296.706C135.441 288.328 128.645 289.764 126.024 297.628C125.568 298.99 125.199 300.379 124.918 301.787C124.794 302.388 124.691 302.981 124.581 303.625C124.248 305.685 124.019 307.76 123.893 309.842V310.062C123.834 310.685 123.805 311.307 123.776 311.922V312.061C123.746 312.75 123.739 313.394 123.725 314.075Z" fill="#F9B8B0"/>
<path d="M127.671 306.306C127.201 306.179 126.752 305.984 126.339 305.727C125.526 305.277 124.906 304.545 124.596 303.669C124.098 302.036 123.505 299.752 122.846 297.079C122.846 297.079 122.846 297.079 122.846 297.035V296.969C121.564 291.733 120.041 284.931 118.628 278.318C116.885 270.176 115.303 262.289 114.491 257.815C114.425 257.573 113.758 254.315 113.678 254.073C111.247 240.204 122.062 231.16 129.927 233.811L130.234 233.914C131.816 234.551 132.255 240.109 132.607 243.865C132.958 247.622 135.639 286.571 136.268 293.615C136.373 294.664 136.42 295.718 136.407 296.771C136.21 305.441 131.135 307.345 127.671 306.306Z" fill="#F9B8B0"/>
<path d="M124.303 300.345L122.839 296.991C122.839 296.991 122.839 296.991 122.839 297.035C123.628 301.272 123.991 305.577 123.922 309.886V310.106C123.922 310.707 123.864 311.351 123.805 311.966V312.105C123.731 312.752 123.714 313.403 123.754 314.053V314.075C124.025 315.708 125.951 307.602 126.361 305.705C126.412 305.463 126.449 305.324 126.449 305.324L124.984 301.787L124.303 300.345Z" fill="#F9B8B0"/>
<path d="M100.204 218.88C92.691 248.749 89.7766 272.109 88.5318 288.233C87.8434 297.196 87.0672 311.197 83.1642 330.214C81.0069 340.611 78.2341 350.871 74.8604 360.94C99.463 371.293 127.134 371.643 151.99 361.914C150.823 328.691 146.408 295.663 138.809 263.3C134.921 246.772 130.432 231.409 125.628 217.262L100.204 218.88Z" fill="#F1592A"/>
<path d="M132.08 188.989C131.999 192.694 130.029 194.95 127.203 198.077C126.844 198.633 125.965 206.864 125.665 212.385C125.511 215.241 126.727 217.035 125.665 217.277C121.594 220.828 106.926 223.699 100.197 218.858C100.929 212.883 98.227 199.732 96.4257 193.039C96.1474 192.006 95.8984 191.142 95.6934 190.468C94.0092 185.386 90.9776 169.094 93.2257 168.383C93.6723 168.244 94.368 168.061 95.1735 167.812C98.6884 166.75 103.887 164.934 103.887 164.934C103.887 164.934 106.934 173.948 114.871 175.04C119.199 173.26 118.818 167.79 118.767 165.271C120.18 165.659 120.803 166.047 125.189 167.351C126.419 169.123 125.358 172.821 127.342 178.335C127.796 179.697 132.182 184.464 132.08 188.989Z" fill="#6B65AE"/>
<path d="M51.1789 182.758C51.1789 182.758 45.6869 178.364 45.3208 177.148C44.9547 175.933 44.8668 174.651 44.4128 173.487C44.0649 172.632 43.5486 171.855 42.8944 171.204C42.2403 170.552 41.4617 170.039 40.605 169.694C39.2283 169.13 39.8727 168.661 38.4082 168.962C36.2114 169.394 35.1277 171.576 34.2343 173.282C30.4411 180.554 40.8247 181.93 41.1981 181.945C41.9304 181.945 45.8187 186.338 45.8187 186.338" fill="#F9B8B0"/>
<path d="M147.172 374.699C143.012 375.431 138.56 374.274 136.737 374.597C135.228 374.853 131.355 375.834 129.905 374.531C128.455 373.227 128.689 368.629 130.359 368.021C130.711 368.142 131.074 368.23 131.443 368.285C133.095 368.512 134.777 368.375 136.371 367.882C139.541 369.185 139.659 369.756 143.254 370.481C144.828 370.787 146.367 371.253 147.845 371.873C149.398 372.576 149.552 374.274 147.172 374.699Z" fill="#0E254B"/>
<path d="M102.233 376.53C98.0587 375.798 95.4225 373.52 93.5992 373.205C92.0907 372.935 88.2976 372.202 87.9022 370.643C87.6093 369.486 88.7516 364.682 90.5237 364.667C90.8146 364.898 91.1259 365.101 91.4537 365.275C92.9318 366.048 94.5615 366.488 96.228 366.564C98.769 368.863 98.6885 369.434 101.83 371.338C103.206 372.159 104.494 373.118 105.674 374.201C106.897 375.388 104.583 376.925 102.233 376.53Z" fill="#0E254B"/>
<path d="M41.4398 182.003L45.2696 177.449L68.6435 198.377C68.6435 198.377 80.0522 183.19 83.1936 178.445C86.6426 173.231 89.784 168.771 94.8001 167.9C95.9644 168.632 94.4046 187.349 93.7969 187.803C86.7451 193.075 73.0225 210.093 68.6582 210.979C63.6275 211.96 41.4398 182.003 41.4398 182.003Z" fill="#14426F"/>
<path d="M96.5282 167.036C96.5282 167.036 91.7538 167.094 89.6962 168.786C87.6385 170.478 77.8335 186.024 77.8335 186.024C77.8311 187.059 78.0615 188.081 78.5077 189.016C78.9538 189.95 79.6043 190.772 80.411 191.42C82.4425 193.067 84.8865 194.126 87.4774 194.481C87.4774 194.481 92.3982 189.582 95.1735 187.349C96.9017 185.958 97.0774 189.399 97.0774 189.399L105.755 180.927L96.5282 167.036Z" fill="#606161"/>
<path d="M102.02 125.084C92.2957 129.829 96.0668 143.252 87.8947 156.462C82.8421 164.641 72.3414 174.139 48.1254 178.606C48.096 186.927 48.5852 195.242 49.5899 203.503C50.1538 208.167 51.838 221.985 55.3162 232.479C56.9126 237.297 68.3872 271.918 99.633 279.893C125.907 286.6 148.424 269.934 151.99 267.21C157.683 260.384 162.477 252.856 166.255 244.81C177.663 220.447 176.726 197.513 175.305 185.628C151.873 193.134 144.675 187.246 142.961 185.562C141.101 183.739 136.481 177.844 134.357 175.127C130.813 170.609 129.048 168.354 128.682 167.622C124.662 159.567 129.363 154.155 127.459 139.613C126.881 135.219 126.383 132.942 124.698 130.642C120.041 124.301 109.065 121.65 102.02 125.084Z" fill="#DC3326"/>
<path d="M33.8536 179.243L37.6174 181.754C37.734 181.833 37.8654 181.887 38.0035 181.913C38.1416 181.939 38.2836 181.936 38.4207 181.905C38.5578 181.874 38.6872 181.816 38.8009 181.733C38.9146 181.651 39.0102 181.546 39.082 181.425L47.3493 167.578L42.4504 164.817L33.546 177.8C33.4701 177.915 33.4178 178.043 33.3922 178.178C33.3665 178.313 33.3681 178.452 33.3967 178.586C33.4254 178.721 33.4805 178.848 33.559 178.961C33.6374 179.073 33.7376 179.169 33.8536 179.243Z" fill="#F7FBFC"/>
<path d="M20.3872 149.857L21.6833 150.743L26.919 143.113L25.6229 142.227C23.7776 140.975 21.1122 141.663 19.6696 143.772C18.2197 145.881 18.5419 148.583 20.3872 149.857Z" fill="url(#paint17_linear)"/>
<path d="M15.5981 159.157L39.6824 162.818L45.1817 154.8L33.0261 133.762L15.5981 159.157Z" fill="#FCFFFF"/>
<path d="M17.1359 159.494L39.6824 162.818L41.8719 159.618L22.8989 151.094L17.1359 159.494Z" fill="white"/>
<path d="M49.5827 168.647C50.2791 169.052 51.1071 169.166 51.8871 168.965C52.6671 168.763 53.3362 168.262 53.7493 167.57L54.7232 166.157C55.2179 165.525 55.4425 164.723 55.3478 163.926C55.2532 163.129 54.847 162.401 54.2179 161.903C53.5222 161.5 52.6959 161.387 51.9177 161.589C51.1395 161.79 50.4717 162.29 50.0587 162.979L49.0774 164.407C48.5872 165.038 48.3654 165.837 48.46 166.631C48.5545 167.424 48.9579 168.149 49.5827 168.647Z" fill="url(#paint18_linear)"/>
<path d="M50.066 162.965L49.0921 164.385C48.8195 164.687 48.6148 165.044 48.4917 165.432C48.3686 165.819 48.3299 166.229 48.3783 166.633C48.4266 167.036 48.5609 167.425 48.7721 167.773C48.9833 168.12 49.2665 168.419 49.6027 168.648C49.9388 168.877 50.3201 169.031 50.7209 169.101C51.1217 169.17 51.5327 169.153 51.9262 169.05C52.3198 168.947 52.6868 168.761 53.0025 168.505C53.3182 168.248 53.5753 167.927 53.7566 167.563L54.7305 166.143C54.8035 166.035 54.8695 165.922 54.9282 165.806C54.7273 166.122 54.4648 166.396 54.1562 166.609C53.8476 166.822 53.4992 166.971 53.1319 167.047C52.7645 167.123 52.3857 167.124 52.0178 167.051C51.65 166.977 51.3007 166.83 50.9907 166.619C50.6808 166.408 50.4164 166.136 50.2135 165.821C50.0105 165.506 49.8731 165.153 49.8094 164.783C49.7456 164.413 49.7569 164.035 49.8425 163.669C49.9281 163.304 50.0863 162.96 50.3076 162.657C50.2206 162.754 50.1399 162.857 50.066 162.965Z" fill="url(#paint19_linear)"/>
<path d="M14.8146 159.948C15.2234 160.184 15.7088 160.251 16.1663 160.133C16.6238 160.015 17.0167 159.723 17.2603 159.318L33.7803 135.248C34.0703 134.877 34.2022 134.407 34.1473 133.939C34.0925 133.472 33.8553 133.045 33.4874 132.751C33.0785 132.515 32.5931 132.448 32.1356 132.566C31.6782 132.683 31.2853 132.976 31.0416 133.381L14.5217 157.451C14.2317 157.821 14.0998 158.292 14.1546 158.759C14.2095 159.227 14.4466 159.654 14.8146 159.948Z" fill="url(#paint20_linear)"/>
<path d="M33.9049 133.205L20.1456 153.255C19.9019 153.659 19.509 153.952 19.0515 154.07C18.5941 154.188 18.1086 154.121 17.6998 153.884C17.5266 153.763 17.3817 153.606 17.2751 153.423L14.5144 157.451C14.3587 157.628 14.2425 157.837 14.1735 158.063C14.1044 158.289 14.0841 158.527 14.1139 158.761C14.1437 158.996 14.2229 159.221 14.3463 159.423C14.4697 159.624 14.6344 159.797 14.8296 159.93C15.0248 160.063 15.2461 160.153 15.4787 160.195C15.7114 160.236 15.9501 160.227 16.1792 160.169C16.4083 160.112 16.6225 160.006 16.8076 159.859C16.9927 159.712 17.1446 159.528 17.2531 159.318L33.7731 135.248C33.9882 134.956 34.1149 134.608 34.1383 134.246C34.1617 133.884 34.0807 133.523 33.9049 133.205Z" fill="url(#paint21_linear)"/>
<path d="M41.8059 167.029L43.3656 168.09C45.6649 169.657 48.9967 168.823 50.7981 166.165L52.3432 163.909C54.1519 161.28 53.7492 157.875 51.4498 156.308L49.8901 155.246C47.5908 153.679 44.259 154.514 42.4576 157.172L40.9125 159.428C39.1112 162.057 39.5066 165.462 41.8059 167.029Z" fill="white"/>
<path d="M41.0005 159.303L38.6792 162.679C38.5395 162.856 38.4361 163.058 38.3748 163.275C38.3136 163.492 38.2957 163.719 38.3222 163.943C38.3487 164.167 38.4191 164.383 38.5294 164.579C38.6397 164.776 38.7876 164.949 38.9648 165.088L46.2142 170.031C46.6077 170.257 47.0741 170.32 47.5135 170.206C47.9528 170.093 48.3302 169.812 48.5648 169.423L50.8861 166.047C50.6515 166.436 50.2741 166.717 49.8347 166.831C49.3954 166.944 48.929 166.881 48.5355 166.655L41.286 161.712C40.9299 161.43 40.7 161.018 40.6465 160.567C40.593 160.115 40.7202 159.661 41.0005 159.303Z" fill="url(#paint22_linear)"/>
<path d="M34.6298 175.772C34.4673 174.788 34.5007 173.781 34.7282 172.809C34.9556 171.838 35.3726 170.921 35.9552 170.111C36.3642 169.588 36.8148 169.098 37.3025 168.647C37.5222 168.401 37.8024 168.217 38.1153 168.112C38.7297 168.027 39.3541 168.168 39.8728 168.508C40.5092 168.821 41.0241 169.336 41.3373 169.972C41.74 170.961 41.0517 171.781 40.2755 172.272C40.1924 172.312 40.1254 172.379 40.0851 172.462C40.0412 172.594 40.1364 172.762 40.2169 172.909C40.5919 173.464 40.7862 174.121 40.7735 174.791C40.7577 174.941 40.7111 175.087 40.6366 175.218C40.562 175.35 40.461 175.464 40.3401 175.555C40.2191 175.646 40.0806 175.711 39.9334 175.745C39.7863 175.78 39.6335 175.784 39.4847 175.757C39.1991 175.713 38.8183 175.603 38.7524 175.816C38.7307 175.897 38.7307 175.983 38.7524 176.065C38.7954 176.346 38.7785 176.632 38.7028 176.906C38.6271 177.18 38.4942 177.435 38.3131 177.654C38.228 177.769 38.1024 177.847 37.9616 177.873C37.8373 177.88 37.713 177.863 37.5954 177.822C37.1412 177.693 36.7074 177.501 36.3067 177.251" fill="#F9B8B0"/>
<path d="M45.2695 177.449C45.071 176.481 44.9219 175.503 44.8229 174.52C44.7922 173.407 44.4858 172.32 43.9311 171.355C43.3765 170.39 42.5908 169.577 41.6448 168.991C41.4958 168.885 41.3148 168.833 41.1322 168.845C41.019 168.874 40.9175 168.938 40.8415 169.027C40.7655 169.116 40.7188 169.226 40.7075 169.343C40.6893 169.574 40.7243 169.807 40.81 170.024C41.037 170.756 42.0256 172.037 41.7181 172.755C41.2116 173.827 40.9442 174.996 40.9345 176.182C40.9345 177.229 41.4544 178.921 42.692 179.111" fill="#F9B8B0"/>
<path d="M17.3483 122.111L22.1886 133.535" stroke="#C5C3E2" stroke-width="0.75" stroke-linecap="round" stroke-linejoin="round"/>
<path d="M7.22839 132.268L17.1579 139.708" stroke="#C5C3E2" stroke-width="0.75" stroke-linecap="round" stroke-linejoin="round"/>
<path d="M0.821045 146.108L13.1744 147.323" stroke="#C5C3E2" stroke-width="0.75" stroke-linecap="round" stroke-linejoin="round"/>
<path d="M124.904 138.155C124.904 138.155 125.702 147.953 124.032 153.086C123.717 154.06 119.565 160.453 113.466 160.409C105.835 160.336 98.9594 150.055 101.588 143.296C103.895 137.357 112.733 136.208 116.966 136.317C119.708 136.392 122.408 137.017 124.904 138.155Z" fill="#F9B8B0"/>
<g style="mix-blend-mode:multiply" opacity="0.35">
<path d="M83.1936 178.415C83.1936 178.415 62.3094 240.526 90.443 259.404L83.1936 178.415Z" fill="#5A57A6"/>
</g>
<g opacity="0.3">
<path opacity="0.3" d="M326.335 256.328L351.62 269.055L338.981 238.036" fill="#DC3326"/>
<path opacity="0.3" d="M301.321 267.107C330.836 267.107 354.762 244.525 354.762 216.669C354.762 188.812 330.836 166.23 301.321 166.23C271.807 166.23 247.88 188.812 247.88 216.669C247.88 244.525 271.807 267.107 301.321 267.107Z" fill="#DC3326"/>
<path opacity="0.3" d="M288.243 200.098V236.155C288.243 236.818 288.417 237.47 288.749 238.044C289.08 238.619 289.557 239.096 290.132 239.428C290.706 239.759 291.358 239.934 292.021 239.934C292.684 239.934 293.336 239.759 293.91 239.428L325.134 221.399C325.707 221.067 326.183 220.591 326.514 220.017C326.845 219.443 327.019 218.792 327.019 218.13C327.019 217.467 326.845 216.817 326.514 216.243C326.183 215.669 325.707 215.192 325.134 214.86L293.91 196.832C293.337 196.501 292.686 196.326 292.023 196.326C291.36 196.325 290.709 196.499 290.135 196.83C289.561 197.161 289.083 197.637 288.751 198.211C288.419 198.784 288.244 199.435 288.243 200.098Z" fill="#00ADE5"/>
</g>
<path d="M573.534 325.257C578.776 325.357 583.77 327.51 587.442 331.253C591.114 334.996 593.171 340.03 593.171 345.273C593.171 350.517 591.114 355.551 587.442 359.294C583.77 363.036 578.776 365.189 573.534 365.29H412.193V325.257H573.534Z" fill="#F7FAFC"/>
<path d="M584.21 354.167H412.186V355.829H584.21V354.167Z" fill="#CCD9E2"/>
<path d="M587.601 347.679H412.186V349.341H587.601V347.679Z" fill="#CCD9E2"/>
<path d="M587.601 341.198H412.186V342.86H587.601V341.198Z" fill="#CCD9E2"/>
<path d="M584.217 334.718H412.186V336.38H584.217V334.718Z" fill="#CCD9E2"/>
<path d="M408.386 321.134H573.534C579.743 321.42 585.604 324.088 589.897 328.584C594.19 333.08 596.586 339.057 596.586 345.273C596.586 351.489 594.19 357.467 589.897 361.962C585.604 366.458 579.743 369.126 573.534 369.412H408.386V361.167H573.534C577.69 361.078 581.646 359.364 584.554 356.393C587.462 353.422 589.09 349.43 589.09 345.273C589.09 341.116 587.462 337.124 584.554 334.153C581.646 331.182 577.69 329.468 573.534 329.379H408.386V321.134Z" fill="#0E254B"/>
<path d="M452.446 317.004C449.785 317.055 447.141 316.575 444.668 315.592C442.195 314.609 439.942 313.142 438.043 311.279C436.143 309.415 434.634 307.191 433.604 304.737C432.574 302.283 432.043 299.649 432.043 296.988C432.043 294.326 432.574 291.692 433.604 289.238C434.634 286.784 436.143 284.56 438.043 282.696C439.942 280.833 442.195 279.366 444.668 278.383C447.141 277.4 449.785 276.92 452.446 276.971H613.757V317.004H452.446Z" fill="#F7FAFC"/>
<path d="M613.764 286.432H441.74V288.094H613.764V286.432Z" fill="#CCD9E2"/>
<path d="M613.757 292.92H438.343V294.582H613.757V292.92Z" fill="#CCD9E2"/>
<path d="M613.757 299.4H438.343V301.063H613.757V299.4Z" fill="#CCD9E2"/>
<path d="M613.757 305.881H441.726V307.543H613.757V305.881Z" fill="#CCD9E2"/>
<path d="M617.565 321.134H452.446C446.237 320.848 440.376 318.179 436.083 313.684C431.79 309.188 429.394 303.211 429.394 296.995C429.394 290.779 431.79 284.801 436.083 280.306C440.376 275.81 446.237 273.142 452.446 272.856H617.565V281.123H452.446C448.29 281.212 444.334 282.926 441.426 285.897C438.518 288.868 436.89 292.86 436.89 297.017C436.89 301.174 438.518 305.166 441.426 308.137C444.334 311.108 448.29 312.821 452.446 312.911H617.565V321.134Z" fill="url(#paint23_linear)"/>
<path d="M425.557 268.726C420.315 268.625 415.321 266.472 411.649 262.73C407.977 258.987 405.92 253.953 405.92 248.709C405.92 243.466 407.977 238.432 411.649 234.689C415.321 230.946 420.315 228.793 425.557 228.693H586.868V268.726H425.557Z" fill="#F7FAFC"/>
<path d="M586.876 238.432H414.852V239.538H586.876V238.432Z" fill="#CCD9E2"/>
<path d="M586.875 244.92H411.461V246.025H586.875V244.92Z" fill="#CCD9E2"/>
<path d="M586.875 251.4H411.461V252.506H586.875V251.4Z" fill="#CCD9E2"/>
<path d="M586.876 257.881H414.844V258.987H586.876V257.881Z" fill="#CCD9E2"/>
<path d="M590.676 272.848H425.557C419.347 272.562 413.487 269.894 409.194 265.398C404.901 260.903 402.505 254.925 402.505 248.709C402.505 242.493 404.901 236.516 409.194 232.02C413.487 227.525 419.347 224.856 425.557 224.57H590.676V232.793H425.557C421.401 232.883 417.445 234.596 414.537 237.567C411.629 240.538 410.001 244.53 410.001 248.687C410.001 252.844 411.629 256.836 414.537 259.807C417.445 262.778 421.401 264.492 425.557 264.581H590.676V272.848Z" fill="url(#paint24_linear)"/>
<path opacity="0.38" d="M555.923 221.319H498.213C498.608 240.031 498.926 258.745 499.165 277.462C499.165 280.325 499.165 283.276 498.125 285.919H498.037C497.305 285.875 497.612 286.117 497.349 287.486V287.552C495.013 291.36 490.458 293.41 486.028 294.428C485.993 294.638 486.018 294.854 486.101 295.051C485.836 295.244 485.646 295.524 485.565 295.842C485.483 296.16 485.515 296.496 485.654 296.794C485.925 297.416 489.243 298.258 493.709 297.782C495.426 297.525 497.106 297.06 498.711 296.398C499.38 296.07 499.999 295.649 500.549 295.146C501.126 295.085 501.692 294.948 502.233 294.736L502.416 294.904L507.578 292.656C507.578 292.656 507.015 289.398 506.568 287.699C506.496 287.417 506.382 287.148 506.231 286.901C510.554 275.182 513.942 263.141 516.366 250.888C515.421 266.09 509.966 296.969 509.563 298.031C508.975 299.316 508.053 300.421 506.895 301.231C505.736 302.041 504.382 302.526 502.973 302.637C501.75 302.739 495.738 302.395 496.382 305.156C496.536 305.815 499.655 307.228 504.181 307.529C505.915 307.572 507.649 307.405 509.343 307.031C510.517 306.66 511.609 306.065 512.558 305.28L513.29 306.21L518.767 304.892C518.767 304.892 518.767 303.464 518.724 301.751C518.626 300.556 518.223 299.406 517.552 298.412L517.625 295.3L520.657 294.941C520.657 294.941 526.749 275.228 529.649 268.521C530.952 265.808 532.046 263 532.922 260.122C533.815 256.702 533.896 253.136 534.182 249.614C534.694 243.169 535.877 236.796 537.711 230.597C537.801 230.194 537.979 229.817 538.231 229.491C538.78 229.006 539.491 228.745 540.223 228.759C547.985 228.026 551.536 229.366 556.391 227.865C562.791 225.881 563.472 222.974 563.78 222.835C561.289 221.809 558.617 221.293 555.923 221.319Z" fill="#69A6DA"/>
<path d="M462.09 151.754C462.09 151.754 457.096 148.231 456.92 146.752C456.744 145.273 453.259 139.276 452.146 138.089C451.033 136.903 445.182 134.867 443.93 134.692C442.678 134.516 435.516 135.124 436.409 136.098C437.303 137.072 441.938 136.72 442.824 137.255L443.717 137.789C443.717 137.789 442.824 138.997 443.183 139.73C443.542 140.462 441.652 141.59 442.363 142.835C443.073 144.079 442.077 143.999 442.714 145.295C443.769 147.448 446.463 148.641 447.181 148.056C447.716 149.33 449.766 151.922 451.684 151.717C453.603 151.512 458.275 155.906 458.275 155.906" fill="#F9B8B0"/>
<path d="M538.194 126.695C538.363 130.049 538.129 135.885 539.088 136.749C540.047 137.613 543.145 137.482 543.145 137.482C543.145 137.482 532.073 151.512 531.062 150.721C530.052 149.93 516.973 139.276 519.917 138.727C522.861 138.177 525.775 138.294 525.658 136.771L525.409 132.202" fill="#F9B8B0"/>
<path d="M550.834 201.489C550.834 201.489 529.224 203.942 524.245 204.045C519.266 204.147 519.515 201.548 519.515 201.548C519.266 196.07 518.336 183.168 517.318 178.796C516.359 174.71 515.934 173.202 515.121 169.328C513.261 160.702 513.342 159.076 511.372 148.414L524.282 138.038C524.282 138.038 525.614 142.007 531.026 142.08C538.261 142.176 540.509 137.108 540.509 137.108L558.083 148.824L559.738 177.258L557.629 200.691" fill="#DC3326"/>
<path d="M538.443 123.686C538.052 125.374 537.543 127.033 536.92 128.651C535.778 131.616 534.094 132.685 530.96 132.759L524.369 132.92C522.678 132.964 520.569 133.015 519.199 131.829C517.83 130.642 517.815 128.665 517.515 127.04C517.129 124.95 516.817 122.851 516.578 120.742C516.104 116.61 515.909 112.451 515.992 108.294C515.987 107.721 516.036 107.15 516.138 106.587C516.172 106.357 516.271 106.141 516.424 105.965C516.649 105.783 516.926 105.675 517.215 105.657C521.35 105.006 525.537 104.739 529.722 104.859C532.651 104.947 535.807 105.291 538.143 107.093C540.479 108.894 541.614 111.867 542.617 114.672C542.778 115.118 542.895 115.719 542.507 115.997" fill="#F9B8B0"/>
<path d="M489.968 278.582C490.276 280.53 490.707 282.458 491.256 284.352C491.828 285.817 496.653 284.469 496.968 283.518C497.283 282.566 495.452 275.58 495.452 275.58" fill="#F9B8B0"/>
<path d="M498.652 284.726C499.07 286.307 499.597 289.354 499.597 289.354L494.779 291.455L493.988 290.723C493.242 291.599 492.335 292.322 491.315 292.854C489.818 293.473 488.252 293.908 486.65 294.15C482.447 294.604 479.328 293.813 479.101 293.227C478.054 290.789 483.641 290.137 484.747 289.844C486.02 289.511 487.181 288.844 488.11 287.912C489.04 286.98 489.704 285.817 490.033 284.543C490.282 283.269 489.96 283.042 490.678 283.078C490.907 283.086 491.132 283.14 491.34 283.237C491.547 283.333 491.733 283.471 491.886 283.642C492.305 284.113 492.859 284.443 493.473 284.586C494.086 284.729 494.729 284.678 495.313 284.44C496.015 284.155 496.611 283.658 497.019 283.02C497.431 283.108 497.807 283.317 498.098 283.622C498.389 283.926 498.582 284.31 498.652 284.726Z" fill="#0E254B"/>
<path d="M511.291 222.395C503.166 223.832 494.871 224.03 486.687 222.981C487.749 226.035 490.348 229.945 491.359 234.243C494.639 248.435 495.752 267.496 496.616 279.292C496.616 279.292 495.042 282.317 490.026 280.025C482.476 261.388 469.303 223.64 469.427 215.424C469.581 204.989 495.62 202.47 514.703 199.9" fill="#14426F"/>
<path d="M544.529 201.511C550.526 205.905 511.269 222.395 511.269 222.395C507.032 223.23 502.722 223.642 498.403 223.625C497.971 222.861 497.648 222.041 497.444 221.187C497.21 220.045 497.334 218.858 497.136 217.716C496.892 216.608 496.415 215.564 495.739 214.653C495.063 213.742 494.201 212.984 493.212 212.429C491.227 211.331 489.049 210.624 486.797 210.349C481.488 209.493 472.218 210.093 472.218 210.093C484.014 201.394 508.164 200.259 519.405 199.541C521.543 203.093 543.672 200.881 544.529 201.511Z" fill="#14426F"/>
<path d="M502.416 288.497C502.383 290.468 502.473 292.439 502.687 294.399C502.994 295.944 507.981 295.446 508.457 294.567C508.933 293.689 508.34 286.512 508.34 286.512" fill="#F9B8B0"/>
<path d="M509.9 296.054C510.039 297.687 510.024 300.77 510.024 300.77L504.898 302L504.247 301.129C503.36 301.861 502.341 302.415 501.244 302.761C499.663 303.112 498.045 303.27 496.426 303.23C492.208 302.945 489.294 301.634 489.147 301.033C488.54 298.456 494.156 298.778 495.291 298.683C496.603 298.576 497.862 298.122 498.94 297.366C500.017 296.611 500.873 295.581 501.42 294.384C501.881 293.169 501.611 292.92 502.306 293.059C502.528 293.102 502.738 293.19 502.925 293.315C503.113 293.441 503.273 293.603 503.397 293.791C503.728 294.327 504.217 294.747 504.797 294.994C505.376 295.24 506.018 295.301 506.634 295.168C507.375 295.008 508.048 294.621 508.56 294.062C508.96 294.218 509.303 294.492 509.542 294.848C509.782 295.204 509.906 295.625 509.9 296.054Z" fill="#0E254B"/>
<path d="M557.622 200.64C548.79 201.406 539.924 201.69 531.062 201.489C527.665 201.489 501.969 206.307 499.516 210.664C495.474 217.826 502.152 259.682 501.537 289.647C501.537 289.647 504.62 292.217 510.068 289.8C511.423 275.082 520.122 240.35 514.118 224.138C528.28 226.02 539.747 227.887 552.584 223.618C555.6 222.622 557.856 220.491 559.174 216.596C560.492 212.7 559.818 204.14 557.622 200.64Z" fill="#14426F"/>
<path d="M524.245 138.038C524.245 138.038 521.155 138.207 520.584 138.258C517.985 138.394 515.418 138.887 512.953 139.722C509.453 141.018 506.978 144.277 504.166 146.825C501.354 149.374 487.126 162.803 484.483 163.301C481.84 163.799 458.568 147.851 458.568 147.851L452.886 153.533C452.886 153.533 478.156 176.878 485.684 176.922C489.345 176.922 509.512 166.326 515.963 162.196L524.245 138.038Z" fill="#F1592B"/>
<g style="mix-blend-mode:multiply" opacity="0.25">
<path d="M485.72 172.433C480.528 172.726 456.723 154.551 453.962 152.427L452.856 153.533C452.856 153.533 478.127 176.878 485.654 176.922C488.701 176.922 503.229 169.599 511.694 164.722L513.89 163.448L512.572 155.598C512.572 155.598 491.234 172.118 485.72 172.433Z" fill="#CF4B2F"/>
</g>
<path d="M461.497 205.311H519.346L508.94 171.503C508.663 170.594 508.102 169.797 507.339 169.23C506.576 168.664 505.651 168.357 504.701 168.354H454.043C453.592 168.355 453.148 168.461 452.746 168.665C452.344 168.868 451.996 169.163 451.728 169.525C451.46 169.887 451.281 170.307 451.205 170.751C451.129 171.195 451.158 171.65 451.289 172.081L461.497 205.311Z" fill="#14426F"/>
<path d="M460.765 205.311H517.728L507.344 171.503C507.065 170.594 506.502 169.798 505.738 169.233C504.973 168.667 504.048 168.362 503.097 168.361H452.446C451.996 168.362 451.552 168.469 451.15 168.672C450.748 168.875 450.399 169.17 450.132 169.532C449.864 169.894 449.685 170.314 449.609 170.758C449.533 171.202 449.561 171.658 449.693 172.089L459.63 204.477C459.704 204.72 459.854 204.932 460.059 205.082C460.263 205.233 460.511 205.313 460.765 205.311Z" fill="#14426F"/>
<g style="mix-blend-mode:multiply" opacity="0.25">
<g style="mix-blend-mode:multiply" opacity="0.25">
<path d="M549.684 154.331C546.806 167.343 546.293 177.529 545.481 186.836C535.375 190.761 531.26 196.598 521.367 200.998C521.367 200.998 513.561 199.702 512.741 202.646C512.265 204.345 521.88 205.7 521.88 205.7C531.048 205.744 555.212 199.043 556.853 198.597C558.493 198.15 563.253 167.424 563.443 150.75C563.443 148.385 563.385 145.815 561.905 143.962C561.077 143.029 560.062 142.28 558.925 141.765C552.474 138.47 547.699 137.57 540.472 137.108" fill="#CF4B2F"/>
</g>
</g>
<path d="M522.736 203.02C521.652 201.65 519.668 201.452 517.925 201.496C516.632 201.528 515.341 201.63 514.059 201.804C513.473 201.884 512.807 202.016 512.741 202.653C512.675 203.29 515.575 202.653 517.09 203.093C514.117 203.347 511.132 203.428 508.149 203.334C507.804 203.299 507.455 203.333 507.124 203.437C506.96 203.493 506.816 203.599 506.713 203.738C506.61 203.878 506.551 204.047 506.546 204.22C506.589 204.492 506.736 204.736 506.956 204.901C507.846 205.592 508.911 206.021 510.031 206.139C514.593 206.937 519.382 206.798 523.622 204.938" fill="#F9B8B0"/>
<path d="M549.054 154.089C548.82 168.002 547.831 174.373 548.102 188.279C541.116 189.743 531.45 197.681 521.557 202.082C521.231 203.289 521.348 204.572 521.887 205.7C522.619 205.978 555.249 198.04 557.841 195.646C560.177 193.493 563.26 167.417 563.45 150.743C563.45 148.378 563.392 145.807 561.912 143.955C561.084 143.022 560.069 142.273 558.932 141.758C552.481 138.463 547.707 137.562 540.479 137.101" fill="#F1592B"/>
<path opacity="0.45" d="M490.15 187.393C490.356 190.322 486.855 192.76 482.323 192.76C477.79 192.76 473.945 190.388 473.748 187.393C473.55 184.398 477.043 182.025 481.576 182.025C486.108 182.025 489.945 184.464 490.15 187.393Z" fill="white"/>
<path d="M487.126 187.393C487.258 189.041 485.032 190.381 482.154 190.381C479.277 190.381 476.838 189.041 476.706 187.393C476.574 185.745 478.801 184.405 481.678 184.405C484.556 184.405 487.024 185.775 487.126 187.393Z" fill="white"/>
<path d="M543.716 111.237C543.583 110.082 543.37 108.936 543.079 107.81C542.721 106.337 542.062 104.953 541.142 103.748C540.221 102.543 539.061 101.543 537.733 100.81C533.986 98.9437 529.685 98.5164 525.643 99.6089C523.447 100.231 522.612 101.396 521.47 101.359C520.598 101.359 519.507 100.744 518.372 100.341C509.724 97.2363 511.174 105.701 512.097 108.023C512.507 109.048 514.462 109.802 514.725 110.219C514.989 110.637 514.96 112.738 515.121 113.661C515.186 113.944 515.318 114.206 515.505 114.428C515.693 114.649 515.93 114.823 516.197 114.935C516.197 114.935 516.249 112.211 516.292 111.838C516.309 111.345 516.431 110.862 516.651 110.421C516.871 109.98 517.183 109.591 517.567 109.282C518.533 108.781 519.593 108.485 520.679 108.411C521.748 108.22 526.713 109.143 527.042 109.465C528.66 110.849 529.07 114.013 529.524 115.873C529.737 116.744 529.956 117.337 530.308 117.337C530.579 114.781 531.465 114.716 532.995 115.587C533.816 116.056 534.27 117.674 534.299 119.051C534.299 120.676 533.427 122.47 531.721 122.829C531.114 122.961 532.951 126.454 533.808 127.325C534.08 127.615 534.387 127.868 534.724 128.079C535.051 128.255 535.401 128.386 535.763 128.467L537.001 128.804C537.544 129.005 538.131 129.055 538.7 128.951C539.615 128.694 540.091 127.728 540.508 126.871C541.182 125.465 541.973 124.111 542.515 122.653C543.793 118.992 544.204 115.084 543.716 111.237Z" fill="#14426F"/>
<defs>
<linearGradient id="paint0_linear" x1="215.331" y1="133.264" x2="310.716" y2="298.47" gradientUnits="userSpaceOnUse">
<stop stop-color="#00ADE5"/>
<stop offset="1" stop-color="#1E4394"/>
</linearGradient>
<linearGradient id="paint1_linear" x1="223.694" y1="162.84" x2="298.949" y2="293.191" gradientUnits="userSpaceOnUse">
<stop stop-color="#00B3CE"/>
<stop offset="0.14" stop-color="#00B0D4"/>
<stop offset="0.56" stop-color="#00ABDF"/>
<stop offset="1" stop-color="#00A9E3"/>
</linearGradient>
<linearGradient id="paint2_linear" x1="57329.3" y1="70372.7" x2="69205.5" y2="83892.8" gradientUnits="userSpaceOnUse">
<stop stop-color="#00ADE5"/>
<stop offset="1" stop-color="#1E4394"/>
</linearGradient>
<linearGradient id="paint3_linear" x1="72550.7" y1="84071.9" x2="149146" y2="155768" gradientUnits="userSpaceOnUse">
<stop stop-color="#FBFEFF"/>
<stop offset="1" stop-color="#1E4394"/>
</linearGradient>
<linearGradient id="paint4_linear" x1="33262.9" y1="90237.7" x2="72003.1" y2="108811" gradientUnits="userSpaceOnUse">
<stop stop-color="#14426F"/>
<stop offset="0.14" stop-color="#00B0D4"/>
<stop offset="0.56" stop-color="#00ABDF"/>
<stop offset="1" stop-color="#00A9E3"/>
</linearGradient>
<linearGradient id="paint5_linear" x1="34929.4" y1="57834.5" x2="44761.5" y2="69535.3" gradientUnits="userSpaceOnUse">
<stop stop-color="#00ADE5"/>
<stop offset="1" stop-color="#1E4394"/>
</linearGradient>
<linearGradient id="paint6_linear" x1="8920.44" y1="47513.6" x2="12222.3" y2="48727.2" gradientUnits="userSpaceOnUse">
<stop stop-color="#00B3CE"/>
<stop offset="0.14" stop-color="#00B0D4"/>
<stop offset="0.56" stop-color="#00ABDF"/>
<stop offset="1" stop-color="#00A9E3"/>
</linearGradient>
<linearGradient id="paint7_linear" x1="24639.3" y1="60122.1" x2="30208.9" y2="63464.6" gradientUnits="userSpaceOnUse">
<stop stop-color="#00B3CE"/>
<stop offset="0.14" stop-color="#00B0D4"/>
<stop offset="0.56" stop-color="#00ABDF"/>
<stop offset="1" stop-color="#00A9E3"/>
</linearGradient>
<linearGradient id="paint8_linear" x1="5658.39" y1="53956.7" x2="11337.4" y2="57666.1" gradientUnits="userSpaceOnUse">
<stop stop-color="#0E254B"/>
<stop offset="0.14" stop-color="#00B0D4"/>
<stop offset="0.56" stop-color="#00ABDF"/>
<stop offset="1" stop-color="#00A9E3"/>
</linearGradient>
<linearGradient id="paint9_linear" x1="17251.1" y1="51899.6" x2="21590.7" y2="56839.1" gradientUnits="userSpaceOnUse">
<stop stop-color="#00ADE5"/>
<stop offset="1" stop-color="#1E4394"/>
</linearGradient>
<linearGradient id="paint10_linear" x1="19610.3" y1="89457" x2="47597.5" y2="115653" gradientUnits="userSpaceOnUse">
<stop stop-color="#00ADE5"/>
<stop offset="1" stop-color="#1E4394"/>
</linearGradient>
<linearGradient id="paint11_linear" x1="9201.72" y1="82169" x2="23359.4" y2="88957.7" gradientUnits="userSpaceOnUse">
<stop stop-color="#00B3CE"/>
<stop offset="0.14" stop-color="#00B0D4"/>
<stop offset="0.56" stop-color="#00ABDF"/>
<stop offset="1" stop-color="#00A9E3"/>
</linearGradient>
<linearGradient id="paint12_linear" x1="9608.01" y1="42114" x2="13201.6" y2="46390" gradientUnits="userSpaceOnUse">
<stop stop-color="#FDFEFF"/>
<stop offset="1" stop-color="#1E4394"/>
</linearGradient>
<linearGradient id="paint13_linear" x1="2515.33" y1="33548" x2="3721.02" y2="33990.7" gradientUnits="userSpaceOnUse">
<stop stop-color="#00B3CE"/>
<stop offset="0.14" stop-color="#00B0D4"/>
<stop offset="0.56" stop-color="#00ABDF"/>
<stop offset="1" stop-color="#00A9E3"/>
</linearGradient>
<linearGradient id="paint14_linear" x1="7459.61" y1="42937" x2="9494.42" y2="44158.3" gradientUnits="userSpaceOnUse">
<stop stop-color="#00B3CE"/>
<stop offset="0.14" stop-color="#00B0D4"/>
<stop offset="0.56" stop-color="#00ABDF"/>
<stop offset="1" stop-color="#00A9E3"/>
</linearGradient>
<linearGradient id="paint15_linear" x1="113069" y1="40597.9" x2="186223" y2="40597.9" gradientUnits="userSpaceOnUse">
<stop stop-color="#FE5722"/>
<stop offset="1" stop-color="#1E4394"/>
</linearGradient>
<linearGradient id="paint16_linear" x1="145528" y1="40835.1" x2="218682" y2="40835.1" gradientUnits="userSpaceOnUse">
<stop stop-color="#FE5722"/>
<stop offset="1" stop-color="#1E4394"/>
</linearGradient>
<linearGradient id="paint17_linear" x1="1000.78" y1="4435.2" x2="1091.65" y2="4435.2" gradientUnits="userSpaceOnUse">
<stop stop-color="white"/>
<stop offset="0.14" stop-color="#00B0D4"/>
<stop offset="0.56" stop-color="#00ABDF"/>
<stop offset="1" stop-color="#00A9E3"/>
</linearGradient>
<linearGradient id="paint18_linear" x1="1163.76" y1="3914.95" x2="1229.18" y2="3914.95" gradientUnits="userSpaceOnUse">
<stop stop-color="white"/>
<stop offset="0.14" stop-color="#00B0D4"/>
<stop offset="0.56" stop-color="#00ABDF"/>
<stop offset="1" stop-color="#00A9E3"/>
</linearGradient>
<linearGradient id="paint19_linear" x1="1105.77" y1="3383.32" x2="1163.85" y2="3383.32" gradientUnits="userSpaceOnUse">
<stop stop-color="white"/>
<stop offset="0.14" stop-color="#00B0D4"/>
<stop offset="0.56" stop-color="#00ABDF"/>
<stop offset="1" stop-color="#00A9E3"/>
</linearGradient>
<linearGradient id="paint20_linear" x1="2297.89" y1="13141.3" x2="2844.75" y2="13141.3" gradientUnits="userSpaceOnUse">
<stop stop-color="white"/>
<stop offset="0.14" stop-color="#00B0D4"/>
<stop offset="0.56" stop-color="#00ABDF"/>
<stop offset="1" stop-color="#00A9E3"/>
</linearGradient>
<linearGradient id="paint21_linear" x1="2300.65" y1="12842.2" x2="2847.99" y2="12842.2" gradientUnits="userSpaceOnUse">
<stop stop-color="#FBFEFF"/>
<stop offset="0.14" stop-color="#00B0D4"/>
<stop offset="0.56" stop-color="#00ABDF"/>
<stop offset="1" stop-color="#00A9E3"/>
</linearGradient>
<linearGradient id="paint22_linear" x1="1888.2" y1="5585.31" x2="2104" y2="5585.31" gradientUnits="userSpaceOnUse">
<stop stop-color="white"/>
<stop offset="0.14" stop-color="#00B0D4"/>
<stop offset="0.56" stop-color="#00ABDF"/>
<stop offset="1" stop-color="#00A9E3"/>
</linearGradient>
<linearGradient id="paint23_linear" x1="497.071" y1="243.353" x2="560.873" y2="353.859" gradientUnits="userSpaceOnUse">
<stop stop-color="#EF4136"/>
<stop offset="1" stop-color="#F78F47"/>
</linearGradient>
<linearGradient id="paint24_linear" x1="139060" y1="26125.4" x2="140468" y2="35630.7" gradientUnits="userSpaceOnUse">
<stop stop-color="#00ADE5"/>
<stop offset="1" stop-color="#1E4394"/>
</linearGradient>
</defs>
</svg>
