<svg width="64" height="64" viewBox="0 0 64 64" fill="none" xmlns="http://www.w3.org/2000/svg">
<circle cx="32" cy="32" r="32" fill="#FE5722"/>
<path d="M49.0316 15H16.6947C15.98 15 15.2946 15.2839 14.7893 15.7893C14.2839 16.2946 14 16.98 14 17.6947V36.5579C14 37.2726 14.2839 37.958 14.7893 38.4634C15.2946 38.9687 15.98 39.2526 16.6947 39.2526H27.4737V40.6C27.4793 40.8515 27.5201 41.1009 27.5949 41.3411L23.7011 46.5284C23.5949 46.67 23.5176 46.831 23.4737 47.0024C23.4298 47.1739 23.4201 47.3522 23.4451 47.5274C23.4701 47.7025 23.5294 47.8711 23.6196 48.0233C23.7097 48.1756 23.829 48.3086 23.9705 48.4147C24.1121 48.5209 24.2732 48.5981 24.4446 48.6421C24.616 48.686 24.7943 48.6957 24.9695 48.6707C25.1447 48.6456 25.3132 48.5864 25.4654 48.4962C25.6177 48.4061 25.7507 48.2868 25.8568 48.1453L29.5486 43.2139C29.7514 43.2648 29.9594 43.2919 30.1684 43.2947H31.5158V47.3368C31.5158 47.6942 31.6577 48.0369 31.9104 48.2896C32.1631 48.5423 32.5058 48.6842 32.8632 48.6842C33.2205 48.6842 33.5632 48.5423 33.8159 48.2896C34.0686 48.0369 34.2105 47.6942 34.2105 47.3368V43.2947H35.5579C35.7669 43.2919 35.9749 43.2648 36.1777 43.2139L39.8695 48.1453C40.0839 48.4311 40.4031 48.6201 40.7568 48.6707C41.1106 48.7212 41.4699 48.6291 41.7558 48.4147C42.0417 48.2003 42.2307 47.8811 42.2812 47.5274C42.3317 47.1736 42.2397 46.8143 42.0253 46.5284L38.1314 41.3411C38.2062 41.1009 38.247 40.8515 38.2526 40.6V39.2526H49.0316C49.7463 39.2526 50.4317 38.9687 50.937 38.4634C51.4424 37.958 51.7263 37.2726 51.7263 36.5579V17.6947C51.7263 16.98 51.4424 16.2946 50.937 15.7893C50.4317 15.2839 49.7463 15 49.0316 15ZM16.6947 17.6947H49.0316V19.0421H16.6947V17.6947ZM35.5579 40.6H30.1684V39.2526H35.5579V40.6ZM36.9053 36.5579H16.6947V21.7368H49.0316V36.5579H36.9053Z" fill="#F2F2F2"/>
</svg>
