<svg width="64" height="64" viewBox="0 0 64 64" fill="none" xmlns="http://www.w3.org/2000/svg">
<circle cx="32" cy="32" r="32" fill="#FE5722"/>
<path d="M44.9895 29.3436C44.9935 29.2853 44.9935 29.2267 44.9895 29.1684V18.3895C44.9895 17.6748 44.7056 16.9894 44.2002 16.484C43.6948 15.9786 43.0094 15.6947 42.2947 15.6947H40.9474C40.2327 15.6947 39.5473 15.9786 39.0419 16.484C38.5365 16.9894 38.2526 17.6748 38.2526 18.3895V18.8611C37.8167 18.607 37.3669 18.3775 36.9053 18.1739V17.0421C36.9053 15.9701 36.4794 14.9419 35.7214 14.1839C34.9633 13.4259 33.9352 13 32.8632 13H30.1684C29.0964 13 28.0683 13.4259 27.3102 14.1839C26.5522 14.9419 26.1263 15.9701 26.1263 17.0421V18.1739C25.6647 18.3775 25.2148 18.607 24.7789 18.8611V18.3895C24.7789 17.6748 24.495 16.9894 23.9897 16.484C23.4843 15.9786 22.7989 15.6947 22.0842 15.6947H20.7368C20.0222 15.6947 19.3367 15.9786 18.8314 16.484C18.326 16.9894 18.0421 17.6748 18.0421 18.3895V29.1684C18.0376 29.2267 18.0376 29.2853 18.0421 29.3436C16.8859 29.6421 15.8616 30.3162 15.13 31.26C14.3983 32.2037 14.0009 33.3638 14 34.5579V45.3368C14 46.0515 14.2839 46.7369 14.7893 47.2423C15.2946 47.7477 15.98 48.0316 16.6947 48.0316H18.2846C18.5626 48.8178 19.077 49.4989 19.7572 49.9813C20.4375 50.4637 21.2503 50.724 22.0842 50.7263H40.9474C41.7813 50.724 42.5941 50.4637 43.2744 49.9813C43.9546 49.4989 44.469 48.8178 44.7469 48.0316H46.3368C47.0515 48.0316 47.7369 47.7477 48.2423 47.2423C48.7477 46.7369 49.0316 46.0515 49.0316 45.3368V34.5579C49.0307 33.3638 48.6332 32.2037 47.9016 31.26C47.17 30.3162 46.1457 29.6421 44.9895 29.3436ZM46.3368 34.5579H44.9895V32.2269C45.3987 32.4632 45.7386 32.803 45.9751 33.2121C46.2116 33.6212 46.3364 34.0853 46.3368 34.5579ZM41.9309 31.6611L41.5806 31.3512L41.2303 31.0817L40.8531 30.7987L40.4758 30.5158L40.0851 30.2733L39.6 30.1251L39.1823 29.9229L38.7242 29.7478L38.32 29.5996L37.808 29.4648L37.4173 29.3705L36.9053 29.2762H36.5684C36.2338 29.2221 35.8964 29.1862 35.5579 29.1684H27.4737C27.1505 29.1518 26.8267 29.1518 26.5036 29.1684H26.1667L25.5604 29.2627L25.1697 29.3571L24.6577 29.4918L24.2535 29.64L23.7954 29.8152L23.3777 30.0173L22.96 30.2194L22.5558 30.5158L22.1785 30.7583L21.8013 31.0413L21.4509 31.3107L21.1006 31.6206L20.7368 31.9709V30.5158C20.737 30.1151 20.7595 29.7148 20.8042 29.3166C20.9103 28.3928 21.1367 27.4869 21.4779 26.6219V26.4872C21.5722 26.2446 21.6935 26.0021 21.8147 25.7731L21.9091 25.5844C22.0303 25.3554 22.1651 25.1263 22.2998 24.9107L22.4076 24.7221C22.5558 24.5065 22.704 24.2909 22.8657 24.0754L22.9869 23.9137C23.1486 23.6981 23.3238 23.496 23.5124 23.2939L23.6337 23.1726C23.8223 22.975 24.0199 22.7819 24.2265 22.5933C26.2104 20.7906 28.7948 19.7918 31.4754 19.7918C34.1559 19.7918 36.7403 20.7906 38.7242 22.5933C38.9308 22.7819 39.1284 22.975 39.3171 23.1726L39.4383 23.2939C39.6269 23.496 39.8021 23.6981 39.9638 23.9137L40.0851 24.0754C40.2467 24.2909 40.3949 24.4931 40.5432 24.7221L40.6509 24.9107C40.7857 25.1263 40.9204 25.3554 41.0417 25.5844L41.136 25.7731C41.2573 26.0156 41.3651 26.2446 41.4728 26.4872V26.6219C41.814 27.4869 42.0405 28.3928 42.1465 29.3166C42.2183 29.7133 42.2678 30.1136 42.2947 30.5158V32.0114L41.9309 31.6611ZM40.9474 18.3895H42.2947V22.4316L42.2139 22.3373C41.8258 21.832 41.4026 21.3548 40.9474 20.9091V18.3895ZM28.8211 17.0421C28.8211 16.6848 28.963 16.3421 29.2157 16.0894C29.4684 15.8367 29.8111 15.6947 30.1684 15.6947H32.8632C33.2205 15.6947 33.5632 15.8367 33.8159 16.0894C34.0686 16.3421 34.2105 16.6848 34.2105 17.0421H28.8211ZM20.7368 18.3895H22.0842V20.9091C21.6285 21.3591 21.2053 21.8409 20.8177 22.3507L20.7368 22.4316V18.3895ZM18.0421 32.2269V34.5579H16.6947C16.6952 34.0853 16.82 33.6212 17.0565 33.2121C17.2929 32.803 17.6329 32.4632 18.0421 32.2269ZM16.6947 37.2526H18.0421V45.3368H16.6947V37.2526ZM40.9474 48.0316H22.0842C21.7269 48.0316 21.3842 47.8896 21.1315 47.6369C20.8788 47.3843 20.7368 47.0416 20.7368 46.6842V38.6C20.7368 36.8133 21.4466 35.0997 22.71 33.8363C23.9734 32.5729 25.687 31.8632 27.4737 31.8632H35.5579C36.4426 31.8632 37.3186 32.0374 38.136 32.376C38.9533 32.7145 39.696 33.2108 40.3216 33.8363C40.9471 34.4619 41.4434 35.2046 41.7819 36.0219C42.1205 36.8393 42.2947 37.7153 42.2947 38.6V46.6842C42.2947 47.0416 42.1528 47.3843 41.9001 47.6369C41.6474 47.8896 41.3047 48.0316 40.9474 48.0316ZM46.3368 45.3368H44.9895V37.2526H46.3368V45.3368Z" fill="#F2F2F2"/>
<path d="M34.2105 23.7789H28.821C28.4637 23.7789 28.1209 23.9209 27.8683 24.1736C27.6156 24.4262 27.4736 24.769 27.4736 25.1263C27.4736 25.4836 27.6156 25.8264 27.8683 26.079C28.1209 26.3317 28.4637 26.4737 28.821 26.4737H34.2105C34.5678 26.4737 34.9105 26.3317 35.1632 26.079C35.4159 25.8264 35.5578 25.4836 35.5578 25.1263C35.5578 24.769 35.4159 24.4262 35.1632 24.1736C34.9105 23.9209 34.5678 23.7789 34.2105 23.7789Z" fill="#F2F2F2"/>
</svg>
