<svg width="813" height="728" viewBox="0 0 813 728" fill="none" xmlns="http://www.w3.org/2000/svg">
<g opacity="0.35">
<path opacity="0.35" d="M440.606 778.84C465.291 724.562 455.643 692.494 459.904 647.198C465.118 591.868 470.198 552.83 515.063 516.341C588.4 456.758 749.564 288.391 565.094 161.884C499.042 116.603 406.893 124.639 327.499 144.106C259.94 160.664 204.798 117.432 154.119 89.5489C91.8555 55.2941 22.9205 26.3753 -48.9531 10.4852C-197.098 -22.3481 -299.043 31.3393 -388.279 137.504C-415.237 169.574 -455.661 221.945 -460.671 321.669C-467.437 456.264 -384.842 550.173 -241.985 615.38C-209.283 630.313 -173.782 639.37 -140.168 652.456C-105.202 666.072 -72.398 683.989 -42.4307 705.84C27.3605 756.785 82.0049 829.073 162.24 863.321C204.923 881.463 252.67 887.813 301.026 881.778C361.094 874.2 414.613 836.139 440.606 778.84Z" fill="white"/>
</g>
</svg>
