<svg width="782" height="718" viewBox="0 0 782 718" fill="none" xmlns="http://www.w3.org/2000/svg">
<path d="M801.635 0.935547H0.833313V717.206H801.635V0.935547Z" fill="url(#paint0_linear)"/>
<path d="M357.505 447.188H308.887C308.887 421.528 291.711 396.252 278.894 374.695L277.675 372.609C266.617 353.807 252.251 336.353 247.992 314.481C246.762 308.125 246.533 301.238 249.552 295.492C252.771 289.362 259.319 285.407 266.128 283.685C347.107 263.289 364.023 369.726 357.505 447.188Z" fill="url(#paint1_linear)"/>
<path d="M336.6 447.188H334.511C334.278 436.331 333.235 425.505 331.392 414.798C329.231 401.89 326.011 389.176 321.764 376.781C313.318 351.898 300.351 328.733 283.493 308.41C282.104 306.669 283.333 305.744 284.793 307.279C303.376 326.775 317.424 350.018 325.963 375.393C330.263 388.044 333.3 401.076 335.031 414.306C336.502 425.203 337.027 436.203 336.6 447.188Z" fill="url(#paint2_linear)"/>
<path d="M444.214 447.188H493.701C493.701 384.75 565.443 323.434 511.357 316.783C492.102 314.412 478.365 324.123 468.578 339.216C444.214 376.682 444.214 447.188 444.214 447.188Z" fill="url(#paint3_linear)"/>
<path d="M390.097 447.188H450.852C460.749 357.26 458.05 131.812 325.723 153.989C224.138 170.932 387.448 300.805 390.097 447.188Z" fill="url(#paint4_linear)"/>
<path d="M356.835 203.616C364.723 212.558 371.595 222.32 377.33 232.73C383.145 243.073 388.126 253.851 392.226 264.962C396.434 276.046 400.022 287.348 402.974 298.817C405.973 310.29 408.492 321.88 410.522 333.578C414.592 356.993 417.369 380.608 418.84 404.32C419.77 418.616 420.359 432.852 420.489 447.198H424.628C425.168 432.823 425.138 418.429 424.628 404.025C423.79 380.012 421.288 356.084 417.14 332.407C415.061 320.601 412.351 308.794 409.142 297.194C405.969 285.549 402.059 274.11 397.435 262.945C395.236 257.327 392.566 251.866 389.947 246.416C387.068 241.073 384.318 235.691 381.019 230.604C374.74 220.229 367.251 210.61 358.705 201.944C356.105 199.218 354.376 200.734 356.835 203.616Z" fill="url(#paint5_linear)"/>
<path d="M342.309 447.188H392.726C392.726 447.188 406.013 342.63 348.957 342.718C297.02 342.738 331.722 407.34 342.309 447.188Z" fill="url(#paint6_linear)"/>
<path d="M357.345 368.516C364.843 392.031 368.022 416.667 369.792 441.196C369.902 443.164 370.002 445.2 370.112 447.188H374.511C374.431 445.062 374.331 442.977 374.181 440.891C372.351 416.087 368.182 391.175 358.875 367.926C358.105 366.125 356.695 366.676 357.345 368.516Z" fill="url(#paint7_linear)"/>
<path d="M463.139 447.188H466.308C467.468 437.713 468.928 428.238 470.737 418.871C473.416 405.778 476.986 392.876 481.424 380.254C482.614 377.115 483.964 374.055 485.204 370.966C485.853 369.421 486.423 367.857 487.153 366.332L489.423 361.865L491.672 357.369C492.371 355.851 493.173 354.382 494.071 352.971L499.4 344.421C500.51 342.669 499.62 341.951 498.4 343.702L492.612 352.065C491.636 353.456 490.76 354.912 489.992 356.424L487.503 360.871L485.074 365.407C484.294 366.893 483.674 368.467 482.934 370.011C481.584 373.121 480.125 376.18 478.855 379.329C473.995 391.992 470.187 405.022 467.468 418.291C465.588 427.848 464.145 437.48 463.139 447.188Z" fill="url(#paint8_linear)"/>
<path d="M157.155 486.356H127.772C127.772 470.85 117.394 455.561 109.636 442.534L108.907 441.274C102.218 429.911 93.5304 419.363 90.961 406.14C90.2312 402.293 90.0712 398.131 91.9008 394.658C93.9003 390.949 97.8093 388.577 101.898 387.535C150.896 375.197 161.154 439.533 157.155 486.356Z" fill="#FBFEFF"/>
<path d="M144.528 486.356H143.268C143.129 479.796 142.498 473.255 141.379 466.787C140.067 458.975 138.111 451.282 135.53 443.783C130.421 428.746 122.582 414.745 112.396 402.46C111.546 401.407 112.296 400.856 113.175 401.781C124.413 413.565 132.907 427.616 138.069 442.957C140.681 450.603 142.526 458.482 143.578 466.482C144.468 473.068 144.786 479.717 144.528 486.356Z" fill="url(#paint9_linear)"/>
<path d="M209.582 486.356H239.484C239.484 448.614 282.873 411.581 250.152 407.537C238.514 406.101 230.217 411.974 224.288 421.095C209.582 443.744 209.582 486.356 209.582 486.356Z" fill="url(#paint10_linear)"/>
<path d="M176.84 486.356H213.561C219.559 431.987 217.91 295.708 137.909 309.119C76.5446 319.361 175.27 397.865 176.84 486.356Z" fill="url(#paint11_linear)"/>
<path d="M156.755 339.117C161.531 344.519 165.688 350.422 169.152 356.719C172.663 362.961 175.672 369.465 178.149 376.171C180.7 382.875 182.87 389.714 184.648 396.655C186.447 403.542 187.987 410.587 189.207 417.661C191.661 431.808 193.33 446.076 194.205 460.401C194.765 469.05 195.115 477.698 195.205 486.346H197.744C198.074 477.659 198.054 468.951 197.744 460.244C197.236 445.729 195.723 431.265 193.216 416.953C191.956 409.79 190.286 402.686 188.377 395.671C186.455 388.645 184.088 381.744 181.289 375.01C179.949 371.615 178.369 368.309 176.76 365.013C175.15 361.717 173.361 358.53 171.361 355.46C167.572 349.186 163.049 343.371 157.884 338.134C156.305 336.441 155.295 337.425 156.755 339.117Z" fill="url(#paint12_linear)"/>
<path d="M105.357 488.422H135.83C135.83 488.422 143.888 425.217 109.376 425.257C77.9942 425.286 98.959 464.347 105.357 488.422Z" fill="url(#paint13_linear)"/>
<path d="M157.065 438.766C161.593 452.983 163.523 467.879 164.593 482.716L164.783 486.317H167.432C167.382 485.038 167.322 483.778 167.242 482.509C166.122 467.525 163.583 452.481 157.984 438.411C157.484 437.349 156.685 437.693 157.065 438.766Z" fill="url(#paint14_linear)"/>
<path d="M221.029 486.356H222.938C223.668 480.591 224.528 474.904 225.618 469.237C227.229 461.322 229.386 453.524 232.076 445.899C232.806 443.99 233.606 442.15 234.366 440.281C234.755 439.297 235.095 438.402 235.545 437.477L236.915 434.781L238.275 432.065C238.706 431.151 239.193 430.264 239.734 429.409L242.963 424.243C243.633 423.191 243.093 422.748 242.334 423.83L238.834 428.868C238.245 429.711 237.714 430.592 237.245 431.504L235.745 434.2L234.286 436.896C233.806 437.801 233.436 438.746 232.996 439.681C232.176 441.56 231.296 443.409 230.526 445.308C227.588 452.963 225.288 460.841 223.648 468.863C222.488 474.661 221.615 480.492 221.029 486.356Z" fill="url(#paint15_linear)"/>
<path d="M262.449 336.628C249.452 329.83 231.226 357.477 231.226 357.477C237.485 338.665 258.559 290.297 240.224 278.323C225.348 268.602 209.082 287.306 203.623 301.818C208.012 285.092 226.197 233.035 208.712 226.059C193.426 219.988 182.238 244.684 180.129 258.99C178.319 244.153 176.03 193.876 147.917 200.37C120.824 207.257 136.31 253.5 143.448 270.373C135.32 260.367 114.955 239.873 104.368 255.743C87.2019 281.531 151.836 323.474 151.836 323.474C151.836 323.474 113.055 311.057 113.345 334.405C113.765 367.453 152.786 384.337 181.479 386.128C140.489 382.605 144.418 419.826 173.59 434.397C198.144 446.637 228.047 444.669 251.051 429.911C266.498 413.716 282.234 346.969 262.449 336.628Z" fill="#FBFEFF"/>
<path d="M246.682 380.49C245.023 385.577 243.133 390.555 241.044 395.475C239.445 399.208 237.629 402.848 235.605 406.376C222.875 390.146 211.329 373.049 201.054 355.214C204.342 350.652 207.395 345.93 210.201 341.066C213.201 335.723 216.05 330.046 218.609 324.339C221.169 318.633 223.418 312.808 225.428 306.984C227.469 301.162 229.178 295.233 230.546 289.224C228.964 295.155 227.041 300.992 224.788 306.708C222.588 312.474 220.122 318.108 217.39 323.611C214.66 329.111 211.621 334.572 208.392 339.678C205.619 344.057 202.615 348.29 199.394 352.361C191.371 338.369 184.217 323.912 177.969 309.069C180.953 303.638 183.643 298.055 186.027 292.343C187.377 289.392 188.407 286.312 189.617 283.331C190.616 280.251 191.816 277.201 192.756 274.132C194.655 268.032 196.515 261.774 198.034 255.516C199.554 249.259 200.914 242.992 201.854 236.665C200.694 242.942 199.124 249.141 197.405 255.29C195.685 261.439 193.606 267.569 191.546 273.531C190.546 276.483 189.257 279.435 188.127 282.475C186.807 285.358 185.688 288.378 184.258 291.182C181.962 296.144 179.399 300.982 176.58 305.675C165.093 276.495 156.251 246.372 150.156 215.659C155.473 246.656 163.559 277.13 174.32 306.728C169.089 305.428 163.981 303.687 159.054 301.523C153.119 298.895 147.403 295.812 141.958 292.304C136.276 288.623 130.84 284.588 125.682 280.222C120.294 275.652 115.233 270.721 110.536 265.464C115.097 270.936 120.031 276.097 125.302 280.911C130.389 285.507 135.769 289.779 141.408 293.701C146.841 297.47 152.563 300.815 158.524 303.707C163.999 306.344 169.713 308.472 175.59 310.063C181.958 325.294 188.667 339.846 196.145 354.584C191.188 355.761 186.097 356.3 180.999 356.188C174.804 355.97 168.652 355.086 162.653 353.551C156.316 351.941 150.128 349.805 144.158 347.166C137.894 344.417 131.875 341.159 126.162 337.425C131.844 341.404 137.846 344.922 144.108 347.943C150.056 350.841 156.239 353.247 162.593 355.135C168.675 356.946 174.941 358.088 181.279 358.539C186.746 358.879 192.235 358.485 197.595 357.369C207.468 375.618 218.64 393.159 231.026 409.859C226.489 411.099 221.869 412.023 217.2 412.624C211.172 413.374 205.099 413.703 199.024 413.608C192.746 413.518 186.479 413.048 180.259 412.201C173.809 411.307 167.426 409.993 161.154 408.265C167.446 410.255 173.865 411.833 180.369 412.988C186.649 414.101 192.993 414.837 199.364 415.192C205.539 415.528 211.73 415.426 217.89 414.887C222.97 414.433 228.01 413.608 232.966 412.417C247.646 431.935 263.956 450.213 281.724 467.062L287.032 461.375C269.107 445.221 252.559 427.645 237.555 408.826C239.61 404.835 241.426 400.728 242.993 396.527C244.863 391.441 246.562 386.265 247.992 381.041C249.422 375.816 250.761 370.562 251.931 365.299C253.101 360.035 254.191 354.781 255.05 349.556C253.971 354.761 252.661 359.956 251.271 365.112C249.882 370.267 248.332 375.413 246.682 380.49Z" fill="#14426F"/>
<path d="M544.279 359.691C555.796 347.382 586.329 370.513 586.329 370.513C572.192 352.4 530.422 307.761 545.699 287.867C558.095 271.682 583.039 285.899 594.686 299.595C583.409 283.026 543.339 233.31 559.695 219.162C573.952 206.794 595.686 229.434 603.624 244.172C599.795 227.367 582.699 171.827 615.821 168.275C647.993 165.55 649.143 221.681 647.953 242.716C652.892 228.755 667.038 198.766 684.744 212.058C713.457 233.625 659.51 303.56 659.51 303.56C659.51 303.56 696.801 275.499 705.589 301.011C718.026 337.11 682.155 370.179 651.602 382.969C694.842 363.656 705.049 405.599 678.986 432.488C657.091 455.118 623.749 464.14 593.007 456.761C569.893 445.043 526.783 378.375 544.279 359.691Z" fill="#FCFFFF"/>
<path d="M578.5 401.427C582.279 406.346 586.318 411.059 590.497 415.585C593.698 419.051 597.096 422.336 600.675 425.424C608.192 402.968 614.082 380.015 618.3 356.739C612.948 353.026 607.793 349.046 602.854 344.814C597.486 340.151 592.177 335.054 587.208 329.839C582.239 324.625 577.501 319.174 573.042 313.566C568.548 308.007 564.372 302.206 560.535 296.19C564.569 302.039 568.935 307.659 573.612 313.025C578.25 318.436 583.129 323.67 588.248 328.61C593.367 333.549 598.775 338.35 604.244 342.699C608.965 346.412 613.877 349.883 618.96 353.098C622.232 334.851 624.376 316.425 625.379 297.922C620 293.136 614.881 288.075 610.042 282.76C607.433 280.084 605.104 277.093 602.614 274.319C600.295 271.367 597.866 268.464 595.616 265.464C591.167 259.56 586.708 253.44 582.619 247.222C578.53 241.004 574.621 234.688 571.122 228.174C574.831 234.55 578.95 240.699 583.219 246.73C587.488 252.762 592.127 258.665 596.726 264.342C599.035 267.225 601.545 269.95 603.934 272.784C606.483 275.421 608.883 278.274 611.532 280.793C615.96 285.323 620.632 289.615 625.529 293.652C626.68 257.576 624.586 221.471 619.27 185.759C625.577 221.47 628.659 257.661 628.478 293.908C633.655 290.534 638.525 286.725 643.034 282.524C648.463 277.429 653.477 271.922 658.031 266.054C662.78 259.908 667.122 253.466 671.027 246.77C675.108 239.774 678.692 232.508 681.755 225.026C678.903 232.687 675.526 240.149 671.647 247.36C667.922 254.294 663.748 260.985 659.15 267.392C654.712 273.524 649.792 279.305 644.434 284.679C639.519 289.63 634.14 294.114 628.368 298.07C627.368 317.039 625.749 335.388 623.369 354.259C629.221 353.689 634.972 352.366 640.475 350.324C647.126 347.758 653.469 344.478 659.39 340.544C665.638 336.389 671.517 331.722 676.966 326.593C682.715 321.226 688.008 315.404 692.792 309.188C688.161 315.654 683.005 321.741 677.376 327.389C672.021 332.787 666.219 337.737 660.03 342.187C654.12 346.448 647.749 350.055 641.035 352.941C635.221 355.384 629.096 357.039 622.829 357.86C619.198 381.429 613.882 404.716 606.923 427.549C612.343 427.175 617.729 426.419 623.039 425.286C629.884 423.838 636.616 421.915 643.184 419.531C649.973 417.049 656.6 414.161 663.029 410.882C669.712 407.488 676.155 403.655 682.315 399.41C676.272 403.954 669.926 408.092 663.319 411.797C656.935 415.379 650.335 418.573 643.554 421.361C636.97 424.055 630.197 426.281 623.289 428.021C617.586 429.428 611.785 430.414 605.934 430.973C597.572 457.733 586.961 483.762 574.211 508.789L566.213 504.617C579.441 480.298 590.591 454.938 599.545 428.799C595.754 425.237 592.179 421.459 588.838 417.484C584.839 412.663 580.96 407.645 577.361 402.529C573.761 397.413 570.272 392.188 566.953 386.915C563.634 381.641 560.405 376.328 557.436 370.936C560.655 376.19 564.074 381.336 567.603 386.423C571.132 391.509 574.721 396.537 578.5 401.427Z" fill="#14426F"/>
<path d="M117.494 477.875C126.802 476.134 133.49 483.011 133.96 483.444C134.37 482.007 138.429 469.04 151.576 464.465C157.465 462.468 163.863 462.468 169.752 464.465C168.891 462.231 168.684 459.805 169.153 457.461C169.622 455.117 170.749 452.949 172.405 451.203C174.062 449.457 176.182 448.202 178.526 447.581C180.87 446.96 183.344 446.998 185.668 447.689C188.391 443.526 192.297 440.241 196.902 438.244C201.506 436.247 206.605 435.626 211.565 436.457C216.526 437.288 221.128 439.536 224.801 442.92C228.475 446.304 231.057 450.676 232.226 455.492C233.559 453.419 235.474 451.77 237.74 450.746C240.005 449.722 242.523 449.365 244.99 449.72C247.457 450.075 249.766 451.126 251.638 452.746C253.511 454.366 254.866 456.485 255.54 458.847C258.443 455.857 262.099 453.678 266.135 452.53C270.172 451.382 274.445 451.308 278.521 452.313C282.596 453.319 286.329 455.369 289.337 458.256C292.346 461.142 294.524 464.761 295.65 468.745C298.723 466.315 302.351 464.661 306.221 463.925C310.091 463.19 314.084 463.395 317.855 464.524C323.573 466.392 328.394 470.263 331.404 475.399C334.414 480.536 335.402 486.581 334.181 492.387H103.318C103.927 488.847 105.605 485.569 108.133 482.981C110.662 480.392 113.924 478.613 117.494 477.875V477.875Z" fill="#FE5722"/>
<path d="M352.006 477.875C361.304 476.134 368.002 483.011 368.472 483.444C368.882 482.007 372.931 469.04 386.088 464.465C391.977 462.468 398.375 462.468 404.263 464.465C403.403 462.231 403.196 459.805 403.665 457.461C404.134 455.117 405.261 452.949 406.917 451.203C408.574 449.457 410.694 448.202 413.038 447.581C415.382 446.96 417.856 446.998 420.18 447.689C422.903 443.526 426.809 440.241 431.414 438.244C436.018 436.247 441.117 435.626 446.077 436.457C451.037 437.288 455.64 439.536 459.313 442.92C462.987 446.304 465.568 450.676 466.738 455.492C468.071 453.413 469.988 451.759 472.257 450.732C474.526 449.705 477.05 449.349 479.521 449.706C481.992 450.063 484.305 451.119 486.178 452.745C488.051 454.372 489.404 456.498 490.072 458.866C492.975 455.877 496.631 453.697 500.667 452.55C504.704 451.402 508.977 451.327 513.053 452.333C517.128 453.339 520.86 455.389 523.869 458.275C526.878 461.161 529.056 464.781 530.182 468.764C533.254 466.333 536.882 464.678 540.752 463.942C544.622 463.207 548.616 463.413 552.387 464.543C558.103 466.414 562.922 470.285 565.93 475.421C568.937 480.558 569.924 486.602 568.703 492.407H337.79C338.406 488.861 340.09 485.579 342.626 482.988C345.161 480.396 348.429 478.615 352.006 477.875V477.875Z" fill="url(#paint16_linear)"/>
<path d="M454.351 481.073C463.659 479.331 470.347 486.209 470.817 486.642C471.227 485.205 475.286 472.237 488.443 467.662C494.33 465.675 500.721 465.675 506.608 467.662C505.963 465.992 505.681 464.206 505.78 462.422C505.879 460.637 506.357 458.893 507.183 457.301C508.009 455.709 509.165 454.306 510.576 453.181C511.987 452.056 513.622 451.234 515.376 450.769C517.723 450.15 520.2 450.191 522.524 450.887C525.252 446.733 529.159 443.458 533.761 441.469C538.362 439.479 543.456 438.863 548.41 439.696C553.364 440.528 557.961 442.774 561.63 446.154C565.3 449.534 567.881 453.899 569.053 458.709C570.389 456.64 572.304 454.995 574.569 453.973C576.833 452.952 579.35 452.597 581.815 452.952C584.279 453.306 586.587 454.356 588.46 455.972C590.332 457.589 591.689 459.705 592.367 462.064C595.271 459.077 598.927 456.901 602.963 455.755C606.999 454.609 611.271 454.535 615.345 455.54C619.419 456.546 623.151 458.595 626.16 461.479C629.169 464.363 631.348 467.98 632.477 471.962C635.546 469.531 639.172 467.873 643.04 467.132C646.907 466.391 650.9 466.59 654.672 467.712C660.395 469.575 665.223 473.442 668.239 478.579C671.255 483.717 672.247 489.765 671.028 495.575H440.135C440.758 492.036 442.446 488.762 444.981 486.176C447.515 483.591 450.779 481.813 454.351 481.073V481.073Z" fill="url(#paint17_linear)"/>
<g opacity="0.38">
<path opacity="0.38" d="M88.0817 502.167C88.0817 509.645 184.388 515.706 303.189 515.706C421.989 515.706 518.285 509.605 518.285 502.167C518.285 494.729 421.979 488.609 303.169 488.609C184.358 488.609 88.0817 494.69 88.0817 502.167Z" fill="#69A6DA"/>
</g>
<path opacity="0.4" d="M164.733 527.315C194.895 527.315 219.339 523.528 219.339 518.854C219.339 514.181 194.895 510.383 164.733 510.383C134.57 510.383 110.166 514.2 110.166 518.874C110.166 523.547 134.58 527.315 164.733 527.315Z" fill="#69A6DA"/>
<path opacity="0.38" d="M568.053 524.669C618.66 524.669 659.68 515.223 659.68 503.564C659.68 491.905 618.69 482.45 568.053 482.45C517.415 482.45 476.436 491.905 476.436 503.564C476.436 515.223 517.425 524.669 568.053 524.669Z" fill="#69A6DA"/>
<path d="M425.168 463.215H329.832V488.452H425.168V463.215Z" fill="#14426F"/>
<path d="M536.371 237.472H219.639C217.817 237.475 216.07 238.189 214.782 239.458C213.494 240.727 212.771 242.448 212.771 244.241V464.691C212.771 466.485 213.494 468.205 214.782 469.474C216.07 470.743 217.817 471.458 219.639 471.46H536.371C538.195 471.46 539.944 470.747 541.234 469.478C542.524 468.208 543.249 466.486 543.249 464.691V244.241C543.249 242.446 542.524 240.724 541.234 239.455C539.944 238.185 538.195 237.472 536.371 237.472V237.472Z" fill="#14426F"/>
<path d="M528.783 246.002H226.218C225.096 246.002 224.02 246.441 223.227 247.221C222.434 248.002 221.989 249.06 221.989 250.164V444.846C221.991 445.948 222.438 447.004 223.231 447.783C224.024 448.561 225.098 448.998 226.218 448.998H528.783C529.337 448.998 529.885 448.891 530.397 448.682C530.909 448.473 531.374 448.167 531.766 447.782C532.158 447.396 532.469 446.939 532.681 446.435C532.893 445.931 533.002 445.391 533.002 444.846V250.164C533.003 249.618 532.895 249.077 532.683 248.572C532.472 248.067 532.161 247.608 531.77 247.222C531.378 246.835 530.912 246.529 530.4 246.319C529.887 246.11 529.338 246.002 528.783 246.002V246.002Z" fill="#DEE3F3"/>
<path d="M294.221 486.258H460.78C462.201 486.258 463.564 486.813 464.569 487.802C465.574 488.791 466.138 490.133 466.138 491.531V502.167H288.862V491.531C288.862 490.133 289.427 488.791 290.432 487.802C291.436 486.813 292.799 486.258 294.221 486.258Z" fill="#14426F"/>
<g opacity="0.55">
<path opacity="0.55" d="M446.543 291.861H247.992C245.465 291.861 243.042 292.849 241.255 294.608C239.468 296.366 238.465 298.751 238.465 301.238V426.437C238.465 428.924 239.468 431.309 241.255 433.068C243.042 434.826 245.465 435.814 247.992 435.814H446.543C449.071 435.814 451.495 434.826 453.284 433.068C455.072 431.31 456.078 428.925 456.081 426.437V301.238C456.078 298.75 455.072 296.365 453.284 294.607C451.495 292.849 449.071 291.861 446.543 291.861V291.861Z" fill="#C6C2E1"/>
</g>
<path d="M450.962 286.263H252.411C251.159 286.263 249.919 286.506 248.763 286.978C247.606 287.449 246.555 288.141 245.67 289.013C244.786 289.884 244.084 290.919 243.606 292.058C243.128 293.197 242.882 294.417 242.883 295.649V420.829C242.882 422.061 243.128 423.282 243.606 424.421C244.084 425.559 244.786 426.594 245.67 427.466C246.555 428.338 247.606 429.029 248.763 429.501C249.919 429.973 251.159 430.216 252.411 430.216H450.962C453.49 430.213 455.913 429.223 457.7 427.463C459.486 425.703 460.489 423.317 460.489 420.829V295.639C460.487 293.153 459.482 290.77 457.696 289.012C455.91 287.254 453.488 286.266 450.962 286.263Z" fill="white"/>
<path d="M450.962 286.263H252.411C249.888 286.266 247.468 287.253 245.684 289.009C243.9 290.765 242.896 293.146 242.893 295.63V303.845H460.489V295.63C460.493 293.774 459.935 291.959 458.886 290.417C457.838 288.875 456.346 287.675 454.601 286.971C453.447 286.501 452.211 286.26 450.962 286.263V286.263Z" fill="#69A6DA"/>
<path d="M429.747 298.07C430.293 298.072 430.828 297.914 431.283 297.617C431.738 297.32 432.093 296.896 432.304 296.4C432.514 295.904 432.57 295.358 432.465 294.83C432.359 294.303 432.097 293.818 431.712 293.437C431.326 293.057 430.835 292.797 430.299 292.691C429.764 292.586 429.208 292.639 428.704 292.844C428.199 293.05 427.767 293.398 427.464 293.844C427.16 294.291 426.998 294.817 426.998 295.354C427 296.072 427.291 296.76 427.805 297.268C428.32 297.776 429.018 298.064 429.747 298.07V298.07Z" fill="#D1CEE8"/>
<path d="M440.954 298.07C441.501 298.072 442.035 297.914 442.49 297.617C442.945 297.32 443.3 296.896 443.511 296.4C443.721 295.904 443.777 295.358 443.672 294.83C443.567 294.303 443.305 293.818 442.919 293.437C442.534 293.057 442.042 292.797 441.506 292.691C440.971 292.586 440.416 292.639 439.911 292.844C439.406 293.05 438.974 293.398 438.671 293.844C438.367 294.291 438.205 294.817 438.205 295.354C438.205 296.073 438.494 296.762 439.01 297.271C439.525 297.78 440.224 298.067 440.954 298.07V298.07Z" fill="#D1CEE8"/>
<path d="M452.172 298.07C452.717 298.07 453.251 297.91 453.705 297.612C454.158 297.314 454.512 296.889 454.721 296.393C454.93 295.897 454.984 295.351 454.878 294.824C454.771 294.298 454.509 293.814 454.123 293.434C453.737 293.054 453.245 292.796 452.71 292.691C452.175 292.586 451.62 292.64 451.116 292.845C450.611 293.051 450.18 293.399 449.877 293.845C449.574 294.292 449.412 294.817 449.412 295.354C449.412 296.074 449.703 296.765 450.22 297.274C450.738 297.784 451.44 298.07 452.172 298.07V298.07Z" fill="#D1CEE8"/>
<g opacity="0.35">
<path opacity="0.35" d="M233.536 327.901C231.686 329.869 229.537 334.178 228.627 336.028C227.717 337.878 226.627 338.862 224.038 340.082C220.379 341.715 216.51 343.289 212.771 344.735V354.23C220.379 349.724 227.267 345.523 227.407 345.473C233.226 347.638 238.095 342.905 239.654 339.472C240.394 337.927 239.304 337.307 239.264 336.589C239.264 336.205 239.734 333.972 239.654 333.706C239.204 331.738 233.726 333.45 234.186 332.496C234.583 331.176 235.378 330.007 236.465 329.141C239.144 327.34 241.204 325.343 241.204 324.585C241.134 323.247 234.136 327.222 233.536 327.901Z" fill="#5A57A6"/>
</g>
<path d="M235.135 334.582C235.185 335.192 236.135 335.703 235.495 336.973C234.106 339.806 229.787 343.732 224.618 341.892C224.388 341.971 196.065 358.077 193.876 358.077C191.686 358.077 176.88 344.243 171.971 327.094C170.821 323.011 171.241 318.239 175.16 316.144C176.324 316.531 177.397 317.146 178.314 317.951C179.231 318.755 179.974 319.733 180.499 320.827C183.728 326.799 193.356 346.605 195.495 347.392C198.165 345.641 211.121 341.853 221.629 337.465C223.958 336.481 224.858 335.605 225.698 334.119C226.537 332.634 228.417 329.072 230.087 327.429C230.656 326.858 236.855 323.582 236.855 324.654C236.855 325.274 235.035 326.927 232.656 328.413C231.716 329.109 231.017 330.075 230.656 331.177C230.257 331.965 235.105 330.518 235.515 332.161C235.535 332.427 235.135 334.267 235.135 334.582Z" fill="#F9B8B0"/>
<path d="M174.03 315.691C175.833 316.105 177.523 316.899 178.983 318.018C180.443 319.138 181.639 320.556 182.488 322.175C182.922 323.021 183.306 323.892 183.638 324.782C185.148 328.55 187.217 331.984 188.767 335.743C186.75 337.142 184.514 338.209 182.148 338.901C180.169 339.622 178.052 339.901 175.95 339.718C175.607 339.7 175.269 339.627 174.95 339.501C174.529 339.273 174.162 338.962 173.87 338.586C173.221 337.848 172.591 337.11 171.981 336.353C171.417 335.726 170.989 334.993 170.721 334.198C170.524 333.083 170.627 331.936 171.021 330.872" fill="#6B65AE"/>
<g opacity="0.35">
<g opacity="0.35">
<path opacity="0.35" d="M177.74 326.002C177.613 325.827 177.445 325.685 177.25 325.589C177.058 325.526 176.851 325.526 176.66 325.589C176.477 325.672 176.329 325.815 176.24 325.992C176.063 326.353 175.987 326.754 176.02 327.153C176.046 328.686 176.295 330.207 176.76 331.669L176.27 339.629C178.24 339.75 180.214 339.469 182.069 338.803C182.938 338.478 183.888 338.153 184.838 337.77C183.848 333.352 180.759 329.554 177.74 326.002Z" fill="#6B65AE"/>
</g>
</g>
<path d="M165.153 307.771C165.153 307.771 165.043 312.749 165.812 313.074C166.874 313.495 167.972 313.824 169.092 314.058L169.162 324.398L155.165 322.322L145.547 317.059C145.547 317.059 155.545 313.802 155.625 312.818C155.705 311.834 155.075 306.334 155.075 306.334" fill="#F9B8B0"/>
<path d="M143.718 457.076C139.899 474.923 141.718 499.432 140.859 512.862C141.059 512.921 146.057 513.531 146.057 513.531C146.057 513.531 157.884 456.908 160.054 446.076C160.193 445.384 160.283 444.684 160.324 443.98C160.844 435.824 153.326 435.401 149.157 442.15C148.429 443.315 147.784 444.528 147.227 445.781C146.997 446.322 146.767 446.853 146.537 447.434C145.816 449.298 145.198 451.2 144.688 453.13V453.347C144.508 453.908 144.368 454.498 144.228 455.069V455.196C143.978 455.856 143.848 456.476 143.718 457.076Z" fill="#F9B8B0"/>
<path d="M166.152 393.034C166.012 394.481 165.223 401.535 164.253 409.82C163.433 416.786 162.533 424.647 161.823 430.855C161.304 435.519 160.924 439.248 160.764 440.999C160.692 442.01 160.555 443.016 160.354 444.01V444.01C158.544 452.156 152.836 452.648 149.357 450.73C148.883 450.486 148.44 450.189 148.037 449.844C147.298 449.226 146.785 448.386 146.577 447.453C146.357 445.781 146.137 443.518 145.937 440.773V440.733C145.517 435.44 145.158 428.632 144.838 422.039C144.458 413.893 144.218 406.041 144.158 401.614C144.173 401.372 144.173 401.128 144.158 400.886C144.098 387.308 156.775 378.611 164.653 382.822C164.751 382.858 164.845 382.904 164.933 382.959C165.025 383.03 165.126 383.089 165.233 383.137C166.132 383.727 166.432 385.754 166.452 388.056C166.342 389.65 166.232 391.539 166.152 393.034Z" fill="#F9B8B0"/>
<path d="M146.807 444.285L145.807 440.723C145.879 444.897 145.476 449.065 144.608 453.15V453.357C144.468 453.917 144.318 454.518 144.148 455.088V455.216C143.947 455.807 143.809 456.417 143.738 457.036C143.738 458.65 147.217 451.487 148.017 449.834L148.157 449.588L147.217 445.859L146.807 444.285Z" fill="#F9B8B0"/>
<path d="M174.15 460.509C173.78 479.203 179.649 501.154 181.199 514.732C181.389 514.732 185.987 514.122 185.987 514.122C185.987 514.122 186.867 456.889 186.927 445.574C186.927 444.854 186.887 444.135 186.807 443.419C185.858 435.174 179.069 436.591 176.45 444.325C175.99 445.664 175.619 447.031 175.34 448.418C175.22 449.008 175.11 449.588 175 450.228C174.669 452.252 174.442 454.291 174.32 456.338V456.554C174.26 457.174 174.23 457.784 174.2 458.384V458.522C174.15 459.201 174.15 459.84 174.15 460.509Z" fill="#F9B8B0"/>
<path d="M178.069 452.865C177.601 452.738 177.153 452.546 176.74 452.294C175.928 451.85 175.309 451.129 175 450.267C174.5 448.663 173.91 446.41 173.251 443.783V443.685C171.971 438.539 170.441 431.878 169.032 425.336C167.292 417.327 165.712 409.593 164.893 405.166C164.833 404.93 164.163 401.722 164.083 401.486C161.653 387.84 172.471 378.935 180.329 381.543L180.639 381.651C182.218 382.271 182.638 387.741 183.008 391.441C183.378 395.14 186.007 433.453 186.667 440.389C186.774 441.419 186.82 442.453 186.807 443.488C186.607 452.009 181.539 453.888 178.069 452.865Z" fill="#F9B8B0"/>
<path d="M174.71 447.001L173.241 443.685V443.734C174.028 447.903 174.393 452.138 174.33 456.377V456.594C174.33 457.184 174.27 457.814 174.21 458.424V458.561C174.134 459.198 174.117 459.84 174.16 460.48V460.48C174.43 462.084 176.35 454.104 176.76 452.245C176.82 452.009 176.85 451.871 176.85 451.871L175.39 448.388L174.71 447.001Z" fill="#F9B8B0"/>
<path d="M150.616 366.843C144.758 389.222 140.854 412.053 138.949 435.086C138.142 448.967 136.348 462.775 133.58 476.409C131.423 486.644 128.649 496.743 125.273 506.654C149.865 516.853 177.531 517.206 202.383 507.638C201.221 474.948 196.808 442.449 189.207 410.607C185.318 394.343 180.839 379.231 176.03 365.348L150.616 366.843Z" fill="#F1592A"/>
<path d="M182.478 337.425C182.398 341.075 180.429 343.328 177.61 346.369C177.25 346.92 176.37 355.017 176.07 360.448C175.91 363.252 177.13 365.023 176.07 365.259C172.001 368.752 157.335 371.576 150.606 366.814C151.336 360.911 148.607 347.992 146.837 341.41C146.557 340.426 146.307 339.541 146.107 338.881C144.418 333.883 141.389 317.856 143.638 317.157L145.637 316.586C149.147 315.543 154.345 313.763 154.345 313.763C154.345 313.763 157.395 322.618 165.343 323.7C169.671 321.949 169.292 316.567 169.242 314.087C170.651 314.471 171.241 314.855 175.66 316.134C176.89 317.885 175.83 321.516 177.819 326.957C178.199 328.295 182.588 332.988 182.478 337.425Z" fill="#6B65AE"/>
<path d="M101.598 331.305C101.598 331.305 96.1097 326.986 95.7398 325.786C95.3699 324.585 95.2899 323.326 94.84 322.185C94.4907 321.345 93.974 320.582 93.3204 319.941C92.6692 319.297 91.8898 318.791 91.031 318.456C89.6513 317.895 90.3012 317.472 88.8315 317.728C86.6321 318.161 85.5523 320.305 84.6626 321.978C80.8635 329.141 91.2509 330.489 91.6608 330.508C92.3906 330.508 96.2797 334.828 96.2797 334.828" fill="#F9B8B0"/>
<path d="M197.575 520.153C193.416 520.871 188.957 519.74 187.137 520.054C185.628 520.31 181.759 521.274 180.309 519.986C178.859 518.697 179.089 514.181 180.759 513.58C181.114 513.699 181.478 513.788 181.849 513.846C183.498 514.067 185.177 513.93 186.767 513.443C189.937 514.732 190.056 515.292 193.656 516.001C195.228 516.307 196.766 516.768 198.244 517.378C199.794 518.067 199.954 519.74 197.575 520.153Z" fill="#0E254B"/>
<path d="M152.646 521.953C148.467 521.235 145.837 519.002 144.008 518.687C142.498 518.421 138.709 517.703 138.319 516.168C138.019 515.027 139.169 510.265 140.939 510.265C141.231 510.491 141.542 510.691 141.868 510.865C143.346 511.623 144.973 512.056 146.637 512.134C149.177 514.397 149.097 514.958 152.236 516.827C153.613 517.633 154.903 518.576 156.085 519.641C157.305 520.832 154.995 522.396 152.646 521.953Z" fill="#0E254B"/>
<path d="M91.8608 330.538L95.6898 326.051L119.064 346.674C119.064 346.674 130.471 331.728 133.61 327.065C137.06 321.929 140.199 317.541 145.208 316.685C146.377 317.403 144.818 335.821 144.208 336.274C137.16 341.459 123.443 358.205 119.074 359.071C114.045 360.055 91.8608 330.538 91.8608 330.538Z" fill="#14426F"/>
<path d="M146.937 315.839C146.937 315.839 142.168 315.898 140.109 317.56C138.049 319.223 128.252 334.523 128.252 334.523C128.242 335.544 128.471 336.554 128.922 337.474C129.371 338.389 130.02 339.195 130.821 339.836C132.852 341.458 135.298 342.499 137.889 342.846C137.889 342.846 142.808 338.025 145.587 335.831C147.317 334.464 147.487 337.848 147.487 337.848L156.155 329.554L146.937 315.839Z" fill="#606161"/>
<path d="M152.426 274.565C142.708 279.228 146.427 292.432 138.309 305.429C133.261 313.477 122.753 322.824 98.5491 327.222C98.5206 335.41 99.0081 343.592 100.009 351.721C100.579 356.306 102.258 369.903 105.737 380.254C107.337 384.996 118.804 419.058 150.046 426.91C176.31 433.502 198.824 417.071 202.383 414.424C208.08 407.711 212.875 400.304 216.65 392.385C228.057 368.418 227.117 345.857 225.698 334.159C202.273 341.548 195.075 335.753 193.356 334.09C191.636 332.427 186.877 326.504 184.758 323.828C181.219 319.381 179.449 317.167 179.089 316.439C175.09 308.519 179.769 303.196 177.86 288.89C177.28 284.561 176.79 282.318 175.1 280.035C170.441 273.787 159.474 271.18 152.426 274.565Z" fill="#DC3326"/>
<path d="M84.2827 327.852L88.0417 330.321C88.1603 330.398 88.2926 330.451 88.4316 330.479C88.5671 330.503 88.706 330.503 88.8415 330.479C88.9787 330.45 89.1081 330.393 89.2214 330.312C89.3354 330.227 89.4336 330.124 89.5114 330.007L97.7693 316.38L92.8705 313.664L83.9728 326.455C83.8249 326.686 83.7713 326.964 83.8228 327.232C83.8504 327.363 83.9049 327.487 83.9827 327.596C84.0643 327.7 84.1663 327.787 84.2827 327.852V327.852Z" fill="#F7FBFC"/>
<path d="M70.816 298.935L72.1157 299.811L77.3444 292.304L76.0547 291.428C75.0538 290.852 73.862 290.687 72.7386 290.971C71.6152 291.255 70.6512 291.964 70.0562 292.944C69.3522 293.838 69.037 294.971 69.1794 296.094C69.3218 297.217 69.9102 298.238 70.816 298.935V298.935Z" fill="url(#paint18_linear)"/>
<path d="M66.0272 308.086L90.1112 311.687L95.6099 303.816L83.4529 283.154L66.0272 308.086Z" fill="#FCFFFF"/>
<path d="M67.5668 308.42L90.1112 311.687L92.3007 308.538L73.3054 300.155L67.5668 308.42Z" fill="white"/>
<path d="M100.009 317.423C100.351 317.627 100.732 317.761 101.128 317.818C101.524 317.876 101.928 317.854 102.316 317.755C102.704 317.656 103.067 317.481 103.385 317.242C103.703 317.002 103.969 316.702 104.168 316.36L105.167 314.973C105.413 314.666 105.595 314.314 105.701 313.937C105.807 313.56 105.837 313.167 105.787 312.779C105.74 312.394 105.615 312.022 105.421 311.684C105.228 311.347 104.968 311.05 104.658 310.811C104.315 310.611 103.935 310.48 103.54 310.426C103.145 310.372 102.743 310.396 102.358 310.496C101.58 310.695 100.913 311.186 100.499 311.864L99.4988 313.271C99.2515 313.577 99.0683 313.928 98.9599 314.304C98.8516 314.68 98.8202 315.073 98.8677 315.461C98.9151 315.85 99.0404 316.224 99.2363 316.565C99.4321 316.905 99.6947 317.203 100.009 317.442V317.423Z" fill="url(#paint19_linear)"/>
<path d="M100.489 311.844L99.4889 313.241C99.219 313.523 99.0143 313.858 98.889 314.225C98.7613 314.607 98.7202 315.012 98.7686 315.412C98.8169 315.811 98.9536 316.195 99.169 316.537C99.381 316.877 99.6638 317.169 99.9987 317.393C100.331 317.619 100.71 317.77 101.108 317.836C101.51 317.909 101.924 317.892 102.318 317.787C102.712 317.689 103.08 317.509 103.396 317.257C103.712 317.006 103.968 316.689 104.148 316.331L105.147 314.933C105.221 314.826 105.288 314.715 105.347 314.599C105.147 314.909 104.885 315.177 104.578 315.386C104.274 315.589 103.935 315.736 103.578 315.819C103.209 315.898 102.827 315.898 102.458 315.819C102.1 315.745 101.76 315.601 101.458 315.396C101.149 315.19 100.886 314.921 100.689 314.609C100.486 314.311 100.347 313.977 100.279 313.625C100.204 313.261 100.204 312.887 100.279 312.523C100.362 312.168 100.519 311.833 100.739 311.539C100.647 311.634 100.563 311.736 100.489 311.844V311.844Z" fill="url(#paint20_linear)"/>
<path d="M65.2473 308.892C65.6556 309.124 66.1395 309.191 66.597 309.079C66.8238 309.022 67.0369 308.922 67.224 308.783C67.4111 308.645 67.5683 308.471 67.6867 308.273L84.1727 284.561C84.463 284.196 84.5954 283.733 84.5411 283.272C84.4868 282.812 84.2503 282.391 83.8827 282.101C83.4731 281.872 82.9893 281.809 82.5331 281.924C82.0776 282.039 81.6861 282.325 81.4433 282.721L64.9574 306.403C64.6671 306.768 64.5347 307.231 64.589 307.692C64.6432 308.152 64.8798 308.573 65.2473 308.863V308.892Z" fill="url(#paint21_linear)"/>
<path d="M84.3327 282.554L70.5761 302.231C70.3292 302.627 69.9357 302.913 69.4787 303.029C69.0217 303.144 68.537 303.081 68.1267 302.851C67.9569 302.73 67.814 302.576 67.7068 302.399L64.9475 306.334C64.7905 306.511 64.6745 306.719 64.6076 306.944C64.5378 307.164 64.5173 307.395 64.5476 307.623C64.5786 307.856 64.6568 308.08 64.7775 308.282C64.9001 308.478 65.0637 308.646 65.2574 308.774C65.4515 308.909 65.6734 309 65.9073 309.04C66.1379 309.089 66.3765 309.089 66.6071 309.04C66.8372 308.985 67.0522 308.881 67.2369 308.735C67.4235 308.591 67.5769 308.41 67.6868 308.204L84.1727 284.561C84.3775 284.277 84.4981 283.943 84.5211 283.595C84.544 283.248 84.4684 282.901 84.3027 282.593L84.3327 282.554Z" fill="url(#paint22_linear)"/>
<path d="M92.2307 315.829L93.7903 316.872C96.0897 318.416 99.4189 317.6 101.218 314.983L102.768 312.759C104.578 310.171 104.168 306.856 101.868 305.282L100.309 304.239C98.0092 302.694 94.6801 303.52 92.8805 306.128L91.3409 308.351C89.5313 310.939 89.9312 314.284 92.2307 315.829Z" fill="white"/>
<path d="M91.4209 308.233L89.1014 311.549C88.9624 311.724 88.8604 311.925 88.8015 312.139C88.7563 312.357 88.7563 312.581 88.8015 312.798C88.8221 313.017 88.8903 313.228 89.0015 313.418C89.1117 313.613 89.2614 313.784 89.4414 313.92L96.6896 318.78C97.0827 319.004 97.5492 319.068 97.9893 318.958C98.4079 318.833 98.7643 318.559 98.989 318.19L101.308 314.865C101.072 315.244 100.695 315.519 100.257 315.631C99.8186 315.743 99.3535 315.683 98.959 315.465L91.7108 310.595C91.5334 310.459 91.3854 310.29 91.2755 310.097C91.1656 309.905 91.096 309.692 91.071 309.473C91.0172 309.03 91.1429 308.585 91.4209 308.233V308.233Z" fill="url(#paint23_linear)"/>
<path d="M85.0525 324.428C84.8853 323.447 84.9193 322.444 85.1525 321.476C85.3835 320.521 85.8011 319.618 86.3821 318.82C86.7923 318.306 87.2436 317.826 87.7318 317.383C87.9512 317.141 88.23 316.958 88.5416 316.852C89.157 316.773 89.7808 316.913 90.3011 317.246C90.9347 317.554 91.4476 318.059 91.7608 318.682C91.8954 319.122 91.862 319.594 91.6668 320.011C91.4716 320.428 91.128 320.76 90.701 320.945C90.6195 320.986 90.553 321.052 90.5111 321.132C90.5111 321.27 90.5111 321.427 90.6411 321.575C91.0174 322.12 91.213 322.766 91.2009 323.424C91.1801 323.572 91.1327 323.716 91.061 323.847C90.9862 323.979 90.8839 324.093 90.761 324.182C90.6403 324.268 90.5048 324.331 90.3611 324.369C90.2127 324.398 90.0597 324.398 89.9112 324.369C89.6213 324.369 89.2414 324.221 89.1814 324.428C89.1516 324.507 89.1516 324.595 89.1814 324.674C89.2254 324.95 89.2089 325.233 89.133 325.503C89.0572 325.773 88.9237 326.023 88.7415 326.238C88.6535 326.348 88.53 326.424 88.3916 326.455C88.2655 326.46 88.1397 326.44 88.0217 326.396C87.5654 326.274 87.1305 326.085 86.7321 325.835" fill="#F9B8B0"/>
<path d="M95.6898 326.081C95.4929 325.128 95.3461 324.166 95.2499 323.198C95.2194 322.104 94.91 321.035 94.3501 320.089C93.7996 319.134 93.0163 318.33 92.0707 317.747C91.9203 317.649 91.7414 317.6 91.5608 317.61C91.4447 317.637 91.34 317.699 91.2609 317.787C91.1877 317.877 91.1425 317.986 91.1309 318.102C91.1143 318.329 91.1484 318.557 91.2309 318.771C91.4609 319.489 92.4506 320.738 92.1407 321.457C91.639 322.51 91.373 323.658 91.3609 324.822C91.3609 325.855 91.8807 327.517 93.1204 327.704" fill="#F9B8B0"/>
<path d="M67.7767 271.633L72.6156 282.878" stroke="#C5C3E2" stroke-width="0.75" stroke-linecap="round" stroke-linejoin="round"/>
<path d="M57.6592 281.629L67.5868 288.949" stroke="#C5C3E2" stroke-width="0.75" stroke-linecap="round" stroke-linejoin="round"/>
<path d="M51.2508 295.246L63.6077 296.446" stroke="#C5C3E2" stroke-width="0.75" stroke-linecap="round" stroke-linejoin="round"/>
<path d="M175.31 287.424C175.31 287.424 176.11 297.066 174.44 302.113C174.12 303.097 169.971 309.365 163.873 309.315C156.245 309.247 149.367 299.132 151.996 292.481C154.305 286.637 163.143 285.505 167.372 285.594C170.116 285.672 172.816 286.294 175.31 287.424V287.424Z" fill="#F9B8B0"/>
<g opacity="0.35">
<path opacity="0.35" d="M133.61 327.035C133.61 327.035 112.726 388.145 140.859 406.73L133.61 327.035Z" fill="#5A57A6"/>
</g>
<g opacity="0.3">
<path opacity="0.3" d="M376.69 403.69L401.964 416.215L389.327 385.714" fill="#DC3326"/>
<path opacity="0.3" d="M351.677 414.296C381.189 414.296 405.113 392.08 405.113 364.669C405.113 337.258 381.189 315.042 351.677 315.042C322.164 315.042 298.25 337.258 298.25 364.669C298.25 392.08 322.174 414.296 351.677 414.296Z" fill="#DC3326"/>
<path opacity="0.3" d="M338.61 348.366V383.845C338.61 384.497 338.782 385.138 339.11 385.705C339.357 386.128 339.687 386.499 340.08 386.796C340.474 387.093 340.923 387.311 341.402 387.438C341.882 387.564 342.382 387.596 342.873 387.531C343.365 387.467 343.839 387.307 344.268 387.062L375.491 369.352C376.065 369.027 376.541 368.558 376.871 367.993C377.201 367.428 377.374 366.787 377.37 366.135C377.37 365.484 377.197 364.844 376.867 364.279C376.537 363.715 376.063 363.245 375.491 362.918L344.268 345.208C343.694 344.885 343.045 344.715 342.384 344.715C341.723 344.715 341.073 344.885 340.499 345.208C339.922 345.53 339.442 345.998 339.11 346.564C338.778 347.129 338.605 347.772 338.61 348.425V348.366Z" fill="#00ADE5"/>
</g>
<path d="M623.829 471.509C629.132 471.509 634.218 473.583 637.968 477.273C641.718 480.963 643.824 485.968 643.824 491.187C643.824 496.406 641.718 501.411 637.968 505.101C634.218 508.792 629.132 510.865 623.829 510.865H462.529V471.509H623.829Z" fill="#F7FAFC"/>
<path d="M634.496 499.954H462.539V501.587H634.496V499.954Z" fill="#CCD9E2"/>
<path d="M637.886 493.568H462.519V495.201H637.886V493.568Z" fill="#CCD9E2"/>
<path d="M637.886 487.193H462.519V488.826H637.886V487.193Z" fill="#CCD9E2"/>
<path d="M634.506 480.817H462.549V482.45H634.506V480.817Z" fill="#CCD9E2"/>
<path d="M458.72 467.456H623.829C630.039 467.734 635.9 470.357 640.194 474.78C644.488 479.203 646.885 485.085 646.885 491.202C646.885 497.319 644.488 503.201 640.194 507.624C635.9 512.046 630.039 514.67 623.829 514.948H458.72V506.841H623.829C627.975 506.738 631.916 505.046 634.811 502.124C637.706 499.202 639.327 495.283 639.327 491.202C639.327 487.121 637.706 483.201 634.811 480.28C631.916 477.358 627.975 475.665 623.829 475.563H458.72V467.456Z" fill="#0E254B"/>
<path d="M502.769 463.363C497.466 463.363 492.38 461.29 488.63 457.599C484.881 453.909 482.774 448.904 482.774 443.685C482.774 438.466 484.881 433.461 488.63 429.771C492.38 426.08 497.466 424.007 502.769 424.007H664.029V463.363H502.769Z" fill="#F7FAFC"/>
<path d="M664.029 433.305H492.072V434.948H664.029V433.305Z" fill="#CCD9E2"/>
<path d="M664.029 439.69H488.673V441.324H664.029V439.69Z" fill="#CCD9E2"/>
<path d="M664.029 446.066H488.673V447.709H664.029V446.066Z" fill="#CCD9E2"/>
<path d="M664.029 452.442H492.072V454.085H664.029V452.442Z" fill="#CCD9E2"/>
<path d="M667.848 467.456H502.769C496.576 467.152 490.739 464.517 486.466 460.096C482.192 455.675 479.809 449.807 479.809 443.705C479.809 437.603 482.192 431.734 486.466 427.313C490.739 422.893 496.576 420.258 502.769 419.954H667.848V428.09H502.769C498.556 428.09 494.515 429.738 491.536 432.669C488.557 435.601 486.883 439.578 486.883 443.724C486.883 447.871 488.557 451.847 491.536 454.779C494.515 457.711 498.556 459.358 502.769 459.358H667.848V467.456Z" fill="url(#paint24_linear)"/>
<path d="M475.886 415.89C470.583 415.89 465.497 413.817 461.747 410.127C457.997 406.436 455.891 401.431 455.891 396.212C455.891 390.994 457.997 385.988 461.747 382.298C465.497 378.608 470.583 376.535 475.886 376.535H637.156V415.89H475.886Z" fill="#F7FAFC"/>
<path d="M637.166 386.078H465.208V387.171H637.166V386.078Z" fill="#CCD9E2"/>
<path d="M637.166 392.464H461.789V393.556H637.166V392.464Z" fill="#CCD9E2"/>
<path d="M637.166 398.839H461.789V399.932H637.166V398.839Z" fill="#CCD9E2"/>
<path d="M637.166 405.215H465.208V406.297H637.166V405.215Z" fill="#CCD9E2"/>
<path d="M640.965 419.944H475.886C469.693 419.64 463.856 417.005 459.582 412.584C455.309 408.163 452.925 402.295 452.925 396.193C452.925 390.091 455.309 384.222 459.582 379.801C463.856 375.381 469.693 372.746 475.886 372.442H640.965V380.539H475.886C471.672 380.539 467.632 382.186 464.653 385.118C461.673 388.05 460 392.027 460 396.173C460 400.319 461.673 404.296 464.653 407.228C467.632 410.16 471.672 411.807 475.886 411.807H640.965V419.944Z" fill="url(#paint25_linear)"/>
<path opacity="0.38" d="M606.223 369.244H548.528C548.921 387.656 549.238 406.068 549.478 424.48C549.478 427.303 549.478 430.206 548.478 432.803H548.388C547.658 432.803 547.968 433 547.698 434.348V434.407C545.369 438.156 540.81 440.173 536.381 441.176C536.348 441.382 536.372 441.593 536.451 441.786C536.191 441.98 536.005 442.254 535.921 442.563C535.83 442.891 535.862 443.241 536.011 443.547C536.281 444.157 539.6 444.984 544.059 444.531C545.776 444.283 547.455 443.827 549.058 443.173C549.726 442.85 550.345 442.436 550.897 441.944C551.476 441.884 552.044 441.748 552.587 441.54L552.767 441.707L557.925 439.494C557.925 439.494 557.366 436.286 556.926 434.574C556.857 434.295 556.742 434.03 556.586 433.787C560.913 422.263 564.303 410.419 566.723 398.367C565.723 413.322 560.325 443.705 559.925 444.748C559.331 446.009 558.409 447.093 557.252 447.889C556.095 448.686 554.744 449.167 553.337 449.283C552.107 449.382 546.098 449.047 546.748 451.763C546.898 452.412 550.017 453.799 554.536 454.095C556.273 454.138 558.009 453.973 559.705 453.603C560.878 453.239 561.968 452.654 562.914 451.881L563.644 452.796L569.123 451.497C569.123 451.497 569.123 450.1 569.123 448.408C569.023 447.232 568.62 446.101 567.953 445.121L568.023 442.062L571.022 441.707C571.022 441.707 577.111 422.315 580.02 415.713C581.327 413.045 582.423 410.282 583.299 407.448C584.02 404.047 584.441 400.59 584.559 397.118C585.07 390.783 586.249 384.518 588.078 378.424C588.17 378.027 588.347 377.655 588.598 377.332C589.153 376.86 589.864 376.604 590.597 376.613C598.355 375.895 601.905 377.214 606.753 375.738C613.152 373.77 613.842 370.927 614.141 370.818C611.637 369.773 608.944 369.237 606.223 369.244Z" fill="#69A6DA"/>
<path d="M512.407 300.805C512.407 300.805 507.408 297.332 507.238 295.885C507.068 294.439 503.579 288.536 502.469 287.365C501.36 286.194 495.471 284.197 494.251 284.02C493.031 283.843 485.843 284.453 486.733 285.407C487.623 286.361 492.262 286.017 493.151 286.548L494.041 287.07C494.041 287.07 493.151 288.26 493.511 288.979C493.871 289.697 491.982 290.809 492.692 292.038C493.401 293.268 492.402 293.18 493.042 294.459C494.041 296.574 496.791 297.745 497.5 297.174C498.04 298.424 500.09 300.972 502.009 300.775C503.929 300.579 508.598 304.898 508.598 304.898" fill="#F9B8B0"/>
<path d="M588.498 276.149C588.668 279.445 588.428 285.191 589.388 285.987C590.347 286.784 593.447 286.706 593.447 286.706C593.447 286.706 582.379 300.48 581.37 299.732C580.36 298.985 567.283 288.477 570.222 287.926C573.162 287.375 576.081 287.503 575.961 285.958L575.711 281.462" fill="#F9B8B0"/>
<path d="M601.135 349.734C601.135 349.734 579.53 352.144 574.551 352.252C569.573 352.361 569.823 349.793 569.823 349.793C569.573 344.401 568.643 331.709 567.623 327.409C566.623 323.385 566.243 321.899 565.424 318.092C563.564 309.601 563.654 308.007 561.685 297.519L574.591 287.306C574.591 287.306 575.921 291.241 581.33 291.241C588.558 291.34 590.807 286.322 590.807 286.322L608.383 297.853L610.043 325.894L607.933 348.946" fill="#DC3326"/>
<path d="M588.748 273.187C588.361 274.862 587.85 276.506 587.218 278.107C586.079 281.058 584.399 282.042 581.22 282.15L574.631 282.308C572.942 282.357 570.832 282.406 569.463 281.235C568.093 280.064 568.083 278.126 567.783 276.522C567.39 274.469 567.076 272.403 566.843 270.324C566.37 266.262 566.177 262.172 566.263 258.084C566.255 257.52 566.301 256.957 566.403 256.402C566.437 256.175 566.538 255.963 566.693 255.792C566.918 255.613 567.194 255.506 567.483 255.487C571.619 254.846 575.805 254.583 579.99 254.7C582.909 254.788 586.069 255.123 588.408 256.904C590.747 258.685 591.877 261.597 592.877 264.352C593.037 264.795 593.157 265.385 592.767 265.66" fill="#F9B8B0"/>
<path d="M540.28 425.581C540.589 427.499 541.019 429.395 541.57 431.258C542.139 432.705 546.968 431.377 547.278 430.442C547.588 429.507 545.768 422.63 545.768 422.63" fill="#F9B8B0"/>
<path d="M548.968 431.632C549.377 433.187 549.907 436.188 549.907 436.188L545.089 438.254L544.299 437.536C543.552 438.394 542.646 439.105 541.629 439.631C540.132 440.24 538.564 440.667 536.961 440.901C532.762 441.353 529.642 440.576 529.412 439.995C528.413 437.595 533.951 436.955 535.061 436.67C536.331 436.337 537.49 435.679 538.418 434.763C539.347 433.847 540.013 432.706 540.35 431.455C540.6 430.196 540.27 429.97 540.99 430.009C541.218 430.016 541.443 430.069 541.649 430.166C541.858 430.26 542.045 430.393 542.199 430.56C542.616 431.029 543.172 431.356 543.789 431.495C544.403 431.633 545.045 431.581 545.628 431.347C546.329 431.067 546.923 430.579 547.328 429.95C547.741 430.037 548.118 430.243 548.41 430.543C548.703 430.843 548.897 431.223 548.968 431.632V431.632Z" fill="#0E254B"/>
<path d="M561.595 370.307C553.473 371.716 545.181 371.908 537.001 370.877C538.06 373.888 540.66 377.765 541.669 381.966C544.949 395.927 546.068 414.68 546.928 426.241C546.928 426.241 545.359 429.192 540.34 426.969C532.792 408.629 519.625 371.487 519.745 363.41C519.895 353.138 545.928 350.619 565.014 348.13" fill="#14426F"/>
<path d="M594.827 349.753C600.825 354.082 561.575 370.307 561.575 370.307C557.34 371.123 553.033 371.528 548.718 371.517C548.268 370.769 547.931 369.96 547.718 369.116C547.478 367.995 547.608 366.824 547.408 365.702C547.167 364.611 546.689 363.584 546.009 362.691C545.336 361.793 544.477 361.045 543.489 360.497C541.502 359.419 539.323 358.724 537.071 358.451C531.762 357.615 522.494 358.205 522.494 358.205C534.291 349.645 558.435 348.523 569.673 347.815C571.852 351.318 593.977 349.133 594.827 349.753Z" fill="#14426F"/>
<path d="M552.727 435.342C552.697 437.28 552.787 439.219 552.997 441.147C553.307 442.672 558.285 442.18 558.765 441.314C559.245 440.448 558.645 433.384 558.645 433.384" fill="#F9B8B0"/>
<path d="M560.205 442.78C560.345 444.384 560.335 447.414 560.335 447.414L555.206 448.604L554.556 447.748C553.67 448.466 552.652 449.011 551.557 449.352C549.976 449.698 548.358 449.853 546.738 449.815C542.519 449.539 539.61 448.25 539.46 447.66C538.85 445.121 544.459 445.436 545.599 445.348C546.91 445.242 548.169 444.794 549.246 444.05C550.323 443.307 551.179 442.294 551.727 441.117C552.187 439.917 551.917 439.671 552.617 439.808C553.062 439.898 553.453 440.156 553.707 440.527C554.037 441.057 554.526 441.473 555.106 441.717C555.688 441.954 556.329 442.012 556.946 441.884C557.685 441.726 558.356 441.344 558.865 440.792C559.271 440.946 559.62 441.217 559.865 441.57C560.104 441.928 560.223 442.351 560.205 442.78V442.78Z" fill="#0E254B"/>
<path d="M607.923 348.897C599.094 349.653 590.23 349.932 581.37 349.734C577.97 349.734 552.277 354.476 549.827 358.766C545.828 365.81 552.467 406.976 551.827 436.493C551.827 436.493 554.906 439.021 560.355 436.64C561.714 422.158 570.412 387.987 564.354 372.038C578.51 373.888 589.977 375.728 602.814 371.527C605.814 370.543 608.083 368.447 609.403 364.639C610.722 360.832 610.112 352.341 607.923 348.897Z" fill="#14426F"/>
<path d="M574.551 287.306C574.551 287.306 571.462 287.473 570.892 287.522C568.295 287.659 565.729 288.142 563.264 288.959C559.765 290.238 557.266 293.445 554.476 295.954C551.687 298.463 537.481 311.696 534.801 312.159C532.122 312.621 508.888 296.958 508.888 296.958L503.209 302.556C503.209 302.556 528.473 325.52 536.001 325.559C539.66 325.559 559.825 315.14 566.273 311.077L574.551 287.306Z" fill="#F1592B"/>
<g opacity="0.25">
<path opacity="0.25" d="M536.061 321.152C530.872 321.437 507.068 303.55 504.319 301.474L503.209 302.566C503.209 302.566 528.473 325.53 536.001 325.569C539 325.569 553.567 318.367 561.994 313.566L564.184 312.316L562.874 304.593C562.874 304.593 541.55 320.837 536.061 321.152Z" fill="#CF4B2F"/>
</g>
<path d="M511.817 353.492H569.652L559.245 320.237C558.973 319.338 558.412 318.55 557.645 317.993C556.88 317.439 555.956 317.139 555.006 317.137H504.369C503.917 317.134 503.471 317.239 503.069 317.442C502.674 317.646 502.333 317.935 502.069 318.289C501.799 318.641 501.621 319.053 501.549 319.489C501.471 319.925 501.498 320.374 501.629 320.797L511.817 353.492Z" fill="#14426F"/>
<path d="M511.067 353.492H568.053L557.676 320.237C557.393 319.343 556.829 318.561 556.066 318.004C555.302 317.447 554.377 317.143 553.427 317.137H502.769C502.318 317.142 501.874 317.246 501.469 317.442C501.075 317.645 500.732 317.935 500.47 318.289C500.203 318.647 500.021 319.061 499.94 319.499C499.865 319.936 499.895 320.384 500.03 320.807L509.957 352.675C510.036 352.911 510.186 353.116 510.387 353.266C510.581 353.415 510.821 353.495 511.067 353.492Z" fill="#14426F"/>
<g opacity="0.25">
<g opacity="0.25">
<path opacity="0.25" d="M599.985 303.333C597.106 316.124 596.596 326.16 595.776 335.32C585.679 339.176 581.56 344.922 571.672 349.251C571.672 349.251 563.864 347.972 563.044 350.875C562.574 352.548 572.182 353.876 572.182 353.876C581.35 353.876 605.514 347.333 607.173 346.89C608.833 346.447 613.572 316.222 613.762 299.811C613.762 297.489 613.702 294.961 612.222 293.131C611.389 292.211 610.366 291.477 609.223 290.976C602.774 287.729 597.996 286.843 590.777 286.391" fill="#CF4B2F"/>
</g>
</g>
<path d="M573.052 351.2C571.972 349.852 569.983 349.655 568.243 349.704C566.948 349.732 565.657 349.834 564.374 350.009C563.794 350.088 563.124 350.216 563.054 350.845C562.984 351.475 565.894 350.845 567.403 351.278C564.431 351.524 561.447 351.603 558.465 351.514C558.129 351.481 557.789 351.514 557.466 351.613C557.301 351.667 557.158 351.77 557.056 351.908C556.947 352.042 556.887 352.209 556.886 352.38C556.904 352.513 556.95 352.641 557.02 352.756C557.091 352.872 557.184 352.971 557.296 353.049C558.184 353.728 559.247 354.151 560.365 354.269C564.917 355.197 569.645 354.786 573.962 353.089" fill="#F9B8B0"/>
<path d="M599.355 303.097C599.115 316.783 598.125 323.06 598.405 336.736C591.407 338.183 581.75 345.985 571.862 350.314C571.534 351.502 571.651 352.766 572.192 353.876C572.922 354.151 605.544 346.339 608.183 343.988C610.522 341.872 613.602 316.213 613.792 299.811C613.792 297.479 613.742 294.951 612.262 293.131C611.426 292.211 610.405 291.474 609.263 290.966C602.804 287.729 598.036 286.834 590.807 286.381" fill="#F1592B"/>
<path opacity="0.45" d="M540.46 335.871C540.67 338.744 537.17 341.144 532.642 341.144C528.113 341.144 524.264 338.812 524.064 335.871C523.864 332.929 527.363 330.587 531.892 330.587C536.421 330.587 540.26 332.988 540.46 335.871Z" fill="white"/>
<path d="M537.44 335.871C537.57 337.484 535.351 338.822 532.442 338.822C529.532 338.822 527.123 337.504 526.993 335.871C526.863 334.237 529.083 332.919 531.992 332.919C534.901 332.919 537.341 334.277 537.44 335.871Z" fill="white"/>
<path d="M594.046 260.938C593.913 259.8 593.7 258.672 593.407 257.563C593.05 256.115 592.393 254.755 591.477 253.568C590.549 252.389 589.39 251.406 588.068 250.676C584.32 248.844 580.021 248.424 575.981 249.495C573.782 250.105 572.982 251.256 571.802 251.217C570.73 251.035 569.69 250.704 568.713 250.233C560.065 247.183 561.515 255.507 562.434 257.799C562.844 258.783 564.804 259.541 565.064 259.954C565.272 261.072 565.402 262.203 565.454 263.338C565.522 263.616 565.655 263.875 565.842 264.094C566.03 264.312 566.266 264.485 566.533 264.598C566.533 264.598 566.533 261.912 566.633 261.548C566.644 261.062 566.763 260.585 566.983 260.151C567.206 259.717 567.52 259.335 567.903 259.029C568.87 258.541 569.928 258.25 571.012 258.173C573.175 258.214 575.321 258.565 577.381 259.216C578.99 260.574 579.38 263.693 579.86 265.523C580.07 266.379 580.29 266.959 580.64 266.959C580.91 264.44 581.8 264.381 583.329 265.237C584.149 265.7 584.599 267.294 584.629 268.642C584.629 270.245 583.759 272.006 582.049 272.361C581.45 272.489 583.279 275.932 584.139 276.788C584.411 277.074 584.72 277.322 585.059 277.526C585.371 277.701 585.708 277.83 586.058 277.91L587.288 278.244C587.831 278.442 588.419 278.489 588.988 278.382C589.908 278.136 590.377 277.182 590.797 276.336C591.477 274.958 592.267 273.62 592.797 272.193C594.097 268.588 594.525 264.734 594.046 260.938V260.938Z" fill="#14426F"/>
<path d="M199.224 79.4301C199.224 70.7129 186.337 73.5268 186.337 68.5188C186.337 66.551 187.817 65.5671 189.797 65.5671C191.956 65.5671 193.286 66.8757 193.396 68.5188H198.934C198.614 64.052 195.085 61.4643 189.936 61.4643C184.788 61.4643 181.089 64.1602 181.089 68.6172C181.089 77.5804 194.005 74.3631 194.005 79.7056C194.005 81.4766 192.606 82.7163 190.226 82.7163C189.752 82.7669 189.272 82.7198 188.818 82.5781C188.363 82.4364 187.943 82.2032 187.585 81.8932C187.227 81.5832 186.938 81.2033 186.737 80.7776C186.536 80.3518 186.427 79.8896 186.417 79.4203H181.019C181.089 84.1036 185.118 86.7896 190.336 86.7896C196.055 86.829 199.224 83.3263 199.224 79.4301ZM212.141 70.7129C212.737 70.6701 213.336 70.7466 213.902 70.9378C214.467 71.129 214.988 71.4309 215.431 71.8253C215.875 72.2197 216.233 72.6985 216.484 73.2327C216.734 73.7669 216.872 74.3456 216.89 74.9338H207.442C207.531 73.7734 208.067 72.6902 208.941 71.9057C209.814 71.1212 210.959 70.6945 212.141 70.7129ZM221.609 80.4239H216.17C215.828 81.1726 215.262 81.8008 214.547 82.2245C213.832 82.6482 213.004 82.8472 212.171 82.795C211.553 82.8107 210.938 82.7054 210.361 82.4852C209.785 82.265 209.259 81.9344 208.813 81.5124C208.368 81.0904 208.012 80.5856 207.766 80.0271C207.52 79.4687 207.39 78.8678 207.382 78.2593H221.959C222.059 77.628 222.106 76.9895 222.099 76.3506C222.099 70.5063 218.03 66.6396 212.271 66.6396C206.512 66.6396 202.273 70.5751 202.273 76.7736C202.273 82.9721 206.482 86.8978 212.271 86.8978C217.24 86.8978 220.549 84.0347 221.629 80.4239H221.609ZM225.788 86.583H230.786V60.3722H225.788V86.583ZM234.505 76.7441C234.505 82.8639 238.504 86.9372 243.583 86.9372C244.867 86.9778 246.141 86.7086 247.295 86.1529C248.449 85.5972 249.447 84.772 250.202 83.7494V86.6223H255.28V66.9643H250.202V69.8077C249.441 68.8026 248.445 67.9938 247.297 67.4506C246.15 66.9074 244.886 66.646 243.613 66.6888C238.564 66.6396 234.525 70.5751 234.525 76.6949L234.505 76.7441ZM250.202 76.813C250.202 80.5321 247.682 82.5884 244.913 82.5884C242.144 82.5884 239.654 80.4632 239.654 76.7441C239.654 73.025 242.214 71.0376 244.913 71.0376C247.612 71.0376 250.222 73.0545 250.222 76.7736L250.202 76.813ZM288.092 86.6519H293.091V75.0715C293.091 69.6503 289.702 66.6789 284.923 66.6789C283.557 66.6719 282.213 67.0136 281.021 67.6707C279.83 68.3277 278.832 69.2776 278.125 70.4275C277.422 69.2294 276.396 68.2455 275.162 67.5841C273.927 66.9226 272.53 66.6094 271.126 66.6789C270.006 66.645 268.893 66.8673 267.875 67.3282C266.857 67.7892 265.961 68.4762 265.258 69.3354V66.9643H260.259V86.583H265.258V75.711C265.258 72.6019 267.017 70.9687 269.757 70.9687C272.496 70.9687 274.186 72.6019 274.186 75.711V86.5338H279.184V75.711C279.184 72.6019 280.944 70.9687 283.643 70.9687C286.343 70.9687 288.122 72.6315 288.122 75.711L288.092 86.6519ZM296.61 76.813C296.61 82.9328 300.609 87.0061 305.688 87.0061C306.972 87.0467 308.246 86.7774 309.4 86.2218C310.553 85.6661 311.551 84.8409 312.306 83.8183V86.6912H317.385V66.9643H312.306V69.8077C311.546 68.8026 310.549 67.9938 309.402 67.4506C308.255 66.9074 306.99 66.646 305.718 66.6888C300.669 66.6396 296.63 70.5751 296.63 76.6949L296.61 76.813ZM312.306 76.8819C312.306 80.601 309.787 82.6573 307.018 82.6573C304.248 82.6573 301.759 80.5321 301.759 76.813C301.759 73.0939 304.318 71.1064 307.018 71.1064C309.717 71.1064 312.326 73.0545 312.326 76.7736L312.306 76.8819ZM323.114 80.4927C323.114 84.9891 325.673 86.583 329.482 86.583H332.651V82.4015H330.312C328.732 82.4015 328.192 81.8406 328.192 80.5222V71.0376H332.651V66.9643H328.192V62.1039H323.114V66.9643H320.734V71.0376H323.114V80.4927ZM353.636 61.8579H344.848V86.583H353.636C361.634 86.583 366.883 81.7324 366.883 74.2549C366.883 66.7773 361.664 61.8579 353.636 61.8579ZM349.887 82.3719V66.0394H353.456C358.745 66.0394 361.734 69.119 361.734 74.2549C361.734 79.3908 358.735 82.3719 353.456 82.3719H349.887ZM369.352 76.6949C369.352 82.8147 373.351 86.888 378.42 86.888C379.713 86.9395 380.999 86.6765 382.163 86.1222C383.328 85.5678 384.336 84.7393 385.098 83.71V86.583H390.097V66.9643H385.098V69.8077C384.337 68.8032 383.341 67.9948 382.193 67.4517C381.046 66.9086 379.782 66.6468 378.51 66.6888C373.381 66.6396 369.352 70.5751 369.352 76.6949ZM385.048 76.7638C385.048 80.4829 382.529 82.5392 379.76 82.5392C376.99 82.5392 374.501 80.4239 374.501 76.6949C374.501 72.966 377.06 70.9884 379.76 70.9884C382.459 70.9884 385.098 73.0545 385.098 76.7736L385.048 76.7638ZM395.836 80.4829C395.836 84.9793 398.395 86.5732 402.204 86.5732H405.373V82.4015H403.034C401.454 82.4015 400.914 81.8406 400.914 80.5222V71.0376H405.373V66.9643H400.914V62.1039H395.836V66.9643H393.456V71.0376H395.836V80.4829ZM407.703 76.6949C407.703 82.8147 411.702 86.888 416.77 86.888C418.055 86.9312 419.33 86.6631 420.484 86.1072C421.638 85.5513 422.636 84.7247 423.389 83.7002V86.5732H428.468V66.9643H423.389V69.8077C422.631 68.8027 421.636 67.9939 420.49 67.4506C419.344 66.9073 418.082 66.6459 416.81 66.6888C411.732 66.6396 407.703 70.5751 407.703 76.6949ZM423.389 76.7638C423.389 80.4829 420.869 82.5392 418.1 82.5392C415.331 82.5392 412.851 80.414 412.851 76.6949C412.851 72.9758 415.401 70.9884 418.1 70.9884C420.799 70.9884 423.389 73.0545 423.389 76.7736V76.7638ZM447.383 86.6027H452.382V75.0715C452.382 69.6503 449.072 66.6789 444.384 66.6789C443.238 66.6492 442.101 66.8796 441.061 67.3523C440.021 67.8249 439.105 68.5271 438.385 69.4043V66.9643H433.386V86.583H438.385V75.711C438.385 72.5626 440.155 70.8605 442.884 70.8605C445.613 70.8605 447.313 72.5626 447.313 75.711L447.383 86.6027ZM455.921 76.7638C455.921 82.8836 459.92 86.9569 465.028 86.9569C466.309 86.9911 467.578 86.7157 468.725 86.1548C469.872 85.5938 470.861 84.7645 471.607 83.7396V86.7798C471.607 90.43 469.447 91.9944 466.678 91.9944C464.159 91.9944 462.289 90.8235 461.789 89.0427H456.79C457.3 93.5391 461.219 96.3038 466.838 96.3038C473.386 96.3038 476.696 92.0829 476.696 86.7699V66.9643H471.577V69.8077C470.823 68.7977 469.83 67.9851 468.683 67.4413C467.536 66.8975 466.271 66.6391 464.998 66.6888C459.92 66.6396 455.891 70.5751 455.891 76.6949L455.921 76.7638ZM471.607 76.8327C471.607 80.5518 469.087 82.6081 466.318 82.6081C463.549 82.6081 461.079 80.4239 461.079 76.6949C461.079 72.966 463.629 70.9884 466.328 70.9884C469.027 70.9884 471.577 73.0545 471.577 76.7736L471.607 76.8327ZM488.823 65.8722H495.511V86.583H500.51V65.8722H507.208V61.8579H488.823V65.8722ZM510.927 86.5928H515.926V75.711C515.926 72.5626 517.685 70.8605 520.425 70.8605C523.164 70.8605 524.854 72.5626 524.854 75.711V86.5338H529.852V75.0715C529.852 69.6503 526.573 66.6789 522.074 66.6789C520.899 66.6352 519.73 66.8583 518.657 67.3309C517.584 67.8036 516.636 68.513 515.886 69.4043V60.3722H510.887L510.927 86.5928ZM534.721 86.5928H539.72V66.9643H534.721V86.5928ZM537.271 64.6325C537.703 64.7112 538.148 64.6953 538.574 64.5858C539 64.4763 539.396 64.2759 539.734 63.9989C540.073 63.7219 540.345 63.3751 540.532 62.983C540.718 62.5908 540.815 62.1631 540.815 61.73C540.815 61.2969 540.718 60.8691 540.532 60.477C540.345 60.0849 540.073 59.738 539.734 59.461C539.396 59.184 539 58.9837 538.574 58.8742C538.148 58.7647 537.703 58.7488 537.271 58.8275C536.838 58.7488 536.393 58.7647 535.967 58.8742C535.541 58.9837 535.145 59.184 534.807 59.461C534.469 59.738 534.197 60.0849 534.01 60.477C533.823 60.8691 533.726 61.2969 533.726 61.73C533.726 62.1631 533.823 62.5908 534.01 62.983C534.197 63.3751 534.469 63.7219 534.807 63.9989C535.145 64.2759 535.541 64.4763 535.967 64.5858C536.393 64.6953 536.838 64.7112 537.271 64.6325V64.6325ZM558.705 86.5928H563.704V75.0715C563.704 69.6503 560.385 66.6789 555.706 66.6789C554.56 66.6477 553.423 66.8775 552.382 67.3502C551.342 67.823 550.426 68.5259 549.708 69.4043V66.9643H544.709V86.583H549.708V75.711C549.708 72.5626 551.467 70.8605 554.206 70.8605C556.946 70.8605 558.635 72.5626 558.635 75.711L558.705 86.5928ZM568.533 86.5928H573.532V78.2298L580.3 86.5928H586.848L578.051 76.8031L586.838 66.9643H580.28L573.592 75.288V60.3722H568.593L568.533 86.5928ZM598.116 70.7227C598.712 70.68 599.311 70.7565 599.876 70.9477C600.442 71.1389 600.962 71.4408 601.406 71.8352C601.85 72.2296 602.208 72.7083 602.458 73.2425C602.709 73.7768 602.847 74.3554 602.864 74.9436H593.397C593.483 73.778 594.021 72.6895 594.899 71.9024C595.777 71.1154 596.928 70.6896 598.116 70.7129V70.7227ZM607.583 80.4337H602.145C601.802 81.1825 601.236 81.8106 600.522 82.2343C599.807 82.658 598.978 82.8571 598.146 82.8049C597.527 82.8205 596.912 82.7152 596.336 82.4951C595.759 82.2749 595.233 81.9442 594.788 81.5222C594.342 81.1003 593.986 80.5954 593.741 80.0369C593.495 79.4785 593.364 78.8776 593.357 78.2691H607.943C608.044 77.6379 608.091 76.9994 608.083 76.3604C608.083 70.5161 604.014 66.6494 598.256 66.6494C592.497 66.6494 588.258 70.585 588.258 76.7835C588.258 82.982 592.467 86.9077 598.256 86.9077C603.194 86.8978 606.503 84.0347 607.583 80.4239V80.4337ZM616.801 76.813C616.801 73.025 618.6 71.8935 621.59 71.8935H622.919V66.6789C621.691 66.6488 620.477 66.9409 619.402 67.5254C618.327 68.1098 617.429 68.9655 616.801 70.0045V66.9643H611.802V86.583H616.801V76.813Z" fill="#FCFEFF"/>
<defs>
<linearGradient id="paint0_linear" x1="744.079" y1="509.487" x2="-250.343" y2="59.0187" gradientUnits="userSpaceOnUse">
<stop stop-color="#1C537C"/>
<stop offset="1" stop-color="#91D0FF"/>
</linearGradient>
<linearGradient id="paint1_linear" x1="265.698" y1="282.593" x2="358.804" y2="446.451" gradientUnits="userSpaceOnUse">
<stop stop-color="#00ADE5"/>
<stop offset="1" stop-color="#1E4394"/>
</linearGradient>
<linearGradient id="paint2_linear" x1="274.066" y1="311.706" x2="347.516" y2="440.983" gradientUnits="userSpaceOnUse">
<stop stop-color="#00B3CE"/>
<stop offset="0.14" stop-color="#00B0D4"/>
<stop offset="0.56" stop-color="#00ABDF"/>
<stop offset="1" stop-color="#00A9E3"/>
</linearGradient>
<linearGradient id="paint3_linear" x1="5.24504e+06" y1="-8.82121e+06" x2="6.75401e+06" y2="-9.96845e+06" gradientUnits="userSpaceOnUse">
<stop stop-color="#00ADE5"/>
<stop offset="1" stop-color="#1E4394"/>
</linearGradient>
<linearGradient id="paint4_linear" x1="80724.4" y1="74309.3" x2="156156" y2="146054" gradientUnits="userSpaceOnUse">
<stop stop-color="#FBFEFF"/>
<stop offset="1" stop-color="#1E4394"/>
</linearGradient>
<linearGradient id="paint5_linear" x1="62253.3" y1="29513.1" x2="100750" y2="48267.3" gradientUnits="userSpaceOnUse">
<stop stop-color="#14426F"/>
<stop offset="0.14" stop-color="#00B0D4"/>
<stop offset="0.56" stop-color="#00ABDF"/>
<stop offset="1" stop-color="#00A9E3"/>
</linearGradient>
<linearGradient id="paint6_linear" x1="3.14141e+06" y1="-5.27359e+06" x2="4.16651e+06" y2="-6.12533e+06" gradientUnits="userSpaceOnUse">
<stop stop-color="#00ADE5"/>
<stop offset="1" stop-color="#1E4394"/>
</linearGradient>
<linearGradient id="paint7_linear" x1="403580" y1="-650475" x2="468134" y2="-655592" gradientUnits="userSpaceOnUse">
<stop stop-color="#00B3CE"/>
<stop offset="0.14" stop-color="#00B0D4"/>
<stop offset="0.56" stop-color="#00ABDF"/>
<stop offset="1" stop-color="#00A9E3"/>
</linearGradient>
<linearGradient id="paint8_linear" x1="1.64448e+06" y1="-2.73854e+06" x2="1.91112e+06" y2="-2.79484e+06" gradientUnits="userSpaceOnUse">
<stop stop-color="#00B3CE"/>
<stop offset="0.14" stop-color="#00B0D4"/>
<stop offset="0.56" stop-color="#00ABDF"/>
<stop offset="1" stop-color="#00A9E3"/>
</linearGradient>
<linearGradient id="paint9_linear" x1="28600.4" y1="18746.3" x2="34223.4" y2="22478.3" gradientUnits="userSpaceOnUse">
<stop stop-color="#0E254B"/>
<stop offset="0.14" stop-color="#00B0D4"/>
<stop offset="0.56" stop-color="#00ABDF"/>
<stop offset="1" stop-color="#00A9E3"/>
</linearGradient>
<linearGradient id="paint10_linear" x1="1.75632e+06" y1="-2.94864e+06" x2="2.08957e+06" y2="-3.20196e+06" gradientUnits="userSpaceOnUse">
<stop stop-color="#00ADE5"/>
<stop offset="1" stop-color="#1E4394"/>
</linearGradient>
<linearGradient id="paint11_linear" x1="5.38978e+06" y1="-9.09631e+06" x2="9.4535e+06" y2="-1.11853e+07" gradientUnits="userSpaceOnUse">
<stop stop-color="#00ADE5"/>
<stop offset="1" stop-color="#1E4394"/>
</linearGradient>
<linearGradient id="paint12_linear" x1="1.65683e+06" y1="-2.76421e+06" x2="2.37403e+06" y2="-2.86094e+06" gradientUnits="userSpaceOnUse">
<stop stop-color="#00B3CE"/>
<stop offset="0.14" stop-color="#00B0D4"/>
<stop offset="0.56" stop-color="#00ABDF"/>
<stop offset="1" stop-color="#00A9E3"/>
</linearGradient>
<linearGradient id="paint13_linear" x1="24647.7" y1="29187.8" x2="28173.2" y2="33450.4" gradientUnits="userSpaceOnUse">
<stop stop-color="#FDFEFF"/>
<stop offset="1" stop-color="#1E4394"/>
</linearGradient>
<linearGradient id="paint14_linear" x1="136739" y1="-216569" x2="150970" y2="-217696" gradientUnits="userSpaceOnUse">
<stop stop-color="#00B3CE"/>
<stop offset="0.14" stop-color="#00B0D4"/>
<stop offset="0.56" stop-color="#00ABDF"/>
<stop offset="1" stop-color="#00A9E3"/>
</linearGradient>
<linearGradient id="paint15_linear" x1="543044" y1="-898686" x2="601965" y2="-911139" gradientUnits="userSpaceOnUse">
<stop stop-color="#00B3CE"/>
<stop offset="0.14" stop-color="#00B0D4"/>
<stop offset="0.56" stop-color="#00ABDF"/>
<stop offset="1" stop-color="#00A9E3"/>
</linearGradient>
<linearGradient id="paint16_linear" x1="113091" y1="464.25" x2="186227" y2="464.25" gradientUnits="userSpaceOnUse">
<stop stop-color="#FE5722"/>
<stop offset="1" stop-color="#1E4394"/>
</linearGradient>
<linearGradient id="paint17_linear" x1="3.36913e+07" y1="14547.8" x2="5.06193e+07" y2="14547.8" gradientUnits="userSpaceOnUse">
<stop stop-color="#FE5722"/>
<stop offset="1" stop-color="#1E4394"/>
</linearGradient>
<linearGradient id="paint18_linear" x1="1050.97" y1="295.315" x2="1141.81" y2="295.315" gradientUnits="userSpaceOnUse">
<stop stop-color="white"/>
<stop offset="0.14" stop-color="#00B0D4"/>
<stop offset="0.56" stop-color="#00ABDF"/>
<stop offset="1" stop-color="#00A9E3"/>
</linearGradient>
<linearGradient id="paint19_linear" x1="8672.19" y1="3341.12" x2="9127.8" y2="3341.12" gradientUnits="userSpaceOnUse">
<stop stop-color="white"/>
<stop offset="0.14" stop-color="#00B0D4"/>
<stop offset="0.56" stop-color="#00ABDF"/>
<stop offset="1" stop-color="#00A9E3"/>
</linearGradient>
<linearGradient id="paint20_linear" x1="7838.93" y1="2886.57" x2="8222.18" y2="2886.57" gradientUnits="userSpaceOnUse">
<stop stop-color="white"/>
<stop offset="0.14" stop-color="#00B0D4"/>
<stop offset="0.56" stop-color="#00ABDF"/>
<stop offset="1" stop-color="#00A9E3"/>
</linearGradient>
<linearGradient id="paint21_linear" x1="47310.6" y1="11886.4" x2="58234.7" y2="11886.4" gradientUnits="userSpaceOnUse">
<stop stop-color="white"/>
<stop offset="0.14" stop-color="#00B0D4"/>
<stop offset="0.56" stop-color="#00ABDF"/>
<stop offset="1" stop-color="#00A9E3"/>
</linearGradient>
<linearGradient id="paint22_linear" x1="2350.51" y1="295.846" x2="2897.72" y2="295.846" gradientUnits="userSpaceOnUse">
<stop stop-color="#FBFEFF"/>
<stop offset="0.14" stop-color="#00B0D4"/>
<stop offset="0.56" stop-color="#00ABDF"/>
<stop offset="1" stop-color="#00A9E3"/>
</linearGradient>
<linearGradient id="paint23_linear" x1="24611.9" y1="4696.62" x2="27318.2" y2="4696.62" gradientUnits="userSpaceOnUse">
<stop stop-color="white"/>
<stop offset="0.14" stop-color="#00B0D4"/>
<stop offset="0.56" stop-color="#00ABDF"/>
<stop offset="1" stop-color="#00A9E3"/>
</linearGradient>
<linearGradient id="paint24_linear" x1="547.788" y1="390.693" x2="610.054" y2="500.285" gradientUnits="userSpaceOnUse">
<stop stop-color="#EF4136"/>
<stop offset="1" stop-color="#F78F47"/>
</linearGradient>
<linearGradient id="paint25_linear" x1="1.3715e+06" y1="-2.14112e+06" x2="1.38875e+06" y2="-2.6019e+06" gradientUnits="userSpaceOnUse">
<stop stop-color="#00ADE5"/>
<stop offset="1" stop-color="#1E4394"/>
</linearGradient>
</defs>
</svg>
