<svg width="462" height="63" viewBox="0 0 462 63" fill="none" xmlns="http://www.w3.org/2000/svg">
<path d="M20.052 32.728C20.052 23.872 7.164 26.68 7.164 21.64C7.164 19.588 8.64 18.616 10.62 18.688C12.78 18.724 14.112 20.02 14.22 21.676H19.764C19.44 17.14 15.912 14.512 10.764 14.512C5.58 14.512 1.908 17.248 1.908 21.784C1.872 30.892 14.832 27.616 14.832 33.052C14.832 34.852 13.428 36.112 11.052 36.112C8.712 36.112 7.38 34.78 7.236 32.764H1.836C1.908 37.516 5.94 40.252 11.16 40.252C16.884 40.252 20.052 36.688 20.052 32.728ZM32.9895 23.872C35.5815 23.872 37.6695 25.528 37.7415 28.156H28.2735C28.6695 25.42 30.5775 23.872 32.9895 23.872ZM42.4575 33.736H37.0215C36.3735 35.068 35.1855 36.148 33.0255 36.148C30.5055 36.148 28.4895 34.492 28.2375 31.54H42.8175C42.9255 30.892 42.9615 30.244 42.9615 29.596C42.9615 23.656 38.8935 19.732 33.1335 19.732C27.2295 19.732 23.1255 23.728 23.1255 30.028C23.1255 36.292 27.3375 40.324 33.1335 40.324C38.0655 40.324 41.3775 37.408 42.4575 33.736ZM46.6403 40H51.6803V13.36H46.6403V40ZM55.3638 29.956C55.3638 36.184 59.3958 40.324 64.4358 40.324C67.6038 40.324 69.8718 38.812 71.0598 37.084V40H76.1358V20.056H71.0598V22.9C69.8718 21.244 67.6758 19.732 64.4718 19.732C59.3958 19.732 55.3638 23.728 55.3638 29.956ZM71.0598 30.028C71.0598 33.808 68.5398 35.896 65.7678 35.896C63.0678 35.896 60.5118 33.736 60.5118 29.956C60.5118 26.176 63.0678 24.16 65.7678 24.16C68.5398 24.16 71.0598 26.248 71.0598 30.028ZM108.958 40H113.998V28.3C113.998 22.792 110.614 19.768 105.826 19.768C102.91 19.768 100.282 21.316 98.9862 23.584C97.6182 21.1 95.0622 19.768 91.9662 19.768C89.4822 19.768 87.3582 20.812 86.0982 22.468V20.056H81.0582V40H86.0982V28.984C86.0982 25.816 87.8622 24.16 90.5982 24.16C93.2622 24.16 95.0262 25.816 95.0262 28.984V40H100.066V28.984C100.066 25.816 101.83 24.16 104.53 24.16C107.194 24.16 108.958 25.816 108.958 28.984V40ZM117.485 29.956C117.485 36.184 121.517 40.324 126.557 40.324C129.725 40.324 131.993 38.812 133.181 37.084V40H138.257V20.056H133.181V22.9C131.993 21.244 129.797 19.732 126.593 19.732C121.517 19.732 117.485 23.728 117.485 29.956ZM133.181 30.028C133.181 33.808 130.661 35.896 127.889 35.896C125.189 35.896 122.633 33.736 122.633 29.956C122.633 26.176 125.189 24.16 127.889 24.16C130.661 24.16 133.181 26.248 133.181 30.028ZM143.971 33.808C143.971 38.38 146.527 40 150.343 40H153.511V35.752H151.171C149.587 35.752 149.047 35.176 149.047 33.844V24.196H153.511V20.056H149.047V15.124H143.971V20.056H141.595V24.196H143.971V33.808ZM174.498 14.872H165.714V40H174.498C182.526 40 187.746 35.068 187.746 27.472C187.746 19.84 182.526 14.872 174.498 14.872ZM170.754 35.716V19.12H174.318C179.61 19.12 182.598 22.252 182.598 27.472C182.598 32.692 179.61 35.716 174.318 35.716H170.754ZM190.223 29.956C190.223 36.184 194.255 40.324 199.295 40.324C202.463 40.324 204.731 38.812 205.919 37.084V40H210.995V20.056H205.919V22.9C204.731 21.244 202.535 19.732 199.331 19.732C194.255 19.732 190.223 23.728 190.223 29.956ZM205.919 30.028C205.919 33.808 203.399 35.896 200.627 35.896C197.927 35.896 195.371 33.736 195.371 29.956C195.371 26.176 197.927 24.16 200.627 24.16C203.399 24.16 205.919 26.248 205.919 30.028ZM216.71 33.808C216.71 38.38 219.266 40 223.082 40H226.25V35.752H223.91C222.326 35.752 221.786 35.176 221.786 33.844V24.196H226.25V20.056H221.786V15.124H216.71V20.056H214.334V24.196H216.71V33.808ZM228.579 29.956C228.579 36.184 232.611 40.324 237.651 40.324C240.819 40.324 243.087 38.812 244.275 37.084V40H249.351V20.056H244.275V22.9C243.087 21.244 240.891 19.732 237.687 19.732C232.611 19.732 228.579 23.728 228.579 29.956ZM244.275 30.028C244.275 33.808 241.755 35.896 238.983 35.896C236.283 35.896 233.727 33.736 233.727 29.956C233.727 26.176 236.283 24.16 238.983 24.16C241.755 24.16 244.275 26.248 244.275 30.028ZM268.241 40H273.281V28.3C273.281 22.792 269.969 19.768 265.325 19.768C262.769 19.768 260.609 20.848 259.313 22.54V20.056H254.273V40H259.313V28.984C259.313 25.78 261.077 24.052 263.813 24.052C266.477 24.052 268.241 25.78 268.241 28.984V40ZM276.778 29.956C276.778 36.184 280.81 40.324 285.886 40.324C289.018 40.324 291.286 38.776 292.474 37.048V40.144C292.474 43.852 290.314 45.436 287.542 45.436C285.022 45.436 283.15 44.248 282.646 42.448H277.642C278.146 47.02 282.07 49.828 287.686 49.828C294.238 49.828 297.55 45.544 297.55 40.144V20.056H292.474V22.9C291.286 21.172 289.018 19.732 285.886 19.732C280.81 19.732 276.778 23.728 276.778 29.956ZM292.474 30.028C292.474 33.808 289.954 35.896 287.182 35.896C284.482 35.896 281.926 33.736 281.926 29.956C281.926 26.176 284.482 24.16 287.182 24.16C289.954 24.16 292.474 26.248 292.474 30.028ZM309.718 18.94H316.414V40H321.454V18.94H328.15V14.872H309.718V18.94ZM331.828 40H336.868V28.984C336.868 25.78 338.632 24.052 341.368 24.052C344.032 24.052 345.796 25.78 345.796 28.984V40H350.836V28.3C350.836 22.792 347.56 19.768 343.06 19.768C340.396 19.768 338.164 20.848 336.868 22.54V13.36H331.828V40ZM355.629 40H360.669V20.056H355.629V40ZM358.185 17.68C359.949 17.68 361.281 16.384 361.281 14.728C361.281 13.072 359.949 11.776 358.185 11.776C356.385 11.776 355.089 13.072 355.089 14.728C355.089 16.384 356.385 17.68 358.185 17.68ZM379.616 40H384.656V28.3C384.656 22.792 381.344 19.768 376.7 19.768C374.144 19.768 371.984 20.848 370.688 22.54V20.056H365.648V40H370.688V28.984C370.688 25.78 372.452 24.052 375.188 24.052C377.852 24.052 379.616 25.78 379.616 28.984V40ZM389.449 40H394.489V31.504L401.257 40H407.809L398.953 30.064L407.737 20.056H401.185L394.489 28.516V13.36H389.449V40ZM419.04 23.872C421.632 23.872 423.72 25.528 423.792 28.156H414.324C414.72 25.42 416.628 23.872 419.04 23.872ZM428.508 33.736H423.072C422.424 35.068 421.236 36.148 419.076 36.148C416.556 36.148 414.54 34.492 414.288 31.54H428.868C428.976 30.892 429.012 30.244 429.012 29.596C429.012 23.656 424.944 19.732 419.184 19.732C413.28 19.732 409.176 23.728 409.176 30.028C409.176 36.292 413.388 40.324 419.184 40.324C424.116 40.324 427.428 37.408 428.508 33.736ZM437.731 30.064C437.731 26.212 439.531 25.06 442.519 25.06H443.851V19.768C441.079 19.768 438.991 21.1 437.731 23.152V20.056H432.691V40H437.731V30.064Z" fill="#FCFEFF"/>
</svg>
