<svg width="884" height="735" viewBox="0 0 884 735" fill="none" xmlns="http://www.w3.org/2000/svg">
<path d="M884 0C814.667 130 602.8 367.6 302 342C-55.789 311.55 39.1615 686.754 138.807 724.894C171.79 726.772 183.089 728.559 154 728C148.963 727.903 143.879 726.835 138.807 724.894C77.4505 721.4 -58.9471 717.594 -150 728L-10 250V0H884Z" fill="#C4C4C4" fill-opacity="0.16"/>
<path d="M336.889 715.953C423.5 728.5 405.836 722.48 436.5 729L-9.00003 733.557V421.908C10.1343 415.388 28.5327 403 72.6888 403C138.191 403 152.17 417.344 167.624 421.908C183.079 426.471 237.538 476.022 250.785 522.314C264.032 568.605 245 620 237.538 648.799C234.022 662.371 240.482 687.266 250.785 697.698C261.088 708.13 332.024 715.249 336.889 715.953Z" fill="#9CBED9" stroke="#9CBED9"/>
<path d="M12.8101 507.037C0.110132 506.522 -11.6883 511.54 -16 514.114L-15.412 729H175.675C175.283 725.998 174.735 719.735 175.675 718.706C176.851 717.419 174.499 712.916 173.911 711.629C173.323 710.342 171.56 711.629 170.384 712.916C169.208 714.202 161.564 718.063 161.564 718.706C161.564 719.349 141.574 721.923 136.282 722.566C130.99 723.21 114.527 721.28 108.06 720.636C101.592 719.993 86.3052 725.14 76.3099 727.07C68.3136 728.614 52.5955 720.851 45.7359 716.776C40.0523 713.559 29.9785 705.453 35.1526 698.762C41.6202 690.398 64.5507 697.475 76.3099 701.978C88.0691 706.482 119.231 710.986 120.407 711.629C121.583 712.272 162.74 703.908 168.62 705.195C173.323 706.225 175.283 702.622 175.675 700.692C176.263 677.53 176.381 631.336 172.148 631.851C166.856 632.494 158.624 638.928 133.342 651.152C113.116 660.931 88.4611 656.513 78.6617 653.082C71.0182 650.723 58.7886 643.689 71.0182 634.424C86.3052 622.844 106.296 622.2 107.472 622.844C108.648 623.487 129.226 626.061 150.393 621.557C171.56 617.053 168.62 615.767 170.972 612.55C173.323 609.333 161.564 586.815 152.157 576.521C142.749 566.227 140.986 544.996 140.398 544.996C139.81 544.996 139.222 525.695 142.162 519.261C145.101 512.827 145.101 513.47 145.101 511.54C145.101 509.61 142.162 510.254 138.046 512.184C133.93 514.114 122.759 516.687 119.819 517.331C117.467 517.845 109.04 516.258 105.12 515.401C90.4209 511.326 60.1997 505.364 56.9072 514.114C53.6146 522.864 52.0075 535.345 51.6155 540.492C51.0276 560.651 48.5581 600.712 43.3841 599.682C36.9165 598.396 36.3285 596.465 33.3887 594.535C31.0369 592.991 28.0971 587.029 26.9212 584.241C24.1773 573.09 19.8656 546.797 24.5693 530.842C30.4489 510.897 41.6202 514.114 36.9165 510.254C32.2128 506.393 28.685 507.68 12.8101 507.037Z" fill="#FE5722" stroke="#6491B2"/>
</svg>
