<svg width="702" height="468" viewBox="0 0 702 468" fill="none" xmlns="http://www.w3.org/2000/svg">
<path d="M562.074 371.018H541.451C541.451 359.966 534.17 349.073 528.726 339.789L528.204 338.897C523.516 330.799 517.418 323.279 515.614 313.859C515.092 311.12 514.989 308.154 516.271 305.678C517.637 303.034 520.418 301.346 523.301 300.606C557.657 291.803 564.838 337.651 562.074 371.018Z" fill="url(#paint0_linear)"/>
<path d="M553.208 371.018H552.336C552.235 366.347 551.793 361.69 551.014 357.083C550.097 351.52 548.731 346.04 546.927 340.697C543.347 329.975 537.848 319.993 530.697 311.236C530.108 310.487 530.63 310.089 531.247 310.754C539.13 319.151 545.088 329.164 548.708 340.096C550.532 345.545 551.819 351.16 552.551 356.861C553.173 361.552 553.392 366.289 553.208 371.018Z" fill="url(#paint1_linear)"/>
<path d="M598.848 371.018H619.837C619.837 344.121 650.278 317.705 627.325 314.851C619.16 313.832 613.333 318.016 609.179 324.517C598.848 340.649 598.848 371.018 598.848 371.018Z" fill="url(#paint2_linear)"/>
<path d="M575.875 371.018H601.636C605.834 332.277 604.687 235.159 548.564 244.698C505.51 252.011 574.775 307.959 575.875 371.018Z" fill="url(#paint3_linear)"/>
<path d="M561.791 266.089C565.137 269.938 568.049 274.143 570.474 278.63C572.942 283.084 575.055 287.726 576.795 292.512C578.578 297.29 580.097 302.163 581.347 307.107C582.61 312.048 583.685 317.036 584.534 322.081C586.263 332.164 587.442 342.334 588.066 352.545C588.465 358.7 588.708 364.859 588.767 371.014H590.524C590.755 364.823 590.743 358.62 590.524 352.418C590.167 342.073 589.102 331.766 587.337 321.567C586.453 316.463 585.306 311.399 583.944 306.399C582.598 301.382 580.939 296.454 578.977 291.644C578.037 289.224 576.914 286.867 575.791 284.526C574.576 282.221 573.401 279.904 572.007 277.714C569.287 273.287 566.216 269.047 562.544 265.372C561.469 264.198 560.748 264.835 561.791 266.089Z" fill="url(#paint4_linear)"/>
<path d="M555.63 371.018H577.03C577.03 371.018 582.666 325.978 558.466 326.01C536.405 326.026 551.141 353.859 555.63 371.018Z" fill="url(#paint5_linear)"/>
<path d="M562.002 337.13C565.189 347.262 566.531 357.872 567.28 368.438C567.324 369.294 567.371 370.162 567.415 371.018H569.275C569.243 370.102 569.2 369.202 569.14 368.307C568.343 357.621 566.575 346.903 562.648 336.875C562.317 336.098 561.732 336.337 562.002 337.13Z" fill="url(#paint6_linear)"/>
<path d="M606.877 371.018H608.22C608.713 366.937 609.331 362.856 610.099 358.819C611.232 353.178 612.745 347.619 614.628 342.182C615.134 340.828 615.707 339.51 616.221 338.181C616.496 337.516 616.739 336.839 617.045 336.19L618.009 334.263L618.961 332.324C619.264 331.672 619.609 331.041 619.993 330.433L622.251 326.754C622.721 325.998 622.343 325.688 621.817 326.456L619.363 330.039C618.949 330.639 618.578 331.266 618.252 331.918L617.197 333.833L616.153 335.76C615.819 336.401 615.556 337.078 615.249 337.751C614.676 339.092 614.054 340.41 613.517 341.764C611.457 347.219 609.842 352.832 608.689 358.549C607.906 362.692 607.302 366.848 606.877 371.018Z" fill="url(#paint7_linear)"/>
<path d="M80.2647 389.61H45.1877C45.1877 370.815 32.805 352.29 23.5449 336.5C23.2501 335.999 22.9554 335.485 22.6567 334.984C14.691 321.209 4.33556 308.421 1.24885 292.385C0.360673 287.723 0.181468 282.678 2.36806 278.45C4.69404 273.956 9.41771 271.081 14.3166 269.823C72.7491 254.882 84.9645 332.866 80.2647 389.61Z" fill="url(#paint8_linear)"/>
<path d="M65.1856 389.61H63.6841C63.5144 381.658 62.7636 373.729 61.4377 365.886C59.8788 356.424 57.5545 347.104 54.4877 338.017C48.398 319.786 39.0458 302.812 26.8865 287.922C25.8828 286.652 26.771 285.971 27.8224 287.102C41.2274 301.383 51.3596 318.411 57.5146 337.002C60.6174 346.271 62.8064 355.821 64.0505 365.516C65.1146 373.5 65.4944 381.561 65.1856 389.61Z" fill="url(#paint9_linear)"/>
<path d="M142.803 389.61H178.502C178.502 343.866 230.279 298.942 191.247 294.089C177.359 292.353 167.449 299.471 160.388 310.527C142.803 337.958 142.803 389.61 142.803 389.61Z" fill="url(#paint10_linear)"/>
<path d="M103.736 389.61H147.547C154.688 323.725 152.725 158.552 57.2916 174.776C-15.9371 187.201 101.876 282.352 103.736 389.61Z" fill="url(#paint11_linear)"/>
<path d="M79.7788 211.16C85.5539 217.633 90.3333 224.927 94.5432 232.491C98.7416 240.068 102.337 247.963 105.297 256.104C108.329 264.231 110.914 272.517 113.04 280.927C115.186 289.331 117.022 297.811 118.48 306.407C121.503 323.526 123.339 340.84 124.49 358.214C125.151 368.685 125.582 379.155 125.685 389.626H128.668C129.067 379.096 129.039 368.549 128.668 357.999C127.987 340.45 126.346 322.881 123.264 305.531C121.762 296.856 119.81 288.236 117.488 279.732C115.198 271.204 112.377 262.827 109.041 254.651C107.448 250.538 105.528 246.541 103.636 242.544C101.569 238.626 99.5775 234.685 97.1998 230.962C92.5757 223.438 87.3502 216.232 81.1051 209.962C79.2331 207.943 78.0064 209.054 79.7788 211.16Z" fill="url(#paint12_linear)"/>
<path d="M69.3039 389.61H105.667C105.667 389.61 115.254 313.011 74.0993 313.063C36.6365 313.087 61.6488 360.424 69.3039 389.61Z" fill="url(#paint13_linear)"/>
<path d="M80.1412 331.978C85.546 349.209 87.8441 367.256 89.1186 385.227C89.1943 386.68 89.27 388.157 89.3496 389.606H92.512C92.4602 388.049 92.3846 386.521 92.281 384.992C90.9547 366.818 87.9197 348.592 81.2405 331.54C80.6749 330.218 79.6792 330.624 80.1412 331.978Z" fill="url(#paint14_linear)"/>
<path d="M156.441 389.61H158.723C159.563 382.667 160.615 375.728 161.909 368.864C163.837 359.271 166.41 349.82 169.612 340.573C170.472 338.272 171.444 336.031 172.344 333.77C172.814 332.639 173.22 331.488 173.75 330.378L175.387 327.101L177.004 323.805C177.52 322.696 178.107 321.621 178.761 320.588L182.604 314.329C183.401 313.043 182.759 312.518 181.863 313.824L177.689 319.947C176.985 320.963 176.353 322.027 175.797 323.132L174.001 326.388L172.225 329.665C171.659 330.756 171.209 331.906 170.683 333.037C169.708 335.318 168.656 337.56 167.736 339.861C164.232 349.139 161.485 358.685 159.523 368.406C158.204 375.432 157.176 382.5 156.441 389.61Z" fill="url(#paint15_linear)"/>
<path d="M453.76 195.526C435.439 185.807 409.85 225.265 409.85 225.265C418.656 198.376 448.304 129.27 422.519 112.167C401.589 98.2844 378.708 125.006 370.997 145.736C377.154 121.849 402.76 47.4641 378.166 37.5309C356.659 28.8519 340.93 64.1454 337.939 84.573C335.394 63.381 332.184 -8.46408 292.575 0.824107C254.435 10.6776 276.245 76.7499 286.29 100.852C274.859 86.5437 246.21 57.2101 231.326 79.9429C207.182 116.785 298.103 176.686 298.103 176.686C298.103 176.686 243.609 159.01 244.024 192.376C244.609 239.598 299.505 263.728 339.875 266.28C282.159 261.244 287.747 314.421 328.787 335.262C363.286 352.78 405.385 349.85 437.737 328.765C459.464 305.666 481.605 210.292 453.76 195.526Z" fill="url(#paint16_linear)"/>
<path d="M431.588 258.19C429.266 265.456 426.574 272.618 423.666 279.581C421.411 284.92 418.851 290.126 415.999 295.172C398.097 271.974 381.859 247.538 367.408 222.049C372.039 215.539 376.334 208.798 380.277 201.852C384.539 194.22 388.545 186.114 392.114 178.012C395.683 169.91 398.885 161.594 401.701 153.221C404.517 144.849 407.07 136.413 408.93 127.849C406.697 136.317 403.992 144.654 400.824 152.819C397.714 161.02 394.245 169.142 390.409 176.977C386.574 184.812 382.308 192.631 377.819 199.925C373.909 206.182 369.678 212.232 365.142 218.051C353.86 198.044 343.802 177.372 335.024 156.147C339.098 148.352 343.105 140.541 346.367 132.288C348.259 128.1 349.709 123.665 351.425 119.409C352.875 115.002 354.484 110.65 355.826 106.271C358.503 97.5518 361.115 88.602 363.254 79.6762C365.393 70.7503 367.301 61.7885 368.627 52.7472C366.998 61.7129 364.792 70.5632 362.362 79.3417C359.932 88.1203 357.029 96.8989 354.078 105.403C352.596 109.671 350.852 113.907 349.266 118.187C347.418 122.311 345.833 126.607 343.818 130.636C340.632 137.842 336.876 144.626 333.024 151.338C316.827 109.644 304.352 66.6003 295.745 22.7089C303.216 66.9982 314.59 110.54 329.735 152.827C322.375 150.976 315.189 148.491 308.259 145.398C299.912 141.645 291.874 137.241 284.218 132.228C276.22 126.975 268.573 121.205 261.325 114.958C253.746 108.436 246.628 101.397 240.021 93.8931C246.457 101.699 253.421 109.055 260.863 115.909C268.003 122.504 275.562 128.631 283.494 134.251C291.129 139.639 299.175 144.422 307.558 148.555C315.261 152.321 323.298 155.358 331.567 157.628C340.524 179.394 349.971 200.184 360.482 221.244C353.513 222.927 346.354 223.695 339.186 223.53C330.471 223.23 321.817 221.967 313.381 219.763C304.489 217.44 295.81 214.367 287.437 210.579C278.597 206.64 270.098 201.98 262.026 196.644C270.016 202.327 278.455 207.349 287.261 211.662C295.64 215.828 304.355 219.283 313.313 221.989C321.869 224.574 330.685 226.207 339.6 226.858C347.293 227.337 355.016 226.772 362.557 225.178C376.447 251.253 392.161 276.317 409.583 300.18C403.2 301.952 396.7 303.269 390.13 304.121C381.656 305.206 373.115 305.688 364.573 305.563C355.741 305.419 346.926 304.733 338.178 303.508C329.094 302.244 320.105 300.368 311.274 297.891C320.12 300.748 329.148 303.01 338.298 304.659C347.12 306.253 356.032 307.305 364.983 307.808C373.67 308.282 382.38 308.137 391.047 307.374C398.192 306.725 405.278 305.543 412.247 303.839C432.998 331.556 455.748 357.983 480.828 381.902L488.308 373.781C462.977 350.889 439.876 325.449 418.707 298.695C421.602 292.993 424.158 287.125 426.362 281.122C428.987 273.864 431.377 266.459 433.396 258.998C435.416 251.537 437.287 244.029 438.936 236.524C440.585 229.02 442.123 221.503 443.317 213.983C441.788 221.427 439.964 228.833 438.008 236.206C436.053 243.579 433.91 250.932 431.588 258.19Z" fill="url(#paint17_linear)"/>
<path d="M509.507 266.759C516.597 259.06 535.396 273.547 535.396 273.547C526.709 262.225 500.984 234.313 510.379 221.847C518.011 211.731 533.388 220.609 540.534 229.185C533.591 218.834 508.922 187.744 518.966 178.886C527.729 171.151 541.155 185.308 546.002 194.528C543.656 184.014 533.126 149.286 553.534 147.06C573.34 145.352 574.045 180.455 573.316 193.613C576.355 184.886 585.066 166.122 595.971 174.439C613.647 187.923 580.438 231.677 580.438 231.677C580.438 231.677 603.399 214.132 608.804 230.085C616.451 252.658 594.374 273.348 575.591 281.331C602.212 269.252 608.481 295.5 592.446 312.301C578.968 326.426 558.441 332.091 539.502 327.481C525.283 320.132 498.738 278.456 509.507 266.759Z" fill="url(#paint18_linear)"/>
<path d="M529.967 299.147C532.282 301.927 534.752 304.606 537.293 307.163C539.253 309.123 541.335 310.978 543.529 312.72C548.134 300.001 551.744 287 554.332 273.817C551.052 271.715 547.892 269.462 544.865 267.067C541.571 264.423 538.32 261.538 535.275 258.589C532.231 255.639 529.329 252.537 526.594 249.357C523.841 246.206 521.283 242.918 518.931 239.509C521.403 242.82 524.078 246.002 526.942 249.04C529.785 252.101 532.782 255.069 535.914 257.871C539.045 260.673 542.367 263.388 545.709 265.851C548.603 267.955 551.615 269.922 554.732 271.744C556.738 261.406 558.052 250.968 558.669 240.486C555.384 237.788 552.258 234.934 549.305 231.936C547.719 230.418 546.28 228.726 544.754 227.15C543.331 225.47 541.84 223.836 540.472 222.156C537.749 218.802 535.014 215.344 532.512 211.817C530.011 208.29 527.608 204.72 525.468 201.024C527.739 204.63 530.261 208.121 532.881 211.536C535.501 214.951 538.34 218.294 541.158 221.51C542.574 223.126 544.108 224.687 545.575 226.289C547.14 227.785 548.607 229.397 550.237 230.829C552.949 233.394 555.81 235.825 558.807 238.113C559.513 217.679 558.23 197.228 554.974 177C558.831 197.228 560.715 217.727 560.603 238.257C563.78 236.341 566.769 234.178 569.535 231.791C572.862 228.906 575.934 225.786 578.724 222.462C581.635 218.983 584.294 215.334 586.684 211.539C589.185 207.577 591.381 203.463 593.257 199.225C591.513 203.567 589.444 207.797 587.065 211.882C584.782 215.809 582.222 219.597 579.402 223.223C576.684 226.707 573.672 229.991 570.391 233.046C567.373 235.845 564.073 238.38 560.536 240.619C559.929 251.362 558.926 261.758 557.467 272.436C561.05 272.103 564.569 271.346 567.937 270.186C572.015 268.733 575.904 266.875 579.532 264.643C583.357 262.291 586.954 259.648 590.288 256.742C593.817 253.704 597.066 250.407 600 246.883C597.165 250.542 594.007 253.986 590.557 257.179C587.284 260.248 583.733 263.061 579.941 265.588C576.318 268.003 572.414 270.047 568.298 271.682C564.733 273.057 560.981 273.986 557.142 274.445C554.919 287.796 551.663 300.987 547.398 313.921C550.717 313.716 554.016 313.296 557.269 312.666C561.465 311.851 565.591 310.767 569.618 309.421C573.779 308.017 577.84 306.381 581.78 304.523C585.872 302.604 589.816 300.436 593.586 298.032C589.871 300.607 585.971 302.951 581.911 305.05C577.996 307.077 573.947 308.883 569.788 310.459C565.752 311.983 561.602 313.244 557.368 314.231C553.876 315.037 550.322 315.605 546.736 315.93C541.539 331.032 535.176 345.882 527.291 360L522.391 357.634C530.566 343.931 537.257 329.442 542.815 314.693C540.492 312.674 538.301 310.533 536.255 308.281C533.797 305.551 531.43 302.72 529.226 299.814C527.022 296.907 524.865 293.95 522.847 290.968C520.829 287.986 518.839 284.975 517 281.917C518.982 284.892 521.071 287.809 523.228 290.69C525.384 293.572 527.656 296.37 529.967 299.147Z" fill="url(#paint19_linear)"/>
<path d="M613.716 308.23C620.885 306.681 625.812 322.562 625.812 322.562C625.414 312.558 621.948 286.166 632.376 282.818C640.839 280.103 646.065 291.401 646.714 299.204C646.917 290.474 645.348 262.677 654.68 261.658C662.84 260.77 664.804 274.302 663.84 281.564C666.748 274.589 674.749 250.427 687.339 257.398C699.383 264.421 685.594 284.828 679.855 292.074C685.124 288.3 697.706 281.062 700.594 290.235C705.274 305.105 668.54 316.77 668.54 316.77C668.54 316.77 688.797 315.973 685.443 327.316C680.7 343.344 659.678 346.286 645.682 343.277C665.828 347.107 658.826 364.688 642.823 367.841C629.384 370.492 615.341 365.452 606.336 355.153C601.178 345.196 602.811 310.579 613.716 308.23Z" fill="url(#paint20_linear)"/>
<path d="M615.437 332.139C615.529 334.839 615.756 337.534 616.078 340.185C616.332 342.221 616.703 344.24 617.189 346.233C625.521 340.052 633.404 333.29 640.78 325.996C639.83 323.335 639.017 320.627 638.342 317.883C637.625 314.873 637.04 311.728 636.606 308.622C636.172 305.517 635.881 302.38 635.726 299.254C635.545 296.145 635.537 293.028 635.702 289.918C635.647 293.017 635.767 296.117 636.06 299.203C636.331 302.296 636.733 305.389 637.283 308.435C637.833 311.481 638.538 314.546 639.362 317.461C640.089 319.967 640.945 322.435 641.927 324.854C647.696 319.125 653.112 313.052 658.145 306.667C657.46 303.625 656.936 300.549 656.576 297.451C656.337 295.858 656.265 294.19 656.09 292.578C656.018 290.938 655.891 289.301 655.855 287.677C655.783 284.448 655.751 281.152 655.883 277.903C656.014 274.654 656.225 271.422 656.644 268.213C656.337 271.422 656.245 274.65 656.217 277.875C656.19 281.1 656.345 284.369 656.532 287.55C656.628 289.142 656.815 290.758 656.93 292.367C657.165 293.959 657.289 295.552 657.588 297.144C658.005 299.869 657.44 304.003 658.145 306.667C667.68 294.022 676.077 280.558 683.237 266.433C676.431 280.801 669.495 293.106 660.268 306.054C662.953 306.131 665.639 305.975 668.297 305.589C671.501 305.113 674.663 304.386 677.753 303.415C680.982 302.394 684.142 301.164 687.212 299.732C690.421 298.239 693.523 296.526 696.496 294.604C693.553 296.644 690.474 298.48 687.28 300.098C684.212 301.657 681.047 303.017 677.805 304.167C674.69 305.268 671.494 306.124 668.246 306.727C665.259 307.274 662.229 307.541 659.193 307.523C654.047 314.077 648.837 320.263 643.221 326.414C645.433 327.658 647.798 328.608 650.255 329.241C653.255 329.976 656.327 330.377 659.416 330.435C662.669 330.498 665.921 330.285 669.138 329.798C672.526 329.309 675.869 328.54 679.131 327.501C675.862 328.668 672.504 329.567 669.09 330.188C665.834 330.802 662.533 331.14 659.221 331.2C656.057 331.258 652.897 330.967 649.797 330.332C647.13 329.753 644.553 328.816 642.138 327.545C634.897 335.092 627.133 342.119 618.902 348.574C620.905 349.791 622.992 350.865 625.147 351.787C627.93 352.97 630.792 353.955 633.714 354.733C636.737 355.534 639.805 356.148 642.903 356.572C646.119 357.015 649.362 357.24 652.609 357.245C649.321 357.366 646.03 357.266 642.755 356.946C639.596 356.641 636.458 356.143 633.36 355.453C630.354 354.779 627.401 353.892 624.522 352.798C622.15 351.89 619.85 350.807 617.639 349.557C607.922 357.068 597.596 363.757 586.768 369.555L585 366.071C595.816 360.644 606.162 354.326 615.931 347.184C615.494 344.964 615.188 342.72 615.015 340.464C614.82 337.737 614.716 334.986 614.748 332.251C614.78 329.516 614.863 326.777 615.023 324.061C615.182 321.346 615.389 318.639 615.696 315.96C615.501 318.643 615.409 321.342 615.365 324.041C615.321 326.741 615.345 329.428 615.437 332.139Z" fill="url(#paint21_linear)"/>
<path d="M62.1626 371.83C75.7999 369.234 85.6415 379.47 86.2907 380.119C86.8881 378.021 92.8345 358.696 112.115 351.852C124.303 347.509 135.045 350.602 138.741 351.852C137.473 348.527 137.163 344.912 137.848 341.42C138.533 337.927 140.184 334.697 142.614 332.096C145.044 329.495 148.156 327.628 151.595 326.707C155.034 325.786 158.663 325.848 162.068 326.886C166.058 320.683 171.785 315.79 178.535 312.815C185.286 309.841 192.762 308.915 200.035 310.155C207.307 311.395 214.054 314.745 219.436 319.788C224.819 324.831 228.599 331.345 230.307 338.519C234.751 331.878 242.745 328.53 250.289 330.178C257.032 331.628 262.428 336.771 264.476 343.512C268.73 339.061 274.088 335.816 280.004 334.107C285.92 332.399 292.184 332.287 298.157 333.784C304.131 335.28 309.601 338.332 314.011 342.628C318.422 346.924 321.615 352.312 323.266 358.242C332.311 351.1 344.491 348.4 355.81 351.96C372.749 357.291 383.415 375.258 379.707 393.444H41.3362C43.3755 382.416 51.7713 373.777 62.1626 371.83Z" fill="url(#paint22_linear)"/>
<path d="M392.337 378.431C402.724 376.44 410.22 384.251 410.714 384.745C411.172 383.153 415.696 368.422 430.385 363.219C439.669 359.91 447.85 362.267 450.666 363.219C449.699 360.686 449.463 357.933 449.985 355.273C450.506 352.612 451.764 350.152 453.615 348.171C455.466 346.19 457.836 344.768 460.456 344.067C463.076 343.365 465.84 343.413 468.433 344.204C471.473 339.481 475.834 335.755 480.976 333.49C486.117 331.225 491.811 330.52 497.35 331.465C502.888 332.409 508.027 334.961 512.126 338.801C516.225 342.642 519.105 347.603 520.406 353.066C523.791 348.006 529.881 345.458 535.624 346.697C538.168 347.272 540.511 348.517 542.411 350.303C544.311 352.089 545.699 354.35 546.429 356.853C549.669 353.462 553.75 350.989 558.257 349.687C562.763 348.385 567.534 348.299 572.085 349.439C576.635 350.579 580.802 352.904 584.161 356.177C587.52 359.45 589.952 363.554 591.209 368.072C598.099 362.629 607.375 360.575 615.998 363.294C628.898 367.355 637.023 381.039 634.212 394.889H376.473C378.03 386.493 384.423 379.912 392.337 378.431Z" fill="url(#paint23_linear)"/>
<path d="M506.175 370.405H493.549C493.549 363.637 489.092 356.972 485.759 351.295L485.44 350.749C482.569 345.793 478.841 341.194 477.733 335.422C477.415 333.746 477.335 331.93 478.132 330.413C478.968 328.797 480.669 327.762 482.437 327.308C503.471 321.909 507.868 349.977 506.175 370.405Z" fill="url(#paint24_linear)"/>
<path d="M500.746 370.405H500.205C500.148 367.542 499.881 364.688 499.408 361.865C498.847 358.459 498.011 355.103 496.907 351.832C494.715 345.27 491.349 339.161 486.973 333.801C486.611 333.343 486.934 333.101 487.312 333.507C492.138 338.647 495.786 344.777 498.002 351.47C499.119 354.806 499.908 358.244 500.356 361.734C500.733 364.608 500.863 367.508 500.746 370.405Z" fill="url(#paint25_linear)"/>
<path d="M528.686 370.405H541.535C541.535 353.938 560.17 337.759 546.119 336.023C541.12 335.398 537.552 337.962 535.011 341.939C528.686 351.812 528.686 370.405 528.686 370.405Z" fill="url(#paint26_linear)"/>
<path d="M514.622 370.405H530.39C532.959 346.689 532.258 287.237 497.902 293.077C471.548 297.552 513.949 331.803 514.622 370.405Z" fill="url(#paint27_linear)"/>
<path d="M506 306.172C508.047 308.529 509.829 311.104 511.313 313.851C512.823 316.579 514.116 319.421 515.18 322.351C516.272 325.276 517.203 328.259 517.968 331.285C518.741 334.311 519.402 337.365 519.928 340.442C520.986 346.614 521.708 352.839 522.09 359.09C522.329 362.86 522.489 366.626 522.52 370.397H523.596C523.735 366.607 523.731 362.809 523.596 359.014C523.38 352.682 522.73 346.371 521.652 340.127C521.111 337.002 520.41 333.901 519.573 330.843C518.75 327.772 517.735 324.755 516.534 321.81C515.957 320.329 515.272 318.892 514.591 317.45C513.846 316.041 513.129 314.624 512.273 313.282C510.643 310.544 508.699 308.006 506.482 305.718C505.804 305.013 505.362 305.415 506 306.172Z" fill="url(#paint28_linear)"/>
<path d="M502.228 370.405H515.316C515.316 370.405 518.765 342.835 503.952 342.851C490.47 342.866 499.476 359.898 502.228 370.405Z" fill="url(#paint29_linear)"/>
<path d="M506.135 349.658C508.083 355.861 508.923 362.355 509.365 368.824C509.393 369.346 509.421 369.879 509.449 370.417H510.588C510.588 369.855 510.54 369.306 510.504 368.756C510.026 362.215 508.935 355.654 506.521 349.515C506.322 349.025 505.964 349.173 506.135 349.658Z" fill="url(#paint30_linear)"/>
<path d="M533.617 370.405H534.413C534.716 367.904 535.094 365.408 535.564 362.936C536.263 359.482 537.195 356.08 538.352 352.752C538.663 351.924 539.013 351.116 539.336 350.304C539.503 349.905 539.651 349.483 539.842 349.081L540.431 347.887L541.013 346.693C541.199 346.293 541.41 345.906 541.646 345.534L543.028 343.281C543.315 342.819 543.084 342.628 542.761 343.097L541.26 345.303C541.006 345.67 540.778 346.055 540.579 346.454L539.934 347.624L539.296 348.818C539.093 349.217 538.93 349.615 538.743 350.013C538.392 350.833 538.014 351.641 537.683 352.469C536.422 355.809 535.434 359.245 534.728 362.745C534.234 365.29 533.864 367.843 533.617 370.405Z" fill="url(#paint31_linear)"/>
<path d="M228.423 374C242.06 371.404 251.902 381.64 252.551 382.289C253.148 380.19 259.095 360.866 278.376 354.022C290.563 349.678 301.305 352.772 305.001 354.022C303.733 350.696 303.423 347.082 304.108 343.589C304.793 340.097 306.444 336.867 308.874 334.266C311.305 331.665 314.416 329.798 317.855 328.876C321.294 327.955 324.923 328.018 328.329 329.056C332.319 322.853 338.045 317.96 344.795 314.985C351.546 312.01 359.022 311.085 366.295 312.325C373.567 313.565 380.314 316.915 385.697 321.958C391.079 327.001 394.859 333.515 396.567 340.689C401.012 334.048 409.005 330.7 416.549 332.348C423.292 333.797 428.688 338.941 430.736 345.681C434.99 341.231 440.348 337.986 446.264 336.277C452.18 334.568 458.444 334.457 464.417 335.953C470.391 337.45 475.861 340.502 480.272 344.798C484.682 349.094 487.875 354.481 489.527 360.412C498.572 353.269 510.751 350.57 522.07 354.129C539.009 359.46 549.676 377.427 545.967 395.614H207.588C209.636 384.586 218.031 375.946 228.423 374Z" fill="#E24008"/>
<path d="M628.61 292.986C637.652 257.002 615.113 220.331 578.267 211.08C541.421 201.829 504.221 223.5 495.179 259.484C486.137 295.468 508.676 332.139 545.522 341.39C582.368 350.641 619.568 328.97 628.61 292.986Z" fill="url(#paint32_linear)"/>
<g style="mix-blend-mode:multiply">
<g style="mix-blend-mode:multiply">
<path d="M547.138 214.321C543.283 212.955 543.283 212.955 540.766 214.014C543.367 216.797 543.367 216.797 547.138 214.321ZM561.437 281.667L563.632 280.039C563.377 279.414 563.281 278.876 563.13 278.845C560.202 278.522 557.267 278.263 553.615 277.925C556.259 280.202 559.716 278.872 561.433 281.667H561.437ZM553.929 213.787L553.368 216.029L555.24 217.578C553.328 218.191 553.901 219.345 554.14 220.763C554.268 221.523 553.001 222.514 552.037 223.856C556.088 223.665 559.079 223.263 561.353 220.149C562.237 218.955 564.567 218.788 566.463 218.071L565.436 215.659C565.914 215.659 566.658 215.838 566.842 215.599C568.001 214.09 570.207 214.329 571.291 213.071C572.792 211.331 574.477 210.881 576.436 211.546C577.56 211.944 578.312 211.721 578.938 211.22L578.205 211.025C571.043 209.219 563.64 208.556 556.271 209.058C555.932 209.315 555.609 209.593 555.303 209.89C554.339 210.845 553.252 211.084 552.017 211.454C552.304 212.251 552.356 212.796 552.643 213.111C552.93 213.425 553.479 213.569 553.929 213.787ZM557.454 237.344L553.165 239.012L552.647 241.079L558.223 241.222C558.048 240.49 557.88 239.884 557.765 239.267C557.649 238.65 557.538 237.981 557.446 237.364L557.454 237.344ZM517.809 228.856L517.012 225.241L523.739 224.943L525.914 222.22C524.412 220.942 523.022 220.687 521.7 221.157C516.977 224.428 512.694 228.293 508.955 232.654C508.883 233.737 508.31 234.844 508.158 235.927C505.243 237.328 507.856 239.303 507.111 241.134L510.914 240.549L514.618 234.179L512.563 231.743L517.809 228.856ZM574.803 278.49C575.799 278.888 576.576 281.763 578.145 278.431C575.457 277.817 573.238 275.946 570.339 277.893C569.598 278.391 568.076 277.606 566.921 277.662C566.499 277.682 566.125 278.435 565.639 278.928C569.064 281.894 571.808 278.267 574.795 278.494L574.803 278.49ZM619.184 243.854C619.01 242.741 619.208 241.601 619.75 240.613C615.512 234.067 610.196 228.287 604.026 223.518C603.309 223.748 602.476 224.059 601.807 224.234L600.664 222.455L602.225 222.176C600.319 220.797 598.343 219.516 596.307 218.338L593.945 218.86L594.423 221.193L590.44 222.263L592.906 218.784L590.822 215.483C589.447 214.844 588.044 214.244 586.613 213.684L584.127 213.553L584.565 212.932C583.628 212.6 582.679 212.287 581.718 211.992L582.514 214.162L587.194 215.356L587.027 216.152L581.451 215.057L569.861 220.082L571.346 223.135L569.905 224.592L572.525 226.906C576.707 224.724 576.707 224.724 580.28 225.182L577.03 220.997C577.631 220.651 578.077 220.38 578.539 220.134C581.666 218.477 582.148 218.72 583.39 222.299C583.725 223.267 584.33 224.143 584.984 225.385L581.196 226.834C583.267 227.355 584.239 227.797 585.211 227.793C586.509 227.793 588.504 226.631 588.95 227.833C589.723 229.923 591.739 231.062 592.288 233.128C592.615 234.366 592.336 235.545 591.01 236.11C589.791 236.628 588.556 237.225 587.27 237.436C585.983 237.647 584.629 237.436 582.917 237.4C582.092 238.817 582.646 242.026 578.934 241.521C578.691 239.562 580.128 237.181 578.101 235.405C577.89 235.222 578.018 234.211 578.308 233.976C580.435 232.173 579.137 229.78 579.531 227.793C575.15 224.608 573.493 230.015 570.08 230.978L569.243 228.004C568.702 228.112 568.112 228.064 567.774 228.331C566.983 228.919 566.289 229.625 565.715 230.425C565.323 231.029 564.794 231.533 564.172 231.894C563.549 232.255 562.849 232.464 562.13 232.503C560.194 232.694 558.605 233.463 557.012 235.179C558.044 236.636 560.198 236.819 560.971 238.63C561.664 240.223 563.158 241.437 564.555 243.129L561.851 244.869L559.035 242.878L558.422 243.575L563.456 248.512L564.253 246.832L567.818 248.782L567.503 251.243C569.096 252.545 570.98 253.484 571.291 255.933C571.386 256.693 572.585 257.314 573.282 258.003C571.255 260.316 571.143 260.698 572.386 262.247C573.756 263.955 575.202 265.599 576.492 267.12C575.696 270.018 573.226 271.949 573.768 275.329L578.742 269.755L585.019 269.966L585.278 272.315C589.699 272.12 589.699 272.12 592.698 275.859L590.643 284.032C589.11 284.892 587.855 286.369 585.549 285.625C583.347 284.912 583.633 283.144 583.116 281.675L579.758 280.831L580.236 287.269L574.748 286.242C574.226 287.149 573.338 288.069 573.155 289.112C572.557 292.643 571.924 293.332 568.574 293.229C567.579 293.197 566.583 293.089 565.587 293.05C565.526 293.208 565.484 293.372 565.46 293.539C572.362 295.82 572.485 295.793 578.563 290.43C578.93 290.788 579.404 291.541 579.678 291.473C580.961 291.162 582.439 290.92 583.378 290.107C585.175 288.551 586.887 289.244 588.771 289.578C592.838 290.299 596.263 288.463 599.641 286.556C598.924 284.382 600.549 283.634 601.887 282.539C603.129 281.52 604.042 280.107 605.169 278.928C605.635 278.442 606.272 278.132 607.188 277.463L606.961 280.417L610.024 278.924C608.654 277.73 611.143 277.495 611.135 276.432C611.127 275.369 611.593 274.39 611.848 273.366C612.947 271.842 614.911 271.595 616.149 269.883C618.459 266.698 618.376 263.457 617.938 259.978C617.878 259.496 617.834 259.006 617.751 258.528C617.257 255.813 617.352 255.837 618.149 252.373C618.471 250.968 618.089 249.415 618.264 247.954C618.452 246.573 619.332 245.179 619.176 243.874L619.184 243.854ZM586.242 222.733L585.346 221.937L587.987 217.876L591.018 218.637L586.242 222.733ZM565.464 293.523C563.074 293.229 565.093 289.976 562.994 289.693C561.182 289.451 560.947 287.735 559.9 286.54L558.936 288.499C557.243 286.19 554.853 287.225 552.985 287.703C551.221 288.161 550.958 287.098 549.891 286.178L541.941 289.518L535.604 289.395L531.131 295.331C530.036 294.961 529.14 294.32 528.419 294.483C526.452 294.925 524.56 295.494 522.548 294.722C520.35 293.874 519 296.39 516.813 295.916C516.813 296.979 516.813 297.803 516.813 298.631C516.854 298.804 516.945 298.961 517.076 299.081C519.888 302.437 520.72 306.645 521.975 310.627C522.811 313.294 523.6 315.639 526.838 316.551C527.71 316.825 528.499 317.313 529.134 317.971C529.769 318.629 530.228 319.436 530.47 320.317C531.502 323.964 533.179 327.181 536.97 328.785C537.369 328.952 537.512 329.76 537.711 330.294C538.116 331.376 538.893 332.279 539.902 332.842C542.885 334.745 543.884 337.93 544.761 341.115L545.45 341.298C546.591 341.585 547.733 341.842 548.875 342.07C548.927 341.859 548.975 341.632 549.014 341.382C549.277 339.861 549.369 338.316 549.289 336.775C549.249 336.138 550.054 335.45 550.389 334.916C549.309 329.565 549.827 324.306 551.639 318.533C553.077 317.964 555.056 317.474 556.701 316.443C558.195 315.508 559.234 313.875 560.636 312.757C562.253 311.471 564.05 310.408 565.922 309.146C566.67 307.856 565.089 305.77 566.889 304.639L563.87 299.758L565.464 293.523ZM507.115 250.395C506.84 249.523 507.234 248.404 507.473 247.413C508.031 245.1 508.206 243.034 506.023 241.258C505.279 240.653 505.227 239.2 504.96 238.471L504.538 238.431C497.213 249.211 493.242 261.916 493.127 274.947L497.906 278.506C501.328 277.228 501.391 272.773 504.677 271.049C505.283 270.735 505.713 268.844 505.342 268.151C504.243 266.093 505.601 264.504 505.777 262.474L508.234 262.581C507.139 258.465 508.361 254.384 507.107 250.411L507.115 250.395Z" fill="#BCBEC0"/>
</g>
</g>
<path d="M562.946 197.783C562.169 197.783 561.423 198.092 560.874 198.641C560.324 199.191 560.015 199.936 560.015 200.713C560.015 201.49 560.324 202.236 560.874 202.785C561.423 203.335 562.169 203.643 562.946 203.643C603.631 203.643 636.729 236.731 636.729 277.399C636.729 318.068 603.627 351.152 562.946 351.152C551.437 351.202 540.079 348.539 529.793 343.378C519.506 338.218 510.582 330.706 503.745 321.452C503.473 321.083 503.118 320.784 502.71 320.576C502.301 320.369 501.85 320.26 501.391 320.257C500.848 320.257 500.315 320.408 499.852 320.694C499.389 320.979 499.015 321.388 498.771 321.873C498.527 322.359 498.424 322.903 498.471 323.445C498.519 323.986 498.716 324.503 499.042 324.939C514.244 345.315 537.528 357 562.927 357C606.845 357 642.584 321.284 642.584 277.376C642.584 233.467 606.865 197.783 562.946 197.783Z" fill="#00204E"/>
<path d="M562.325 351.542H554.507V384.363H562.325V351.542Z" fill="#00204E"/>
<path d="M522.66 396.056H604.965V390.263C604.965 387.623 603.916 385.092 602.049 383.225C600.182 381.359 597.649 380.31 595.008 380.31H532.613C529.972 380.31 527.44 381.359 525.572 383.225C523.705 385.092 522.656 387.623 522.656 390.263L522.66 396.056Z" fill="#00204E"/>
<path d="M258.183 354.277C258.183 354.277 258.876 356.339 259.612 358.919C260.349 361.499 261.122 364.592 261.285 366.754L260.051 366.845C259.907 364.879 259.146 361.801 258.422 359.257C258.059 357.983 257.705 356.833 257.442 356.005C257.179 355.176 257.008 354.671 257.008 354.671L258.183 354.273V354.277Z" fill="url(#paint33_linear)"/>
<path d="M269.255 355.296C269.255 355.296 269.231 355.503 269.191 355.885C269.08 357.024 268.853 359.679 268.853 362.558C268.853 363.907 268.9 365.305 269.032 366.618L267.797 366.742C267.662 365.372 267.61 363.955 267.61 362.558C267.615 360.084 267.748 357.612 268.008 355.153L269.239 355.296H269.255Z" fill="url(#paint34_linear)"/>
<path d="M275.396 363.485C275.194 363.723 275.017 363.98 274.867 364.254C274.6 364.706 274.45 365.218 274.429 365.743H273.19C273.212 364.967 273.436 364.211 273.839 363.549C274.024 363.226 274.24 362.922 274.484 362.641L275.396 363.477V363.485Z" fill="url(#paint35_linear)"/>
<path d="M259.66 355.535C259.66 355.535 266.009 347.485 256.255 330.768C246.501 314.05 226.384 310.025 225.44 312.191C224.496 314.357 235.66 318.537 238.758 331.385C241.857 344.232 242.267 351.351 246.138 355.22C250.01 359.09 255.271 360.643 259.66 355.535Z" fill="url(#paint36_linear)"/>
<path d="M272.74 357.155C272.74 357.155 273.437 348.102 289.83 343.066C306.224 338.029 321.753 347.481 321.06 349.436C320.367 351.39 310.593 347.445 300.859 353.95C291.125 360.456 286.584 364.855 281.741 365.05C276.898 365.245 272.521 363.115 272.74 357.155Z" fill="url(#paint37_linear)"/>
<path d="M262.87 351.227C262.87 351.227 251.934 339.49 264.615 320.707C277.296 301.924 305.24 300.618 306.18 303.218C307.12 305.817 295.235 310.734 290.647 325.512C286.059 340.291 283.529 347.684 278.698 351.908C273.867 356.132 267.602 357.529 262.87 351.227Z" fill="url(#paint38_linear)"/>
<g style="mix-blend-mode:multiply">
<path d="M257.079 353.051C257.136 353.05 257.192 353.042 257.247 353.027C257.325 353.005 257.398 352.968 257.462 352.918C257.526 352.868 257.58 352.806 257.619 352.736C257.659 352.665 257.685 352.587 257.695 352.507C257.705 352.426 257.699 352.344 257.677 352.266C257.394 351.243 250.591 327.121 238.017 317.908C237.952 317.853 237.877 317.812 237.795 317.787C237.713 317.763 237.628 317.755 237.543 317.765C237.458 317.775 237.376 317.803 237.303 317.845C237.229 317.888 237.165 317.946 237.114 318.015C237.064 318.084 237.028 318.162 237.01 318.245C236.991 318.328 236.989 318.414 237.005 318.498C237.021 318.582 237.054 318.662 237.102 318.732C237.15 318.802 237.212 318.862 237.285 318.908C249.512 327.865 256.402 352.35 256.482 352.601C256.519 352.73 256.598 352.844 256.705 352.926C256.813 353.007 256.944 353.051 257.079 353.051Z" fill="#D0D3D4"/>
</g>
<g style="mix-blend-mode:multiply">
<path d="M269.745 349.997C269.883 349.993 270.017 349.946 270.128 349.863C270.239 349.781 270.322 349.666 270.366 349.535C270.417 349.315 270.441 349.089 270.438 348.862C271.003 340.378 274.62 312.235 297.342 306.287C297.428 306.274 297.511 306.243 297.584 306.196C297.657 306.149 297.72 306.087 297.768 306.014C297.816 305.941 297.848 305.859 297.862 305.773C297.876 305.687 297.872 305.599 297.849 305.515C297.827 305.431 297.788 305.352 297.733 305.284C297.678 305.216 297.61 305.16 297.532 305.121C297.455 305.081 297.37 305.058 297.283 305.053C297.196 305.048 297.109 305.062 297.027 305.093C273.505 311.244 269.781 340.092 269.199 348.787C269.199 349.021 269.175 349.185 269.167 349.232C269.142 349.322 269.138 349.416 269.155 349.507C269.172 349.599 269.21 349.685 269.266 349.759C269.322 349.834 269.394 349.894 269.477 349.936C269.56 349.978 269.652 350 269.745 350.001V349.997Z" fill="#D0D3D4"/>
</g>
<g style="mix-blend-mode:multiply">
<path d="M277.396 361.268C277.675 361.268 277.953 361.017 278.858 360.197C289.046 350.98 298.867 346.617 308.056 347.21C308.141 347.224 308.229 347.219 308.312 347.197C308.396 347.175 308.474 347.136 308.541 347.082C308.609 347.028 308.664 346.96 308.704 346.884C308.744 346.807 308.768 346.723 308.773 346.637C308.779 346.551 308.767 346.464 308.737 346.383C308.707 346.302 308.661 346.228 308.601 346.166C308.541 346.103 308.468 346.054 308.388 346.022C308.308 345.989 308.222 345.973 308.136 345.976C298.597 345.343 288.472 349.83 278.025 359.277C277.663 359.604 277.288 359.942 277.145 360.053C277.026 360.099 276.924 360.18 276.853 360.286C276.782 360.391 276.745 360.516 276.747 360.644C276.749 360.771 276.79 360.894 276.865 360.998C276.94 361.101 277.044 361.178 277.165 361.22C277.239 361.249 277.317 361.265 277.396 361.268Z" fill="#D0D3D4"/>
</g>
<path d="M252.053 403.21H283.995C284.385 403.209 284.764 403.077 285.069 402.834C285.374 402.591 285.588 402.252 285.676 401.872L293.55 367.865C293.608 367.612 293.609 367.349 293.551 367.096C293.494 366.843 293.38 366.606 293.219 366.403C293.057 366.2 292.852 366.036 292.619 365.923C292.385 365.81 292.129 365.751 291.869 365.751H244.179C243.919 365.751 243.663 365.81 243.43 365.923C243.196 366.036 242.991 366.2 242.83 366.403C242.668 366.606 242.555 366.843 242.497 367.096C242.44 367.349 242.44 367.612 242.498 367.865L250.372 401.872C250.46 402.252 250.674 402.591 250.98 402.834C251.285 403.077 251.663 403.209 252.053 403.21Z" fill="url(#paint39_linear)"/>
<path d="M326.329 426.209C472.053 426.209 590.185 413.215 590.185 397.186C590.185 381.157 472.053 368.163 326.329 368.163C180.606 368.163 62.4732 381.157 62.4732 397.186C62.4732 413.215 180.606 426.209 326.329 426.209Z" fill="#FCFFFF"/>
<path d="M268.526 297.055C268.526 297.055 266.682 309.679 260.959 314.11C258.222 316.236 245.362 325.011 245.362 321.436C245.362 317.861 256.936 311.654 256.936 311.654L262.297 297.759L268.526 297.055Z" fill="#FD5E5A"/>
<path d="M181.74 194.331C181.74 194.331 165.518 192.874 157.325 195.378C155.799 195.844 148.077 264.851 142.158 283.889C136.24 302.927 139.569 330.788 139.569 336.441C139.569 342.094 234.27 342.07 234.27 342.07C234.27 342.07 229.462 276.133 231.31 256.04C233.158 235.947 232.234 205.443 226.503 199.977C220.772 194.51 181.74 194.331 181.74 194.331Z" fill="#FE5722"/>
<path d="M231.641 297.051C221.23 300.053 209.11 301.279 196.452 297.954C175.104 292.345 160.173 252.489 151.522 220.759C149.331 242.182 145.79 272.196 142.158 283.889C136.24 302.931 139.569 330.788 139.569 336.441C139.569 342.094 234.27 342.07 234.27 342.07C234.27 342.07 232.637 319.7 231.641 297.051Z" fill="#EF7216"/>
<path d="M102.577 329.864C102.577 329.864 138.821 389.765 170.644 393.834C202.467 397.903 269.785 346.856 274.962 337.998C280.14 329.139 263.866 325.055 243.518 329.86C223.169 334.665 174.71 346.872 151.406 333.559C128.103 320.245 96.2996 309.898 96.2996 315.814C96.2996 321.73 102.577 329.864 102.577 329.864Z" fill="#083654"/>
<path d="M199.125 397.903C199.125 397.903 171.38 376.086 155.473 356.1C139.565 336.114 123.769 322.534 114.653 317.315C105.536 312.096 85.9282 308.031 77.4208 327.268C68.9135 346.505 125.88 387.635 135.499 394.057C145.117 400.479 168.051 411.945 168.051 411.945L199.125 397.903Z" fill="#5BC8CE"/>
<path d="M176.933 391.617L171.014 407.143C171.014 407.143 186.523 409.11 199.225 411.718C200.396 407.896 201.89 404.18 203.689 400.61C191.462 398.265 176.933 391.617 176.933 391.617Z" fill="#FC7575"/>
<path d="M186.276 416.635L212.698 432.981C223.392 439.602 228.964 449.571 239.344 437.731C249.723 425.891 254.642 409.52 248.572 403.863C242.502 398.206 218.091 401.076 211.173 396.812C204.255 392.548 199.085 394.551 199.925 398.114C200.766 401.677 186.276 416.635 186.276 416.635Z" fill="#FE5722"/>
<path d="M229.171 443.193C233.118 442.517 235.544 439.499 237.934 436.027C243.076 428.634 253.069 411.646 248.568 403.895C250.559 404.866 251.818 407.08 252.435 409.261C256.386 424.824 238.663 447.469 229.171 443.193Z" fill="#FFDA88"/>
<path d="M216.98 402.561C225.742 408.079 220.796 421.802 210.516 420.516L210.026 420.453C193.553 418.251 189.745 416.471 186.101 415.854C182.046 415.146 176.542 414.091 177.689 405.228C178.836 396.366 185.408 386.517 188.554 388.46C190.645 389.757 203.785 394.26 216.98 402.561Z" fill="#FCCC6B"/>
<path d="M177.681 405.224C176.542 414.087 182.038 415.142 186.093 415.85C189.737 416.483 193.545 418.239 210.018 420.449L210.508 420.512C211.384 420.627 212.272 420.627 213.148 420.512C212.898 420.512 212.643 420.477 212.388 420.445L211.898 420.381C195.425 418.175 191.617 416.4 187.973 415.783C183.918 415.074 178.414 414.019 179.561 405.157C180.493 397.883 185.093 389.945 188.455 388.404C185.272 386.704 178.808 396.45 177.681 405.224Z" fill="white"/>
<path d="M213.431 420.473C213.431 420.473 194.314 407.908 191.82 410.189C189.327 412.47 186.276 416.635 186.276 416.635C186.276 416.635 206.772 427.384 212.109 426.11C217.446 424.836 213.431 420.473 213.431 420.473Z" fill="#DD2C00"/>
<path d="M209.126 395.964C209.25 396.041 209.354 396.146 209.43 396.271C209.506 396.395 209.552 396.535 209.564 396.681C210.516 408.226 197.894 415.48 197.357 415.79C197.25 415.851 197.132 415.89 197.011 415.905C196.889 415.92 196.765 415.91 196.647 415.878C196.409 415.812 196.206 415.654 196.084 415.438C195.962 415.223 195.931 414.968 195.997 414.729C196.063 414.491 196.221 414.288 196.437 414.166C196.56 414.098 208.556 407.171 207.704 396.84C207.684 396.594 207.763 396.35 207.922 396.162C208.082 395.974 208.31 395.857 208.556 395.837C208.755 395.818 208.954 395.862 209.126 395.964Z" fill="white"/>
<path d="M217.207 400.327C217.327 400.402 217.428 400.502 217.504 400.622C217.579 400.741 217.626 400.876 217.641 401.016C218.438 408.294 206.171 418.904 205.645 419.35C205.454 419.476 205.224 419.527 204.998 419.495C204.772 419.462 204.566 419.348 204.419 419.174C204.271 419 204.193 418.777 204.199 418.549C204.205 418.321 204.294 418.103 204.45 417.936C207.807 415.062 216.398 406.451 215.805 401.215C215.785 401.041 215.815 400.865 215.891 400.708C215.967 400.55 216.085 400.417 216.233 400.323C216.381 400.23 216.553 400.18 216.728 400.179C216.903 400.179 217.074 400.227 217.223 400.319L217.207 400.327Z" fill="white"/>
<path d="M223.146 403.274C223.349 403.406 223.492 403.614 223.544 403.851C225.03 410.165 213.013 422.192 211.635 423.546C211.548 423.632 211.444 423.699 211.331 423.745C211.217 423.791 211.096 423.814 210.973 423.813C210.851 423.812 210.73 423.787 210.617 423.739C210.505 423.691 210.403 423.621 210.317 423.534C210.231 423.447 210.163 423.343 210.117 423.23C210.072 423.116 210.049 422.995 210.05 422.873C210.051 422.75 210.076 422.629 210.124 422.517C210.172 422.404 210.241 422.302 210.329 422.216C213.858 418.749 222.783 408.768 221.728 404.277C221.686 404.098 221.698 403.91 221.763 403.738C221.828 403.566 221.942 403.417 222.092 403.309C222.241 403.202 222.419 403.141 222.603 403.135C222.787 403.129 222.969 403.177 223.126 403.274H223.146Z" fill="white"/>
<path d="M219.147 428.463C219.147 428.463 227.112 438.085 230.275 437.345C233.437 436.604 248.66 411.204 244.298 408.505C239.937 405.806 227.837 406.172 225.786 408.007C223.735 409.843 219.147 428.463 219.147 428.463Z" fill="#DD2C00"/>
<path d="M134.762 399.014L173.603 390.657L179.892 405.415L134.762 413.012V399.014Z" fill="#FC7575"/>
<path d="M164.725 386.811L179.892 415.285C179.892 415.285 262.384 391.991 282.362 377.197C302.34 362.402 300.859 345.024 300.859 340.219C300.859 335.414 280.104 329.382 270.693 329.382C261.281 329.382 204.084 386.811 164.725 386.811Z" fill="#77E6F7"/>
<path d="M300.855 340.219C300.277 334.685 273.473 329.641 270.163 330.823C259.146 334.184 204.183 388.925 164.721 386.811C205.111 383.682 259.071 327.34 272.342 328.136C279.63 328.693 300.946 334.737 300.855 340.219Z" fill="#C9F5FC"/>
<path d="M177.673 301.064C177.673 301.064 234.457 289.972 253.507 297.182C272.557 304.392 249.807 320.106 244.075 320.106C238.344 320.106 238.734 308.56 232.804 307.31C226.873 306.06 206.517 304.022 202.458 312.159C198.4 320.297 201.351 325.298 192.657 324.175C183.962 323.052 173.79 316.348 173.79 309.536C173.79 302.724 177.673 301.064 177.673 301.064Z" fill="#1E1D2C"/>
<path d="M147.893 290.856C147.893 290.856 162.877 292.89 162.877 296.585C162.877 300.279 160.842 309.898 160.842 314.898C160.842 319.899 166.019 326.731 169.166 326.731C172.312 326.731 166.378 318.227 166.378 317.303C166.378 316.379 172.85 329.394 175.626 329.394C178.402 329.394 177.88 325.632 175.977 322.001C174.073 318.37 173.778 306.474 175.813 302.358C177.848 298.241 184.297 303.186 188.1 303.186C191.904 303.186 198.225 300.001 195.974 297.767C193.724 295.534 189.108 300.431 186.443 297.767C183.779 295.104 187.097 288.276 179.326 286.62C171.556 284.964 153.617 275.158 153.617 275.158L147.893 290.856Z" fill="#FD9191"/>
<path d="M273.298 273.291C273.298 273.291 266.423 290.86 260.154 288.818C253.885 286.775 245.394 297.389 245.394 299.065C245.394 305.471 254.821 291.576 257.972 294.726C261.122 297.875 255.419 300.972 252.228 303.723C249.038 306.474 238.91 312.952 241.686 314.098C244.462 315.245 255.016 307.262 256.482 305.793C257.948 304.324 257.597 305.793 257.597 305.793C257.597 305.793 241.69 315.993 244.454 318.768C247.218 321.543 260.302 309.5 260.302 309.5C260.302 309.5 274.417 295.872 278.858 291.437C283.298 287.002 292.172 268.641 292.172 268.641L273.298 273.291Z" fill="#FC7575"/>
<path d="M271.545 277.208L281.924 287.392C283.366 285.183 284.919 282.491 286.373 279.828L272.831 274.382C272.537 275.098 272.103 276.082 271.545 277.208Z" fill="#FD5E5A"/>
<path d="M157.325 195.378C157.325 195.378 140.493 197.859 129.023 216.347C117.552 234.836 107.117 259.814 115.708 275.138C119.536 281.958 149.562 296.585 149.562 296.585L160.372 274.975C160.372 274.975 143.245 273.08 139.362 259.954C135.479 246.828 155.246 238.985 155.246 238.985C155.246 238.985 165.466 207.21 157.325 195.378Z" fill="#DD2C00"/>
<path d="M222.831 198.129C222.831 198.129 224.237 232.619 232.131 240.509C232.131 240.509 267.379 242.783 270.338 251.107C273.298 259.432 265.714 273.291 265.714 273.291L286.987 283.833C286.987 283.833 303.448 256.283 299.732 241.68C296.016 227.077 234.27 199.248 222.831 198.129Z" fill="#DD2C00"/>
<path d="M184.448 186.906H182.21C182.21 186.906 175.738 173.601 175.738 167.94V150.952C175.738 142.193 183.03 131.985 198.324 131.985C213.619 131.985 217.016 134.816 223.532 138.495C230.048 142.173 224.986 158.265 223.532 166.522C220.851 181.743 210.687 190.947 210.687 190.947L184.448 186.906Z" fill="#1B0530"/>
<path d="M182.054 181.822L177.721 206.382C181.461 219.051 206.398 225.13 210.257 207.33C210.803 204.83 210.679 184.709 210.679 184.709C212.997 173.963 182.154 179.238 182.054 181.822Z" fill="#FC7575"/>
<path d="M182.054 181.822L181.322 185.983C183.875 197.13 190.303 204.201 195.074 205.598C199.121 206.792 205.601 202.982 210.663 196.64C210.719 190.76 210.683 184.697 210.683 184.697C212.997 173.963 182.154 179.238 182.054 181.822Z" fill="#FD5E5A"/>
<path d="M216.896 167.267C217.331 166.702 220.827 158.508 223.807 161.243C226.786 163.978 221.465 175.715 219.079 176.742C216.693 177.769 216.761 176.921 216.761 176.921L216.896 167.267Z" fill="#FD5E5A"/>
<path d="M181.728 165.627C181.373 165.006 179 156.406 175.678 158.735C172.356 161.064 176.076 173.39 178.303 174.724C180.529 176.057 180.577 175.209 180.577 175.209L181.728 165.627Z" fill="#FD5E5A"/>
<path d="M180.919 165.981C180.919 165.225 180.286 161.498 177.801 161.845C175.315 162.191 177.924 174.425 180.23 172.387C182.536 170.348 180.919 165.981 180.919 165.981Z" fill="#DD4A4A"/>
<path d="M221.477 164.468C222.004 165.257 222.328 166.165 222.42 167.109C222.511 168.054 222.368 169.007 222.002 169.883C220.78 172.618 218.505 177.22 218.099 174.776C217.693 172.331 218.912 161.904 221.477 164.468Z" fill="#DD4A4A"/>
<path d="M198.046 139.912C198.046 139.912 183.886 142.858 181.62 149.546C179.354 156.235 180.202 157.063 180.202 172.295C180.202 187.527 188.965 197.449 195.07 199.057C201.176 200.665 212.77 192.098 216.737 180.859C220.704 169.62 220.513 155.435 220.513 149.009C220.513 142.583 198.046 139.912 198.046 139.912Z" fill="#FC7575"/>
<path d="M174.726 155.104L180.115 163.752C180.115 163.752 182.751 147.269 185.292 146.517C187.834 145.764 185.292 149.821 185.292 149.821C185.292 149.821 195.11 148.229 198.603 147.273C202.096 146.318 198.508 150.104 199.264 151.895C200.021 153.687 214.367 148.312 214.367 148.312C214.367 148.312 212.201 156.147 204.749 156.147C204.749 156.147 209.186 158.138 215.606 156.056C222.026 153.974 221.552 149.073 221.552 149.073L219.099 158.982C219.099 158.982 220.385 158.695 220.385 159.547C220.385 160.399 219.095 171.491 219.095 171.491C219.095 171.491 228.929 157.74 229.578 154.065C230.227 150.391 233.919 149.16 233.919 146.421C233.919 143.682 240.244 124.923 227.877 121.698C215.51 118.473 213.244 124.716 213.244 124.716C213.244 124.716 207.389 118.489 200.897 119.337C194.405 120.185 186.643 131.133 186.643 131.133C186.643 131.133 179.752 132.077 178.808 136.417C178.808 136.417 176.068 138.777 174.18 143.778C172.292 148.778 174.726 155.104 174.726 155.104Z" fill="#36095F"/>
<path d="M234.27 297.755C235.819 287.492 234.298 282.627 237.559 282.925C238.056 282.973 238.514 283.215 238.832 283.6C239.15 283.984 239.303 284.479 239.256 284.976C239.212 285.449 239.364 284.844 234.27 297.755Z" fill="#1E1D2C"/>
<path d="M142.529 391.616H111.462C98.8845 391.616 88.8995 386.071 86.3067 401.601C83.7139 417.132 88.1507 433.638 96.2997 435.231C104.449 436.823 123.674 421.551 131.811 421.551C139.948 421.551 143.277 417.112 140.689 414.524C138.1 411.937 142.529 391.616 142.529 391.616Z" fill="#FE5722"/>
<path d="M92.0819 391.617C89.0788 394.268 88.6128 398.11 88.4096 402.33C87.9317 411.324 88.3818 431.019 96.2877 435.247C94.0733 435.474 91.8389 434.24 90.1741 432.719C78.6038 421.543 81.7503 392.962 92.0819 391.617Z" fill="#FFDA88"/>
<path d="M123.841 419.732C113.486 419.652 110.467 405.38 119.882 401.064L120.332 400.861C135.499 394.065 139.661 393.559 143.094 392.186C146.914 390.653 152.143 388.659 155.839 396.792C159.535 404.926 159.129 416.766 155.441 416.766C152.968 416.77 139.422 419.851 123.841 419.732Z" fill="#FFDA88"/>
<path d="M155.847 396.796C152.147 388.663 146.918 390.657 143.102 392.19C139.669 393.563 135.507 394.069 120.34 400.865L119.89 401.068C119.085 401.433 118.33 401.9 117.644 402.458C117.863 402.338 118.094 402.223 118.329 402.115L118.779 401.912C133.945 395.116 138.108 394.611 141.541 393.237C145.36 391.704 150.59 389.71 154.286 397.847C157.321 404.524 157.592 413.693 155.544 416.77C159.145 416.539 159.511 404.85 155.847 396.796Z" fill="white"/>
<path d="M117.409 402.641C117.409 402.641 140.266 403.274 141.198 400.013C142.13 396.752 142.517 391.617 142.517 391.617C142.517 391.617 119.44 393.277 115.561 397.154C111.681 401.032 117.409 402.641 117.409 402.641Z" fill="#DD2C00"/>
<path d="M133.985 421.213C133.838 421.21 133.693 421.173 133.563 421.104C133.433 421.034 133.321 420.936 133.237 420.815C126.358 411.515 133.26 398.691 133.555 398.15C133.614 398.042 133.693 397.948 133.789 397.871C133.884 397.794 133.994 397.737 134.112 397.702C134.229 397.668 134.353 397.657 134.474 397.67C134.596 397.684 134.714 397.721 134.822 397.78C134.929 397.838 135.024 397.918 135.101 398.013C135.178 398.109 135.235 398.218 135.269 398.336C135.304 398.453 135.314 398.577 135.301 398.698C135.288 398.82 135.251 398.938 135.192 399.046C135.124 399.169 128.573 411.387 134.738 419.708C134.84 419.847 134.902 420.011 134.917 420.183C134.932 420.355 134.898 420.527 134.821 420.681C134.743 420.835 134.624 420.964 134.477 421.055C134.331 421.145 134.162 421.193 133.989 421.193L133.985 421.213Z" fill="white"/>
<path d="M124.817 421.758C124.676 421.758 124.536 421.726 124.409 421.664C124.282 421.602 124.171 421.511 124.084 421.4C119.56 415.643 124.419 400.152 124.63 399.503C124.705 399.268 124.87 399.072 125.09 398.958C125.199 398.902 125.317 398.868 125.439 398.858C125.561 398.847 125.684 398.861 125.801 398.898C125.917 398.935 126.026 398.995 126.119 399.074C126.213 399.153 126.29 399.249 126.346 399.358C126.402 399.467 126.436 399.586 126.447 399.707C126.457 399.829 126.443 399.952 126.406 400.069C125.064 404.281 122.3 416.117 125.554 420.253C125.662 420.391 125.73 420.556 125.749 420.73C125.768 420.904 125.737 421.08 125.661 421.238C125.584 421.395 125.465 421.528 125.316 421.621C125.168 421.713 124.996 421.763 124.821 421.762L124.817 421.758Z" fill="white"/>
<path d="M118.205 422.38C118.082 422.38 117.961 422.355 117.847 422.308C117.734 422.261 117.631 422.192 117.544 422.105C112.956 417.518 116.839 400.969 117.297 399.093C117.326 398.974 117.379 398.862 117.451 398.764C117.524 398.665 117.615 398.582 117.72 398.518C117.825 398.455 117.941 398.413 118.063 398.394C118.184 398.376 118.307 398.381 118.426 398.411C118.545 398.44 118.657 398.492 118.756 398.565C118.855 398.637 118.938 398.729 119.002 398.834C119.065 398.938 119.107 399.055 119.126 399.176C119.144 399.297 119.139 399.42 119.109 399.539C117.934 404.345 115.601 417.526 118.862 420.787C118.994 420.917 119.083 421.084 119.119 421.265C119.156 421.446 119.137 421.634 119.066 421.805C118.995 421.976 118.875 422.122 118.721 422.224C118.567 422.326 118.386 422.38 118.201 422.38H118.205Z" fill="white"/>
<path d="M108.352 398.85C108.352 398.85 96.4988 394.869 94.2126 397.154C91.9264 399.44 92.3486 429.052 97.4746 429.052C102.601 429.052 112.701 422.375 113.478 419.736C114.254 417.096 108.352 398.85 108.352 398.85Z" fill="#DD2C00"/>
<path d="M196.456 320.815C203.625 356.888 241.04 363.577 255.152 348.607C262.5 340.824 259.963 331.221 248.206 332.137C230.924 333.539 217.721 360.778 236.293 384.407C252.224 404.094 285.656 392.719 290.707 377.79C291.901 374.207 291.153 368.709 287.401 368.752C276.169 368.573 252.75 400.407 264.945 420.64C278.328 443.281 332.184 457.697 358.395 460.906L357.945 464.604C330.579 461.141 276.117 446.227 262.082 422.32C248.727 400.001 273.672 365.671 287.496 365.735C293.403 365.774 295.462 373.028 293.522 378.729C287.516 395.92 251.352 407.498 234.222 386.087C214.363 360.567 228.924 331.245 248.022 329.776C261.986 328.801 265.603 340.896 256.785 350.164C240.363 367.403 201.144 357.052 194.608 321.101L196.456 320.815Z" fill="#1E1D2C"/>
<path d="M398.514 453.107H278.041V461.997H398.514V453.107Z" fill="#F7F7FC"/>
<path d="M405.054 446.665H271.501L272.561 453.107H403.995L405.054 446.665Z" fill="#E3DDE2"/>
<path d="M404.098 452.481C380.173 452.147 306.618 450.797 282 446.665H271.501L272.561 453.107H403.995L404.098 452.481Z" fill="#FFFEFF"/>
<path d="M400.629 467.025L399.924 460.241H276.627L275.922 467.025H400.629Z" fill="#FFFDFF"/>
<path d="M353.134 458.569H363.772V455.101H353.134V458.569Z" fill="#24242D"/>
<path d="M372.009 458.569H382.647V455.101H372.009V458.569Z" fill="#24242D"/>
<path d="M334.148 458.569H344.786V455.101H334.148V458.569Z" fill="#24242D"/>
<path d="M281.442 458.565H326.317V456.829H281.442V458.565Z" fill="#492F44"/>
<path d="M400.629 285.649L375.159 256.514C375.159 256.514 369.643 263.425 366.265 280.895C362.888 298.364 360.518 337.826 360.518 337.826L395.356 335.732L400.629 285.649Z" fill="#DD2C00"/>
<path d="M401.884 238.503C401.884 238.503 418.042 225.456 441.031 234.776C464.02 244.097 487.304 320.858 487.304 362.478C487.304 362.478 469.361 405.475 406.596 366.949C406.596 366.949 384.483 265.826 375.159 256.514C375.159 256.514 386.152 244.53 401.884 238.503Z" fill="#FE5722"/>
<path d="M449.113 377.646C449.113 377.646 526.778 342.859 552.894 349.694C556.124 350.538 560.756 351.366 562.851 353.325C577.587 367.204 563.185 405.67 547.935 410.571C530.534 416.145 445.401 399.388 423.65 396.283C401.9 393.177 325.58 407.991 319.423 401.832C313.265 395.673 309.928 363.358 339.138 355.284C368.348 347.21 449.113 377.646 449.113 377.646Z" fill="#0B5965"/>
<path d="M422.423 411.658C416.333 408.501 410.411 405.027 404.684 401.251C397.28 396.418 388.553 390.104 380.544 382.667C361.621 365.149 344.093 360.607 329.822 359.552C315.552 358.497 306.343 392.827 336.23 408.457C366.118 424.088 419.97 424.295 419.97 424.295C425.315 425.139 426.761 415.241 422.423 411.658Z" fill="#49200C"/>
<path d="M329.057 376.365C329.057 376.365 335.932 373.219 335.932 370.659C335.932 368.1 334.418 365.536 331.037 367.873C327.656 370.21 313.337 377.197 312.939 378.821C312.541 380.445 329.057 376.365 329.057 376.365Z" fill="#592C13"/>
<path d="M385.279 336.321C385.279 336.321 377.644 365.647 370.654 375.083C363.665 384.518 351.537 387.313 351.537 387.313L334.872 381.389C334.872 381.389 354.388 373.825 359.925 353.421C364.027 338.344 364.23 337.591 364.23 337.591L385.279 336.321Z" fill="#592C13"/>
<path d="M469.927 406.299C469.927 406.299 468.995 398.843 462.471 395.582C455.947 392.321 440.565 397.911 431.942 399.073C423.32 400.236 401.876 399.312 397.69 408.628C393.504 417.944 389.772 430.286 414.94 431.453C440.107 432.619 475.292 424.7 469.927 406.299Z" fill="#FFDA88"/>
<path d="M397.682 408.632C401.876 399.316 423.324 400.244 431.935 399.077C440.545 397.911 455.939 392.309 462.463 395.586C464.757 396.753 466.657 398.568 467.928 400.805L467.744 400.71C461.221 397.449 445.839 403.039 437.216 404.201C428.593 405.364 407.149 404.44 402.963 413.756C400.813 418.534 398.789 424.107 400.713 428.554C391.724 424.111 394.575 415.544 397.682 408.632Z" fill="#FFF1C5"/>
<path d="M449.296 409.56C449.296 409.56 458.333 406.323 470.405 400.487C479.263 396.211 489.754 390.534 499.516 383.726C522.584 367.626 542.192 352.207 558.565 352.207C574.939 352.207 583.327 399.32 547.907 412.721C512.488 426.122 451.017 422.356 451.017 422.356C444.859 422.793 444.043 412.817 449.296 409.56Z" fill="#723C19"/>
<path d="M426.57 151.661C414.382 136.162 386.562 132.499 375.764 145.928C367.309 156.442 372.913 172.932 373.626 174.935C373.626 174.935 385.176 183.59 397.336 190.637C408.488 197.098 417.979 200.192 424.574 196.688C435.201 191.027 438.1 166.323 426.57 151.661Z" fill="#153D49"/>
<path d="M415.724 205.363C416.736 202.274 424.116 231.998 419.388 246.449C418.592 248.838 393.568 272.021 386.331 263.903C386.331 263.903 391.23 255.097 392.15 242.404C393.07 229.712 386.279 223.362 386.279 223.362C386.279 223.362 414.764 208.341 415.724 205.363Z" fill="#723C19"/>
<path d="M384.172 160.606C380.165 163.142 373.02 170.309 373.626 176.352C374.231 182.396 369.244 190.366 371.148 202.851C373.052 215.336 379.727 223.104 382.886 224.393C386.044 225.683 404.728 221.288 411.793 214.225C418.859 207.163 432.532 194.319 419.444 172.626C406.357 150.932 392.046 155.626 384.172 160.606Z" fill="#7A3E1C"/>
<path d="M387.653 158.691C387.653 158.691 400.514 164.054 406.731 167.315C412.948 170.575 421.643 197.234 423.817 197.234C425.992 197.234 432.516 178.183 423.817 165.758C415.119 153.333 392.038 151.625 387.653 158.691Z" fill="#153D49"/>
<path d="M414.613 186.405C414.613 186.405 416.867 177.789 420.986 181.89C425.104 185.991 423.132 197.847 418.938 198.213C414.744 198.579 414.613 186.405 414.613 186.405Z" fill="#7A3E1C"/>
<path d="M420.97 186.405C420.97 186.405 418.464 184.183 416.589 186.405C414.713 188.626 416.537 195.673 418.779 195.052C421.021 194.431 421.977 187.396 420.97 186.405Z" fill="#512712"/>
<path d="M361.099 400.475L330.571 399.077H323.928L315.221 385.581L312.513 381.385C312.513 381.385 328.591 378.809 329.519 378.809C330.447 378.809 371.989 387.779 371.989 387.779L365.297 398.604L361.099 400.475Z" fill="#1E1D2C"/>
<path d="M370.889 383.121C361.657 374.075 329.926 371.575 319.881 374.617C309.836 377.658 311.354 382.822 316.826 383.73C322.298 384.638 348.988 383.578 361.335 388.002C373.681 392.425 372.769 384.964 370.889 383.121Z" fill="#7675AF"/>
<path d="M313.763 377.73C313.763 377.73 304.579 380.915 304.579 386.031C304.579 391.147 316.579 405.017 323.697 405.83C330.814 406.642 339.843 401.132 339.843 398.588C339.843 396.044 332.467 397.791 331.144 399.097C331.144 399.097 338.433 396.099 335.924 393.599C333.415 391.099 326.365 394.571 326.365 394.571C326.365 394.571 332.423 392.317 329.743 389.642C327.062 386.967 319.387 390.438 319.387 390.438C319.387 390.438 328.548 390.303 326.281 386.692C324.015 383.081 316.121 382.344 313.823 381.707C311.525 381.07 313.763 377.73 313.763 377.73Z" fill="#723C19"/>
<path d="M442.668 307.573C442.668 307.573 435.75 333.077 430.322 356.837C424.893 380.597 388.064 392.552 388.064 392.552C383.384 380.529 365.536 373.442 361.809 373.442C358.081 373.442 356.233 378.104 363.362 380.736C370.491 383.367 370.511 390.37 367.4 393.476C364.29 396.581 346.271 391.923 346.271 391.923C346.271 391.923 346.893 387.11 345.184 385.402C343.475 383.694 337.959 392.003 340.524 394.559C343.089 397.115 348.139 400.614 348.139 400.614C347.675 400.919 347.291 401.331 347.02 401.817C346.75 402.302 346.601 402.846 346.586 403.401C346.586 405.264 353.086 407.283 353.086 408.493C353.086 409.703 355.129 411.945 362.9 411.945C370.67 411.945 379.23 407.442 379.23 407.442C379.23 407.442 412.164 402.473 435.157 386.588C458.15 370.703 473.392 307.553 473.392 307.553L442.668 307.573Z" fill="#723C19"/>
<path d="M429.059 231.679C429.059 231.679 427.067 231.591 424.722 252.322C422.376 273.052 434.977 322.905 434.977 322.905H473.352C473.352 322.905 478.398 318.478 473.352 282.372C468.306 246.266 452.183 226.137 429.059 231.679Z" fill="#DD2C00"/>
<path d="M429.059 231.679C428.195 232.511 427.709 235.955 427.545 237.137C423.487 265.237 429.31 283.045 434.973 322.905C430.652 310.734 426.486 294.16 424.156 277.626C422.658 265.683 421.479 253.138 426.546 236.914C426.95 235.496 427.483 234.118 428.139 232.798C428.382 232.388 428.601 231.882 429.059 231.679Z" fill="#C12708"/>
<path d="M402.688 397.186C402.688 397.186 392.731 397.294 388.414 405.627C379.54 422.829 392.994 425.274 392.994 425.274C392.994 425.274 398.395 404.87 406.6 402.485C414.804 400.101 441.131 397.186 441.131 397.186H402.688Z" fill="#C1272D"/>
<path d="M391.361 406.168C395.559 396.852 417.007 397.807 425.614 396.633C434.221 395.459 449.622 393.938 456.142 397.202C458.767 398.516 460.487 396.47 461.603 398.397L461.419 398.301C454.896 395.037 439.514 400.614 430.887 401.773C422.26 402.931 400.821 401.992 396.635 411.304C394.48 416.081 396.025 421.782 397.949 426.233C384.551 425.278 388.243 413.059 391.361 406.168Z" fill="#C3E2C9"/>
<path d="M469.927 406.299C469.927 406.299 468.995 398.843 462.471 395.582C455.947 392.321 440.565 397.911 431.942 399.073C423.32 400.236 401.876 399.312 397.69 408.628C393.504 417.944 389.772 430.286 414.94 431.453C440.107 432.619 475.292 424.7 469.927 406.299Z" fill="#ED1C24"/>
<path d="M397.682 408.632C401.876 399.316 423.324 400.244 431.935 399.077C440.545 397.911 455.939 392.309 462.463 395.586C464.757 396.753 466.657 398.568 467.928 400.805L467.744 400.71C461.221 397.449 445.839 403.039 437.216 404.201C428.593 405.364 407.149 404.44 402.963 413.756C400.813 418.534 398.789 424.107 400.713 428.554C391.724 424.111 394.575 415.544 397.682 408.632Z" fill="#DBFCE2"/>
<path d="M449.296 409.56C449.296 409.56 458.333 406.323 470.405 400.487C479.263 396.211 489.754 390.534 499.516 383.726C522.584 367.626 542.192 352.207 558.565 352.207C574.939 352.207 583.327 399.32 547.907 412.721C512.488 426.122 451.017 422.356 451.017 422.356C444.859 422.793 444.043 412.817 449.296 409.56Z" fill="#723C19"/>
<path d="M559.242 371.074C555.546 368.263 539.153 361.825 541.487 376.496C543.821 391.167 554.467 393.516 561.194 387.424C567.921 381.333 562.524 373.566 559.242 371.074Z" fill="#512712"/>
<path d="M429.875 427.141C429.628 427.141 429.391 427.043 429.216 426.868C429.042 426.694 428.943 426.457 428.943 426.209C428.943 415.4 439.466 409.488 439.912 409.222C440.129 409.102 440.384 409.074 440.621 409.143C440.859 409.211 441.059 409.371 441.179 409.588C441.298 409.804 441.327 410.059 441.258 410.297C441.189 410.534 441.029 410.735 440.812 410.854C440.713 410.91 430.807 416.511 430.807 426.209C430.807 426.457 430.709 426.694 430.534 426.868C430.36 427.043 430.123 427.141 429.875 427.141Z" fill="#DBFCE2"/>
<path d="M442.111 425.278C442.003 425.278 441.897 425.259 441.796 425.222C430.807 421.305 424.475 412.482 424.212 412.084C424.078 411.882 424.028 411.636 424.073 411.398C424.117 411.16 424.253 410.949 424.451 410.809C424.649 410.669 424.893 410.612 425.133 410.649C425.372 410.686 425.587 410.816 425.733 411.009C425.797 411.097 432.006 419.732 442.425 423.45C442.631 423.525 442.804 423.67 442.914 423.859C443.024 424.048 443.064 424.27 443.026 424.486C442.988 424.702 442.876 424.897 442.709 425.038C442.541 425.18 442.33 425.257 442.111 425.258V425.278Z" fill="#DBFCE2"/>
<path d="M374.179 171.495C374.179 171.495 384.021 150.048 418.592 180.767L414.609 165.818L391.429 154.555C391.429 154.555 374.701 164.655 374.179 171.495Z" fill="#153D49"/>
<defs>
<linearGradient id="paint0_linear" x1="523.142" y1="300.12" x2="563.563" y2="370.16" gradientUnits="userSpaceOnUse">
<stop stop-color="#00ACE4"/>
<stop offset="1" stop-color="#0033A2"/>
</linearGradient>
<linearGradient id="paint1_linear" x1="526.687" y1="312.657" x2="558.578" y2="367.92" gradientUnits="userSpaceOnUse">
<stop stop-color="#00FFFF"/>
<stop offset="0.15" stop-color="#00E7F8"/>
<stop offset="0.35" stop-color="#00CCEF"/>
<stop offset="0.57" stop-color="#00B9E9"/>
<stop offset="0.78" stop-color="#00ADE5"/>
<stop offset="1" stop-color="#00A9E4"/>
</linearGradient>
<linearGradient id="paint2_linear" x1="104680" y1="65195.8" x2="108603" y2="69664.8" gradientUnits="userSpaceOnUse">
<stop stop-color="#00ACE4"/>
<stop offset="1" stop-color="#0033A2"/>
</linearGradient>
<linearGradient id="paint3_linear" x1="182414" y1="122010" x2="207723" y2="145708" gradientUnits="userSpaceOnUse">
<stop stop-color="#FCFFFF"/>
<stop offset="1" stop-color="#0033A2"/>
</linearGradient>
<linearGradient id="paint4_linear" x1="79136.8" y1="108720" x2="91936.1" y2="114855" gradientUnits="userSpaceOnUse">
<stop stop-color="#00FFFF"/>
<stop offset="0.15" stop-color="#00E7F8"/>
<stop offset="0.35" stop-color="#00CCEF"/>
<stop offset="0.57" stop-color="#00B9E9"/>
<stop offset="0.78" stop-color="#00ADE5"/>
<stop offset="1" stop-color="#00A9E4"/>
</linearGradient>
<linearGradient id="paint5_linear" x1="83257.4" y1="52688" x2="86506" y2="56557.9" gradientUnits="userSpaceOnUse">
<stop stop-color="#FCFFFF"/>
<stop offset="1" stop-color="#0033A2"/>
</linearGradient>
<linearGradient id="paint6_linear" x1="20305.3" y1="41587.4" x2="21396" y2="41988.1" gradientUnits="userSpaceOnUse">
<stop stop-color="#00FFFF"/>
<stop offset="0.15" stop-color="#00E7F8"/>
<stop offset="0.35" stop-color="#00CCEF"/>
<stop offset="0.57" stop-color="#00B9E9"/>
<stop offset="0.78" stop-color="#00ADE5"/>
<stop offset="1" stop-color="#00A9E4"/>
</linearGradient>
<linearGradient id="paint7_linear" x1="44481.7" y1="53438.2" x2="46321.2" y2="54541.7" gradientUnits="userSpaceOnUse">
<stop stop-color="#00FFFF"/>
<stop offset="0.15" stop-color="#00E7F8"/>
<stop offset="0.35" stop-color="#00CCEF"/>
<stop offset="0.57" stop-color="#00B9E9"/>
<stop offset="0.78" stop-color="#00ADE5"/>
<stop offset="1" stop-color="#00A9E4"/>
</linearGradient>
<linearGradient id="paint8_linear" x1="106849" y1="123691" x2="130882" y2="151254" gradientUnits="userSpaceOnUse">
<stop stop-color="#FCFFFF"/>
<stop offset="1" stop-color="#0033A2"/>
</linearGradient>
<linearGradient id="paint9_linear" x1="52138.8" y1="110389" x2="66986.1" y2="120079" gradientUnits="userSpaceOnUse">
<stop stop-color="#4A85B0"/>
<stop offset="0.15" stop-color="#00E7F8"/>
<stop offset="0.35" stop-color="#00CCEF"/>
<stop offset="0.57" stop-color="#00B9E9"/>
<stop offset="0.78" stop-color="#00ADE5"/>
<stop offset="1" stop-color="#00A9E4"/>
</linearGradient>
<linearGradient id="paint10_linear" x1="105691" y1="107142" x2="117038" y2="120071" gradientUnits="userSpaceOnUse">
<stop stop-color="#00ACE4"/>
<stop offset="1" stop-color="#0033A2"/>
</linearGradient>
<linearGradient id="paint11_linear" x1="163825" y1="170178" x2="237029" y2="238716" gradientUnits="userSpaceOnUse">
<stop stop-color="#FCFFFF"/>
<stop offset="1" stop-color="#0033A2"/>
</linearGradient>
<linearGradient id="paint12_linear" x1="72165.3" y1="161438" x2="109197" y2="179197" gradientUnits="userSpaceOnUse">
<stop stop-color="#4D87B3"/>
<stop offset="0.15" stop-color="#00E7F8"/>
<stop offset="0.35" stop-color="#00CCEF"/>
<stop offset="0.57" stop-color="#00B9E9"/>
<stop offset="0.78" stop-color="#00ADE5"/>
<stop offset="1" stop-color="#00A9E4"/>
</linearGradient>
<linearGradient id="paint13_linear" x1="75863.8" y1="87186.8" x2="85261.2" y2="98374.9" gradientUnits="userSpaceOnUse">
<stop stop-color="#FCFFFF"/>
<stop offset="1" stop-color="#0033A2"/>
</linearGradient>
<linearGradient id="paint14_linear" x1="18437.3" y1="69972.1" x2="21591.9" y2="71131.1" gradientUnits="userSpaceOnUse">
<stop stop-color="#3D76A1"/>
<stop offset="0.15" stop-color="#00E7F8"/>
<stop offset="0.35" stop-color="#00CCEF"/>
<stop offset="0.57" stop-color="#00B9E9"/>
<stop offset="0.78" stop-color="#00ADE5"/>
<stop offset="1" stop-color="#00A9E4"/>
</linearGradient>
<linearGradient id="paint15_linear" x1="44818.5" y1="89355.5" x2="50140.5" y2="92549.9" gradientUnits="userSpaceOnUse">
<stop stop-color="#00FFFF"/>
<stop offset="0.15" stop-color="#00E7F8"/>
<stop offset="0.35" stop-color="#00CCEF"/>
<stop offset="0.57" stop-color="#00B9E9"/>
<stop offset="0.78" stop-color="#00ADE5"/>
<stop offset="1" stop-color="#00A9E4"/>
</linearGradient>
<linearGradient id="paint16_linear" x1="462387" y1="136414" x2="639428" y2="348300" gradientUnits="userSpaceOnUse">
<stop stop-color="#FCFFFF"/>
<stop offset="0.15" stop-color="#00E7F8"/>
<stop offset="0.35" stop-color="#00CCEF"/>
<stop offset="0.57" stop-color="#00B9E9"/>
<stop offset="0.78" stop-color="#00ADE5"/>
<stop offset="1" stop-color="#00A9E4"/>
</linearGradient>
<linearGradient id="paint17_linear" x1="484658" y1="159368" x2="691518" y2="407032" gradientUnits="userSpaceOnUse">
<stop stop-color="#00ACE4"/>
<stop offset="1" stop-color="#0033A2"/>
</linearGradient>
<linearGradient id="paint18_linear" x1="267818" y1="138304" x2="311618" y2="181376" gradientUnits="userSpaceOnUse">
<stop stop-color="#FCFFFF"/>
<stop offset="0.15" stop-color="#00E7F8"/>
<stop offset="0.35" stop-color="#00CCEF"/>
<stop offset="0.57" stop-color="#00B9E9"/>
<stop offset="0.78" stop-color="#00ADE5"/>
<stop offset="1" stop-color="#00A9E4"/>
</linearGradient>
<linearGradient id="paint19_linear" x1="213781" y1="147099" x2="255299" y2="179715" gradientUnits="userSpaceOnUse">
<stop stop-color="#00ACE4"/>
<stop offset="1" stop-color="#0033A2"/>
</linearGradient>
<linearGradient id="paint20_linear" x1="280644" y1="116120" x2="293832" y2="135931" gradientUnits="userSpaceOnUse">
<stop stop-color="#FCFFFF"/>
<stop offset="0.15" stop-color="#00E7F8"/>
<stop offset="0.35" stop-color="#00CCEF"/>
<stop offset="0.57" stop-color="#00B9E9"/>
<stop offset="0.78" stop-color="#00ADE5"/>
<stop offset="1" stop-color="#00A9E4"/>
</linearGradient>
<linearGradient id="paint21_linear" x1="317942" y1="111628" x2="327472" y2="129232" gradientUnits="userSpaceOnUse">
<stop stop-color="#00ACE4"/>
<stop offset="1" stop-color="#0033A2"/>
</linearGradient>
<linearGradient id="paint22_linear" x1="167.334" y1="309.536" x2="256.73" y2="464.437" gradientUnits="userSpaceOnUse">
<stop stop-color="#DD2C00"/>
<stop offset="0.553527" stop-color="#FFD13C"/>
<stop offset="1" stop-color="#FF9339"/>
</linearGradient>
<linearGradient id="paint23_linear" x1="640275" y1="75024.4" x2="643801" y2="99737.8" gradientUnits="userSpaceOnUse">
<stop stop-color="#DD2C00"/>
<stop offset="0.25" stop-color="#FFD13C"/>
<stop offset="1" stop-color="#FF9339"/>
</linearGradient>
<linearGradient id="paint24_linear" x1="73038.7" y1="51110.4" x2="76151.2" y2="54681.9" gradientUnits="userSpaceOnUse">
<stop stop-color="#FDFEFF"/>
<stop offset="1" stop-color="#0033A2"/>
</linearGradient>
<linearGradient id="paint25_linear" x1="35526.1" y1="44095.6" x2="37449.2" y2="45350" gradientUnits="userSpaceOnUse">
<stop stop-color="#00FFFF"/>
<stop offset="0.15" stop-color="#00E7F8"/>
<stop offset="0.35" stop-color="#00CCEF"/>
<stop offset="0.57" stop-color="#00B9E9"/>
<stop offset="0.78" stop-color="#00ADE5"/>
<stop offset="1" stop-color="#00A9E4"/>
</linearGradient>
<linearGradient id="paint26_linear" x1="60118" y1="41586.1" x2="61587.9" y2="43260.8" gradientUnits="userSpaceOnUse">
<stop stop-color="#FCFFFF"/>
<stop offset="1" stop-color="#0033A2"/>
</linearGradient>
<linearGradient id="paint27_linear" x1="106786" y1="84110.5" x2="116270" y2="92990.2" gradientUnits="userSpaceOnUse">
<stop stop-color="#FCFFFF"/>
<stop offset="1" stop-color="#0033A2"/>
</linearGradient>
<linearGradient id="paint28_linear" x1="46306.8" y1="72901.2" x2="51103.8" y2="75201.5" gradientUnits="userSpaceOnUse">
<stop stop-color="#00FFFF"/>
<stop offset="0.15" stop-color="#00E7F8"/>
<stop offset="0.35" stop-color="#00CCEF"/>
<stop offset="0.57" stop-color="#00B9E9"/>
<stop offset="0.78" stop-color="#00ADE5"/>
<stop offset="1" stop-color="#00A9E4"/>
</linearGradient>
<linearGradient id="paint29_linear" x1="48658.5" y1="33503.7" x2="49876.1" y2="34953" gradientUnits="userSpaceOnUse">
<stop stop-color="#FCFFFF"/>
<stop offset="1" stop-color="#0033A2"/>
</linearGradient>
<linearGradient id="paint30_linear" x1="11993.2" y1="26233.2" x2="12402.1" y2="26383.5" gradientUnits="userSpaceOnUse">
<stop stop-color="#00FFFF"/>
<stop offset="0.15" stop-color="#00E7F8"/>
<stop offset="0.35" stop-color="#00CCEF"/>
<stop offset="0.57" stop-color="#00B9E9"/>
<stop offset="0.78" stop-color="#00ADE5"/>
<stop offset="1" stop-color="#00A9E4"/>
</linearGradient>
<linearGradient id="paint31_linear" x1="25636.5" y1="33815" x2="26326.2" y2="34228.3" gradientUnits="userSpaceOnUse">
<stop stop-color="#00FFFF"/>
<stop offset="0.15" stop-color="#00E7F8"/>
<stop offset="0.35" stop-color="#00CCEF"/>
<stop offset="0.57" stop-color="#00B9E9"/>
<stop offset="0.78" stop-color="#00ADE5"/>
<stop offset="1" stop-color="#00A9E4"/>
</linearGradient>
<linearGradient id="paint32_linear" x1="352185" y1="121871" x2="375922" y2="162056" gradientUnits="userSpaceOnUse">
<stop stop-color="#FE5722"/>
<stop offset="0.25" stop-color="#FFD13C"/>
<stop offset="1" stop-color="#FF9339"/>
</linearGradient>
<linearGradient id="paint33_linear" x1="8530.19" y1="15831.9" x2="8731.17" y2="15950.4" gradientUnits="userSpaceOnUse">
<stop stop-color="#00FFFF"/>
<stop offset="0.15" stop-color="#00E7F8"/>
<stop offset="0.35" stop-color="#00CCEF"/>
<stop offset="0.57" stop-color="#00B9E9"/>
<stop offset="0.78" stop-color="#00ADE5"/>
<stop offset="1" stop-color="#00A9E4"/>
</linearGradient>
<linearGradient id="paint34_linear" x1="3489.41" y1="14656.4" x2="3570.71" y2="14676.3" gradientUnits="userSpaceOnUse">
<stop stop-color="#00FFFF"/>
<stop offset="0.15" stop-color="#00E7F8"/>
<stop offset="0.35" stop-color="#00CCEF"/>
<stop offset="0.57" stop-color="#00B9E9"/>
<stop offset="0.78" stop-color="#00ADE5"/>
<stop offset="1" stop-color="#00A9E4"/>
</linearGradient>
<linearGradient id="paint35_linear" x1="4637.11" y1="4242.85" x2="4648.8" y2="4257.23" gradientUnits="userSpaceOnUse">
<stop stop-color="#00FFFF"/>
<stop offset="0.15" stop-color="#00E7F8"/>
<stop offset="0.35" stop-color="#00CCEF"/>
<stop offset="0.57" stop-color="#00B9E9"/>
<stop offset="0.78" stop-color="#00ADE5"/>
<stop offset="1" stop-color="#00A9E4"/>
</linearGradient>
<linearGradient id="paint36_linear" x1="68184.1" y1="52824" x2="71816" y2="57670.8" gradientUnits="userSpaceOnUse">
<stop stop-color="#00FFFF"/>
<stop offset="0.15" stop-color="#00E7F8"/>
<stop offset="0.35" stop-color="#00CCEF"/>
<stop offset="0.57" stop-color="#00B9E9"/>
<stop offset="0.78" stop-color="#00ADE5"/>
<stop offset="1" stop-color="#00A9E4"/>
</linearGradient>
<linearGradient id="paint37_linear" x1="97862.2" y1="28433.7" x2="98257.7" y2="29845.5" gradientUnits="userSpaceOnUse">
<stop stop-color="#00FFFF"/>
<stop offset="0.15" stop-color="#00E7F8"/>
<stop offset="0.35" stop-color="#00CCEF"/>
<stop offset="0.57" stop-color="#00B9E9"/>
<stop offset="0.78" stop-color="#00ADE5"/>
<stop offset="1" stop-color="#00A9E4"/>
</linearGradient>
<linearGradient id="paint38_linear" x1="94844.7" y1="59950.9" x2="97528.1" y2="64113.6" gradientUnits="userSpaceOnUse">
<stop stop-color="#00FFFF"/>
<stop offset="0.15" stop-color="#00E7F8"/>
<stop offset="0.35" stop-color="#00CCEF"/>
<stop offset="0.57" stop-color="#00B9E9"/>
<stop offset="0.78" stop-color="#00ADE5"/>
<stop offset="1" stop-color="#00A9E4"/>
</linearGradient>
<linearGradient id="paint39_linear" x1="256.785" y1="358.21" x2="283.179" y2="403.948" gradientUnits="userSpaceOnUse">
<stop stop-color="#DEE9EE"/>
<stop offset="0.99" stop-color="#A8C6D4"/>
</linearGradient>
</defs>
</svg>
