<?xml version="1.0" encoding="utf-8"?>
<!-- Generator: Adobe Illustrator 24.1.3, SVG Export Plug-In . SVG Version: 6.00 Build 0)  -->
<svg version="1.1" id="Layer_1" xmlns="http://www.w3.org/2000/svg" xmlns:xlink="http://www.w3.org/1999/xlink" x="0px" y="0px"
	 viewBox="0 0 1000 210" style="enable-background:new 0 0 1000 210;" xml:space="preserve">
<style type="text/css">
	.st0{fill:#FFFFFF;}
	.st1{fill:none;}
</style>
<rect x="215.8" y="138.2" class="st0" width="22.4" height="4"/>
<rect x="215.8" y="149.6" class="st0" width="22.4" height="4"/>
<rect x="94.9" y="140.5" class="st0" width="26.1" height="4"/>
<rect x="94.9" y="151.9" class="st0" width="26.1" height="4"/>
<path class="st0" d="M241.2,46.9c-4.8-5.1-8.5-5.2-13.8-0.7c-7.7,6.7-15.5,13.3-23.2,20c-3.5,3.1-7.3,4.8-12.1,4.8
	c-8.6-0.2-17.2,0-25.8,0l0,0c-8.6,0-17.2-0.2-25.8,0.1c-5.1,0.1-9.3-1.8-13.1-5.1c-7.6-6.7-15.2-13.2-22.9-19.8
	c-5.1-4.4-8.5-4.3-13.3,0.4c-7.8,7.7-8.7,17.6-8.1,27.8c0.8,13,4.1,25.5,8.6,37.6c5,13.1,10.3,26,15.8,38.9c0.9,1.7,2.4,3.1,4.2,3.9
	c5.8,2.5,11.7,4.5,17.6,6.8c3.6,1.4,7.7,1,10.9-1.1c2.7-1,5.5-1.9,8.3-2.4c6.8-1.5,11.2-0.3,11.5-1.5s-4.1-2.2-4.6-5.1
	c-0.6-3.5,4.6-9.1,10.5-9.4c6.2-0.4,12.3,5.2,11.8,8.9c-0.4,3.1-5.4,4.5-4.9,5.8c0.3,1,3.3,0.2,8.1,0.8c3.7,0.4,7.4,1.5,10.8,3.1
	c3.8,1.7,7.4,2.3,11.4,0.7c5.5-2.2,11.2-3.9,16.6-6.4c2.2-1.2,4-3.1,5.1-5.3c2.6-5.3,4.6-10.9,6.9-16.4c8.1-18.7,15.3-37.7,17-58.4
	C249.6,64.7,248.6,54.8,241.2,46.9z M127.6,102.7c3.2,0,5.9,2.5,6.1,5.8c0,3.2-2.6,5.9-5.8,6.2c-3.2-0.1-5.8-2.8-5.9-6
	C122,105.4,124.5,102.9,127.6,102.7z M116.9,126c-3.2-0.1-5.8-2.7-5.9-6c0.1-3.2,2.7-5.8,5.9-5.8c0,0,0,0,0.1,0c3,0,5.4,2.4,5.4,5.3
	c0,0.2,0,0.3,0,0.5C122.4,123.2,120,125.8,116.9,126L116.9,126z M128,137.4c-3.2-0.1-5.8-2.7-6-5.9c0-3.1,2.4-5.7,5.5-6
	c3.2-0.2,6,2.3,6.1,5.5c0,0,0,0.1,0,0.1C133.7,134.4,131.3,137.1,128,137.4L128,137.4z M138.6,126c-3.1-0.3-5.5-3-5.4-6.1
	c0.1-3.2,2.7-5.7,5.9-5.7c0.1,0,0.2,0,0.2,0c3,0.1,5.4,2.6,5.4,5.7c0,0.1,0,0.2,0,0.3C144.5,123.5,141.8,126.1,138.6,126
	C138.6,126,138.6,126,138.6,126z M222.4,123.7c0,1.9-1.5,3.4-3.4,3.5c0,0,0,0,0,0h-8.3c-0.3,0-0.6,0.3-0.6,0.6v0v8.5
	c0,1.9-1.5,3.4-3.4,3.5c0,0,0,0,0,0h-7c-1.9,0-3.4-1.6-3.4-3.5c0,0,0,0,0,0v-8.5c0-0.3-0.3-0.6-0.6-0.6h0h-8.3
	c-1.9,0-3.4-1.6-3.4-3.5c0,0,0,0,0,0v-7.2c0-1.9,1.5-3.4,3.4-3.5c0,0,0,0,0,0h8.3c0.3,0,0.6-0.3,0.6-0.6c0,0,0,0,0,0v-8.5
	c0-1.9,1.5-3.4,3.4-3.5c0,0,0,0,0,0h7c1.9,0,3.4,1.6,3.4,3.5c0,0,0,0,0,0v8.5c0,0.3,0.3,0.6,0.6,0.6l0,0h8.3c1.9,0,3.4,1.6,3.4,3.5
	c0,0,0,0,0,0V123.7z"/>
<path class="st0" d="M291.9,73.2c8.9,0,15.3,4.1,18.7,9v-8.1H325v57c0,15.3-9.4,27.5-28,27.5c-15.9,0-27.1-8-28.5-20.9h14.2
	c1.4,5.1,6.7,8.5,13.9,8.5c7.9,0,14-4.5,14-15v-8.8c-3.4,4.9-9.8,9.3-18.7,9.3c-14.4,0-25.9-11.7-25.9-29.4S277.5,73.2,291.9,73.2z
	 M295.6,85.7c-7.7,0-14.9,5.7-14.9,16.4s7.3,16.8,14.9,16.8c7.9,0,15-5.9,15-16.7S303.5,85.7,295.6,85.7L295.6,85.7z"/>
<path class="st0" d="M361.2,73.2c9.1,0,15.3,4.3,18.7,9v-8.1h14.4v56.6h-14.4v-8.3c-3.4,4.9-9.8,9.2-18.8,9.2
	c-14.3,0-25.8-11.7-25.8-29.4S346.8,73.2,361.2,73.2z M364.9,85.7c-7.7,0-14.9,5.7-14.9,16.4s7.3,16.8,14.9,16.8
	c7.9,0,15-5.9,15-16.7S372.8,85.7,364.9,85.7L364.9,85.7z"/>
<path class="st0" d="M487.4,99.4c0-9-5-13.7-12.6-13.7s-12.7,4.7-12.7,13.7v31.3h-14.3V99.4c0-9-5-13.7-12.6-13.7
	c-7.8,0-12.8,4.7-12.8,13.7v31.3h-14.3V74.1h14.3v6.8c3.6-4.7,9.6-7.7,16.6-7.7c8.8,0,16,3.8,19.9,10.8c4.1-6.8,11.5-10.9,19.4-10.8
	c13.6,0,23.2,8.6,23.2,24.2v33.2h-14.3V99.4z"/>
<path class="st0" d="M513.8,59c0-4.7,3.7-8.4,8.8-8.4c4.6-0.2,8.6,3.3,8.8,8c0.2,4.6-3.3,8.6-8,8.8c-0.3,0-0.5,0-0.8,0
	C517.5,67.3,513.8,63.7,513.8,59z M515.3,74.1h14.3v56.6h-14.3V74.1z"/>
<path class="st0" d="M545.2,85.8h-6.5V74.1h6.4v-2.9c0-13.9,7.9-20.3,23.8-19.9v12c-7-0.2-9.3,2-9.3,8.4v2.3h9.9v11.7h-9.8v44.8
	h-14.5V85.8z"/>
<path class="st0" d="M617.9,74.1h15.2l-35,83.4h-15.3l12.3-28.2l-22.7-55.2h16l14.6,39.5L617.9,74.1z"/>
<path class="st0" d="M643,85.8h-6.7V74.1h6.7v-14h14.4v14h12.7v11.7h-12.7v27.4c0,3.8,1.5,5.4,6,5.4h6.6v12h-9
	c-10.8,0-18.1-4.6-18.1-17.6L643,85.8z"/>
<path class="st0" d="M680.4,55.1h14.3v26.1c3.7-4.8,10-7.9,17.6-7.9c12.8,0,22.1,8.6,22.1,24.2v33.2H720V99.4c0-9.1-5-14-12.6-14
	c-7.8,0-12.8,4.9-12.8,14v31.3h-14.3V55.1z"/>
<path class="st0" d="M852.8,99.4c0-9.1-5-14-12.6-14c-7.8,0-12.8,4.9-12.8,14v31.3h-14.3V74.1h14.3v7.1c3.7-4.8,9.8-7.9,17.1-7.9
	c13.2,0,22.6,8.6,22.6,24.2v33.2h-14.3V99.4z"/>
<path class="st0" d="M880.8,55.1h14.3v43l19-24h18.6l-24.9,28.4l25.1,28.2h-18.6L895,106.6v24.1h-14.3V55.1z"/>
<path class="st0" d="M793.8,89.5c-4.4,7-7.9,14.1-8.5,22.5c-0.3,3.8-3,5.9-6.9,6.1c-2.4,0.1-4.8,0-7.3,0l0,0c-2.4,0-4.8,0.1-7.3,0
	c-3.8-0.1-6.5-2-6.9-5.6c-0.9-8.7-4.5-16.2-9-23.6c-6.8-11-3.6-25.4,6.5-33.6c9.7-7.9,24.2-7.7,33.6,0.3
	C798.2,64.3,800.8,78.4,793.8,89.5z"/>
<path class="st0" d="M765.4,132.2h11.3c0.4,0,0.8,0.3,0.8,0.8v2.5c0,0.4-0.3,0.8-0.8,0.8h-11.3c-0.4,0-0.8-0.3-0.8-0.8V133
	C764.6,132.6,764.9,132.2,765.4,132.2z"/>
<path class="st0" d="M759.1,126.1H783c0.4,0,0.8,0.3,0.8,0.8v2.5c0,0.4-0.3,0.8-0.8,0.8h-23.9c-0.4,0-0.8-0.3-0.8-0.8v-2.5
	C758.3,126.5,758.6,126.1,759.1,126.1z"/>
<path class="st0" d="M759.1,120H783c0.4,0,0.8,0.3,0.8,0.8v2.5c0,0.4-0.3,0.8-0.8,0.8h-23.9c-0.4,0-0.8-0.3-0.8-0.8v-2.5
	C758.3,120.4,758.6,120,759.1,120z"/>
<line class="st1" x1="797.7" y1="52.9" x2="817.2" y2="36.5"/>
<rect x="794.7" y="42.7" transform="matrix(0.7653 -0.6437 0.6437 0.7653 160.7947 530.2429)" class="st0" width="25.5" height="4"/>
<line class="st1" x1="744.1" y1="52.9" x2="724.6" y2="36.5"/>
<rect x="732.3" y="31.9" transform="matrix(0.6437 -0.7653 0.7653 0.6437 227.446 577.8473)" class="st0" width="4" height="25.5"/>
<line class="st1" x1="786" y1="42.7" x2="796.5" y2="19.4"/>
<rect x="778.5" y="29.1" transform="matrix(0.4122 -0.9111 0.9111 0.4122 436.8402 739.1808)" class="st0" width="25.5" height="4"/>
<line class="st1" x1="771.1" y1="38.6" x2="770.9" y2="13"/>
<rect x="769" y="13.1" transform="matrix(1 -6.632202e-03 6.632202e-03 1 -0.1543 5.114)" class="st0" width="4" height="25.5"/>
<line class="st1" x1="756.3" y1="42.7" x2="745.8" y2="19.4"/>
<rect x="749" y="18.3" transform="matrix(0.9112 -0.412 0.412 0.9112 53.912 312.1743)" class="st0" width="4" height="25.5"/>
</svg>
