<svg width="484" height="781" viewBox="0 0 484 781" fill="none" xmlns="http://www.w3.org/2000/svg">
<path d="M156.528 18.6036C153.584 21.2116 91.5206 8.82384 60.8566 2.30397L502.418 1V312.65C483.283 319.169 464.885 331.557 420.729 331.557C355.227 331.557 341.248 317.213 325.793 312.65C310.339 308.086 255.879 258.535 242.633 212.244C229.386 165.953 250.728 98.798 255.879 85.7582C261.031 72.7185 252.936 47.291 242.633 36.8593C232.329 26.4275 160.208 15.3437 156.528 18.6036Z" fill="#9CBED9" stroke="#9CBED9"/>
<path d="M295.62 69.4586C290.321 75.1961 275.259 26.2101 268.39 1H502.418V104.014L492.851 77.9344C490.152 73.5878 482.547 63.7211 473.716 59.0268C464.885 54.3325 461.696 57.0708 461.205 59.0268C459.733 62.0694 458.262 71.9361 464.149 87.0622C471.508 105.97 472.98 143.785 473.716 145.741C474.452 147.697 457.526 158.129 424.409 160.085C397.915 161.649 386.876 166.822 384.668 169.213C378.29 176.602 366.417 186.425 369.949 166.605C373.482 146.784 352.287 126.181 341.248 118.358C326.039 111.62 296.945 95.7988 302.243 86.4102C307.542 77.0216 344.682 65.5467 362.59 60.9828C384.913 55.3322 427.647 40.7712 419.993 27.7314C410.426 11.4318 388.348 18.6036 371.421 20.5596C354.495 22.5156 302.243 62.2867 295.62 69.4586Z" fill="#FE5722" stroke="#4F7FA5"/>
<path d="M287.21 580.713C382.988 589.357 478.017 680.573 513.56 725.101L1 723.136C10.3533 698.908 37.4778 643.379 71.1496 615.091C104.821 586.803 143.793 577.767 159.07 576.784C161.876 574.492 191.433 572.07 287.21 580.713Z" fill="#9CBED9" stroke="#9CBED9"/>
<path d="M465.33 493.652C481.678 492.988 496.867 499.458 502.417 502.776L501.66 779.818H255.672C256.177 775.947 256.883 767.873 255.672 766.546C254.158 764.887 257.186 759.081 257.943 757.422C258.699 755.763 260.97 757.422 262.484 759.081C263.998 760.74 273.837 765.717 273.837 766.546C273.837 767.376 299.571 770.694 306.383 771.523C313.195 772.352 334.388 769.864 342.714 769.035C351.04 768.205 370.719 774.841 383.586 777.329C393.879 779.32 414.114 769.311 422.944 764.058C430.261 759.91 443.228 749.459 436.568 740.833C428.242 730.05 398.724 739.174 383.586 744.98C368.448 750.786 328.333 756.593 326.819 757.422C325.306 758.252 272.323 747.468 264.755 749.127C258.699 750.455 256.177 745.81 255.672 743.321C254.915 713.46 254.764 653.905 260.213 654.568C267.025 655.398 277.622 663.692 310.168 679.452C336.205 692.06 367.943 686.364 380.558 681.941C390.398 678.899 406.141 669.83 390.398 657.886C370.719 642.956 344.985 642.126 343.471 642.956C341.957 643.785 315.466 647.103 288.218 641.297C260.97 635.491 264.755 633.832 261.727 629.684C258.699 625.537 273.837 596.506 285.947 583.234C298.058 569.963 300.328 542.59 301.085 542.59C301.842 542.59 302.599 517.706 298.814 509.412C295.03 501.117 295.03 501.946 295.03 499.458C295.03 496.97 298.814 497.799 304.113 500.287C309.411 502.776 323.792 506.094 327.576 506.923C330.604 507.587 341.452 505.541 346.498 504.435C365.421 499.182 404.325 491.495 408.563 502.776C412.802 514.057 414.87 530.148 415.375 536.784C416.132 562.774 419.311 614.422 425.971 613.095C434.297 611.436 435.054 608.948 438.839 606.459C441.866 604.468 445.651 596.782 447.164 593.188C450.696 578.81 456.247 544.913 450.192 524.342C442.623 498.629 428.242 502.776 434.297 497.799C440.352 492.822 444.894 494.481 465.33 493.652Z" fill="#FE5722" stroke="#6491B2"/>
<path d="M112.621 727.352C123.508 706.262 143.844 694.861 162.785 682.564C173.053 675.897 184.261 668.542 195.635 664.06C213.113 657.174 230.843 654.722 249.461 654.722C259.093 654.722 267.21 657.396 275.598 662.043C284.048 666.724 293.175 670.274 300.402 677.03C314.536 690.244 332.9 701.949 351.343 706.14C367.933 709.91 386.612 707.638 403.615 707.638C419.305 707.638 434.36 697.871 447.73 690.518C462.314 682.498 475.412 669.833 487.184 657.835C501.78 642.959 514.405 626.639 527.138 610.106" stroke="#014171" stroke-width="12" stroke-linecap="round" stroke-linejoin="round"/>
<path d="M383.813 320.683C424.552 328.456 434.214 359.383 457 389.815C473.399 411.718 487.073 419.95 513.501 419.95" stroke="#014171" stroke-width="12" stroke-linecap="round" stroke-linejoin="round"/>
</svg>
