<svg width="64" height="64" viewBox="0 0 64 64" fill="none" xmlns="http://www.w3.org/2000/svg">
<circle cx="32" cy="32" r="32" fill="#FE5722"/>
<path d="M40.6264 21.2009C40.1435 20.7219 39.4975 20.4433 38.8178 20.4208C38.138 20.3983 37.475 20.6336 36.9615 21.0796H31.0735C30.36 21.0826 29.6768 21.3685 29.1737 21.8746L22.8276 28.2072C22.6866 28.328 22.572 28.4766 22.4912 28.6438C22.4103 28.8109 22.3648 28.993 22.3577 29.1786C22.3505 29.3641 22.3818 29.5492 22.4495 29.7221C22.5173 29.895 22.62 30.052 22.7513 30.1833C22.8826 30.3146 23.0396 30.4174 23.2125 30.4851C23.3854 30.5528 23.5705 30.5841 23.756 30.5769C23.9416 30.5698 24.1237 30.5243 24.2908 30.4435C24.458 30.3626 24.6066 30.248 24.7274 30.107L31.0735 23.7744H34.2264L17.1956 40.8186C16.9808 41.0349 16.8032 41.2853 16.6702 41.5596L13.1401 48.7815C13.0149 49.0342 12.9721 49.3197 13.0178 49.5979C13.0635 49.8761 13.1953 50.133 13.3946 50.3324C13.594 50.5318 13.8509 50.6636 14.1291 50.7092C14.4073 50.7549 14.6929 50.7122 14.9455 50.587L22.1674 47.0704C22.4418 46.9373 22.6922 46.7597 22.9085 46.5449L42.5127 26.9407C42.7673 26.6899 42.9695 26.391 43.1075 26.0614C43.2455 25.7318 43.3166 25.378 43.3166 25.0207C43.3166 24.6633 43.2455 24.3095 43.1075 23.9799C42.9695 23.6503 42.7673 23.3514 42.5127 23.1007L40.6264 21.2009ZM40.6264 25.0409L20.9817 44.6451L17.2765 46.4506L19.0954 42.7184L38.7266 23.1007L40.6264 25.0005L40.5994 25.0274L40.6264 25.0409Z" fill="#F2F2F2"/>
<path d="M49.9367 15.6901L48.0369 13.7903C47.7866 13.5398 47.4894 13.341 47.1623 13.2054C46.8352 13.0698 46.4845 13 46.1304 13C45.7762 13 45.4256 13.0698 45.0984 13.2054C44.7713 13.341 44.4741 13.5398 44.2238 13.7903L41.4213 16.5929C41.1708 16.8431 40.972 17.1403 40.8364 17.4675C40.7008 17.7946 40.631 18.1453 40.631 18.4994C40.631 18.8535 40.7008 19.2042 40.8364 19.5313C40.972 19.8584 41.1708 20.1556 41.4213 20.4059L43.3211 22.3057C43.5714 22.5562 43.8686 22.755 44.1957 22.8906C44.5228 23.0262 44.8735 23.096 45.2276 23.096C45.5818 23.096 45.9324 23.0262 46.2596 22.8906C46.5867 22.755 46.8839 22.5562 47.1342 22.3057L49.9502 19.4897C50.2007 19.2394 50.3995 18.9422 50.5351 18.6151C50.6707 18.288 50.7405 17.9373 50.7405 17.5832C50.7405 17.229 50.6707 16.8784 50.5351 16.5512C50.3995 16.2241 50.2007 15.9269 49.9502 15.6766L49.9367 15.6901ZM45.2209 20.4059L43.3211 18.5061L46.1371 15.6901L48.0369 17.5899L45.2209 20.4059Z" fill="#F2F2F2"/>
</svg>
