<svg width="792" height="718" viewBox="0 0 792 718" fill="none" xmlns="http://www.w3.org/2000/svg">
<path d="M10.8407 337.355C-37.9369 460.895 89.201 629.95 167.335 718H332.637H788.572L920 548.674C906.902 478.234 872.306 301.593 838.704 158.547C796.701 -20.2615 502.681 -60.8997 486.422 104.362C473.415 236.572 314.797 249.757 237.114 239.823C182.014 220.859 59.6182 213.815 10.8407 337.355Z" fill="#E8E5E5" fill-opacity="0.14"/>
<path d="M648.446 577.018H627.823C627.823 565.966 620.543 555.073 615.098 545.789L614.576 544.897C609.888 536.799 603.791 529.279 601.986 519.859C601.465 517.12 601.361 514.154 602.644 511.678C604.01 509.034 606.79 507.346 609.673 506.606C644.029 497.803 651.21 543.651 648.446 577.018Z" fill="url(#paint0_linear)"/>
<path d="M639.581 577.018H638.708C638.607 572.347 638.165 567.69 637.386 563.083C636.469 557.52 635.103 552.04 633.3 546.697C629.719 535.975 624.22 525.993 617.07 517.236C616.48 516.487 617.002 516.089 617.619 516.754C625.502 525.151 631.46 535.164 635.08 546.096C636.904 551.545 638.192 557.16 638.923 562.861C639.545 567.552 639.765 572.289 639.581 577.018Z" fill="url(#paint1_linear)"/>
<path d="M685.22 577.018H706.21C706.21 550.121 736.651 523.705 713.697 520.851C705.533 519.832 699.706 524.016 695.552 530.517C685.22 546.649 685.22 577.018 685.22 577.018Z" fill="url(#paint2_linear)"/>
<path d="M662.247 577.018H688.008C692.206 538.277 691.059 441.159 634.937 450.698C591.882 458.011 661.148 513.959 662.247 577.018Z" fill="url(#paint3_linear)"/>
<path d="M648.164 472.089C651.51 475.938 654.421 480.143 656.846 484.63C659.314 489.084 661.428 493.726 663.167 498.512C664.95 503.29 666.47 508.163 667.72 513.107C668.982 518.048 670.057 523.036 670.906 528.081C672.635 538.164 673.814 548.334 674.439 558.545C674.837 564.7 675.08 570.859 675.14 577.014H676.896C677.127 570.823 677.115 564.62 676.896 558.418C676.539 548.073 675.474 537.766 673.71 527.567C672.825 522.463 671.679 517.399 670.316 512.399C668.97 507.382 667.311 502.454 665.35 497.644C664.41 495.224 663.287 492.867 662.163 490.526C660.949 488.221 659.774 485.904 658.38 483.714C655.659 479.287 652.589 475.047 648.916 471.372C647.841 470.198 647.12 470.835 648.164 472.089Z" fill="url(#paint4_linear)"/>
<path d="M642.002 577.018H663.402C663.402 577.018 669.038 531.978 644.838 532.01C622.777 532.026 637.514 559.859 642.002 577.018Z" fill="url(#paint5_linear)"/>
<path d="M648.375 543.13C651.561 553.262 652.903 563.872 653.652 574.438C653.696 575.294 653.744 576.162 653.788 577.018H655.648C655.616 576.102 655.572 575.202 655.512 574.307C654.716 563.621 652.947 552.903 649.02 542.875C648.689 542.098 648.104 542.337 648.375 543.13Z" fill="url(#paint6_linear)"/>
<path d="M693.25 577.018H694.592C695.086 572.937 695.703 568.856 696.472 564.819C697.605 559.178 699.118 553.619 701 548.182C701.506 546.828 702.08 545.51 702.593 544.181C702.868 543.516 703.111 542.839 703.418 542.19L704.382 540.263L705.334 538.324C705.637 537.672 705.981 537.041 706.365 536.433L708.623 532.754C709.093 531.998 708.715 531.688 708.189 532.456L705.736 536.039C705.322 536.639 704.95 537.266 704.625 537.918L703.569 539.833L702.526 541.76C702.191 542.401 701.928 543.078 701.621 543.751C701.048 545.092 700.427 546.41 699.889 547.764C697.829 553.219 696.215 558.832 695.062 564.549C694.278 568.692 693.674 572.848 693.25 577.018Z" fill="url(#paint7_linear)"/>
<path d="M166.637 595.61H131.56C131.56 576.815 119.177 558.29 109.917 542.5C109.622 541.999 109.328 541.485 109.029 540.984C101.063 527.209 90.7079 514.421 87.6212 498.385C86.733 493.723 86.5538 488.678 88.7404 484.45C91.0664 479.956 95.79 477.081 100.689 475.823C159.121 460.882 171.337 538.866 166.637 595.61Z" fill="url(#paint8_linear)"/>
<path d="M151.558 595.61H150.056C149.887 587.658 149.136 579.729 147.81 571.886C146.251 562.424 143.927 553.104 140.86 544.017C134.77 525.786 125.418 508.812 113.259 493.922C112.255 492.652 113.143 491.971 114.195 493.102C127.6 507.383 137.732 524.411 143.887 543.002C146.99 552.271 149.179 561.821 150.423 571.516C151.487 579.5 151.867 587.561 151.558 595.61Z" fill="url(#paint9_linear)"/>
<path d="M229.176 595.61H264.874C264.874 549.866 316.651 504.942 277.619 500.089C263.731 498.353 253.822 505.471 246.76 516.527C229.176 543.958 229.176 595.61 229.176 595.61Z" fill="url(#paint10_linear)"/>
<path d="M190.108 595.61H233.919C241.061 529.725 239.097 364.552 143.664 380.776C70.4352 393.201 188.248 488.352 190.108 595.61Z" fill="url(#paint11_linear)"/>
<path d="M166.151 417.16C171.926 423.633 176.706 430.927 180.916 438.491C185.114 446.068 188.71 453.963 191.669 462.104C194.702 470.231 197.286 478.517 199.412 486.927C201.559 495.331 203.395 503.811 204.852 512.407C207.875 529.526 209.712 546.84 210.863 564.214C211.524 574.685 211.954 585.155 212.057 595.626H215.041C215.439 585.096 215.411 574.549 215.041 563.999C214.36 546.45 212.719 528.881 209.636 511.531C208.134 502.856 206.183 494.236 203.861 485.732C201.571 477.204 198.749 468.827 195.413 460.651C193.82 456.538 191.9 452.541 190.008 448.544C187.941 444.626 185.95 440.685 183.572 436.962C178.948 429.438 173.722 422.232 167.477 415.962C165.605 413.943 164.379 415.054 166.151 417.16Z" fill="url(#paint12_linear)"/>
<path d="M155.676 595.61H192.04C192.04 595.61 201.626 519.011 160.472 519.063C123.009 519.087 148.021 566.424 155.676 595.61Z" fill="url(#paint13_linear)"/>
<path d="M166.514 537.978C171.918 555.209 174.216 573.256 175.491 591.227C175.567 592.68 175.642 594.157 175.722 595.606H178.884C178.833 594.049 178.757 592.521 178.653 590.992C177.327 572.818 174.292 554.592 167.613 537.54C167.047 536.218 166.052 536.624 166.514 537.978Z" fill="url(#paint14_linear)"/>
<path d="M242.813 595.61H245.095C245.936 588.667 246.987 581.728 248.281 574.864C250.209 565.271 252.783 555.82 255.984 546.573C256.845 544.272 257.816 542.031 258.717 539.77C259.187 538.639 259.593 537.488 260.122 536.378L261.759 533.101L263.376 529.805C263.892 528.696 264.479 527.621 265.133 526.588L268.976 520.329C269.773 519.043 269.132 518.518 268.236 519.824L264.062 525.947C263.357 526.963 262.725 528.027 262.17 529.132L260.373 532.388L258.597 535.665C258.031 536.756 257.581 537.906 257.056 539.037C256.08 541.318 255.028 543.56 254.108 545.861C250.604 555.139 247.858 564.685 245.896 574.406C244.576 581.432 243.549 588.5 242.813 595.61Z" fill="url(#paint15_linear)"/>
<path d="M540.133 401.526C521.812 391.807 496.222 431.265 496.222 431.265C505.028 404.376 534.676 335.27 508.891 318.167C487.961 304.284 465.08 331.006 457.369 351.736C463.527 327.849 489.132 253.464 464.538 243.531C443.031 234.852 427.303 270.145 424.311 290.573C421.766 269.381 418.556 197.536 378.947 206.824C340.807 216.678 362.617 282.75 372.662 306.852C361.231 292.544 332.582 263.21 317.699 285.943C293.555 322.785 384.475 382.686 384.475 382.686C384.475 382.686 329.982 365.01 330.396 398.376C330.981 445.598 385.877 469.728 426.247 472.28C368.532 467.244 374.12 520.421 415.159 541.262C449.658 558.78 491.757 555.85 524.11 534.765C545.836 511.666 567.977 416.292 540.133 401.526Z" fill="url(#paint16_linear)"/>
<path d="M517.96 464.19C515.638 471.456 512.946 478.618 510.038 485.581C507.783 490.92 505.224 496.126 502.371 501.172C484.469 477.974 468.231 453.538 453.781 428.049C458.411 421.539 462.706 414.798 466.649 407.852C470.911 400.22 474.918 392.114 478.486 384.012C482.055 375.91 485.257 367.594 488.073 359.221C490.889 350.849 493.442 342.413 495.302 333.849C493.07 342.317 490.364 350.654 487.197 358.819C484.086 367.02 480.617 375.142 476.782 382.977C472.946 390.812 468.68 398.631 464.192 405.925C460.281 412.182 456.05 418.232 451.514 424.051C440.232 404.044 430.174 383.372 421.396 362.147C425.47 354.352 429.477 346.541 432.739 338.288C434.631 334.1 436.081 329.665 437.797 325.409C439.247 321.002 440.856 316.65 442.199 312.271C444.875 303.552 447.488 294.602 449.626 285.676C451.765 276.75 453.673 267.789 454.999 258.747C453.37 267.713 451.164 276.563 448.734 285.342C446.305 294.12 443.401 302.899 440.45 311.403C438.968 315.671 437.224 319.907 435.639 324.187C433.791 328.311 432.205 332.607 430.19 336.636C427.004 343.842 423.248 350.626 419.397 357.338C403.2 315.644 390.725 272.6 382.117 228.709C389.588 272.998 400.963 316.54 416.107 358.827C408.747 356.976 401.561 354.491 394.631 351.398C386.285 347.645 378.247 343.241 370.591 338.228C362.592 332.975 354.945 327.205 347.697 320.958C340.118 314.436 333 307.397 326.393 299.893C332.829 307.699 339.793 315.055 347.235 321.909C354.375 328.504 361.935 334.631 369.866 340.251C377.502 345.639 385.548 350.422 393.93 354.555C401.633 358.321 409.671 361.358 417.939 363.628C426.896 385.394 436.344 406.184 446.854 427.244C439.885 428.927 432.726 429.695 425.558 429.53C416.844 429.23 408.189 427.967 399.753 425.763C390.861 423.44 382.182 420.367 373.809 416.579C364.97 412.64 356.471 407.98 348.398 402.644C356.388 408.327 364.828 413.349 373.634 417.662C382.012 421.828 390.727 425.283 399.686 427.989C408.242 430.574 417.057 432.207 425.972 432.858C433.666 433.337 441.388 432.772 448.929 431.178C462.82 457.253 478.534 482.317 495.955 506.18C489.572 507.952 483.072 509.269 476.503 510.121C468.028 511.206 459.488 511.688 450.945 511.563C442.113 511.419 433.298 510.733 424.55 509.508C415.466 508.244 406.477 506.368 397.646 503.891C406.493 506.748 415.521 509.01 424.67 510.659C433.492 512.253 442.404 513.305 451.355 513.808C460.042 514.282 468.752 514.137 477.419 513.374C484.564 512.725 491.651 511.543 498.62 509.839C519.37 537.556 542.12 563.983 567.2 587.902L574.68 579.781C549.349 556.889 526.249 531.449 505.08 504.695C507.974 498.993 510.53 493.125 512.735 487.122C515.359 479.864 517.749 472.459 519.769 464.998C521.788 457.537 523.66 450.029 525.309 442.524C526.958 435.02 528.495 427.503 529.69 419.983C528.16 427.427 526.336 434.833 524.381 442.206C522.425 449.579 520.282 456.932 517.96 464.19Z" fill="url(#paint17_linear)"/>
<path d="M595.88 472.759C602.969 465.06 621.768 479.547 621.768 479.547C613.081 468.225 587.356 440.313 596.752 427.847C604.383 417.731 619.761 426.609 626.906 435.185C619.964 424.834 595.294 393.744 605.339 384.886C614.101 377.151 627.527 391.308 632.374 400.528C630.028 390.014 619.498 355.286 639.906 353.06C659.713 351.352 660.418 386.455 659.689 399.613C662.728 390.886 671.438 372.122 682.343 380.439C700.019 393.923 666.81 437.677 666.81 437.677C666.81 437.677 689.771 420.132 695.176 436.085C702.823 458.658 680.746 479.348 661.963 487.331C688.584 475.252 694.853 501.5 678.818 518.301C665.34 532.426 644.813 538.091 625.874 533.481C611.656 526.132 585.11 484.456 595.88 472.759Z" fill="url(#paint18_linear)"/>
<path d="M616.339 505.147C618.655 507.927 621.124 510.606 623.665 513.163C625.625 515.123 627.707 516.978 629.901 518.72C634.507 506.001 638.117 493 640.704 479.817C637.424 477.715 634.265 475.462 631.237 473.067C627.943 470.423 624.692 467.538 621.648 464.589C618.603 461.639 615.701 458.537 612.966 455.357C610.213 452.206 607.655 448.918 605.303 445.509C607.775 448.82 610.45 452.002 613.315 455.04C616.157 458.101 619.154 461.069 622.286 463.871C625.418 466.673 628.74 469.388 632.082 471.851C634.976 473.955 637.987 475.922 641.104 477.744C643.11 467.406 644.425 456.968 645.041 446.486C641.756 443.788 638.631 440.934 635.677 437.936C634.091 436.418 632.652 434.726 631.126 433.15C629.703 431.47 628.212 429.836 626.845 428.156C624.121 424.802 621.386 421.344 618.884 417.817C616.383 414.29 613.981 410.72 611.84 407.024C614.112 410.63 616.633 414.121 619.253 417.536C621.874 420.951 624.712 424.294 627.531 427.51C628.946 429.126 630.48 430.687 631.947 432.289C633.513 433.785 634.98 435.397 636.609 436.829C639.321 439.394 642.182 441.825 645.18 444.113C645.885 423.679 644.603 403.228 641.346 383C645.204 403.228 647.087 423.727 646.975 444.257C650.152 442.341 653.141 440.178 655.907 437.791C659.234 434.906 662.307 431.786 665.096 428.462C668.008 424.983 670.667 421.334 673.056 417.539C675.557 413.577 677.753 409.463 679.629 405.225C677.885 409.567 675.816 413.797 673.437 417.882C671.154 421.809 668.595 425.597 665.774 429.223C663.057 432.707 660.044 435.991 656.763 439.046C653.745 441.845 650.445 444.38 646.908 446.619C646.301 457.362 645.299 467.758 643.84 478.436C647.422 478.103 650.942 477.346 654.309 476.186C658.388 474.733 662.276 472.875 665.905 470.643C669.729 468.291 673.327 465.648 676.66 462.742C680.19 459.704 683.438 456.407 686.372 452.883C683.537 456.542 680.379 459.986 676.929 463.179C673.656 466.248 670.105 469.061 666.313 471.588C662.691 474.003 658.786 476.047 654.67 477.682C651.106 479.057 647.353 479.986 643.515 480.445C641.292 493.796 638.035 506.987 633.77 519.921C637.089 519.716 640.388 519.296 643.641 518.666C647.837 517.851 651.964 516.767 655.99 515.421C660.151 514.017 664.213 512.381 668.153 510.523C672.244 508.604 676.188 506.436 679.958 504.032C676.244 506.607 672.343 508.951 668.283 511.05C664.368 513.077 660.319 514.883 656.161 516.459C652.124 517.983 647.974 519.244 643.741 520.231C640.248 521.037 636.694 521.605 633.108 521.93C627.911 537.032 621.549 551.882 613.664 566L608.764 563.634C616.938 549.931 623.63 535.442 629.188 520.693C626.864 518.674 624.674 516.533 622.627 514.281C620.169 511.551 617.802 508.72 615.598 505.814C613.394 502.907 611.237 499.95 609.22 496.968C607.202 493.986 605.212 490.975 603.372 487.917C605.354 490.892 607.444 493.809 609.6 496.69C611.757 499.572 614.028 502.37 616.339 505.147Z" fill="url(#paint19_linear)"/>
<path d="M700.088 514.23C707.257 512.681 712.184 528.562 712.184 528.562C711.786 518.558 708.321 492.166 718.748 488.818C727.211 486.103 732.437 497.401 733.086 505.204C733.289 496.474 731.72 468.677 741.052 467.658C749.213 466.77 751.176 480.302 750.212 487.564C753.12 480.589 761.121 456.427 773.711 463.398C785.755 470.421 771.967 490.828 766.227 498.074C771.497 494.3 784.079 487.062 786.966 496.235C791.646 511.105 754.912 522.77 754.912 522.77C754.912 522.77 775.169 521.973 771.815 533.316C767.072 549.344 746.05 552.286 732.055 549.277C752.2 553.107 745.198 570.688 729.195 573.841C715.757 576.492 701.713 571.452 692.708 561.153C687.55 551.196 689.183 516.579 700.088 514.23Z" fill="url(#paint20_linear)"/>
<path d="M701.809 538.139C701.901 540.839 702.128 543.534 702.451 546.185C702.705 548.221 703.076 550.24 703.562 552.233C711.893 546.052 719.776 539.29 727.152 531.996C726.202 529.335 725.389 526.627 724.715 523.883C723.998 520.873 723.412 517.728 722.978 514.622C722.544 511.517 722.253 508.38 722.098 505.254C721.917 502.145 721.909 499.028 722.074 495.918C722.02 499.017 722.139 502.117 722.432 505.203C722.703 508.296 723.106 511.389 723.655 514.435C724.205 517.481 724.91 520.546 725.734 523.461C726.461 525.967 727.317 528.435 728.299 530.854C734.068 525.125 739.484 519.052 744.517 512.667C743.832 509.625 743.308 506.549 742.948 503.451C742.709 501.858 742.638 500.19 742.462 498.578C742.391 496.938 742.263 495.301 742.227 493.677C742.156 490.448 742.124 487.152 742.255 483.903C742.387 480.654 742.598 477.422 743.016 474.213C742.709 477.422 742.618 480.65 742.59 483.875C742.562 487.1 742.717 490.369 742.904 493.55C743 495.142 743.187 496.758 743.303 498.367C743.538 499.959 743.661 501.552 743.96 503.144C744.377 505.869 743.812 510.003 744.517 512.667C754.052 500.022 762.449 486.558 769.609 472.433C762.803 486.801 755.867 499.106 746.64 512.054C749.325 512.131 752.012 511.975 754.67 511.589C757.874 511.113 761.035 510.386 764.125 509.415C767.355 508.394 770.515 507.164 773.584 505.732C776.794 504.239 779.896 502.526 782.868 500.604C779.925 502.644 776.846 504.48 773.652 506.098C770.585 507.657 767.42 509.017 764.177 510.167C761.062 511.268 757.866 512.124 754.618 512.727C751.632 513.274 748.601 513.541 745.565 513.523C740.419 520.077 735.209 526.263 729.594 532.414C731.806 533.658 734.17 534.608 736.627 535.241C739.627 535.976 742.7 536.377 745.788 536.435C749.041 536.498 752.293 536.285 755.51 535.798C758.899 535.309 762.241 534.54 765.503 533.501C762.235 534.668 758.877 535.567 755.462 536.188C752.207 536.802 748.905 537.14 745.593 537.2C742.429 537.258 739.269 536.967 736.169 536.332C733.502 535.753 730.926 534.816 728.51 533.545C721.27 541.092 713.505 548.119 705.274 554.574C707.277 555.791 709.364 556.865 711.52 557.787C714.302 558.97 717.165 559.955 720.087 560.733C723.109 561.534 726.177 562.148 729.275 562.572C732.492 563.015 735.734 563.24 738.981 563.245C735.694 563.366 732.402 563.266 729.128 562.946C725.968 562.641 722.83 562.143 719.732 561.453C716.727 560.779 713.773 559.892 710.894 558.798C708.523 557.89 706.222 556.807 704.012 555.557C694.294 563.068 683.968 569.757 673.141 575.555L671.372 572.071C682.189 566.644 692.535 560.326 702.303 553.184C701.866 550.964 701.56 548.72 701.387 546.464C701.192 543.737 701.088 540.986 701.12 538.251C701.152 535.516 701.236 532.777 701.395 530.061C701.554 527.346 701.762 524.639 702.068 521.96C701.873 524.643 701.781 527.342 701.738 530.041C701.694 532.741 701.718 535.428 701.809 538.139Z" fill="url(#paint21_linear)"/>
<path d="M148.535 577.83C162.172 575.234 172.014 585.47 172.663 586.119C173.26 584.021 179.207 564.696 198.488 557.852C210.675 553.509 221.417 556.602 225.113 557.852C223.845 554.527 223.535 550.912 224.22 547.42C224.905 543.927 226.556 540.697 228.986 538.096C231.417 535.495 234.528 533.628 237.967 532.707C241.407 531.786 245.035 531.848 248.441 532.886C252.431 526.683 258.157 521.79 264.908 518.815C271.658 515.841 279.134 514.915 286.407 516.155C293.679 517.395 300.426 520.745 305.809 525.788C311.191 530.831 314.971 537.345 316.679 544.519C321.124 537.878 329.117 534.53 336.661 536.178C343.404 537.628 348.801 542.771 350.848 549.512C355.102 545.061 360.46 541.816 366.376 540.107C372.293 538.399 378.556 538.287 384.53 539.784C390.503 541.28 395.973 544.332 400.384 548.628C404.794 552.924 407.988 558.312 409.639 564.242C418.684 557.1 430.863 554.4 442.183 557.96C459.122 563.291 469.788 581.258 466.08 599.444H127.709C129.748 588.416 138.144 579.777 148.535 577.83Z" fill="url(#paint22_linear)"/>
<path d="M478.709 584.431C489.096 582.44 496.592 590.251 497.086 590.745C497.544 589.153 502.069 574.422 516.757 569.219C526.041 565.91 534.222 568.267 537.038 569.219C536.072 566.686 535.836 563.933 536.357 561.273C536.879 558.612 538.136 556.152 539.987 554.171C541.839 552.19 544.209 550.768 546.828 550.067C549.448 549.365 552.212 549.413 554.806 550.204C557.845 545.481 562.207 541.755 567.348 539.49C572.489 537.225 578.183 536.52 583.722 537.465C589.26 538.409 594.399 540.961 598.498 544.801C602.598 548.642 605.477 553.603 606.778 559.066C610.163 554.006 616.253 551.458 621.996 552.697C624.54 553.272 626.883 554.517 628.783 556.303C630.684 558.089 632.071 560.35 632.802 562.853C636.042 559.462 640.122 556.989 644.629 555.687C649.135 554.385 653.907 554.299 658.457 555.439C663.007 556.579 667.174 558.904 670.533 562.177C673.892 565.45 676.324 569.554 677.581 574.072C684.471 568.629 693.747 566.575 702.37 569.294C715.271 573.355 723.396 587.039 720.584 600.889H462.845C464.403 592.493 470.795 585.912 478.709 584.431Z" fill="url(#paint23_linear)"/>
<path d="M592.547 576.405H579.922C579.922 569.637 575.465 562.972 572.131 557.295L571.812 556.749C568.941 551.793 565.213 547.194 564.106 541.422C563.787 539.746 563.707 537.93 564.504 536.413C565.34 534.797 567.041 533.762 568.809 533.308C589.843 527.909 594.24 555.977 592.547 576.405Z" fill="url(#paint24_linear)"/>
<path d="M587.119 576.405H586.577C586.52 573.542 586.254 570.688 585.78 567.865C585.22 564.459 584.383 561.103 583.279 557.832C581.088 551.27 577.722 545.161 573.346 539.801C572.983 539.343 573.306 539.101 573.684 539.507C578.511 544.647 582.159 550.777 584.374 557.47C585.492 560.806 586.28 564.244 586.728 567.734C587.105 570.608 587.236 573.508 587.119 576.405Z" fill="url(#paint25_linear)"/>
<path d="M615.058 576.405H627.907C627.907 559.938 646.543 543.759 632.491 542.023C627.493 541.398 623.924 543.962 621.383 547.939C615.058 557.812 615.058 576.405 615.058 576.405Z" fill="url(#paint26_linear)"/>
<path d="M600.995 576.405H616.763C619.332 552.689 618.631 493.237 584.275 499.077C557.92 503.552 600.322 537.803 600.995 576.405Z" fill="url(#paint27_linear)"/>
<path d="M592.372 512.172C594.419 514.529 596.201 517.104 597.685 519.851C599.195 522.579 600.488 525.421 601.552 528.351C602.644 531.276 603.575 534.259 604.34 537.285C605.113 540.311 605.774 543.365 606.3 546.442C607.359 552.614 608.081 558.839 608.463 565.09C608.702 568.86 608.861 572.626 608.893 576.397H609.968C610.108 572.607 610.104 568.809 609.968 565.014C609.752 558.682 609.103 552.371 608.024 546.127C607.483 543.002 606.782 539.901 605.945 536.843C605.122 533.772 604.107 530.755 602.907 527.81C602.329 526.329 601.644 524.892 600.963 523.45C600.218 522.041 599.501 520.624 598.645 519.282C597.015 516.544 595.072 514.006 592.854 511.718C592.177 511.013 591.735 511.415 592.372 512.172Z" fill="url(#paint28_linear)"/>
<path d="M588.6 576.405H601.688C601.688 576.405 605.137 548.835 590.325 548.851C576.843 548.866 585.848 565.898 588.6 576.405Z" fill="url(#paint29_linear)"/>
<path d="M592.507 555.658C594.455 561.861 595.295 568.355 595.737 574.824C595.765 575.346 595.793 575.879 595.821 576.417H596.96C596.96 575.855 596.912 575.306 596.876 574.756C596.399 568.215 595.307 561.654 592.894 555.515C592.694 555.025 592.336 555.173 592.507 555.658Z" fill="url(#paint30_linear)"/>
<path d="M619.989 576.405H620.786C621.088 573.904 621.467 571.408 621.937 568.936C622.635 565.482 623.567 562.08 624.725 558.752C625.035 557.924 625.386 557.116 625.708 556.304C625.876 555.905 626.023 555.483 626.214 555.081L626.804 553.887L627.385 552.693C627.571 552.293 627.783 551.906 628.018 551.534L629.4 549.281C629.687 548.819 629.456 548.628 629.134 549.097L627.632 551.303C627.378 551.67 627.151 552.055 626.951 552.454L626.306 553.624L625.669 554.818C625.465 555.217 625.302 555.615 625.115 556.013C624.764 556.833 624.386 557.641 624.055 558.469C622.794 561.809 621.806 565.245 621.1 568.745C620.606 571.29 620.236 573.843 619.989 576.405Z" fill="url(#paint31_linear)"/>
<path d="M314.795 580C328.432 577.404 338.274 587.64 338.923 588.289C339.521 586.19 345.467 566.866 364.748 560.022C376.936 555.678 387.677 558.772 391.373 560.022C390.105 556.696 389.796 553.082 390.48 549.589C391.165 546.097 392.816 542.867 395.247 540.266C397.677 537.665 400.788 535.798 404.228 534.876C407.667 533.955 411.295 534.018 414.701 535.056C418.691 528.853 424.417 523.96 431.168 520.985C437.918 518.01 445.395 517.085 452.667 518.325C459.939 519.565 466.686 522.915 472.069 527.958C477.451 533.001 481.231 539.515 482.939 546.689C487.384 540.048 495.378 536.7 502.921 538.348C509.664 539.797 515.061 544.941 517.108 551.681C521.362 547.231 526.72 543.986 532.636 542.277C538.553 540.568 544.816 540.457 550.79 541.953C556.763 543.45 562.233 546.502 566.644 550.798C571.054 555.094 574.248 560.481 575.899 566.412C584.944 559.269 597.123 556.57 608.443 560.129C625.382 565.46 636.048 583.427 632.34 601.614H293.961C296.008 590.586 304.404 581.946 314.795 580Z" fill="#E24008"/>
<path d="M714.982 498.986C724.024 463.002 701.485 426.331 664.639 417.08C627.793 407.829 590.594 429.5 581.551 465.484C572.509 501.468 595.048 538.139 631.894 547.39C668.74 556.641 705.94 534.97 714.982 498.986Z" fill="url(#paint32_linear)"/>
<g style="mix-blend-mode:multiply">
<g style="mix-blend-mode:multiply">
<path d="M633.511 420.321C629.655 418.955 629.655 418.955 627.138 420.014C629.739 422.797 629.739 422.797 633.511 420.321ZM647.809 487.667L650.004 486.039C649.749 485.414 649.653 484.876 649.502 484.845C646.575 484.522 643.639 484.263 639.987 483.925C642.632 486.202 646.089 484.872 647.805 487.667H647.809ZM640.302 419.787L639.74 422.029L641.612 423.578C639.7 424.191 640.274 425.345 640.513 426.763C640.64 427.523 639.374 428.514 638.41 429.856C642.46 429.665 645.451 429.263 647.726 426.149C648.61 424.955 650.94 424.788 652.836 424.071L651.808 421.659C652.286 421.659 653.031 421.838 653.214 421.599C654.373 420.09 656.58 420.329 657.663 419.071C659.164 417.331 660.849 416.881 662.809 417.546C663.932 417.944 664.685 417.721 665.31 417.22L664.577 417.025C657.415 415.219 650.013 414.556 642.643 415.058C642.304 415.315 641.981 415.593 641.676 415.89C640.712 416.845 639.624 417.084 638.39 417.454C638.677 418.251 638.728 418.796 639.015 419.111C639.302 419.425 639.852 419.569 640.302 419.787ZM643.826 443.344L639.537 445.012L639.019 447.079L644.595 447.222C644.42 446.49 644.253 445.884 644.137 445.267C644.022 444.65 643.91 443.981 643.818 443.364L643.826 443.344ZM604.181 434.856L603.385 431.241L610.112 430.943L612.286 428.22C610.785 426.942 609.395 426.687 608.072 427.157C603.349 430.428 599.066 434.293 595.327 438.654C595.256 439.737 594.682 440.844 594.531 441.927C591.615 443.328 594.228 445.303 593.483 447.134L597.287 446.549L600.991 440.179L598.936 437.743L604.181 434.856ZM661.176 484.49C662.171 484.888 662.948 487.763 664.517 484.431C661.829 483.817 659.61 481.946 656.711 483.893C655.97 484.391 654.449 483.606 653.294 483.662C652.872 483.682 652.497 484.435 652.011 484.928C655.436 487.894 658.181 484.267 661.168 484.494L661.176 484.49ZM705.557 449.854C705.382 448.741 705.581 447.601 706.122 446.613C701.885 440.067 696.568 434.287 690.398 429.518C689.681 429.748 688.849 430.059 688.179 430.234L687.036 428.455L688.598 428.176C686.691 426.797 684.716 425.516 682.679 424.338L680.317 424.86L680.795 427.193L676.812 428.263L679.278 424.784L677.195 421.483C675.819 420.844 674.416 420.244 672.985 419.684L670.5 419.553L670.938 418.932C670 418.6 669.051 418.287 668.09 417.992L668.887 420.162L673.566 421.356L673.399 422.152L667.823 421.057L656.233 426.082L657.719 429.135L656.277 430.592L658.898 432.906C663.08 430.724 663.079 430.724 666.652 431.182L663.402 426.997C664.004 426.651 664.45 426.38 664.912 426.134C668.038 424.477 668.52 424.72 669.763 428.299C670.097 429.267 670.703 430.143 671.356 431.385L667.568 432.834C669.639 433.355 670.611 433.797 671.583 433.793C672.881 433.793 674.877 432.631 675.323 433.833C676.095 435.923 678.111 437.062 678.66 439.128C678.987 440.366 678.708 441.545 677.382 442.11C676.163 442.628 674.929 443.225 673.642 443.436C672.356 443.647 671.001 443.436 669.289 443.4C668.464 444.817 669.018 448.026 665.306 447.521C665.063 445.562 666.501 443.181 664.474 441.405C664.262 441.222 664.39 440.211 664.681 439.976C666.807 438.173 665.509 435.78 665.903 433.793C661.522 430.608 659.865 436.015 656.452 436.978L655.616 434.004C655.074 434.112 654.485 434.064 654.146 434.331C653.356 434.919 652.661 435.625 652.087 436.425C651.696 437.029 651.167 437.533 650.544 437.894C649.921 438.255 649.221 438.464 648.502 438.503C646.567 438.694 644.977 439.463 643.384 441.179C644.416 442.636 646.571 442.819 647.343 444.63C648.036 446.223 649.53 447.437 650.928 449.129L648.223 450.869L645.408 448.878L644.794 449.575L649.829 454.512L650.625 452.832L654.19 454.782L653.875 457.243C655.468 458.545 657.352 459.484 657.663 461.933C657.758 462.693 658.957 463.314 659.654 464.003C657.627 466.316 657.516 466.698 658.758 468.247C660.128 469.955 661.574 471.599 662.864 473.12C662.068 476.018 659.599 477.949 660.14 481.329L665.115 475.755L671.392 475.966L671.651 478.315C676.072 478.12 676.072 478.12 679.071 481.859L677.016 490.032C675.482 490.892 674.228 492.369 671.921 491.625C669.719 490.912 670.006 489.144 669.488 487.675L666.13 486.831L666.608 493.269L661.12 492.242C660.598 493.149 659.71 494.069 659.527 495.112C658.929 498.643 658.296 499.332 654.947 499.229C653.951 499.197 652.955 499.089 651.959 499.05C651.899 499.208 651.856 499.372 651.832 499.539C658.734 501.82 658.858 501.793 664.936 496.43C665.302 496.788 665.776 497.541 666.051 497.473C667.333 497.162 668.811 496.92 669.751 496.107C671.547 494.551 673.26 495.244 675.144 495.578C679.21 496.299 682.635 494.463 686.013 492.556C685.296 490.382 686.921 489.634 688.259 488.539C689.502 487.52 690.414 486.107 691.541 484.928C692.007 484.442 692.644 484.132 693.56 483.463L693.333 486.417L696.396 484.924C695.026 483.73 697.515 483.495 697.507 482.432C697.499 481.369 697.965 480.39 698.22 479.366C699.32 477.842 701.283 477.595 702.522 475.883C704.832 472.698 704.748 469.457 704.31 465.978C704.25 465.496 704.207 465.006 704.123 464.528C703.629 461.813 703.725 461.837 704.521 458.373C704.844 456.968 704.461 455.415 704.637 453.954C704.824 452.573 705.704 451.179 705.549 449.874L705.557 449.854ZM672.614 428.733L671.718 427.937L674.359 423.876L677.39 424.637L672.614 428.733ZM651.836 499.523C649.446 499.229 651.466 495.976 649.367 495.693C647.554 495.451 647.319 493.735 646.272 492.54L645.308 494.499C643.615 492.19 641.226 493.225 639.358 493.703C637.593 494.161 637.33 493.098 636.263 492.178L628.313 495.518L621.976 495.395L617.504 501.331C616.408 500.961 615.512 500.32 614.791 500.483C612.824 500.925 610.932 501.494 608.921 500.722C606.722 499.874 605.372 502.39 603.185 501.916C603.185 502.979 603.185 503.803 603.185 504.631C603.226 504.804 603.318 504.961 603.448 505.081C606.26 508.437 607.093 512.645 608.347 516.627C609.184 519.294 609.972 521.639 613.21 522.551C614.082 522.825 614.872 523.313 615.506 523.971C616.141 524.629 616.6 525.436 616.843 526.317C617.874 529.964 619.551 533.181 623.343 534.785C623.741 534.952 623.884 535.76 624.083 536.294C624.489 537.376 625.265 538.279 626.274 538.842C629.257 540.745 630.257 543.93 631.133 547.115L631.822 547.298C632.964 547.585 634.106 547.842 635.247 548.07C635.299 547.859 635.347 547.632 635.387 547.382C635.649 545.861 635.741 544.316 635.662 542.775C635.622 542.138 636.426 541.45 636.761 540.916C635.682 535.565 636.199 530.306 638.011 524.533C639.449 523.964 641.429 523.474 643.074 522.443C644.567 521.508 645.607 519.875 647.009 518.757C648.626 517.471 650.422 516.408 652.294 515.146C653.043 513.856 651.462 511.77 653.262 510.639L650.243 505.758L651.836 499.523ZM593.487 456.395C593.212 455.523 593.607 454.404 593.846 453.413C594.403 451.1 594.578 449.034 592.396 447.258C591.651 446.653 591.599 445.2 591.332 444.471L590.91 444.431C583.585 455.211 579.615 467.916 579.499 480.947L584.279 484.506C587.7 483.228 587.764 478.773 591.05 477.049C591.655 476.735 592.085 474.844 591.715 474.151C590.615 472.093 591.974 470.504 592.149 468.474L594.606 468.581C593.511 464.465 594.734 460.384 593.479 456.411L593.487 456.395Z" fill="#BCBEC0"/>
</g>
</g>
<path d="M649.319 403.783C648.541 403.783 647.796 404.092 647.246 404.641C646.696 405.191 646.387 405.936 646.387 406.713C646.387 407.49 646.696 408.236 647.246 408.785C647.796 409.335 648.541 409.643 649.319 409.643C690.004 409.643 723.101 442.731 723.101 483.399C723.101 524.068 690 557.152 649.319 557.152C637.81 557.202 626.451 554.539 616.165 549.378C605.879 544.218 596.955 536.706 590.118 527.452C589.845 527.083 589.491 526.784 589.082 526.576C588.673 526.369 588.222 526.26 587.764 526.257C587.22 526.257 586.687 526.408 586.224 526.694C585.762 526.979 585.387 527.388 585.144 527.873C584.9 528.359 584.796 528.903 584.844 529.445C584.891 529.986 585.089 530.503 585.414 530.939C600.616 551.315 623.9 563 649.299 563C693.218 563 728.956 527.284 728.956 483.376C728.956 439.467 693.238 403.783 649.319 403.783Z" fill="#00204E"/>
<path d="M648.697 557.542H640.879V590.363H648.697V557.542Z" fill="#00204E"/>
<path d="M609.032 602.056H691.338V596.263C691.338 593.623 690.289 591.092 688.421 589.225C686.554 587.359 684.021 586.31 681.381 586.31H618.985C616.345 586.31 613.812 587.359 611.945 589.225C610.077 591.092 609.028 593.623 609.028 596.263L609.032 602.056Z" fill="#00204E"/>
<path d="M344.555 560.277C344.555 560.277 345.248 562.339 345.985 564.919C346.722 567.499 347.494 570.592 347.658 572.754L346.423 572.845C346.279 570.879 345.519 567.801 344.794 565.257C344.431 563.983 344.077 562.833 343.814 562.005C343.551 561.176 343.38 560.671 343.38 560.671L344.555 560.273V560.277Z" fill="url(#paint33_linear)"/>
<path d="M355.627 561.296C355.627 561.296 355.603 561.503 355.564 561.885C355.452 563.024 355.225 565.679 355.225 568.558C355.225 569.907 355.273 571.305 355.404 572.618L354.17 572.742C354.034 571.372 353.982 569.955 353.982 568.558C353.988 566.084 354.121 563.612 354.381 561.153L355.611 561.296H355.627Z" fill="url(#paint34_linear)"/>
<path d="M361.769 569.485C361.567 569.723 361.389 569.98 361.239 570.254C360.972 570.706 360.822 571.218 360.801 571.743H359.562C359.584 570.967 359.808 570.211 360.212 569.549C360.396 569.226 360.612 568.922 360.857 568.641L361.769 569.477V569.485Z" fill="url(#paint35_linear)"/>
<path d="M346.033 561.535C346.033 561.535 352.381 553.485 342.627 536.768C332.873 520.05 312.756 516.025 311.812 518.191C310.868 520.357 322.032 524.537 325.131 537.385C328.229 550.232 328.639 557.351 332.511 561.22C336.382 565.09 341.644 566.643 346.033 561.535Z" fill="url(#paint36_linear)"/>
<path d="M359.112 563.155C359.112 563.155 359.809 554.102 376.203 549.066C392.596 544.029 408.125 553.481 407.432 555.436C406.739 557.39 396.965 553.445 387.231 559.95C377.497 566.456 372.957 570.855 368.114 571.05C363.27 571.245 358.893 569.115 359.112 563.155Z" fill="url(#paint37_linear)"/>
<path d="M349.243 557.227C349.243 557.227 338.306 545.49 350.987 526.707C363.669 507.924 391.612 506.618 392.552 509.218C393.492 511.817 381.607 516.734 377.019 531.512C372.431 546.291 369.902 553.684 365.071 557.908C360.239 562.132 353.974 563.529 349.243 557.227Z" fill="url(#paint38_linear)"/>
<g style="mix-blend-mode:multiply">
<path d="M343.452 559.051C343.508 559.05 343.565 559.042 343.619 559.027C343.697 559.005 343.77 558.968 343.834 558.918C343.898 558.868 343.952 558.806 343.992 558.736C344.032 558.665 344.057 558.587 344.067 558.507C344.077 558.426 344.071 558.344 344.049 558.266C343.766 557.243 336.964 533.121 324.39 523.908C324.325 523.853 324.249 523.812 324.167 523.787C324.086 523.763 324 523.755 323.915 523.765C323.83 523.775 323.749 523.803 323.675 523.845C323.601 523.888 323.537 523.946 323.487 524.015C323.436 524.084 323.401 524.162 323.382 524.245C323.363 524.328 323.362 524.414 323.378 524.498C323.394 524.582 323.427 524.662 323.475 524.732C323.523 524.802 323.585 524.862 323.657 524.908C335.884 533.865 342.775 558.35 342.854 558.601C342.891 558.73 342.97 558.844 343.078 558.926C343.185 559.007 343.317 559.051 343.452 559.051Z" fill="#D0D3D4"/>
</g>
<g style="mix-blend-mode:multiply">
<path d="M356.117 555.997C356.256 555.993 356.389 555.946 356.5 555.863C356.611 555.781 356.695 555.666 356.738 555.535C356.79 555.315 356.814 555.089 356.81 554.862C357.376 546.378 360.992 518.235 383.714 512.287C383.8 512.274 383.883 512.243 383.956 512.196C384.03 512.149 384.092 512.087 384.14 512.014C384.188 511.941 384.22 511.859 384.234 511.773C384.248 511.687 384.244 511.599 384.222 511.515C384.2 511.431 384.16 511.352 384.105 511.284C384.051 511.216 383.982 511.16 383.905 511.121C383.827 511.081 383.742 511.058 383.655 511.053C383.568 511.048 383.481 511.062 383.4 511.093C359.877 517.244 356.153 546.092 355.572 554.787C355.572 555.021 355.548 555.185 355.54 555.232C355.515 555.322 355.51 555.416 355.528 555.507C355.545 555.599 355.583 555.685 355.639 555.759C355.694 555.834 355.767 555.894 355.85 555.936C355.933 555.978 356.024 556 356.117 556.001V555.997Z" fill="#D0D3D4"/>
</g>
<g style="mix-blend-mode:multiply">
<path d="M363.768 567.268C364.047 567.268 364.326 567.017 365.23 566.197C375.418 556.98 385.24 552.617 394.428 553.21C394.514 553.224 394.601 553.219 394.684 553.197C394.768 553.175 394.846 553.136 394.914 553.082C394.981 553.028 395.037 552.96 395.077 552.884C395.117 552.807 395.14 552.723 395.146 552.637C395.151 552.551 395.139 552.464 395.109 552.383C395.079 552.302 395.033 552.228 394.973 552.166C394.913 552.103 394.84 552.054 394.76 552.022C394.68 551.989 394.594 551.973 394.508 551.976C384.969 551.343 374.844 555.83 364.397 565.277C364.035 565.604 363.661 565.942 363.517 566.053C363.398 566.099 363.296 566.18 363.225 566.286C363.154 566.391 363.117 566.516 363.119 566.644C363.121 566.771 363.163 566.894 363.237 566.998C363.312 567.101 363.417 567.178 363.537 567.22C363.611 567.249 363.689 567.265 363.768 567.268Z" fill="#D0D3D4"/>
</g>
<path d="M338.425 609.21H370.368C370.758 609.209 371.136 609.077 371.441 608.834C371.746 608.591 371.96 608.252 372.048 607.872L379.923 573.865C379.981 573.612 379.981 573.349 379.923 573.096C379.866 572.843 379.752 572.606 379.591 572.403C379.429 572.2 379.224 572.036 378.991 571.923C378.757 571.81 378.501 571.751 378.242 571.751H330.551C330.292 571.751 330.036 571.81 329.802 571.923C329.569 572.036 329.364 572.2 329.202 572.403C329.041 572.606 328.927 572.843 328.87 573.096C328.812 573.349 328.812 573.612 328.87 573.865L336.745 607.872C336.833 608.252 337.047 608.591 337.352 608.834C337.657 609.077 338.035 609.209 338.425 609.21Z" fill="url(#paint39_linear)"/>
<path d="M412.702 632.209C558.425 632.209 676.557 619.215 676.557 603.186C676.557 587.157 558.425 574.163 412.702 574.163C266.978 574.163 148.846 587.157 148.846 603.186C148.846 619.215 266.978 632.209 412.702 632.209Z" fill="#FCFFFF"/>
<path d="M354.898 503.055C354.898 503.055 353.054 515.679 347.331 520.11C344.595 522.236 331.734 531.011 331.734 527.436C331.734 523.861 343.308 517.654 343.308 517.654L348.669 503.759L354.898 503.055Z" fill="#FD5E5A"/>
<path d="M268.112 400.331C268.112 400.331 251.89 398.874 243.697 401.378C242.172 401.844 234.449 470.851 228.53 489.889C222.612 508.927 225.942 536.788 225.942 542.441C225.942 548.094 320.642 548.07 320.642 548.07C320.642 548.07 315.835 482.133 317.683 462.04C319.531 441.947 318.607 411.443 312.875 405.977C307.144 400.51 268.112 400.331 268.112 400.331Z" fill="#FE5722"/>
<path d="M318.013 503.051C307.602 506.053 295.482 507.279 282.825 503.954C261.477 498.345 246.545 458.489 237.894 426.759C235.704 448.182 232.163 478.196 228.53 489.889C222.612 508.931 225.942 536.788 225.942 542.441C225.942 548.094 320.642 548.07 320.642 548.07C320.642 548.07 319.009 525.7 318.013 503.051Z" fill="#EF7216"/>
<path d="M188.949 535.864C188.949 535.864 225.193 595.765 257.016 599.834C288.839 603.903 356.157 552.856 361.335 543.998C366.512 535.139 350.238 531.055 329.89 535.86C309.542 540.665 261.082 552.872 237.779 539.559C214.475 526.245 182.672 515.898 182.672 521.814C182.672 527.73 188.949 535.864 188.949 535.864Z" fill="#083654"/>
<path d="M285.497 603.903C285.497 603.903 257.753 582.086 241.845 562.1C225.938 542.114 210.142 528.534 201.025 523.315C191.908 518.096 172.301 514.031 163.793 533.268C155.286 552.505 212.253 593.635 221.871 600.057C231.49 606.479 254.423 617.945 254.423 617.945L285.497 603.903Z" fill="#5BC8CE"/>
<path d="M263.305 597.617L257.386 613.143C257.386 613.143 272.896 615.11 285.597 617.718C286.768 613.896 288.262 610.18 290.062 606.61C277.834 604.265 263.305 597.617 263.305 597.617Z" fill="#FC7575"/>
<path d="M272.649 622.635L299.071 638.981C309.765 645.602 315.337 655.571 325.716 643.731C336.095 631.891 341.014 615.52 334.944 609.863C328.874 604.206 304.464 607.076 297.545 602.812C290.627 598.548 285.457 600.551 286.298 604.114C287.138 607.677 272.649 622.635 272.649 622.635Z" fill="#FE5722"/>
<path d="M315.544 649.193C319.491 648.517 321.916 645.499 324.306 642.027C329.448 634.634 339.441 617.646 334.94 609.895C336.932 610.866 338.19 613.08 338.808 615.261C342.759 630.824 325.035 653.469 315.544 649.193Z" fill="#FFDA88"/>
<path d="M303.352 608.561C312.115 614.079 307.168 627.802 296.888 626.516L296.398 626.453C279.925 624.251 276.118 622.471 272.473 621.854C268.419 621.146 262.914 620.091 264.061 611.228C265.209 602.366 271.78 592.517 274.927 594.46C277.018 595.757 290.157 600.26 303.352 608.561Z" fill="#FCCC6B"/>
<path d="M264.053 611.224C262.914 620.087 268.411 621.142 272.465 621.85C276.11 622.483 279.917 624.239 296.39 626.449L296.88 626.512C297.757 626.627 298.644 626.627 299.521 626.512C299.27 626.512 299.015 626.477 298.76 626.445L298.27 626.381C281.797 624.175 277.99 622.4 274.345 621.783C270.291 621.074 264.786 620.019 265.933 611.157C266.865 603.883 271.466 595.945 274.827 594.404C271.645 592.704 265.181 602.45 264.053 611.224Z" fill="white"/>
<path d="M299.804 626.473C299.804 626.473 280.686 613.908 278.193 616.189C275.699 618.47 272.649 622.635 272.649 622.635C272.649 622.635 293.144 633.384 298.481 632.11C303.818 630.836 299.804 626.473 299.804 626.473Z" fill="#DD2C00"/>
<path d="M295.498 601.964C295.622 602.041 295.726 602.146 295.802 602.271C295.878 602.395 295.924 602.535 295.936 602.681C296.888 614.226 284.266 621.48 283.729 621.79C283.622 621.851 283.505 621.89 283.383 621.905C283.261 621.92 283.138 621.91 283.02 621.878C282.781 621.812 282.578 621.654 282.456 621.438C282.334 621.223 282.303 620.968 282.369 620.729C282.435 620.491 282.593 620.288 282.809 620.166C282.932 620.098 294.928 613.171 294.076 602.84C294.056 602.594 294.135 602.35 294.295 602.162C294.455 601.974 294.682 601.857 294.929 601.837C295.127 601.818 295.327 601.862 295.498 601.964Z" fill="white"/>
<path d="M303.579 606.327C303.699 606.402 303.801 606.502 303.876 606.622C303.951 606.741 303.998 606.876 304.013 607.016C304.81 614.294 292.543 624.904 292.017 625.35C291.827 625.476 291.597 625.527 291.371 625.495C291.145 625.462 290.939 625.348 290.791 625.174C290.644 625 290.566 624.777 290.571 624.549C290.577 624.321 290.666 624.103 290.822 623.936C294.18 621.062 302.771 612.451 302.177 607.215C302.158 607.041 302.187 606.865 302.263 606.708C302.339 606.55 302.458 606.417 302.606 606.323C302.754 606.23 302.925 606.18 303.1 606.179C303.275 606.179 303.447 606.227 303.595 606.319L303.579 606.327Z" fill="white"/>
<path d="M309.518 609.274C309.721 609.406 309.865 609.614 309.916 609.851C311.402 616.165 299.385 628.192 298.007 629.546C297.92 629.632 297.817 629.699 297.703 629.745C297.59 629.791 297.468 629.814 297.346 629.813C297.223 629.812 297.102 629.787 296.99 629.739C296.877 629.691 296.775 629.621 296.689 629.534C296.603 629.447 296.536 629.343 296.49 629.23C296.444 629.116 296.421 628.995 296.422 628.873C296.423 628.75 296.448 628.629 296.496 628.517C296.544 628.404 296.614 628.302 296.701 628.216C300.23 624.749 309.155 614.768 308.1 610.277C308.058 610.098 308.071 609.91 308.136 609.738C308.2 609.566 308.315 609.417 308.464 609.309C308.614 609.202 308.792 609.141 308.976 609.135C309.16 609.129 309.341 609.177 309.498 609.274H309.518Z" fill="white"/>
<path d="M305.519 634.463C305.519 634.463 313.485 644.085 316.647 643.345C319.809 642.604 335.032 617.204 330.671 614.505C326.309 611.806 314.21 612.172 312.158 614.007C310.107 615.843 305.519 634.463 305.519 634.463Z" fill="#DD2C00"/>
<path d="M221.134 605.014L259.975 596.657L266.264 611.415L221.134 619.012V605.014Z" fill="#FC7575"/>
<path d="M251.097 592.811L266.264 621.285C266.264 621.285 348.757 597.991 368.735 583.197C388.713 568.402 387.231 551.024 387.231 546.219C387.231 541.414 366.476 535.382 357.065 535.382C347.653 535.382 290.456 592.811 251.097 592.811Z" fill="#77E6F7"/>
<path d="M387.227 546.219C386.65 540.685 359.845 535.641 356.535 536.823C345.519 540.184 290.555 594.925 251.093 592.811C291.483 589.682 345.443 533.34 358.714 534.136C366.003 534.693 387.319 540.737 387.227 546.219Z" fill="#C9F5FC"/>
<path d="M264.046 507.064C264.046 507.064 320.829 495.972 339.879 503.182C358.929 510.392 336.179 526.106 330.448 526.106C324.716 526.106 325.107 514.56 319.176 513.31C313.246 512.06 292.889 510.022 288.831 518.159C284.772 526.297 287.724 531.298 279.029 530.175C270.334 529.052 260.162 522.348 260.162 515.536C260.162 508.724 264.046 507.064 264.046 507.064Z" fill="#1E1D2C"/>
<path d="M234.266 496.856C234.266 496.856 249.249 498.89 249.249 502.585C249.249 506.279 247.214 515.898 247.214 520.898C247.214 525.899 252.392 532.731 255.538 532.731C258.685 532.731 252.75 524.227 252.75 523.303C252.75 522.379 259.222 535.394 261.998 535.394C264.774 535.394 264.253 531.632 262.349 528.001C260.445 524.37 260.15 512.474 262.186 508.358C264.221 504.241 270.669 509.186 274.473 509.186C278.276 509.186 284.597 506.001 282.347 503.767C280.096 501.534 275.48 506.431 272.816 503.767C270.151 501.104 273.469 494.276 265.698 492.62C257.928 490.964 239.989 481.158 239.989 481.158L234.266 496.856Z" fill="#FD9191"/>
<path d="M359.67 479.291C359.67 479.291 352.795 496.86 346.526 494.818C340.257 492.775 331.766 503.389 331.766 505.065C331.766 511.471 341.193 497.576 344.344 500.726C347.494 503.875 341.791 506.972 338.601 509.723C335.41 512.474 325.282 518.952 328.058 520.098C330.834 521.245 341.389 513.262 342.854 511.793C344.32 510.324 343.969 511.793 343.969 511.793C343.969 511.793 328.062 521.993 330.826 524.768C333.59 527.543 346.674 515.5 346.674 515.5C346.674 515.5 360.789 501.872 365.23 497.437C369.671 493.002 378.545 474.641 378.545 474.641L359.67 479.291Z" fill="#FC7575"/>
<path d="M357.917 483.208L368.297 493.392C369.738 491.183 371.292 488.491 372.746 485.828L359.204 480.382C358.909 481.098 358.475 482.082 357.917 483.208Z" fill="#FD5E5A"/>
<path d="M243.697 401.378C243.697 401.378 226.866 403.859 215.395 422.347C203.924 440.836 193.489 465.814 202.08 481.138C205.908 487.958 235.935 502.585 235.935 502.585L246.744 480.975C246.744 480.975 229.618 479.08 225.734 465.954C221.851 452.828 241.618 444.985 241.618 444.985C241.618 444.985 251.838 413.21 243.697 401.378Z" fill="#DD2C00"/>
<path d="M309.203 404.129C309.203 404.129 310.609 438.619 318.503 446.509C318.503 446.509 353.751 448.783 356.711 457.107C359.67 465.432 352.087 479.291 352.087 479.291L373.359 489.833C373.359 489.833 389.82 462.283 386.104 447.68C382.388 433.077 320.642 405.248 309.203 404.129Z" fill="#DD2C00"/>
<path d="M270.82 392.906H268.582C268.582 392.906 262.11 379.601 262.11 373.94V356.952C262.11 348.193 269.403 337.985 284.697 337.985C299.991 337.985 303.388 340.816 309.904 344.495C316.42 348.173 311.358 364.265 309.904 372.522C307.224 387.743 297.059 396.947 297.059 396.947L270.82 392.906Z" fill="#1B0530"/>
<path d="M268.427 387.822L264.093 412.382C267.833 425.051 292.77 431.13 296.629 413.33C297.175 410.83 297.052 390.709 297.052 390.709C299.37 379.963 268.526 385.238 268.427 387.822Z" fill="#FC7575"/>
<path d="M268.427 387.822L267.694 391.983C270.247 403.13 276.675 410.201 281.447 411.598C285.493 412.792 291.973 408.982 297.035 402.64C297.091 396.76 297.055 390.697 297.055 390.697C299.369 379.963 268.526 385.238 268.427 387.822Z" fill="#FD5E5A"/>
<path d="M303.269 373.267C303.703 372.702 307.2 364.508 310.179 367.243C313.158 369.978 307.837 381.715 305.451 382.742C303.066 383.769 303.133 382.921 303.133 382.921L303.269 373.267Z" fill="#FD5E5A"/>
<path d="M268.1 371.627C267.746 371.006 265.372 362.406 262.05 364.735C258.728 367.064 262.448 379.39 264.675 380.724C266.901 382.057 266.949 381.209 266.949 381.209L268.1 371.627Z" fill="#FD5E5A"/>
<path d="M267.292 371.981C267.292 371.225 266.658 367.498 264.173 367.845C261.688 368.191 264.296 380.425 266.603 378.387C268.909 376.348 267.292 371.981 267.292 371.981Z" fill="#DD4A4A"/>
<path d="M307.849 370.468C308.376 371.257 308.7 372.165 308.792 373.109C308.884 374.054 308.74 375.007 308.375 375.883C307.152 378.618 304.878 383.22 304.472 380.776C304.065 378.331 305.284 367.904 307.849 370.468Z" fill="#DD4A4A"/>
<path d="M284.418 345.912C284.418 345.912 270.259 348.858 267.993 355.546C265.726 362.235 266.575 363.063 266.575 378.295C266.575 393.527 275.337 403.449 281.443 405.057C287.548 406.665 299.142 398.098 303.109 386.859C307.076 375.62 306.885 361.435 306.885 355.009C306.885 348.583 284.418 345.912 284.418 345.912Z" fill="#FC7575"/>
<path d="M261.098 361.104L266.487 369.752C266.487 369.752 269.124 353.269 271.665 352.517C274.206 351.764 271.665 355.821 271.665 355.821C271.665 355.821 281.483 354.229 284.975 353.273C288.468 352.318 284.88 356.104 285.637 357.895C286.393 359.687 300.74 354.312 300.74 354.312C300.74 354.312 298.573 362.147 291.121 362.147C291.121 362.147 295.558 364.138 301.978 362.056C308.399 359.974 307.925 355.073 307.925 355.073L305.471 364.982C305.471 364.982 306.758 364.695 306.758 365.547C306.758 366.399 305.467 377.491 305.467 377.491C305.467 377.491 315.301 363.74 315.95 360.065C316.599 356.391 320.291 355.16 320.291 352.421C320.291 349.682 326.616 330.923 314.249 327.698C301.883 324.473 299.616 330.716 299.616 330.716C299.616 330.716 293.762 324.489 287.27 325.337C280.778 326.185 273.015 337.133 273.015 337.133C273.015 337.133 266.125 338.077 265.181 342.417C265.181 342.417 262.441 344.777 260.553 349.778C258.665 354.778 261.098 361.104 261.098 361.104Z" fill="#36095F"/>
<path d="M320.642 503.755C322.191 493.492 320.67 488.627 323.932 488.925C324.429 488.973 324.886 489.215 325.204 489.6C325.522 489.984 325.675 490.479 325.628 490.976C325.585 491.449 325.736 490.844 320.642 503.755Z" fill="#1E1D2C"/>
<path d="M228.901 597.616H197.835C185.257 597.616 175.272 592.071 172.679 607.601C170.086 623.132 174.523 639.638 182.672 641.231C190.821 642.823 210.046 627.551 218.183 627.551C226.32 627.551 229.65 623.112 227.061 620.524C224.472 617.937 228.901 597.616 228.901 597.616Z" fill="#FE5722"/>
<path d="M178.454 597.617C175.451 600.268 174.985 604.11 174.782 608.33C174.304 617.324 174.754 637.019 182.66 641.247C180.446 641.474 178.211 640.24 176.546 638.719C164.976 627.543 168.123 598.962 178.454 597.617Z" fill="#FFDA88"/>
<path d="M210.213 625.732C199.858 625.652 196.839 611.38 206.254 607.064L206.705 606.861C221.871 600.065 226.033 599.559 229.467 598.186C233.286 596.653 238.516 594.659 242.212 602.792C245.908 610.926 245.501 622.766 241.813 622.766C239.34 622.77 225.794 625.851 210.213 625.732Z" fill="#FFDA88"/>
<path d="M242.219 602.796C238.519 594.663 233.29 596.657 229.474 598.19C226.041 599.563 221.879 600.069 206.712 606.865L206.262 607.068C205.457 607.433 204.702 607.9 204.016 608.458C204.235 608.338 204.466 608.223 204.701 608.115L205.151 607.912C220.318 601.116 224.48 600.611 227.913 599.237C231.733 597.704 236.962 595.71 240.658 603.847C243.693 610.524 243.964 619.693 241.917 622.77C245.517 622.539 245.884 610.85 242.219 602.796Z" fill="white"/>
<path d="M203.781 608.641C203.781 608.641 226.639 609.274 227.571 606.013C228.503 602.752 228.889 597.617 228.889 597.617C228.889 597.617 205.812 599.277 201.933 603.154C198.054 607.032 203.781 608.641 203.781 608.641Z" fill="#DD2C00"/>
<path d="M220.358 627.213C220.21 627.21 220.066 627.173 219.936 627.104C219.805 627.034 219.694 626.936 219.609 626.815C212.731 617.515 219.633 604.691 219.928 604.15C219.986 604.042 220.066 603.948 220.161 603.871C220.257 603.794 220.366 603.737 220.484 603.702C220.602 603.668 220.725 603.657 220.847 603.67C220.968 603.684 221.087 603.721 221.194 603.78C221.301 603.838 221.396 603.918 221.473 604.013C221.55 604.109 221.607 604.218 221.642 604.336C221.676 604.453 221.687 604.577 221.674 604.698C221.66 604.82 221.623 604.938 221.564 605.046C221.497 605.169 214.945 617.387 221.11 625.708C221.213 625.847 221.275 626.011 221.289 626.183C221.304 626.355 221.27 626.527 221.193 626.681C221.115 626.835 220.996 626.964 220.85 627.055C220.703 627.145 220.534 627.193 220.362 627.193L220.358 627.213Z" fill="white"/>
<path d="M211.189 627.758C211.048 627.758 210.908 627.726 210.782 627.664C210.655 627.602 210.543 627.511 210.456 627.4C205.932 621.643 210.791 606.152 211.002 605.503C211.077 605.268 211.243 605.072 211.462 604.958C211.571 604.902 211.69 604.868 211.812 604.858C211.934 604.847 212.056 604.861 212.173 604.898C212.29 604.935 212.398 604.995 212.491 605.074C212.585 605.153 212.662 605.249 212.718 605.358C212.774 605.467 212.809 605.586 212.819 605.707C212.829 605.829 212.816 605.952 212.778 606.069C211.436 610.281 208.672 622.117 211.926 626.253C212.035 626.391 212.102 626.556 212.121 626.73C212.14 626.904 212.109 627.08 212.033 627.238C211.956 627.395 211.837 627.528 211.689 627.621C211.54 627.713 211.368 627.763 211.193 627.762L211.189 627.758Z" fill="white"/>
<path d="M204.578 628.38C204.455 628.38 204.333 628.355 204.22 628.308C204.106 628.261 204.003 628.192 203.916 628.105C199.328 623.518 203.211 606.969 203.669 605.093C203.699 604.974 203.751 604.862 203.824 604.764C203.896 604.665 203.988 604.582 204.093 604.518C204.197 604.455 204.314 604.413 204.435 604.394C204.556 604.376 204.68 604.381 204.799 604.411C204.918 604.44 205.03 604.492 205.128 604.565C205.227 604.637 205.311 604.729 205.374 604.834C205.437 604.938 205.48 605.055 205.498 605.176C205.517 605.297 205.511 605.42 205.482 605.539C204.307 610.345 201.973 623.526 205.235 626.787C205.366 626.917 205.455 627.084 205.492 627.265C205.528 627.446 205.51 627.634 205.439 627.805C205.368 627.976 205.248 628.122 205.094 628.224C204.94 628.326 204.759 628.38 204.574 628.38H204.578Z" fill="white"/>
<path d="M194.724 604.85C194.724 604.85 182.871 600.869 180.585 603.154C178.299 605.44 178.721 635.052 183.847 635.052C188.973 635.052 199.073 628.375 199.85 625.736C200.627 623.096 194.724 604.85 194.724 604.85Z" fill="#DD2C00"/>
<path d="M282.829 526.815C289.998 562.888 327.413 569.577 341.524 554.607C348.872 546.824 346.335 537.221 334.578 538.137C317.296 539.539 304.093 566.778 322.665 590.407C338.597 610.094 372.029 598.719 377.079 583.79C378.274 580.207 377.525 574.709 373.773 574.752C362.541 574.573 339.122 606.407 351.318 626.64C364.7 649.281 418.556 663.697 444.767 666.906L444.317 670.604C416.951 667.141 362.49 652.227 348.454 628.32C335.1 606.001 360.044 571.671 373.869 571.735C379.775 571.774 381.834 579.028 379.895 584.729C373.889 601.92 337.724 613.498 320.594 592.087C300.736 566.567 315.297 537.245 334.395 535.776C348.358 534.801 351.975 546.896 343.157 556.164C326.736 573.403 287.516 563.052 280.981 527.101L282.829 526.815Z" fill="#1E1D2C"/>
<path d="M484.887 659.107H364.413V667.997H484.887V659.107Z" fill="#F7F7FC"/>
<path d="M491.427 652.665H357.874L358.933 659.107H490.367L491.427 652.665Z" fill="#E3DDE2"/>
<path d="M490.471 658.481C466.546 658.147 392.99 656.797 368.372 652.665H357.874L358.933 659.107H490.367L490.471 658.481Z" fill="#FFFEFF"/>
<path d="M487.002 673.025L486.297 666.241H363L362.295 673.025H487.002Z" fill="#FFFDFF"/>
<path d="M439.506 664.569H450.144V661.101H439.506V664.569Z" fill="#24242D"/>
<path d="M458.381 664.569H469.019V661.101H458.381V664.569Z" fill="#24242D"/>
<path d="M420.52 664.569H431.158V661.101H420.52V664.569Z" fill="#24242D"/>
<path d="M367.815 664.565H412.69V662.829H367.815V664.565Z" fill="#492F44"/>
<path d="M487.002 491.649L461.531 462.514C461.531 462.514 456.015 469.425 452.638 486.895C449.26 504.364 446.89 543.826 446.89 543.826L481.728 541.732L487.002 491.649Z" fill="#DD2C00"/>
<path d="M488.256 444.503C488.256 444.503 504.415 431.456 527.404 440.776C550.393 450.096 573.676 526.858 573.676 568.478C573.676 568.478 555.734 611.475 492.968 572.949C492.968 572.949 470.855 471.826 461.531 462.514C461.531 462.514 472.524 450.53 488.256 444.503Z" fill="#FE5722"/>
<path d="M535.485 583.646C535.485 583.646 613.15 548.859 639.266 555.694C642.496 556.538 647.128 557.366 649.223 559.325C663.96 573.204 649.558 611.67 634.307 616.571C616.906 622.145 531.773 605.388 510.022 602.283C488.272 599.177 411.953 613.991 405.795 607.832C399.638 601.673 396.3 569.358 425.51 561.284C454.721 553.21 535.485 583.646 535.485 583.646Z" fill="#0B5965"/>
<path d="M508.796 617.658C502.705 614.501 496.784 611.027 491.056 607.251C483.652 602.418 474.925 596.104 466.916 588.667C447.993 571.149 430.465 566.607 416.194 565.552C401.924 564.497 392.716 598.827 422.603 614.457C452.49 630.088 506.342 630.295 506.342 630.295C511.687 631.139 513.133 621.241 508.796 617.658Z" fill="#49200C"/>
<path d="M482.872 606C476.782 602.842 485.872 605.5 480.372 599.5C472.968 594.667 474.475 594.576 466.465 587.139C447.543 569.621 430.014 565.079 415.744 564.024C401.473 562.969 391.985 598.37 421.872 614C452.372 628.5 474.872 628 474.872 628C480.217 628.844 487.21 609.583 482.872 606Z" fill="#0B5965"/>
<path d="M424.372 565.5C433.539 570.167 454.072 581.3 462.872 588.5" stroke="black" stroke-opacity="0.2"/>
<path d="M415.43 582.365C415.43 582.365 422.304 579.219 422.304 576.659C422.304 574.1 420.791 571.536 417.409 573.873C414.028 576.21 399.709 583.197 399.311 584.821C398.913 586.445 415.43 582.365 415.43 582.365Z" fill="#592C13"/>
<path d="M471.652 542.321C471.652 542.321 464.017 571.647 457.027 581.083C450.037 590.518 437.909 593.313 437.909 593.313L421.245 587.389C421.245 587.389 440.761 579.825 446.297 559.421C450.399 544.344 450.602 543.591 450.602 543.591L471.652 542.321Z" fill="#592C13"/>
<path d="M556.299 612.299C556.299 612.299 555.367 604.843 548.843 601.582C542.319 598.321 526.938 603.911 518.315 605.073C509.692 606.236 488.248 605.312 484.062 614.628C479.876 623.944 476.144 636.286 501.312 637.453C526.48 638.619 561.664 630.7 556.299 612.299Z" fill="#FFDA88"/>
<path d="M484.054 614.632C488.248 605.316 509.696 606.244 518.307 605.077C526.918 603.911 542.312 598.309 548.835 601.586C551.129 602.753 553.029 604.568 554.3 606.805L554.117 606.71C547.593 603.449 532.211 609.039 523.588 610.201C514.965 611.364 493.522 610.44 489.336 619.756C487.185 624.534 485.162 630.107 487.085 634.554C478.096 630.111 480.948 621.544 484.054 614.632Z" fill="#FFF1C5"/>
<path d="M535.668 615.56C535.668 615.56 544.705 612.323 556.777 606.487C565.635 602.211 576.126 596.534 585.888 589.726C608.957 573.626 628.564 558.207 644.938 558.207C661.311 558.207 669.699 605.32 634.28 618.721C598.86 632.122 537.389 628.356 537.389 628.356C531.231 628.793 530.415 618.817 535.668 615.56Z" fill="#723C19"/>
<path d="M512.942 357.661C500.754 342.162 472.934 338.499 462.137 351.928C453.681 362.442 459.285 378.932 459.998 380.935C459.998 380.935 471.548 389.59 483.708 396.637C494.86 403.098 504.351 406.192 510.947 402.688C521.573 397.027 524.472 372.323 512.942 357.661Z" fill="#153D49"/>
<path d="M502.097 411.363C503.108 408.274 510.488 437.998 505.761 452.449C504.964 454.838 479.94 478.021 472.703 469.903C472.703 469.903 477.602 461.097 478.522 448.404C479.442 435.712 472.651 429.362 472.651 429.362C472.651 429.362 501.137 414.341 502.097 411.363Z" fill="#723C19"/>
<path d="M470.544 366.606C466.538 369.142 459.392 376.309 459.998 382.352C460.603 388.396 455.617 396.366 457.521 408.851C459.424 421.336 466.1 429.104 469.258 430.393C472.416 431.683 491.1 427.288 498.165 420.225C505.231 413.163 518.904 400.319 505.817 378.626C492.729 356.932 478.419 361.626 470.544 366.606Z" fill="#7A3E1C"/>
<path d="M474.025 364.691C474.025 364.691 486.886 370.054 493.103 373.315C499.321 376.575 508.015 403.234 510.19 403.234C512.364 403.234 518.888 384.183 510.19 371.758C501.491 359.333 478.411 357.625 474.025 364.691Z" fill="#153D49"/>
<path d="M500.985 392.405C500.985 392.405 503.24 383.789 507.358 387.89C511.476 391.991 509.505 403.847 505.311 404.213C501.117 404.579 500.985 392.405 500.985 392.405Z" fill="#7A3E1C"/>
<path d="M507.342 392.405C507.342 392.405 504.837 390.183 502.961 392.405C501.085 394.626 502.909 401.673 505.151 401.052C507.394 400.431 508.35 393.396 507.342 392.405Z" fill="#512712"/>
<path d="M447.472 606.475L416.943 605.077H410.3L401.593 591.581L398.885 587.385C398.885 587.385 414.964 584.809 415.892 584.809C416.82 584.809 458.361 593.779 458.361 593.779L451.67 604.604L447.472 606.475Z" fill="#1E1D2C"/>
<path d="M457.262 589.121C448.029 580.075 416.298 577.575 406.253 580.617C396.208 583.658 397.726 588.822 403.198 589.73C408.671 590.638 435.36 589.578 447.707 594.002C460.054 598.425 459.142 590.964 457.262 589.121Z" fill="#7675AF"/>
<path d="M400.136 583.73C400.136 583.73 390.951 586.915 390.951 592.031C390.951 597.147 402.951 611.017 410.069 611.83C417.186 612.642 426.215 607.132 426.215 604.588C426.215 602.044 418.839 603.791 417.517 605.097C417.517 605.097 424.805 602.099 422.296 599.599C419.787 597.099 412.737 600.571 412.737 600.571C412.737 600.571 418.795 598.317 416.115 595.642C413.434 592.967 405.759 596.438 405.759 596.438C405.759 596.438 414.92 596.303 412.654 592.692C410.387 589.081 402.493 588.344 400.195 587.707C397.897 587.07 400.136 583.73 400.136 583.73Z" fill="#723C19"/>
<path d="M529.041 513.573C529.041 513.573 522.122 539.077 516.694 562.837C511.265 586.597 474.436 598.552 474.436 598.552C469.756 586.529 451.909 579.442 448.181 579.442C444.453 579.442 442.605 584.104 449.734 586.736C456.864 589.367 456.883 596.37 453.773 599.476C450.662 602.581 432.644 597.923 432.644 597.923C432.644 597.923 433.265 593.11 431.556 591.402C429.848 589.694 424.332 598.003 426.896 600.559C429.461 603.115 434.512 606.614 434.512 606.614C434.047 606.919 433.663 607.331 433.392 607.817C433.122 608.302 432.973 608.846 432.958 609.401C432.958 611.264 439.458 613.283 439.458 614.493C439.458 615.703 441.502 617.945 449.272 617.945C457.043 617.945 465.602 613.442 465.602 613.442C465.602 613.442 498.536 608.473 521.529 592.588C544.522 576.703 559.764 513.553 559.764 513.553L529.041 513.573Z" fill="#723C19"/>
<path d="M515.431 437.679C515.431 437.679 513.44 437.591 511.094 458.322C508.748 479.052 521.35 528.905 521.35 528.905H559.724C559.724 528.905 564.771 524.478 559.724 488.372C554.678 452.266 538.556 432.137 515.431 437.679Z" fill="#DD2C00"/>
<path d="M515.431 437.679C514.567 438.511 514.081 441.955 513.918 443.137C509.859 471.237 515.682 489.045 521.346 528.905C517.024 516.734 512.858 500.16 510.528 483.626C509.031 471.683 507.852 459.138 512.918 442.914C513.322 441.496 513.855 440.118 514.511 438.798C514.754 438.388 514.973 437.882 515.431 437.679Z" fill="#C12708"/>
<path d="M489.061 603.186C489.061 603.186 479.103 603.294 474.786 611.627C465.912 628.829 479.366 631.274 479.366 631.274C479.366 631.274 484.767 610.87 492.972 608.485C501.177 606.101 527.503 603.186 527.503 603.186H489.061Z" fill="#C1272D"/>
<path d="M477.734 612.168C481.932 602.852 503.379 603.807 511.986 602.633C520.593 601.459 535.995 599.938 542.515 603.202C545.139 604.516 546.86 602.47 547.975 604.397L547.792 604.301C541.268 601.037 525.886 606.614 517.259 607.773C508.633 608.931 487.193 607.992 483.007 617.304C480.852 622.081 482.398 627.782 484.321 632.233C470.923 631.278 474.615 619.059 477.734 612.168Z" fill="#C3E2C9"/>
<path d="M556.299 612.299C556.299 612.299 555.367 604.843 548.843 601.582C542.319 598.321 526.938 603.911 518.315 605.073C509.692 606.236 488.248 605.312 484.062 614.628C479.876 623.944 476.144 636.286 501.312 637.453C526.48 638.619 561.664 630.7 556.299 612.299Z" fill="#ED1C24"/>
<path d="M484.054 614.632C488.248 605.316 509.696 606.244 518.307 605.077C526.918 603.911 542.312 598.309 548.835 601.586C551.129 602.753 553.029 604.568 554.3 606.805L554.117 606.71C547.593 603.449 532.211 609.039 523.588 610.201C514.965 611.364 493.522 610.44 489.336 619.756C487.185 624.534 485.162 630.107 487.085 634.554C478.096 630.111 480.948 621.544 484.054 614.632Z" fill="#DBFCE2"/>
<path d="M535.668 615.56C535.668 615.56 544.705 612.323 556.777 606.487C565.635 602.211 576.126 596.534 585.888 589.726C608.957 573.626 628.564 558.207 644.938 558.207C661.311 558.207 669.699 605.32 634.28 618.721C598.86 632.122 537.389 628.356 537.389 628.356C531.231 628.793 530.415 618.817 535.668 615.56Z" fill="#723C19"/>
<path d="M555.372 606.529C555.372 606.529 555.642 606.866 566.872 601C575.113 596.702 581.791 590.843 590.872 584C612.333 567.817 631.021 558 646.253 558C661.485 558 669.288 605.356 636.338 618.826C603.388 632.295 559.372 629 559.372 629L555.372 606.529Z" fill="#0B5965"/>
<path d="M516.248 633.141C516.001 633.141 515.764 633.043 515.589 632.868C515.414 632.694 515.316 632.457 515.316 632.209C515.316 621.4 525.838 615.488 526.285 615.222C526.501 615.102 526.756 615.074 526.994 615.143C527.231 615.211 527.432 615.371 527.551 615.588C527.67 615.804 527.699 616.059 527.63 616.297C527.561 616.534 527.401 616.735 527.185 616.854C527.085 616.91 517.18 622.511 517.18 632.209C517.18 632.457 517.081 632.694 516.907 632.868C516.732 633.043 516.495 633.141 516.248 633.141Z" fill="#DBFCE2"/>
<path d="M528.483 631.278C528.376 631.278 528.269 631.259 528.168 631.222C517.18 627.305 510.847 618.482 510.584 618.084C510.45 617.882 510.4 617.636 510.445 617.398C510.49 617.16 510.625 616.949 510.823 616.809C511.021 616.669 511.266 616.612 511.505 616.649C511.744 616.686 511.96 616.816 512.105 617.009C512.169 617.097 518.379 625.732 528.798 629.45C529.004 629.525 529.177 629.67 529.286 629.859C529.396 630.048 529.436 630.27 529.398 630.486C529.361 630.702 529.248 630.897 529.081 631.038C528.914 631.18 528.702 631.257 528.483 631.258V631.278Z" fill="#DBFCE2"/>
<path d="M460.551 377.495C460.551 377.495 470.393 356.048 504.964 386.767L500.981 371.818L477.801 360.555C477.801 360.555 461.073 370.655 460.551 377.495Z" fill="#153D49"/>
<defs>
<linearGradient id="paint0_linear" x1="609.514" y1="506.12" x2="649.935" y2="576.16" gradientUnits="userSpaceOnUse">
<stop stop-color="#00ACE4"/>
<stop offset="1" stop-color="#0033A2"/>
</linearGradient>
<linearGradient id="paint1_linear" x1="613.059" y1="518.657" x2="644.95" y2="573.92" gradientUnits="userSpaceOnUse">
<stop stop-color="#00FFFF"/>
<stop offset="0.15" stop-color="#00E7F8"/>
<stop offset="0.35" stop-color="#00CCEF"/>
<stop offset="0.57" stop-color="#00B9E9"/>
<stop offset="0.78" stop-color="#00ADE5"/>
<stop offset="1" stop-color="#00A9E4"/>
</linearGradient>
<linearGradient id="paint2_linear" x1="104767" y1="65401.8" x2="108690" y2="69870.8" gradientUnits="userSpaceOnUse">
<stop stop-color="#00ACE4"/>
<stop offset="1" stop-color="#0033A2"/>
</linearGradient>
<linearGradient id="paint3_linear" x1="182500" y1="122216" x2="207810" y2="145914" gradientUnits="userSpaceOnUse">
<stop stop-color="#FCFFFF"/>
<stop offset="1" stop-color="#0033A2"/>
</linearGradient>
<linearGradient id="paint4_linear" x1="79223.1" y1="108926" x2="92022.5" y2="115061" gradientUnits="userSpaceOnUse">
<stop stop-color="#00FFFF"/>
<stop offset="0.15" stop-color="#00E7F8"/>
<stop offset="0.35" stop-color="#00CCEF"/>
<stop offset="0.57" stop-color="#00B9E9"/>
<stop offset="0.78" stop-color="#00ADE5"/>
<stop offset="1" stop-color="#00A9E4"/>
</linearGradient>
<linearGradient id="paint5_linear" x1="83343.8" y1="52894" x2="86592.4" y2="56763.9" gradientUnits="userSpaceOnUse">
<stop stop-color="#FCFFFF"/>
<stop offset="1" stop-color="#0033A2"/>
</linearGradient>
<linearGradient id="paint6_linear" x1="20391.7" y1="41793.4" x2="21482.3" y2="42194.1" gradientUnits="userSpaceOnUse">
<stop stop-color="#00FFFF"/>
<stop offset="0.15" stop-color="#00E7F8"/>
<stop offset="0.35" stop-color="#00CCEF"/>
<stop offset="0.57" stop-color="#00B9E9"/>
<stop offset="0.78" stop-color="#00ADE5"/>
<stop offset="1" stop-color="#00A9E4"/>
</linearGradient>
<linearGradient id="paint7_linear" x1="44568.1" y1="53644.2" x2="46407.6" y2="54747.7" gradientUnits="userSpaceOnUse">
<stop stop-color="#00FFFF"/>
<stop offset="0.15" stop-color="#00E7F8"/>
<stop offset="0.35" stop-color="#00CCEF"/>
<stop offset="0.57" stop-color="#00B9E9"/>
<stop offset="0.78" stop-color="#00ADE5"/>
<stop offset="1" stop-color="#00A9E4"/>
</linearGradient>
<linearGradient id="paint8_linear" x1="106935" y1="123897" x2="130969" y2="151460" gradientUnits="userSpaceOnUse">
<stop stop-color="#FCFFFF"/>
<stop offset="1" stop-color="#0033A2"/>
</linearGradient>
<linearGradient id="paint9_linear" x1="52225.2" y1="110595" x2="67072.4" y2="120285" gradientUnits="userSpaceOnUse">
<stop stop-color="#4A85B0"/>
<stop offset="0.15" stop-color="#00E7F8"/>
<stop offset="0.35" stop-color="#00CCEF"/>
<stop offset="0.57" stop-color="#00B9E9"/>
<stop offset="0.78" stop-color="#00ADE5"/>
<stop offset="1" stop-color="#00A9E4"/>
</linearGradient>
<linearGradient id="paint10_linear" x1="105777" y1="107348" x2="117124" y2="120277" gradientUnits="userSpaceOnUse">
<stop stop-color="#00ACE4"/>
<stop offset="1" stop-color="#0033A2"/>
</linearGradient>
<linearGradient id="paint11_linear" x1="163911" y1="170384" x2="237115" y2="238922" gradientUnits="userSpaceOnUse">
<stop stop-color="#FCFFFF"/>
<stop offset="1" stop-color="#0033A2"/>
</linearGradient>
<linearGradient id="paint12_linear" x1="72251.7" y1="161644" x2="109284" y2="179403" gradientUnits="userSpaceOnUse">
<stop stop-color="#4D87B3"/>
<stop offset="0.15" stop-color="#00E7F8"/>
<stop offset="0.35" stop-color="#00CCEF"/>
<stop offset="0.57" stop-color="#00B9E9"/>
<stop offset="0.78" stop-color="#00ADE5"/>
<stop offset="1" stop-color="#00A9E4"/>
</linearGradient>
<linearGradient id="paint13_linear" x1="75950.2" y1="87392.8" x2="85347.6" y2="98580.9" gradientUnits="userSpaceOnUse">
<stop stop-color="#FCFFFF"/>
<stop offset="1" stop-color="#0033A2"/>
</linearGradient>
<linearGradient id="paint14_linear" x1="18523.7" y1="70178.1" x2="21678.3" y2="71337.1" gradientUnits="userSpaceOnUse">
<stop stop-color="#3D76A1"/>
<stop offset="0.15" stop-color="#00E7F8"/>
<stop offset="0.35" stop-color="#00CCEF"/>
<stop offset="0.57" stop-color="#00B9E9"/>
<stop offset="0.78" stop-color="#00ADE5"/>
<stop offset="1" stop-color="#00A9E4"/>
</linearGradient>
<linearGradient id="paint15_linear" x1="44904.9" y1="89561.5" x2="50226.9" y2="92755.9" gradientUnits="userSpaceOnUse">
<stop stop-color="#00FFFF"/>
<stop offset="0.15" stop-color="#00E7F8"/>
<stop offset="0.35" stop-color="#00CCEF"/>
<stop offset="0.57" stop-color="#00B9E9"/>
<stop offset="0.78" stop-color="#00ADE5"/>
<stop offset="1" stop-color="#00A9E4"/>
</linearGradient>
<linearGradient id="paint16_linear" x1="462473" y1="136620" x2="639515" y2="348506" gradientUnits="userSpaceOnUse">
<stop stop-color="#FCFFFF"/>
<stop offset="0.15" stop-color="#00E7F8"/>
<stop offset="0.35" stop-color="#00CCEF"/>
<stop offset="0.57" stop-color="#00B9E9"/>
<stop offset="0.78" stop-color="#00ADE5"/>
<stop offset="1" stop-color="#00A9E4"/>
</linearGradient>
<linearGradient id="paint17_linear" x1="484744" y1="159574" x2="691605" y2="407238" gradientUnits="userSpaceOnUse">
<stop stop-color="#00ACE4"/>
<stop offset="1" stop-color="#0033A2"/>
</linearGradient>
<linearGradient id="paint18_linear" x1="267905" y1="138510" x2="311705" y2="181582" gradientUnits="userSpaceOnUse">
<stop stop-color="#FCFFFF"/>
<stop offset="0.15" stop-color="#00E7F8"/>
<stop offset="0.35" stop-color="#00CCEF"/>
<stop offset="0.57" stop-color="#00B9E9"/>
<stop offset="0.78" stop-color="#00ADE5"/>
<stop offset="1" stop-color="#00A9E4"/>
</linearGradient>
<linearGradient id="paint19_linear" x1="213867" y1="147305" x2="255386" y2="179921" gradientUnits="userSpaceOnUse">
<stop stop-color="#00ACE4"/>
<stop offset="1" stop-color="#0033A2"/>
</linearGradient>
<linearGradient id="paint20_linear" x1="280731" y1="116326" x2="293918" y2="136137" gradientUnits="userSpaceOnUse">
<stop stop-color="#FCFFFF"/>
<stop offset="0.15" stop-color="#00E7F8"/>
<stop offset="0.35" stop-color="#00CCEF"/>
<stop offset="0.57" stop-color="#00B9E9"/>
<stop offset="0.78" stop-color="#00ADE5"/>
<stop offset="1" stop-color="#00A9E4"/>
</linearGradient>
<linearGradient id="paint21_linear" x1="318028" y1="111834" x2="327558" y2="129438" gradientUnits="userSpaceOnUse">
<stop stop-color="#00ACE4"/>
<stop offset="1" stop-color="#0033A2"/>
</linearGradient>
<linearGradient id="paint22_linear" x1="253.706" y1="515.536" x2="343.102" y2="670.437" gradientUnits="userSpaceOnUse">
<stop stop-color="#DD2C00"/>
<stop offset="0.553527" stop-color="#FFD13C"/>
<stop offset="1" stop-color="#FF9339"/>
</linearGradient>
<linearGradient id="paint23_linear" x1="640362" y1="75230.4" x2="643888" y2="99943.8" gradientUnits="userSpaceOnUse">
<stop stop-color="#DD2C00"/>
<stop offset="0.25" stop-color="#FFD13C"/>
<stop offset="1" stop-color="#FF9339"/>
</linearGradient>
<linearGradient id="paint24_linear" x1="73125.1" y1="51316.4" x2="76237.5" y2="54887.9" gradientUnits="userSpaceOnUse">
<stop stop-color="#FDFEFF"/>
<stop offset="1" stop-color="#0033A2"/>
</linearGradient>
<linearGradient id="paint25_linear" x1="35612.5" y1="44301.6" x2="37535.6" y2="45556" gradientUnits="userSpaceOnUse">
<stop stop-color="#00FFFF"/>
<stop offset="0.15" stop-color="#00E7F8"/>
<stop offset="0.35" stop-color="#00CCEF"/>
<stop offset="0.57" stop-color="#00B9E9"/>
<stop offset="0.78" stop-color="#00ADE5"/>
<stop offset="1" stop-color="#00A9E4"/>
</linearGradient>
<linearGradient id="paint26_linear" x1="60204.3" y1="41792.1" x2="61674.3" y2="43466.8" gradientUnits="userSpaceOnUse">
<stop stop-color="#FCFFFF"/>
<stop offset="1" stop-color="#0033A2"/>
</linearGradient>
<linearGradient id="paint27_linear" x1="106872" y1="84316.5" x2="116356" y2="93196.2" gradientUnits="userSpaceOnUse">
<stop stop-color="#FCFFFF"/>
<stop offset="1" stop-color="#0033A2"/>
</linearGradient>
<linearGradient id="paint28_linear" x1="46393.2" y1="73107.2" x2="51190.2" y2="75407.5" gradientUnits="userSpaceOnUse">
<stop stop-color="#00FFFF"/>
<stop offset="0.15" stop-color="#00E7F8"/>
<stop offset="0.35" stop-color="#00CCEF"/>
<stop offset="0.57" stop-color="#00B9E9"/>
<stop offset="0.78" stop-color="#00ADE5"/>
<stop offset="1" stop-color="#00A9E4"/>
</linearGradient>
<linearGradient id="paint29_linear" x1="48744.9" y1="33709.7" x2="49962.4" y2="35159" gradientUnits="userSpaceOnUse">
<stop stop-color="#FCFFFF"/>
<stop offset="1" stop-color="#0033A2"/>
</linearGradient>
<linearGradient id="paint30_linear" x1="12079.5" y1="26439.2" x2="12488.5" y2="26589.5" gradientUnits="userSpaceOnUse">
<stop stop-color="#00FFFF"/>
<stop offset="0.15" stop-color="#00E7F8"/>
<stop offset="0.35" stop-color="#00CCEF"/>
<stop offset="0.57" stop-color="#00B9E9"/>
<stop offset="0.78" stop-color="#00ADE5"/>
<stop offset="1" stop-color="#00A9E4"/>
</linearGradient>
<linearGradient id="paint31_linear" x1="25722.9" y1="34021" x2="26412.6" y2="34434.3" gradientUnits="userSpaceOnUse">
<stop stop-color="#00FFFF"/>
<stop offset="0.15" stop-color="#00E7F8"/>
<stop offset="0.35" stop-color="#00CCEF"/>
<stop offset="0.57" stop-color="#00B9E9"/>
<stop offset="0.78" stop-color="#00ADE5"/>
<stop offset="1" stop-color="#00A9E4"/>
</linearGradient>
<linearGradient id="paint32_linear" x1="352272" y1="122077" x2="376008" y2="162262" gradientUnits="userSpaceOnUse">
<stop stop-color="#FE5722"/>
<stop offset="0.25" stop-color="#FFD13C"/>
<stop offset="1" stop-color="#FF9339"/>
</linearGradient>
<linearGradient id="paint33_linear" x1="8616.56" y1="16037.9" x2="8817.54" y2="16156.4" gradientUnits="userSpaceOnUse">
<stop stop-color="#00FFFF"/>
<stop offset="0.15" stop-color="#00E7F8"/>
<stop offset="0.35" stop-color="#00CCEF"/>
<stop offset="0.57" stop-color="#00B9E9"/>
<stop offset="0.78" stop-color="#00ADE5"/>
<stop offset="1" stop-color="#00A9E4"/>
</linearGradient>
<linearGradient id="paint34_linear" x1="3575.78" y1="14862.4" x2="3657.08" y2="14882.3" gradientUnits="userSpaceOnUse">
<stop stop-color="#00FFFF"/>
<stop offset="0.15" stop-color="#00E7F8"/>
<stop offset="0.35" stop-color="#00CCEF"/>
<stop offset="0.57" stop-color="#00B9E9"/>
<stop offset="0.78" stop-color="#00ADE5"/>
<stop offset="1" stop-color="#00A9E4"/>
</linearGradient>
<linearGradient id="paint35_linear" x1="4723.48" y1="4448.85" x2="4735.18" y2="4463.23" gradientUnits="userSpaceOnUse">
<stop stop-color="#00FFFF"/>
<stop offset="0.15" stop-color="#00E7F8"/>
<stop offset="0.35" stop-color="#00CCEF"/>
<stop offset="0.57" stop-color="#00B9E9"/>
<stop offset="0.78" stop-color="#00ADE5"/>
<stop offset="1" stop-color="#00A9E4"/>
</linearGradient>
<linearGradient id="paint36_linear" x1="68270.4" y1="53030" x2="71902.4" y2="57876.8" gradientUnits="userSpaceOnUse">
<stop stop-color="#00FFFF"/>
<stop offset="0.15" stop-color="#00E7F8"/>
<stop offset="0.35" stop-color="#00CCEF"/>
<stop offset="0.57" stop-color="#00B9E9"/>
<stop offset="0.78" stop-color="#00ADE5"/>
<stop offset="1" stop-color="#00A9E4"/>
</linearGradient>
<linearGradient id="paint37_linear" x1="97948.6" y1="28639.7" x2="98344.1" y2="30051.5" gradientUnits="userSpaceOnUse">
<stop stop-color="#00FFFF"/>
<stop offset="0.15" stop-color="#00E7F8"/>
<stop offset="0.35" stop-color="#00CCEF"/>
<stop offset="0.57" stop-color="#00B9E9"/>
<stop offset="0.78" stop-color="#00ADE5"/>
<stop offset="1" stop-color="#00A9E4"/>
</linearGradient>
<linearGradient id="paint38_linear" x1="94931.1" y1="60156.9" x2="97614.5" y2="64319.6" gradientUnits="userSpaceOnUse">
<stop stop-color="#00FFFF"/>
<stop offset="0.15" stop-color="#00E7F8"/>
<stop offset="0.35" stop-color="#00CCEF"/>
<stop offset="0.57" stop-color="#00B9E9"/>
<stop offset="0.78" stop-color="#00ADE5"/>
<stop offset="1" stop-color="#00A9E4"/>
</linearGradient>
<linearGradient id="paint39_linear" x1="343.157" y1="564.21" x2="369.551" y2="609.948" gradientUnits="userSpaceOnUse">
<stop stop-color="#DEE9EE"/>
<stop offset="0.99" stop-color="#A8C6D4"/>
</linearGradient>
</defs>
</svg>
