<svg width="934" height="182" viewBox="0 0 934 182" fill="none" xmlns="http://www.w3.org/2000/svg">
<path d="M607.001 97C532.926 33 171.469 6.33333 0 1H833.34L893.355 15C927.077 37.6667 970.516 95.8 874.493 147C754.465 211 699.594 177 607.001 97Z" fill="#9CBED9"/>
<path d="M724.472 70.5077C719.092 76.3331 703.799 26.5965 696.825 1H934.439V105.593L924.725 79.1134C921.985 74.7002 914.264 64.6823 905.298 59.9161C896.331 55.1498 893.093 57.9301 892.595 59.9161C891.101 63.0053 889.606 73.0232 895.584 88.3811C903.056 107.579 904.55 145.973 905.298 147.959C906.045 149.945 888.859 160.537 855.234 162.523C828.335 164.111 817.126 169.363 814.885 171.79C808.409 179.293 796.354 189.267 799.94 169.142C803.527 149.018 782.007 128.1 770.799 120.156C755.357 113.316 725.817 97.2516 731.197 87.7192C736.577 78.1867 774.286 66.5359 792.468 61.902C815.134 56.1649 858.522 41.3807 850.751 28.1411C841.037 11.5917 818.621 18.8734 801.435 20.8594C784.249 22.8453 731.197 63.226 724.472 70.5077Z" fill="#FE5722" stroke="#4F7FA5"/>
</svg>
