<svg width="29" height="23" viewBox="0 0 29 23" fill="none" xmlns="http://www.w3.org/2000/svg">
<path d="M6.9 11C8.36667 11.1333 9.56667 11.7 10.5 12.7C11.4333 13.7 11.9 14.9667 11.9 16.5C11.9 18.1667 11.4 19.5333 10.4 20.6C9.4 21.6 8.13333 22.1 6.6 22.1C4.86667 22.1 3.46667 21.4667 2.4 20.2C1.4 18.9333 0.9 16.9667 0.9 14.3C0.9 9.16666 2.6 4.73333 6 0.999995C6.66667 0.333329 7.43333 -3.8147e-06 8.3 -3.8147e-06C9.03333 -3.8147e-06 9.66667 0.266663 10.2 0.799998C10.7333 1.26666 11 1.83333 11 2.49999C11 3.23333 10.7333 3.86666 10.2 4.4C8.46667 6.2 7.36667 8.4 6.9 11ZM23.5 11C24.9667 11.1333 26.1667 11.7 27.1 12.7C28.0333 13.7 28.5 14.9667 28.5 16.5C28.5 18.1667 28 19.5333 27 20.6C26 21.6 24.7333 22.1 23.2 22.1C21.4667 22.1 20.0667 21.4667 19 20.2C18 18.9333 17.5 16.9667 17.5 14.3C17.5 9.16666 19.2 4.73333 22.6 0.999995C23.2667 0.333329 24.0333 -3.8147e-06 24.9 -3.8147e-06C25.6333 -3.8147e-06 26.2667 0.266663 26.8 0.799998C27.3333 1.26666 27.6 1.83333 27.6 2.49999C27.6 3.23333 27.3333 3.86666 26.8 4.4C25.0667 6.2 23.9667 8.4 23.5 11Z" fill="#FE5722"/>
</svg>
