<svg width="778" height="65" viewBox="0 0 778 65" fill="none" xmlns="http://www.w3.org/2000/svg">
<circle cx="81" cy="33" r="5" fill="#BCD9DD"/>
<circle cx="99" cy="33" r="5" fill="#BCD9DD"/>
<circle cx="117" cy="33" r="5" fill="#BCD9DD"/>
<circle cx="135" cy="33" r="5" fill="#BCD9DD"/>
<circle cx="153" cy="33" r="5" fill="#BCD9DD"/>
<circle cx="171" cy="33" r="5" fill="#BCD9DD"/>
<circle cx="189" cy="33" r="5" fill="#BCD9DD"/>
<circle cx="207" cy="33" r="5" fill="#BCD9DD"/>
<circle cx="225" cy="33" r="5" fill="#BCD9DD"/>
<circle cx="243" cy="33" r="5" fill="#BCD9DD"/>
<circle cx="261" cy="33" r="5" fill="#BCD9DD"/>
<circle cx="279" cy="33" r="5" fill="#BCD9DD"/>
<circle cx="297" cy="33" r="5" fill="#BCD9DD"/>
<circle cx="315" cy="33" r="5" fill="#BCD9DD"/>
<circle cx="333" cy="33" r="5" fill="#BCD9DD"/>
<circle cx="431" cy="33" r="5" fill="#BCD9DD"/>
<circle cx="450" cy="33" r="5" fill="#BCD9DD"/>
<circle cx="469" cy="33" r="5" fill="#BCD9DD"/>
<circle cx="488" cy="33" r="5" fill="#BCD9DD"/>
<circle cx="507" cy="33" r="5" fill="#BCD9DD"/>
<circle cx="526" cy="33" r="5" fill="#BCD9DD"/>
<circle cx="545" cy="33" r="5" fill="#BCD9DD"/>
<circle cx="564" cy="33" r="5" fill="#BCD9DD"/>
<circle cx="583" cy="33" r="5" fill="#BCD9DD"/>
<circle cx="602" cy="33" r="5" fill="#BCD9DD"/>
<circle cx="621" cy="33" r="5" fill="#BCD9DD"/>
<circle cx="640" cy="33" r="5" fill="#BCD9DD"/>
<circle cx="659" cy="33" r="5" fill="#BCD9DD"/>
<circle cx="678" cy="33" r="5" fill="#BCD9DD"/>
<circle cx="697" cy="33" r="5" fill="#BCD9DD"/>
<circle cx="746" cy="33" r="32" fill="#BCD9DD"/>
<path d="M758.989 30.3436C758.994 30.2853 758.994 30.2267 758.989 30.1684V19.3895C758.989 18.6748 758.706 17.9894 758.2 17.484C757.695 16.9786 757.009 16.6947 756.295 16.6947H754.947C754.233 16.6947 753.547 16.9786 753.042 17.484C752.537 17.9894 752.253 18.6748 752.253 19.3895V19.8611C751.817 19.607 751.367 19.3775 750.905 19.1739V18.0421C750.905 16.9701 750.479 15.9419 749.721 15.1839C748.963 14.4259 747.935 14 746.863 14H744.168C743.096 14 742.068 14.4259 741.31 15.1839C740.552 15.9419 740.126 16.9701 740.126 18.0421V19.1739C739.665 19.3775 739.215 19.607 738.779 19.8611V19.3895C738.779 18.6748 738.495 17.9894 737.99 17.484C737.484 16.9786 736.799 16.6947 736.084 16.6947H734.737C734.022 16.6947 733.337 16.9786 732.831 17.484C732.326 17.9894 732.042 18.6748 732.042 19.3895V30.1684C732.038 30.2267 732.038 30.2853 732.042 30.3436C730.886 30.6421 729.862 31.3162 729.13 32.26C728.398 33.2037 728.001 34.3638 728 35.5579V46.3368C728 47.0515 728.284 47.7369 728.789 48.2423C729.295 48.7477 729.98 49.0316 730.695 49.0316H732.285C732.563 49.8178 733.077 50.4989 733.757 50.9813C734.437 51.4637 735.25 51.724 736.084 51.7263H754.947C755.781 51.724 756.594 51.4637 757.274 50.9813C757.955 50.4989 758.469 49.8178 758.747 49.0316H760.337C761.052 49.0316 761.737 48.7477 762.242 48.2423C762.748 47.7369 763.032 47.0515 763.032 46.3368V35.5579C763.031 34.3638 762.633 33.2037 761.902 32.26C761.17 31.3162 760.146 30.6421 758.989 30.3436ZM760.337 35.5579H758.989V33.2269C759.399 33.4632 759.739 33.803 759.975 34.2121C760.212 34.6212 760.336 35.0853 760.337 35.5579ZM755.931 32.6611L755.581 32.3512L755.23 32.0817L754.853 31.7987L754.476 31.5158L754.085 31.2733L753.6 31.1251L753.182 30.9229L752.724 30.7478L752.32 30.5996L751.808 30.4648L751.417 30.3705L750.905 30.2762H750.568C750.234 30.2221 749.896 30.1862 749.558 30.1684H741.474C741.151 30.1518 740.827 30.1518 740.504 30.1684H740.167L739.56 30.2627L739.17 30.3571L738.658 30.4918L738.253 30.64L737.795 30.8152L737.378 31.0173L736.96 31.2194L736.556 31.5158L736.179 31.7583L735.801 32.0413L735.451 32.3107L735.101 32.6206L734.737 32.9709V31.5158C734.737 31.1151 734.759 30.7148 734.804 30.3166C734.91 29.3928 735.137 28.4869 735.478 27.6219V27.4872C735.572 27.2446 735.693 27.0021 735.815 26.7731L735.909 26.5844C736.03 26.3554 736.165 26.1263 736.3 25.9107L736.408 25.7221C736.556 25.5065 736.704 25.2909 736.866 25.0754L736.987 24.9137C737.149 24.6981 737.324 24.496 737.512 24.2939L737.634 24.1726C737.822 23.975 738.02 23.7819 738.227 23.5933C740.21 21.7906 742.795 20.7918 745.475 20.7918C748.156 20.7918 750.74 21.7906 752.724 23.5933C752.931 23.7819 753.128 23.975 753.317 24.1726L753.438 24.2939C753.627 24.496 753.802 24.6981 753.964 24.9137L754.085 25.0754C754.247 25.2909 754.395 25.4931 754.543 25.7221L754.651 25.9107C754.786 26.1263 754.92 26.3554 755.042 26.5844L755.136 26.7731C755.257 27.0156 755.365 27.2446 755.473 27.4872V27.6219C755.814 28.4869 756.04 29.3928 756.147 30.3166C756.218 30.7133 756.268 31.1136 756.295 31.5158V33.0114L755.931 32.6611ZM754.947 19.3895H756.295V23.4316L756.214 23.3373C755.826 22.832 755.403 22.3548 754.947 21.9091V19.3895ZM742.821 18.0421C742.821 17.6848 742.963 17.3421 743.216 17.0894C743.468 16.8367 743.811 16.6947 744.168 16.6947H746.863C747.221 16.6947 747.563 16.8367 747.816 17.0894C748.069 17.3421 748.211 17.6848 748.211 18.0421H742.821ZM734.737 19.3895H736.084V21.9091C735.629 22.3591 735.205 22.8409 734.818 23.3507L734.737 23.4316V19.3895ZM732.042 33.2269V35.5579H730.695C730.695 35.0853 730.82 34.6212 731.056 34.2121C731.293 33.803 731.633 33.4632 732.042 33.2269ZM730.695 38.2526H732.042V46.3368H730.695V38.2526ZM754.947 49.0316H736.084C735.727 49.0316 735.384 48.8896 735.131 48.6369C734.879 48.3843 734.737 48.0416 734.737 47.6842V39.6C734.737 37.8133 735.447 36.0997 736.71 34.8363C737.973 33.5729 739.687 32.8632 741.474 32.8632H749.558C750.443 32.8632 751.319 33.0374 752.136 33.376C752.953 33.7145 753.696 34.2108 754.322 34.8363C754.947 35.4619 755.443 36.2046 755.782 37.0219C756.12 37.8393 756.295 38.7153 756.295 39.6V47.6842C756.295 48.0416 756.153 48.3843 755.9 48.6369C755.647 48.8896 755.305 49.0316 754.947 49.0316ZM760.337 46.3368H758.989V38.2526H760.337V46.3368Z" fill="#14406C"/>
<path d="M748.21 24.7789H742.821C742.464 24.7789 742.121 24.9209 741.868 25.1736C741.616 25.4262 741.474 25.769 741.474 26.1263C741.474 26.4836 741.616 26.8264 741.868 27.079C742.121 27.3317 742.464 27.4737 742.821 27.4737H748.21C748.568 27.4737 748.911 27.3317 749.163 27.079C749.416 26.8264 749.558 26.4836 749.558 26.1263C749.558 25.769 749.416 25.4262 749.163 25.1736C748.911 24.9209 748.568 24.7789 748.21 24.7789Z" fill="#14406C"/>
<circle cx="382" cy="33" r="32" fill="#BCD9DD"/>
<path d="M399.032 16H366.695C365.98 16 365.295 16.2839 364.789 16.7893C364.284 17.2946 364 17.98 364 18.6947V37.5579C364 38.2726 364.284 38.958 364.789 39.4634C365.295 39.9687 365.98 40.2526 366.695 40.2526H377.474V41.6C377.479 41.8515 377.52 42.1009 377.595 42.3411L373.701 47.5284C373.595 47.67 373.518 47.831 373.474 48.0024C373.43 48.1739 373.42 48.3522 373.445 48.5274C373.47 48.7025 373.529 48.8711 373.62 49.0233C373.71 49.1756 373.829 49.3086 373.971 49.4147C374.112 49.5209 374.273 49.5981 374.445 49.6421C374.616 49.686 374.794 49.6957 374.969 49.6707C375.145 49.6456 375.313 49.5864 375.465 49.4962C375.618 49.4061 375.751 49.2868 375.857 49.1453L379.549 44.2139C379.751 44.2648 379.959 44.2919 380.168 44.2947H381.516V48.3368C381.516 48.6942 381.658 49.0369 381.91 49.2896C382.163 49.5423 382.506 49.6842 382.863 49.6842C383.221 49.6842 383.563 49.5423 383.816 49.2896C384.069 49.0369 384.211 48.6942 384.211 48.3368V44.2947H385.558C385.767 44.2919 385.975 44.2648 386.178 44.2139L389.869 49.1453C390.084 49.4311 390.403 49.6201 390.757 49.6707C391.111 49.7212 391.47 49.6291 391.756 49.4147C392.042 49.2003 392.231 48.8811 392.281 48.5274C392.332 48.1736 392.24 47.8143 392.025 47.5284L388.131 42.3411C388.206 42.1009 388.247 41.8515 388.253 41.6V40.2526H399.032C399.746 40.2526 400.432 39.9687 400.937 39.4634C401.442 38.958 401.726 38.2726 401.726 37.5579V18.6947C401.726 17.98 401.442 17.2946 400.937 16.7893C400.432 16.2839 399.746 16 399.032 16ZM366.695 18.6947H399.032V20.0421H366.695V18.6947ZM385.558 41.6H380.168V40.2526H385.558V41.6ZM386.905 37.5579H366.695V22.7368H399.032V37.5579H386.905Z" fill="#14406C"/>
<circle cx="32" cy="32" r="32" fill="#BCD9DD"/>
<path d="M40.6264 21.2009C40.1435 20.7219 39.4975 20.4433 38.8178 20.4208C38.138 20.3983 37.475 20.6336 36.9615 21.0796H31.0735C30.36 21.0826 29.6768 21.3685 29.1737 21.8746L22.8276 28.2072C22.6866 28.328 22.572 28.4766 22.4912 28.6438C22.4103 28.8109 22.3648 28.993 22.3577 29.1786C22.3505 29.3641 22.3818 29.5492 22.4495 29.7221C22.5173 29.895 22.62 30.052 22.7513 30.1833C22.8826 30.3146 23.0396 30.4174 23.2125 30.4851C23.3854 30.5528 23.5705 30.5841 23.756 30.5769C23.9416 30.5698 24.1237 30.5243 24.2908 30.4435C24.458 30.3626 24.6066 30.248 24.7274 30.107L31.0735 23.7744H34.2264L17.1956 40.8186C16.9808 41.0349 16.8032 41.2853 16.6702 41.5596L13.1401 48.7815C13.0149 49.0342 12.9721 49.3197 13.0178 49.5979C13.0635 49.8761 13.1953 50.133 13.3946 50.3324C13.594 50.5318 13.8509 50.6636 14.1291 50.7092C14.4073 50.7549 14.6929 50.7122 14.9455 50.587L22.1674 47.0704C22.4418 46.9373 22.6922 46.7597 22.9085 46.5449L42.5127 26.9407C42.7673 26.6899 42.9695 26.391 43.1075 26.0614C43.2455 25.7318 43.3166 25.378 43.3166 25.0207C43.3166 24.6633 43.2455 24.3095 43.1075 23.9799C42.9695 23.6503 42.7673 23.3514 42.5127 23.1007L40.6264 21.2009ZM40.6264 25.0409L20.9817 44.6451L17.2765 46.4506L19.0954 42.7184L38.7266 23.1007L40.6264 25.0005L40.5994 25.0274L40.6264 25.0409Z" fill="#14406C"/>
<path d="M49.9367 15.6901L48.0369 13.7903C47.7866 13.5398 47.4894 13.341 47.1623 13.2054C46.8352 13.0698 46.4845 13 46.1304 13C45.7762 13 45.4256 13.0698 45.0984 13.2054C44.7713 13.341 44.4741 13.5398 44.2238 13.7903L41.4213 16.5929C41.1708 16.8431 40.972 17.1403 40.8364 17.4675C40.7008 17.7946 40.631 18.1453 40.631 18.4994C40.631 18.8535 40.7008 19.2042 40.8364 19.5313C40.972 19.8584 41.1708 20.1556 41.4213 20.4059L43.3211 22.3057C43.5714 22.5562 43.8686 22.755 44.1957 22.8906C44.5228 23.0262 44.8735 23.096 45.2276 23.096C45.5818 23.096 45.9324 23.0262 46.2596 22.8906C46.5867 22.755 46.8839 22.5562 47.1342 22.3057L49.9502 19.4897C50.2007 19.2394 50.3995 18.9422 50.5351 18.6151C50.6707 18.288 50.7405 17.9373 50.7405 17.5832C50.7405 17.229 50.6707 16.8784 50.5351 16.5512C50.3995 16.2241 50.2007 15.9269 49.9502 15.6766L49.9367 15.6901ZM45.2209 20.4059L43.3211 18.5061L46.1371 15.6901L48.0369 17.5899L45.2209 20.4059Z" fill="#14406C"/>
</svg>
