<svg xmlns="http://www.w3.org/2000/svg" viewBox="0 0 1000 210"><defs><style>.cls-1{fill:#fff;}</style></defs><title>logo gamify</title><g id="Layer_2" data-name="Layer 2"><rect class="cls-1" x="222.06" y="140.23" width="22.44" height="4"/><rect class="cls-1" x="222.06" y="151.62" width="22.44" height="4"/><rect class="cls-1" x="101.12" y="142.47" width="26.09" height="4"/><rect class="cls-1" x="101.12" y="153.86" width="26.09" height="4"/><path class="cls-1" d="M247.4,48.93c-4.82-5.08-8.5-5.2-13.81-.65q-11.62,10-23.18,20c-3.51,3.06-7.33,4.85-12.07,4.75-8.59-.18-17.19,0-25.79,0v0c-8.6,0-17.2-.15-25.79.05-5.14.12-9.27-1.78-13.07-5.13-7.56-6.68-15.22-13.24-22.88-19.81-5.09-4.37-8.46-4.27-13.25.43-7.79,7.66-8.71,17.64-8.09,27.8.8,13,4.07,25.53,8.63,37.61,5,13.1,10.33,26,15.75,38.93a8.31,8.31,0,0,0,4.17,3.89c5.79,2.47,11.73,4.54,17.62,6.75a12.06,12.06,0,0,0,10.94-1.09,53.45,53.45,0,0,1,8.29-2.45c6.84-1.48,11.19-.27,11.52-1.53s-4.1-2.17-4.62-5.07c-.64-3.52,4.65-9.07,10.52-9.39,6.22-.35,12.25,5.19,11.81,8.87-.38,3.13-5.35,4.5-4.92,5.84.34,1,3.34.18,8.11.82a34.82,34.82,0,0,1,10.81,3.12c3.83,1.7,7.41,2.3,11.37.71,5.5-2.21,11.19-3.93,16.56-6.42a11.9,11.9,0,0,0,5.12-5.33c2.6-5.3,4.56-10.93,6.91-16.36,8.06-18.72,15.3-37.71,17-58.36C255.85,66.71,254.84,56.8,247.4,48.93ZM133.84,104.67a6,6,0,0,1,6.08,5.75,6.24,6.24,0,0,1-5.79,6.15,6.13,6.13,0,0,1-5.87-6A5.89,5.89,0,0,1,133.84,104.67Zm-10.75,23.28a6.11,6.11,0,0,1-5.9-6,5.85,5.85,0,0,1,6-5.75A5.38,5.38,0,0,1,128.6,122,5.87,5.87,0,0,1,123.08,127.94Zm11.18,11.47a6.23,6.23,0,0,1-6-5.92,6,6,0,0,1,5.46-6,5.83,5.83,0,0,1,6.12,5.62A6.14,6.14,0,0,1,134.26,139.41ZM144.8,128a6,6,0,0,1-5.41-6.09,5.78,5.78,0,0,1,6.12-5.66,5.51,5.51,0,0,1,5.34,6A5.9,5.9,0,0,1,144.8,128Zm83.81-2.27a3.41,3.41,0,0,1-3.36,3.46H217a.6.6,0,0,0-.6.6v8.53a3.41,3.41,0,0,1-3.36,3.46h-7a3.41,3.41,0,0,1-3.36-3.46v-8.53a.6.6,0,0,0-.6-.6h-8.25a3.41,3.41,0,0,1-3.36-3.46v-7.22a3.41,3.41,0,0,1,3.36-3.46h8.25a.6.6,0,0,0,.6-.6v-8.53a3.41,3.41,0,0,1,3.36-3.46h7a3.41,3.41,0,0,1,3.36,3.46v8.53a.6.6,0,0,0,.6.6h8.25a3.41,3.41,0,0,1,3.36,3.46Z"/><path class="cls-1" d="M298.15,75.15c8.89,0,15.33,4.09,18.7,9V76.07h14.41v57c0,15.32-9.4,27.48-28,27.48-15.94,0-27.07-8-28.5-20.94H289c1.43,5.11,6.74,8.48,13.89,8.48,7.87,0,14-4.49,14-15v-8.79c-3.37,4.9-9.81,9.3-18.7,9.3-14.41,0-25.85-11.75-25.85-29.42S283.75,75.15,298.15,75.15Zm3.68,12.57c-7.66,0-14.92,5.72-14.92,16.45S294.17,121,301.83,121c7.87,0,15-5.93,15-16.65S309.7,87.71,301.83,87.71Z"/><path class="cls-1" d="M367.41,75.15c9.09,0,15.32,4.29,18.7,9V76.07h14.41v56.6H386.11v-8.28c-3.37,4.9-9.81,9.19-18.8,9.19-14.3,0-25.75-11.75-25.75-29.42S353,75.15,367.41,75.15Zm3.68,12.57c-7.66,0-14.92,5.72-14.92,16.45S363.43,121,371.09,121c7.87,0,15-5.93,15-16.65S379,87.71,371.09,87.71Z"/><path class="cls-1" d="M493.67,101.4c0-9-5-13.69-12.57-13.69s-12.67,4.7-12.67,13.69v31.26h-14.3V101.4c0-9-5-13.69-12.57-13.69-7.76,0-12.77,4.7-12.77,13.69v31.26H414.5V76.07h14.3v6.84c3.58-4.7,9.6-7.66,16.65-7.66,8.79,0,16,3.78,19.92,10.83a22.41,22.41,0,0,1,19.41-10.83c13.59,0,23.19,8.58,23.19,24.21v33.2h-14.3Z"/><path class="cls-1" d="M520,60.95c0-4.7,3.68-8.38,8.79-8.38a8.39,8.39,0,1,1,0,16.76C523.69,69.32,520,65.65,520,60.95Zm1.53,15.12h14.3v56.6h-14.3Z"/><path class="cls-1" d="M551.48,87.81H545V76.07h6.44V73.21c0-13.9,7.87-20.33,23.8-19.92V65.34c-6.95-.2-9.3,2-9.3,8.38v2.35h9.91V87.81H566v44.85H551.48Z"/><path class="cls-1" d="M624.11,76.07h15.22l-35,83.37H589.07l12.26-28.2L578.65,76.07h16L609.3,115.6Z"/><path class="cls-1" d="M649.23,87.81h-6.74V76.07h6.74v-14h14.41v14h12.67V87.81H663.64v27.38c0,3.78,1.53,5.42,6,5.42h6.64v12.05h-9c-10.83,0-18.08-4.6-18.08-17.57Z"/><path class="cls-1" d="M686.62,57.06h14.3V83.12c3.68-4.8,10-7.87,17.57-7.87,12.77,0,22.07,8.58,22.07,24.21v33.2h-14.3V101.4c0-9.09-5-14-12.57-14-7.76,0-12.77,4.9-12.77,14v31.26h-14.3Z"/><path class="cls-1" d="M859.08,101.4c0-9.09-5-14-12.57-14-7.76,0-12.77,4.9-12.77,14v31.26h-14.3V76.07h14.3v7.05c3.68-4.8,9.81-7.87,17.06-7.87,13.18,0,22.58,8.58,22.58,24.21v33.2h-14.3Z"/><path class="cls-1" d="M887,57.06h14.3v43l19-24h18.59l-24.93,28.4,25.13,28.2H920.47l-19.21-24.11v24.11H887Z"/><path class="cls-1" d="M800,91.49c-4.38,7-7.88,14.08-8.46,22.46-.26,3.8-3,5.9-6.88,6.06-2.43.11-4.85,0-7.28,0v0c-2.43,0-4.85.05-7.28,0-3.8-.08-6.51-2-6.88-5.61-.87-8.73-4.51-16.18-9-23.59-6.75-11-3.61-25.44,6.48-33.58,9.73-7.86,24.2-7.72,33.56.29C804.4,66.32,807,80.37,800,91.49Z"/><rect class="cls-1" x="770.82" y="134.22" width="12.85" height="4.06" rx="0.77" ry="0.77"/><rect class="cls-1" x="764.53" y="128.13" width="25.43" height="4.06" rx="0.77" ry="0.77"/><rect class="cls-1" x="764.53" y="122.03" width="25.43" height="4.06" rx="0.77" ry="0.77"/><line class="cls-1" x1="803.91" y1="54.88" x2="823.46" y2="38.44"/><rect class="cls-1" x="800.91" y="44.66" width="25.54" height="4" transform="translate(160.95 534.71) rotate(-40.07)"/><line class="cls-1" x1="750.33" y1="54.88" x2="730.79" y2="38.44"/><rect class="cls-1" x="738.56" y="33.89" width="4" height="25.54" transform="translate(228.12 583.32) rotate(-49.93)"/><line class="cls-1" x1="792.19" y1="44.66" x2="802.72" y2="21.38"/><rect class="cls-1" x="784.68" y="31.02" width="25.54" height="4" transform="translate(438.73 746) rotate(-65.66)"/><line class="cls-1" x1="777.33" y1="40.54" x2="777.16" y2="15"/><rect class="cls-1" x="775.24" y="14.99" width="4" height="25.54" transform="translate(-0.17 5.2) rotate(-0.38)"/><line class="cls-1" x1="762.53" y1="44.66" x2="752" y2="21.38"/><rect class="cls-1" x="755.26" y="20.25" width="4" height="25.54" transform="translate(53.65 314.92) rotate(-24.33)"/></g></svg>