<svg width="792" height="718" viewBox="0 0 792 718" fill="none" xmlns="http://www.w3.org/2000/svg">
<path d="M10.8407 337.355C-37.9369 460.895 89.201 629.951 167.335 718H332.637H788.572L920 548.674C906.902 478.234 872.306 301.593 838.704 158.547C796.701 -20.2615 502.681 -60.8998 486.422 104.362C473.415 236.572 314.797 249.757 237.114 239.823C182.014 220.859 59.6183 213.815 10.8407 337.355Z" fill="#E8E5E5" fill-opacity="0.14"/>
<path d="M637.074 538.018H616.451C616.451 526.966 609.17 516.073 603.726 506.789L603.204 505.897C598.516 497.799 592.418 490.279 590.614 480.859C590.092 478.12 589.989 475.154 591.271 472.678C592.637 470.034 595.418 468.346 598.301 467.606C632.657 458.803 639.838 504.651 637.074 538.018Z" fill="url(#paint0_linear)"/>
<path d="M628.208 538.018H627.336C627.235 533.347 626.793 528.69 626.014 524.083C625.097 518.52 623.731 513.04 621.927 507.697C618.347 496.975 612.848 486.993 605.697 478.236C605.108 477.487 605.63 477.089 606.247 477.754C614.13 486.151 620.088 496.164 623.708 507.096C625.532 512.545 626.819 518.16 627.551 523.861C628.173 528.552 628.392 533.289 628.208 538.018Z" fill="url(#paint1_linear)"/>
<path d="M673.848 538.018H694.837C694.837 511.121 725.278 484.705 702.325 481.851C694.16 480.832 688.333 485.016 684.179 491.517C673.848 507.649 673.848 538.018 673.848 538.018Z" fill="url(#paint2_linear)"/>
<path d="M650.875 538.018H676.636C680.834 499.277 679.687 402.159 623.564 411.698C580.51 419.011 649.775 474.959 650.875 538.018Z" fill="url(#paint3_linear)"/>
<path d="M636.791 433.089C640.137 436.938 643.049 441.143 645.474 445.63C647.942 450.084 650.055 454.726 651.795 459.512C653.578 464.29 655.097 469.163 656.347 474.107C657.61 479.048 658.685 484.036 659.534 489.081C661.263 499.164 662.442 509.334 663.066 519.545C663.465 525.7 663.708 531.859 663.767 538.014H665.524C665.755 531.823 665.743 525.62 665.524 519.418C665.167 509.073 664.102 498.766 662.337 488.567C661.453 483.463 660.306 478.399 658.944 473.399C657.598 468.382 655.939 463.454 653.977 458.644C653.037 456.224 651.914 453.867 650.791 451.526C649.576 449.221 648.401 446.904 647.007 444.714C644.287 440.287 641.216 436.047 637.544 432.372C636.469 431.198 635.748 431.835 636.791 433.089Z" fill="url(#paint4_linear)"/>
<path d="M630.63 538.018H652.03C652.03 538.018 657.666 492.978 633.466 493.01C611.405 493.026 626.141 520.859 630.63 538.018Z" fill="url(#paint5_linear)"/>
<path d="M637.002 504.13C640.189 514.262 641.531 524.872 642.28 535.438C642.324 536.294 642.371 537.162 642.415 538.018H644.275C644.243 537.102 644.2 536.202 644.14 535.307C643.343 524.621 641.575 513.903 637.648 503.875C637.317 503.098 636.732 503.337 637.002 504.13Z" fill="url(#paint6_linear)"/>
<path d="M681.877 538.018H683.22C683.713 533.937 684.331 529.856 685.099 525.819C686.232 520.178 687.745 514.619 689.628 509.182C690.134 507.828 690.707 506.51 691.221 505.181C691.496 504.516 691.739 503.839 692.045 503.19L693.009 501.263L693.961 499.324C694.264 498.672 694.609 498.041 694.993 497.433L697.251 493.754C697.721 492.998 697.343 492.688 696.817 493.456L694.363 497.039C693.949 497.639 693.578 498.266 693.252 498.918L692.197 500.833L691.153 502.76C690.819 503.401 690.556 504.078 690.249 504.751C689.676 506.092 689.054 507.41 688.517 508.764C686.457 514.219 684.842 519.832 683.689 525.549C682.906 529.692 682.302 533.848 681.877 538.018Z" fill="url(#paint7_linear)"/>
<path d="M155.265 556.61H120.188C120.188 537.815 107.805 519.29 98.5449 503.5C98.2501 502.999 97.9554 502.485 97.6567 501.984C89.691 488.209 79.3356 475.421 76.2489 459.385C75.3607 454.723 75.1815 449.678 77.3681 445.45C79.694 440.956 84.4177 438.081 89.3166 436.823C147.749 421.882 159.965 499.866 155.265 556.61Z" fill="url(#paint8_linear)"/>
<path d="M140.186 556.61H138.684C138.514 548.658 137.764 540.729 136.438 532.886C134.879 523.424 132.555 514.104 129.488 505.017C123.398 486.786 114.046 469.812 101.886 454.922C100.883 453.652 101.771 452.971 102.822 454.102C116.227 468.383 126.36 485.411 132.515 504.002C135.617 513.271 137.806 522.821 139.051 532.516C140.115 540.5 140.494 548.561 140.186 556.61Z" fill="url(#paint9_linear)"/>
<path d="M217.803 556.61H253.502C253.502 510.866 305.279 465.942 266.247 461.089C252.359 459.353 242.449 466.471 235.388 477.527C217.803 504.958 217.803 556.61 217.803 556.61Z" fill="url(#paint10_linear)"/>
<path d="M178.736 556.61H222.547C229.688 490.725 227.725 325.552 132.292 341.776C59.0629 354.201 176.876 449.352 178.736 556.61Z" fill="url(#paint11_linear)"/>
<path d="M154.779 378.16C160.554 384.633 165.333 391.927 169.543 399.491C173.742 407.068 177.337 414.963 180.297 423.104C183.329 431.231 185.914 439.517 188.04 447.927C190.186 456.331 192.022 464.811 193.48 473.407C196.503 490.526 198.339 507.84 199.49 525.214C200.151 535.685 200.582 546.155 200.685 556.626H203.668C204.067 546.096 204.039 535.549 203.668 524.999C202.987 507.45 201.346 489.881 198.264 472.531C196.762 463.856 194.81 455.236 192.488 446.732C190.198 438.204 187.377 429.827 184.041 421.651C182.448 417.538 180.528 413.541 178.636 409.544C176.569 405.626 174.578 401.685 172.2 397.962C167.576 390.438 162.35 383.232 156.105 376.962C154.233 374.943 153.006 376.054 154.779 378.16Z" fill="url(#paint12_linear)"/>
<path d="M144.304 556.61H180.667C180.667 556.61 190.254 480.011 149.099 480.063C111.637 480.087 136.649 527.424 144.304 556.61Z" fill="url(#paint13_linear)"/>
<path d="M155.141 498.978C160.546 516.209 162.844 534.256 164.119 552.227C164.194 553.68 164.27 555.157 164.35 556.606H167.512C167.46 555.049 167.385 553.521 167.281 551.992C165.955 533.818 162.92 515.592 156.24 498.54C155.675 497.218 154.679 497.624 155.141 498.978Z" fill="url(#paint14_linear)"/>
<path d="M231.441 556.61H233.723C234.563 549.667 235.615 542.728 236.909 535.864C238.837 526.271 241.41 516.82 244.612 507.573C245.472 505.272 246.444 503.031 247.344 500.77C247.814 499.639 248.22 498.488 248.75 497.378L250.387 494.101L252.004 490.805C252.52 489.696 253.107 488.621 253.761 487.588L257.604 481.329C258.401 480.043 257.759 479.518 256.863 480.824L252.689 486.947C251.985 487.963 251.353 489.027 250.797 490.132L249.001 493.388L247.225 496.665C246.659 497.756 246.209 498.906 245.683 500.037C244.708 502.318 243.656 504.56 242.736 506.861C239.232 516.139 236.485 525.685 234.523 535.406C233.204 542.432 232.176 549.5 231.441 556.61Z" fill="url(#paint15_linear)"/>
<path d="M528.76 362.526C510.439 352.807 484.85 392.265 484.85 392.265C493.656 365.376 523.304 296.27 497.519 279.167C476.589 265.284 453.708 292.006 445.997 312.736C452.154 288.849 477.76 214.464 453.166 204.531C431.659 195.852 415.93 231.145 412.939 251.573C410.394 230.381 407.184 158.536 367.575 167.824C329.435 177.678 351.245 243.75 361.29 267.852C349.859 253.544 321.21 224.21 306.326 246.943C282.182 283.785 373.103 343.686 373.103 343.686C373.103 343.686 318.609 326.01 319.024 359.376C319.609 406.598 374.505 430.728 414.875 433.28C357.159 428.244 362.747 481.421 403.787 502.262C438.286 519.78 480.385 516.85 512.737 495.765C534.464 472.666 556.605 377.292 528.76 362.526Z" fill="url(#paint16_linear)"/>
<path d="M506.588 425.19C504.266 432.456 501.574 439.618 498.666 446.581C496.411 451.92 493.851 457.126 490.999 462.172C473.097 438.974 456.859 414.538 442.408 389.049C447.039 382.539 451.334 375.798 455.277 368.852C459.539 361.22 463.545 353.114 467.114 345.012C470.683 336.91 473.885 328.594 476.701 320.221C479.517 311.849 482.07 303.413 483.93 294.849C481.697 303.317 478.992 311.654 475.824 319.819C472.714 328.02 469.245 336.142 465.409 343.977C461.574 351.812 457.308 359.631 452.819 366.925C448.909 373.182 444.678 379.232 440.142 385.051C428.86 365.044 418.802 344.372 410.024 323.147C414.098 315.352 418.105 307.541 421.367 299.288C423.259 295.1 424.709 290.665 426.425 286.409C427.875 282.002 429.484 277.65 430.826 273.271C433.503 264.552 436.115 255.602 438.254 246.676C440.393 237.75 442.301 228.789 443.627 219.747C441.998 228.713 439.792 237.563 437.362 246.342C434.932 255.12 432.029 263.899 429.078 272.403C427.596 276.671 425.852 280.907 424.266 285.187C422.418 289.311 420.833 293.607 418.818 297.636C415.632 304.842 411.876 311.626 408.024 318.338C391.827 276.644 379.352 233.6 370.745 189.709C378.216 233.998 389.59 277.54 404.735 319.827C397.375 317.976 390.189 315.491 383.259 312.398C374.912 308.645 366.874 304.241 359.218 299.228C351.22 293.975 343.573 288.205 336.325 281.958C328.746 275.436 321.628 268.397 315.021 260.893C321.457 268.699 328.421 276.055 335.863 282.909C343.003 289.504 350.562 295.631 358.494 301.251C366.129 306.639 374.175 311.422 382.558 315.555C390.261 319.321 398.298 322.358 406.567 324.628C415.524 346.394 424.971 367.184 435.482 388.244C428.513 389.927 421.354 390.695 414.186 390.53C405.471 390.23 396.817 388.967 388.381 386.763C379.489 384.44 370.81 381.367 362.437 377.579C353.597 373.64 345.098 368.98 337.026 363.644C345.016 369.327 353.455 374.349 362.261 378.662C370.64 382.828 379.355 386.283 388.313 388.989C396.869 391.574 405.685 393.207 414.6 393.858C422.293 394.337 430.016 393.772 437.557 392.178C451.447 418.253 467.161 443.317 484.583 467.18C478.2 468.952 471.7 470.269 465.13 471.121C456.656 472.206 448.115 472.688 439.573 472.563C430.741 472.419 421.926 471.733 413.178 470.508C404.094 469.244 395.105 467.368 386.274 464.891C395.12 467.748 404.148 470.01 413.298 471.659C422.12 473.253 431.032 474.305 439.983 474.808C448.67 475.282 457.38 475.137 466.047 474.374C473.192 473.725 480.278 472.543 487.247 470.839C507.998 498.556 530.748 524.983 555.828 548.902L563.308 540.781C537.977 517.889 514.876 492.449 493.707 465.695C496.602 459.993 499.158 454.125 501.362 448.122C503.987 440.864 506.377 433.459 508.396 425.998C510.416 418.537 512.287 411.029 513.936 403.524C515.585 396.02 517.123 388.503 518.317 380.983C516.788 388.427 514.964 395.833 513.008 403.206C511.053 410.579 508.91 417.932 506.588 425.19Z" fill="url(#paint17_linear)"/>
<path d="M584.507 433.759C591.597 426.06 610.396 440.547 610.396 440.547C601.709 429.225 575.984 401.313 585.379 388.847C593.011 378.731 608.388 387.609 615.534 396.185C608.591 385.834 583.922 354.744 593.966 345.886C602.729 338.151 616.155 352.308 621.002 361.528C618.656 351.014 608.126 316.286 628.534 314.06C648.34 312.352 649.045 347.455 648.316 360.613C651.355 351.886 660.066 333.122 670.971 341.439C688.647 354.923 655.438 398.677 655.438 398.677C655.438 398.677 678.399 381.132 683.804 397.085C691.451 419.658 669.374 440.348 650.591 448.331C677.212 436.252 683.481 462.5 667.446 479.301C653.968 493.426 633.441 499.091 614.502 494.481C600.283 487.132 573.738 445.456 584.507 433.759Z" fill="url(#paint18_linear)"/>
<path d="M604.967 466.147C607.282 468.927 609.752 471.606 612.293 474.163C614.253 476.123 616.335 477.978 618.529 479.72C623.134 467.001 626.744 454 629.332 440.817C626.052 438.715 622.892 436.462 619.865 434.067C616.571 431.423 613.32 428.538 610.275 425.589C607.231 422.639 604.329 419.537 601.594 416.357C598.841 413.206 596.283 409.918 593.931 406.509C596.403 409.82 599.078 413.002 601.942 416.04C604.785 419.101 607.782 422.069 610.914 424.871C614.045 427.673 617.367 430.388 620.709 432.851C623.603 434.955 626.615 436.922 629.732 438.744C631.738 428.406 633.052 417.968 633.669 407.486C630.384 404.788 627.258 401.934 624.305 398.936C622.719 397.418 621.28 395.726 619.754 394.15C618.331 392.47 616.84 390.836 615.472 389.156C612.749 385.802 610.014 382.344 607.512 378.817C605.011 375.29 602.608 371.72 600.468 368.024C602.739 371.63 605.261 375.121 607.881 378.536C610.501 381.951 613.34 385.294 616.158 388.51C617.574 390.126 619.108 391.687 620.575 393.289C622.14 394.785 623.607 396.397 625.237 397.829C627.949 400.394 630.81 402.825 633.807 405.113C634.513 384.679 633.23 364.228 629.974 344C633.831 364.228 635.715 384.727 635.603 405.257C638.78 403.341 641.769 401.178 644.535 398.791C647.862 395.906 650.934 392.786 653.724 389.462C656.635 385.983 659.294 382.334 661.684 378.539C664.185 374.577 666.381 370.463 668.257 366.225C666.513 370.567 664.444 374.797 662.065 378.882C659.782 382.809 657.222 386.597 654.402 390.223C651.684 393.707 648.672 396.991 645.391 400.046C642.373 402.845 639.073 405.38 635.536 407.619C634.929 418.362 633.926 428.758 632.467 439.436C636.05 439.103 639.569 438.346 642.937 437.186C647.015 435.733 650.904 433.875 654.532 431.643C658.357 429.291 661.954 426.648 665.288 423.742C668.817 420.704 672.066 417.407 675 413.883C672.165 417.542 669.007 420.986 665.557 424.179C662.284 427.248 658.733 430.061 654.941 432.588C651.318 435.003 647.414 437.047 643.298 438.682C639.733 440.057 635.981 440.986 632.142 441.445C629.919 454.796 626.663 467.987 622.398 480.921C625.717 480.716 629.016 480.296 632.269 479.666C636.465 478.851 640.591 477.767 644.618 476.421C648.779 475.017 652.84 473.381 656.78 471.523C660.872 469.604 664.816 467.436 668.586 465.032C664.871 467.607 660.971 469.951 656.911 472.05C652.996 474.077 648.947 475.883 644.788 477.459C640.752 478.983 636.602 480.244 632.368 481.231C628.876 482.037 625.322 482.605 621.736 482.93C616.539 498.032 610.176 512.882 602.291 527L597.391 524.634C605.566 510.931 612.257 496.442 617.815 481.693C615.492 479.674 613.301 477.533 611.255 475.281C608.797 472.551 606.43 469.72 604.226 466.814C602.022 463.907 599.865 460.95 597.847 457.968C595.829 454.986 593.839 451.975 592 448.917C593.982 451.892 596.071 454.809 598.228 457.69C600.384 460.572 602.656 463.37 604.967 466.147Z" fill="url(#paint19_linear)"/>
<path d="M688.716 475.23C695.885 473.681 700.812 489.562 700.812 489.562C700.414 479.558 696.948 453.166 707.376 449.818C715.839 447.103 721.065 458.401 721.714 466.204C721.917 457.474 720.348 429.677 729.68 428.658C737.84 427.77 739.804 441.302 738.84 448.564C741.748 441.589 749.749 417.427 762.339 424.398C774.383 431.421 760.594 451.828 754.855 459.074C760.124 455.3 772.706 448.062 775.594 457.235C780.274 472.105 743.54 483.77 743.54 483.77C743.54 483.77 763.797 482.973 760.443 494.316C755.7 510.344 734.678 513.286 720.682 510.277C740.828 514.107 733.826 531.688 717.823 534.841C704.384 537.492 690.341 532.452 681.336 522.153C676.178 512.196 677.811 477.579 688.716 475.23Z" fill="url(#paint20_linear)"/>
<path d="M690.437 499.139C690.529 501.839 690.756 504.534 691.078 507.185C691.332 509.221 691.703 511.24 692.189 513.233C700.521 507.052 708.404 500.29 715.78 492.996C714.83 490.335 714.017 487.627 713.342 484.883C712.625 481.873 712.04 478.728 711.606 475.622C711.172 472.517 710.881 469.38 710.726 466.254C710.545 463.145 710.537 460.028 710.702 456.918C710.647 460.017 710.767 463.117 711.06 466.203C711.331 469.296 711.733 472.389 712.283 475.435C712.833 478.481 713.538 481.546 714.362 484.461C715.089 486.967 715.945 489.435 716.927 491.854C722.696 486.125 728.112 480.052 733.145 473.667C732.46 470.625 731.936 467.549 731.576 464.451C731.337 462.858 731.265 461.19 731.09 459.578C731.018 457.938 730.891 456.301 730.855 454.677C730.783 451.448 730.751 448.152 730.883 444.903C731.014 441.654 731.225 438.422 731.644 435.213C731.337 438.422 731.245 441.65 731.217 444.875C731.19 448.1 731.345 451.369 731.532 454.55C731.628 456.142 731.815 457.758 731.93 459.367C732.165 460.959 732.289 462.552 732.588 464.144C733.005 466.869 732.44 471.003 733.145 473.667C742.68 461.022 751.077 447.558 758.237 433.433C751.431 447.801 744.495 460.106 735.268 473.054C737.953 473.131 740.639 472.975 743.297 472.589C746.501 472.113 749.663 471.386 752.753 470.415C755.982 469.394 759.142 468.164 762.212 466.732C765.421 465.239 768.523 463.526 771.496 461.604C768.553 463.644 765.474 465.48 762.28 467.098C759.212 468.657 756.047 470.017 752.805 471.167C749.69 472.268 746.494 473.124 743.246 473.727C740.259 474.274 737.229 474.541 734.193 474.523C729.047 481.077 723.837 487.263 718.221 493.414C720.433 494.658 722.798 495.608 725.255 496.241C728.255 496.976 731.327 497.377 734.416 497.435C737.669 497.498 740.921 497.285 744.138 496.798C747.526 496.309 750.869 495.54 754.131 494.501C750.862 495.668 747.504 496.567 744.09 497.188C740.834 497.802 737.533 498.14 734.221 498.2C731.057 498.258 727.897 497.967 724.797 497.332C722.13 496.753 719.553 495.816 717.138 494.545C709.897 502.092 702.133 509.119 693.902 515.574C695.905 516.791 697.992 517.865 700.147 518.787C702.93 519.97 705.792 520.955 708.714 521.733C711.737 522.534 714.805 523.148 717.903 523.572C721.119 524.015 724.362 524.24 727.609 524.245C724.321 524.366 721.03 524.266 717.755 523.946C714.596 523.641 711.458 523.143 708.36 522.453C705.354 521.779 702.401 520.892 699.522 519.798C697.15 518.89 694.85 517.807 692.639 516.557C682.922 524.068 672.596 530.757 661.768 536.555L660 533.071C670.816 527.644 681.162 521.326 690.931 514.184C690.494 511.964 690.188 509.72 690.015 507.464C689.82 504.737 689.716 501.986 689.748 499.251C689.78 496.516 689.863 493.777 690.023 491.061C690.182 488.346 690.389 485.639 690.696 482.96C690.501 485.643 690.409 488.342 690.365 491.041C690.321 493.741 690.345 496.428 690.437 499.139Z" fill="url(#paint21_linear)"/>
<path d="M137.163 538.83C150.8 536.234 160.641 546.47 161.291 547.119C161.888 545.021 167.834 525.696 187.115 518.852C199.303 514.509 210.045 517.602 213.741 518.852C212.473 515.527 212.163 511.912 212.848 508.42C213.533 504.927 215.184 501.697 217.614 499.096C220.044 496.495 223.156 494.628 226.595 493.707C230.034 492.786 233.663 492.848 237.068 493.886C241.058 487.683 246.785 482.79 253.535 479.815C260.286 476.841 267.762 475.915 275.035 477.155C282.307 478.395 289.054 481.745 294.436 486.788C299.819 491.831 303.599 498.345 305.307 505.519C309.751 498.878 317.745 495.53 325.289 497.178C332.032 498.628 337.428 503.771 339.476 510.512C343.73 506.061 349.088 502.816 355.004 501.107C360.92 499.399 367.184 499.287 373.157 500.784C379.131 502.28 384.601 505.332 389.011 509.628C393.422 513.924 396.615 519.312 398.266 525.242C407.311 518.1 419.491 515.4 430.81 518.96C447.749 524.291 458.415 542.258 454.707 560.444H116.336C118.375 549.416 126.771 540.777 137.163 538.83Z" fill="url(#paint22_linear)"/>
<path d="M467.337 545.431C477.724 543.44 485.22 551.251 485.714 551.745C486.172 550.153 490.696 535.422 505.385 530.219C514.669 526.91 522.85 529.267 525.666 530.219C524.699 527.686 524.463 524.933 524.985 522.273C525.506 519.612 526.764 517.152 528.615 515.171C530.466 513.19 532.836 511.768 535.456 511.067C538.076 510.365 540.84 510.413 543.433 511.204C546.473 506.481 550.834 502.755 555.976 500.49C561.117 498.225 566.811 497.52 572.35 498.465C577.888 499.409 583.027 501.961 587.126 505.801C591.225 509.642 594.105 514.603 595.406 520.066C598.791 515.006 604.881 512.458 610.624 513.697C613.168 514.272 615.511 515.517 617.411 517.303C619.311 519.089 620.699 521.35 621.429 523.853C624.669 520.462 628.75 517.989 633.257 516.687C637.763 515.385 642.534 515.299 647.085 516.439C651.635 517.579 655.802 519.904 659.161 523.177C662.52 526.45 664.952 530.554 666.209 535.072C673.099 529.629 682.375 527.575 690.998 530.294C703.898 534.355 712.023 548.039 709.212 561.889H451.473C453.03 553.493 459.423 546.912 467.337 545.431Z" fill="url(#paint23_linear)"/>
<path d="M581.175 537.405H568.549C568.549 530.637 564.092 523.972 560.759 518.295L560.44 517.749C557.569 512.793 553.841 508.194 552.733 502.422C552.415 500.746 552.335 498.93 553.132 497.413C553.968 495.797 555.669 494.762 557.437 494.308C578.471 488.909 582.868 516.977 581.175 537.405Z" fill="url(#paint24_linear)"/>
<path d="M575.746 537.405H575.205C575.148 534.542 574.881 531.688 574.408 528.865C573.847 525.459 573.011 522.103 571.907 518.832C569.715 512.27 566.349 506.161 561.973 500.801C561.611 500.343 561.934 500.101 562.312 500.507C567.138 505.647 570.786 511.777 573.002 518.47C574.119 521.806 574.908 525.244 575.356 528.734C575.733 531.608 575.863 534.508 575.746 537.405Z" fill="url(#paint25_linear)"/>
<path d="M603.686 537.405H616.535C616.535 520.938 635.17 504.759 621.119 503.023C616.12 502.398 612.552 504.962 610.011 508.939C603.686 518.812 603.686 537.405 603.686 537.405Z" fill="url(#paint26_linear)"/>
<path d="M589.622 537.405H605.39C607.959 513.689 607.258 454.237 572.902 460.077C546.548 464.552 588.949 498.803 589.622 537.405Z" fill="url(#paint27_linear)"/>
<path d="M581 473.172C583.047 475.529 584.829 478.104 586.313 480.851C587.823 483.579 589.116 486.421 590.18 489.351C591.272 492.276 592.203 495.259 592.968 498.285C593.741 501.311 594.402 504.365 594.928 507.442C595.986 513.614 596.708 519.839 597.09 526.09C597.329 529.86 597.489 533.626 597.52 537.397H598.596C598.735 533.607 598.731 529.809 598.596 526.014C598.38 519.682 597.73 513.371 596.652 507.127C596.111 504.002 595.41 500.901 594.573 497.843C593.75 494.772 592.735 491.755 591.534 488.81C590.957 487.329 590.272 485.892 589.591 484.45C588.846 483.041 588.129 481.624 587.273 480.282C585.643 477.544 583.699 475.006 581.482 472.718C580.804 472.013 580.362 472.415 581 473.172Z" fill="url(#paint28_linear)"/>
<path d="M577.228 537.405H590.316C590.316 537.405 593.765 509.835 578.952 509.851C565.47 509.866 574.476 526.898 577.228 537.405Z" fill="url(#paint29_linear)"/>
<path d="M581.135 516.658C583.083 522.861 583.923 529.355 584.365 535.824C584.393 536.346 584.421 536.879 584.449 537.417H585.588C585.588 536.855 585.54 536.306 585.504 535.756C585.026 529.215 583.935 522.654 581.521 516.515C581.322 516.025 580.964 516.173 581.135 516.658Z" fill="url(#paint30_linear)"/>
<path d="M608.617 537.405H609.413C609.716 534.904 610.094 532.408 610.564 529.936C611.263 526.482 612.195 523.08 613.352 519.752C613.663 518.924 614.013 518.116 614.336 517.304C614.503 516.905 614.651 516.483 614.842 516.081L615.431 514.887L616.013 513.693C616.199 513.293 616.41 512.906 616.646 512.534L618.028 510.281C618.315 509.819 618.084 509.628 617.761 510.097L616.26 512.303C616.006 512.67 615.778 513.055 615.579 513.454L614.934 514.624L614.296 515.818C614.093 516.217 613.93 516.615 613.743 517.013C613.392 517.833 613.014 518.641 612.683 519.469C611.422 522.809 610.434 526.245 609.728 529.745C609.234 532.29 608.864 534.843 608.617 537.405Z" fill="url(#paint31_linear)"/>
<path d="M303.423 541C317.06 538.404 326.902 548.64 327.551 549.289C328.148 547.19 334.095 527.866 353.376 521.022C365.563 516.678 376.305 519.772 380.001 521.022C378.733 517.696 378.423 514.082 379.108 510.589C379.793 507.097 381.444 503.867 383.874 501.266C386.305 498.665 389.416 496.798 392.855 495.876C396.294 494.955 399.923 495.018 403.329 496.056C407.319 489.853 413.045 484.96 419.795 481.985C426.546 479.01 434.022 478.085 441.295 479.325C448.567 480.565 455.314 483.915 460.697 488.958C466.079 494.001 469.859 500.515 471.567 507.689C476.012 501.048 484.005 497.7 491.549 499.348C498.292 500.797 503.688 505.941 505.736 512.681C509.99 508.231 515.348 504.986 521.264 503.277C527.18 501.568 533.444 501.457 539.417 502.953C545.391 504.45 550.861 507.502 555.272 511.798C559.682 516.094 562.875 521.481 564.527 527.412C573.572 520.269 585.751 517.57 597.07 521.129C614.009 526.46 624.676 544.427 620.967 562.614H282.588C284.636 551.586 293.031 542.946 303.423 541Z" fill="#E24008"/>
<path d="M703.61 459.986C712.652 424.002 690.113 387.331 653.267 378.08C616.421 368.829 579.221 390.5 570.179 426.484C561.137 462.468 583.676 499.139 620.522 508.39C657.368 517.641 694.568 495.97 703.61 459.986Z" fill="url(#paint32_linear)"/>
<g style="mix-blend-mode:multiply">
<g style="mix-blend-mode:multiply">
<path d="M622.138 381.321C618.283 379.955 618.283 379.955 615.766 381.014C618.367 383.797 618.367 383.797 622.138 381.321ZM636.437 448.667L638.632 447.039C638.377 446.414 638.281 445.876 638.13 445.845C635.202 445.522 632.267 445.263 628.615 444.925C631.259 447.202 634.716 445.872 636.433 448.667H636.437ZM628.929 380.787L628.368 383.029L630.24 384.578C628.328 385.191 628.901 386.345 629.14 387.763C629.268 388.523 628.001 389.514 627.037 390.856C631.088 390.665 634.079 390.263 636.353 387.149C637.237 385.955 639.567 385.788 641.463 385.071L640.436 382.659C640.914 382.659 641.658 382.838 641.842 382.599C643.001 381.09 645.207 381.329 646.291 380.071C647.792 378.331 649.477 377.881 651.436 378.546C652.56 378.944 653.312 378.721 653.938 378.22L653.205 378.025C646.043 376.219 638.64 375.556 631.271 376.058C630.932 376.315 630.609 376.593 630.303 376.89C629.339 377.845 628.252 378.084 627.017 378.454C627.304 379.251 627.356 379.796 627.643 380.111C627.93 380.425 628.479 380.569 628.929 380.787ZM632.454 404.344L628.165 406.012L627.647 408.079L633.223 408.222C633.048 407.49 632.88 406.884 632.765 406.267C632.649 405.65 632.538 404.981 632.446 404.364L632.454 404.344ZM592.809 395.856L592.012 392.241L598.739 391.943L600.914 389.22C599.412 387.942 598.022 387.687 596.7 388.157C591.977 391.428 587.694 395.293 583.955 399.654C583.883 400.737 583.31 401.844 583.158 402.927C580.243 404.328 582.856 406.303 582.111 408.134L585.914 407.549L589.618 401.179L587.563 398.743L592.809 395.856ZM649.803 445.49C650.799 445.888 651.576 448.763 653.145 445.431C650.457 444.817 648.238 442.946 645.339 444.893C644.598 445.391 643.076 444.606 641.921 444.662C641.499 444.682 641.125 445.435 640.639 445.928C644.064 448.894 646.808 445.267 649.795 445.494L649.803 445.49ZM694.184 410.854C694.01 409.741 694.208 408.601 694.75 407.613C690.512 401.067 685.196 395.287 679.026 390.518C678.309 390.748 677.476 391.059 676.807 391.234L675.664 389.455L677.225 389.176C675.319 387.797 673.343 386.516 671.307 385.338L668.945 385.86L669.423 388.193L665.44 389.263L667.906 385.784L665.822 382.483C664.447 381.844 663.044 381.244 661.613 380.684L659.127 380.553L659.565 379.932C658.628 379.6 657.679 379.287 656.718 378.992L657.514 381.162L662.194 382.356L662.027 383.152L656.451 382.057L644.861 387.082L646.346 390.135L644.905 391.592L647.525 393.906C651.707 391.724 651.707 391.724 655.28 392.182L652.03 387.997C652.631 387.651 653.077 387.38 653.539 387.134C656.666 385.477 657.148 385.72 658.39 389.299C658.725 390.267 659.33 391.143 659.984 392.385L656.196 393.834C658.267 394.355 659.239 394.797 660.211 394.793C661.509 394.793 663.504 393.631 663.95 394.833C664.723 396.923 666.739 398.062 667.288 400.128C667.615 401.366 667.336 402.545 666.01 403.11C664.791 403.628 663.556 404.225 662.27 404.436C660.983 404.647 659.629 404.436 657.917 404.4C657.092 405.817 657.646 409.026 653.934 408.521C653.691 406.562 655.128 404.181 653.101 402.405C652.89 402.222 653.018 401.211 653.308 400.976C655.435 399.173 654.137 396.78 654.531 394.793C650.15 391.608 648.493 397.015 645.08 397.978L644.243 395.004C643.702 395.112 643.112 395.064 642.774 395.331C641.983 395.919 641.289 396.625 640.715 397.425C640.323 398.029 639.794 398.533 639.172 398.894C638.549 399.255 637.849 399.464 637.13 399.503C635.194 399.694 633.605 400.463 632.012 402.179C633.044 403.636 635.198 403.819 635.971 405.63C636.664 407.223 638.158 408.437 639.555 410.129L636.851 411.869L634.035 409.878L633.422 410.575L638.456 415.512L639.253 413.832L642.818 415.782L642.503 418.243C644.096 419.545 645.98 420.484 646.291 422.933C646.386 423.693 647.585 424.314 648.282 425.003C646.255 427.316 646.143 427.698 647.386 429.247C648.756 430.955 650.202 432.599 651.492 434.12C650.696 437.018 648.226 438.949 648.768 442.329L653.742 436.755L660.019 436.966L660.278 439.315C664.699 439.12 664.699 439.12 667.698 442.859L665.643 451.032C664.11 451.892 662.855 453.369 660.549 452.625C658.347 451.912 658.633 450.144 658.116 448.675L654.758 447.831L655.236 454.269L649.748 453.242C649.226 454.149 648.338 455.069 648.155 456.112C647.557 459.643 646.924 460.332 643.574 460.229C642.579 460.197 641.583 460.089 640.587 460.05C640.526 460.208 640.484 460.372 640.46 460.539C647.362 462.82 647.485 462.793 653.563 457.43C653.93 457.788 654.404 458.541 654.678 458.473C655.961 458.162 657.439 457.92 658.378 457.107C660.175 455.551 661.887 456.244 663.771 456.578C667.838 457.299 671.263 455.463 674.641 453.556C673.924 451.382 675.549 450.634 676.887 449.539C678.129 448.52 679.042 447.107 680.169 445.928C680.635 445.442 681.272 445.132 682.188 444.463L681.961 447.417L685.024 445.924C683.654 444.73 686.143 444.495 686.135 443.432C686.127 442.369 686.593 441.39 686.848 440.366C687.947 438.842 689.911 438.595 691.149 436.883C693.459 433.698 693.376 430.457 692.938 426.978C692.878 426.496 692.834 426.006 692.751 425.528C692.257 422.813 692.352 422.837 693.149 419.373C693.471 417.968 693.089 416.415 693.264 414.954C693.452 413.573 694.332 412.179 694.176 410.874L694.184 410.854ZM661.242 389.733L660.346 388.937L662.987 384.876L666.018 385.637L661.242 389.733ZM640.464 460.523C638.074 460.229 640.093 456.976 637.994 456.693C636.182 456.451 635.947 454.735 634.9 453.54L633.936 455.499C632.243 453.19 629.853 454.225 627.985 454.703C626.221 455.161 625.958 454.098 624.891 453.178L616.941 456.518L610.604 456.395L606.131 462.331C605.036 461.961 604.14 461.32 603.419 461.483C601.452 461.925 599.56 462.494 597.548 461.722C595.35 460.874 594 463.39 591.813 462.916C591.813 463.979 591.813 464.803 591.813 465.631C591.854 465.804 591.945 465.961 592.076 466.081C594.888 469.437 595.72 473.645 596.975 477.627C597.811 480.294 598.6 482.639 601.838 483.551C602.71 483.825 603.499 484.313 604.134 484.971C604.769 485.629 605.228 486.436 605.47 487.317C606.502 490.964 608.179 494.181 611.97 495.785C612.369 495.952 612.512 496.76 612.711 497.294C613.116 498.376 613.893 499.279 614.902 499.842C617.885 501.745 618.884 504.93 619.761 508.115L620.45 508.298C621.591 508.585 622.733 508.842 623.875 509.07C623.927 508.859 623.975 508.632 624.014 508.382C624.277 506.861 624.369 505.316 624.289 503.775C624.249 503.138 625.054 502.45 625.389 501.916C624.309 496.565 624.827 491.306 626.639 485.533C628.077 484.964 630.056 484.474 631.701 483.443C633.195 482.508 634.234 480.875 635.636 479.757C637.253 478.471 639.05 477.408 640.922 476.146C641.67 474.856 640.089 472.77 641.889 471.639L638.87 466.758L640.464 460.523ZM582.115 417.395C581.84 416.523 582.234 415.404 582.473 414.413C583.031 412.1 583.206 410.034 581.023 408.258C580.279 407.653 580.227 406.2 579.96 405.471L579.538 405.431C572.213 416.211 568.242 428.916 568.127 441.947L572.906 445.506C576.328 444.228 576.391 439.773 579.677 438.049C580.283 437.735 580.713 435.844 580.342 435.151C579.243 433.093 580.601 431.504 580.777 429.474L583.234 429.581C582.139 425.465 583.361 421.384 582.107 417.411L582.115 417.395Z" fill="#BCBEC0"/>
</g>
</g>
<path d="M637.946 364.783C637.169 364.783 636.423 365.092 635.874 365.641C635.324 366.191 635.015 366.936 635.015 367.713C635.015 368.49 635.324 369.236 635.874 369.785C636.423 370.335 637.169 370.643 637.946 370.643C678.631 370.643 711.729 403.731 711.729 444.399C711.729 485.068 678.627 518.152 637.946 518.152C626.437 518.202 615.079 515.539 604.793 510.378C594.506 505.218 585.582 497.706 578.745 488.452C578.473 488.083 578.118 487.784 577.71 487.576C577.301 487.369 576.85 487.26 576.391 487.257C575.848 487.257 575.315 487.408 574.852 487.694C574.389 487.979 574.015 488.388 573.771 488.873C573.527 489.359 573.424 489.903 573.471 490.445C573.519 490.986 573.716 491.503 574.042 491.939C589.244 512.315 612.528 524 637.927 524C681.845 524 717.584 488.284 717.584 444.376C717.584 400.467 681.865 364.783 637.946 364.783Z" fill="#00204E"/>
<path d="M637.325 518.542H629.507V551.363H637.325V518.542Z" fill="#00204E"/>
<path d="M597.66 563.056H679.965V557.263C679.965 554.623 678.916 552.092 677.049 550.225C675.182 548.359 672.649 547.31 670.008 547.31H607.613C604.972 547.31 602.44 548.359 600.572 550.225C598.705 552.092 597.656 554.623 597.656 557.263L597.66 563.056Z" fill="#00204E"/>
<path d="M333.183 521.277C333.183 521.277 333.876 523.339 334.612 525.919C335.349 528.499 336.122 531.592 336.285 533.754L335.051 533.845C334.907 531.879 334.146 528.801 333.422 526.257C333.059 524.983 332.705 523.833 332.442 523.005C332.179 522.176 332.008 521.671 332.008 521.671L333.183 521.273V521.277Z" fill="url(#paint33_linear)"/>
<path d="M344.255 522.296C344.255 522.296 344.231 522.503 344.191 522.885C344.08 524.024 343.853 526.679 343.853 529.558C343.853 530.907 343.9 532.305 344.032 533.618L342.797 533.742C342.662 532.372 342.61 530.955 342.61 529.558C342.615 527.084 342.748 524.612 343.008 522.153L344.239 522.296H344.255Z" fill="url(#paint34_linear)"/>
<path d="M350.396 530.485C350.194 530.723 350.017 530.98 349.867 531.254C349.6 531.706 349.45 532.218 349.429 532.743H348.19C348.212 531.967 348.436 531.211 348.839 530.549C349.024 530.226 349.24 529.922 349.484 529.641L350.396 530.477V530.485Z" fill="url(#paint35_linear)"/>
<path d="M334.66 522.535C334.66 522.535 341.009 514.485 331.255 497.768C321.501 481.05 301.384 477.025 300.44 479.191C299.496 481.357 310.66 485.537 313.758 498.385C316.857 511.232 317.267 518.351 321.138 522.22C325.01 526.09 330.271 527.643 334.66 522.535Z" fill="url(#paint36_linear)"/>
<path d="M347.74 524.155C347.74 524.155 348.437 515.102 364.83 510.066C381.224 505.029 396.753 514.481 396.06 516.436C395.367 518.39 385.593 514.445 375.859 520.95C366.125 527.456 361.584 531.855 356.741 532.05C351.898 532.245 347.521 530.115 347.74 524.155Z" fill="url(#paint37_linear)"/>
<path d="M337.87 518.227C337.87 518.227 326.934 506.49 339.615 487.707C352.296 468.924 380.24 467.618 381.18 470.218C382.12 472.817 370.235 477.734 365.647 492.512C361.059 507.291 358.529 514.684 353.698 518.908C348.867 523.132 342.602 524.529 337.87 518.227Z" fill="url(#paint38_linear)"/>
<g style="mix-blend-mode:multiply">
<path d="M332.079 520.051C332.136 520.05 332.192 520.042 332.247 520.027C332.325 520.005 332.398 519.968 332.462 519.918C332.526 519.868 332.58 519.806 332.619 519.736C332.659 519.665 332.685 519.587 332.695 519.507C332.705 519.426 332.699 519.344 332.677 519.266C332.394 518.243 325.591 494.121 313.017 484.908C312.952 484.853 312.877 484.812 312.795 484.787C312.713 484.763 312.628 484.755 312.543 484.765C312.458 484.775 312.376 484.803 312.303 484.845C312.229 484.888 312.165 484.946 312.114 485.015C312.064 485.084 312.028 485.162 312.01 485.245C311.991 485.328 311.989 485.414 312.005 485.498C312.021 485.582 312.054 485.662 312.102 485.732C312.15 485.802 312.212 485.862 312.285 485.908C324.512 494.865 331.402 519.35 331.482 519.601C331.519 519.73 331.598 519.844 331.705 519.926C331.813 520.007 331.944 520.051 332.079 520.051Z" fill="#D0D3D4"/>
</g>
<g style="mix-blend-mode:multiply">
<path d="M344.745 516.997C344.883 516.993 345.017 516.946 345.128 516.863C345.239 516.781 345.322 516.666 345.366 516.535C345.417 516.315 345.441 516.089 345.438 515.862C346.003 507.378 349.62 479.235 372.342 473.287C372.428 473.274 372.511 473.243 372.584 473.196C372.657 473.149 372.72 473.087 372.768 473.014C372.816 472.941 372.848 472.859 372.862 472.773C372.876 472.687 372.872 472.599 372.849 472.515C372.827 472.431 372.788 472.352 372.733 472.284C372.678 472.216 372.61 472.16 372.532 472.121C372.455 472.081 372.37 472.058 372.283 472.053C372.196 472.048 372.109 472.062 372.027 472.093C348.505 478.244 344.781 507.092 344.199 515.787C344.199 516.021 344.175 516.185 344.167 516.232C344.142 516.322 344.138 516.416 344.155 516.507C344.172 516.599 344.21 516.685 344.266 516.759C344.322 516.834 344.394 516.894 344.477 516.936C344.56 516.978 344.652 517 344.745 517.001V516.997Z" fill="#D0D3D4"/>
</g>
<g style="mix-blend-mode:multiply">
<path d="M352.396 528.268C352.675 528.268 352.953 528.017 353.858 527.197C364.046 517.98 373.867 513.617 383.056 514.21C383.141 514.224 383.229 514.219 383.312 514.197C383.396 514.175 383.474 514.136 383.541 514.082C383.609 514.028 383.664 513.96 383.704 513.884C383.744 513.807 383.768 513.723 383.773 513.637C383.779 513.551 383.767 513.464 383.737 513.383C383.707 513.302 383.661 513.228 383.601 513.166C383.541 513.103 383.468 513.054 383.388 513.022C383.308 512.989 383.222 512.973 383.136 512.976C373.597 512.343 363.472 516.83 353.025 526.277C352.663 526.604 352.288 526.942 352.145 527.053C352.026 527.099 351.924 527.18 351.853 527.286C351.782 527.391 351.745 527.516 351.747 527.644C351.749 527.771 351.79 527.894 351.865 527.998C351.94 528.101 352.044 528.178 352.165 528.22C352.239 528.249 352.317 528.265 352.396 528.268Z" fill="#D0D3D4"/>
</g>
<path d="M327.053 570.21H358.995C359.385 570.209 359.764 570.077 360.069 569.834C360.374 569.591 360.588 569.252 360.676 568.872L368.55 534.865C368.608 534.612 368.609 534.349 368.551 534.096C368.494 533.843 368.38 533.606 368.219 533.403C368.057 533.2 367.852 533.036 367.619 532.923C367.385 532.81 367.129 532.751 366.869 532.751H319.179C318.919 532.751 318.663 532.81 318.43 532.923C318.196 533.036 317.991 533.2 317.83 533.403C317.668 533.606 317.555 533.843 317.497 534.096C317.44 534.349 317.44 534.612 317.498 534.865L325.372 568.872C325.46 569.252 325.674 569.591 325.98 569.834C326.285 570.077 326.663 570.209 327.053 570.21Z" fill="url(#paint39_linear)"/>
<path d="M401.329 593.209C547.053 593.209 665.185 580.215 665.185 564.186C665.185 548.157 547.053 535.163 401.329 535.163C255.606 535.163 137.473 548.157 137.473 564.186C137.473 580.215 255.606 593.209 401.329 593.209Z" fill="#FCFFFF"/>
<path d="M343.526 464.055C343.526 464.055 341.682 476.679 335.959 481.11C333.222 483.236 320.362 492.011 320.362 488.436C320.362 484.861 331.936 478.654 331.936 478.654L337.297 464.759L343.526 464.055Z" fill="#FD5E5A"/>
<path d="M256.74 361.331C256.74 361.331 240.518 359.874 232.325 362.378C230.799 362.844 223.077 431.851 217.158 450.889C211.24 469.927 214.569 497.788 214.569 503.441C214.569 509.094 309.27 509.07 309.27 509.07C309.27 509.07 304.462 443.133 306.31 423.04C308.158 402.947 307.234 372.443 301.503 366.977C295.772 361.51 256.74 361.331 256.74 361.331Z" fill="#FE5722"/>
<path d="M306.641 464.051C296.23 467.053 284.11 468.279 271.452 464.954C250.104 459.345 235.173 419.489 226.522 387.759C224.331 409.182 220.79 439.196 217.158 450.889C211.24 469.931 214.569 497.788 214.569 503.441C214.569 509.094 309.27 509.07 309.27 509.07C309.27 509.07 307.637 486.7 306.641 464.051Z" fill="#EF7216"/>
<path d="M177.577 496.864C177.577 496.864 213.821 556.765 245.644 560.834C277.467 564.903 344.785 513.856 349.962 504.998C355.14 496.139 338.866 492.055 318.518 496.86C298.169 501.665 249.71 513.872 226.406 500.559C203.103 487.245 171.3 476.898 171.3 482.814C171.3 488.73 177.577 496.864 177.577 496.864Z" fill="#083654"/>
<path d="M274.125 564.903C274.125 564.903 246.38 543.086 230.473 523.1C214.565 503.114 198.769 489.534 189.653 484.315C180.536 479.096 160.928 475.031 152.421 494.268C143.913 513.505 200.88 554.635 210.499 561.057C220.117 567.479 243.051 578.945 243.051 578.945L274.125 564.903Z" fill="#5BC8CE"/>
<path d="M251.933 558.617L246.014 574.143C246.014 574.143 261.523 576.11 274.225 578.718C275.396 574.896 276.89 571.18 278.689 567.61C266.462 565.265 251.933 558.617 251.933 558.617Z" fill="#FC7575"/>
<path d="M261.276 583.635L287.698 599.981C298.392 606.602 303.964 616.571 314.344 604.731C324.723 592.891 329.642 576.52 323.572 570.863C317.502 565.206 293.091 568.076 286.173 563.812C279.255 559.548 274.085 561.551 274.925 565.114C275.766 568.677 261.276 583.635 261.276 583.635Z" fill="#FE5722"/>
<path d="M304.171 610.193C308.118 609.517 310.544 606.499 312.934 603.027C318.076 595.634 328.069 578.646 323.568 570.895C325.559 571.866 326.818 574.08 327.435 576.261C331.386 591.824 313.663 614.469 304.171 610.193Z" fill="#FFDA88"/>
<path d="M291.98 569.561C300.742 575.079 295.796 588.802 285.516 587.516L285.026 587.453C268.553 585.251 264.745 583.471 261.101 582.854C257.046 582.146 251.542 581.091 252.689 572.228C253.836 563.366 260.408 553.517 263.554 555.46C265.645 556.757 278.785 561.26 291.98 569.561Z" fill="#FCCC6B"/>
<path d="M252.681 572.224C251.542 581.087 257.038 582.142 261.093 582.85C264.737 583.483 268.545 585.239 285.018 587.449L285.508 587.512C286.384 587.627 287.272 587.627 288.148 587.512C287.898 587.512 287.643 587.477 287.388 587.445L286.898 587.381C270.425 585.175 266.617 583.4 262.973 582.783C258.918 582.074 253.414 581.019 254.561 572.157C255.493 564.883 260.093 556.945 263.455 555.404C260.272 553.704 253.808 563.45 252.681 572.224Z" fill="white"/>
<path d="M288.431 587.473C288.431 587.473 269.314 574.908 266.82 577.189C264.327 579.47 261.276 583.635 261.276 583.635C261.276 583.635 281.772 594.384 287.109 593.11C292.446 591.836 288.431 587.473 288.431 587.473Z" fill="#DD2C00"/>
<path d="M284.126 562.964C284.25 563.041 284.354 563.146 284.43 563.271C284.506 563.395 284.552 563.535 284.564 563.681C285.516 575.226 272.894 582.48 272.357 582.79C272.25 582.851 272.132 582.89 272.011 582.905C271.889 582.92 271.765 582.91 271.647 582.878C271.409 582.812 271.206 582.654 271.084 582.438C270.962 582.223 270.931 581.968 270.997 581.729C271.063 581.491 271.221 581.288 271.437 581.166C271.56 581.098 283.556 574.171 282.704 563.84C282.684 563.594 282.763 563.35 282.922 563.162C283.082 562.974 283.31 562.857 283.556 562.837C283.755 562.818 283.954 562.862 284.126 562.964Z" fill="white"/>
<path d="M292.207 567.327C292.327 567.402 292.428 567.502 292.504 567.622C292.579 567.741 292.626 567.876 292.641 568.016C293.438 575.294 281.171 585.904 280.645 586.35C280.454 586.476 280.224 586.527 279.998 586.495C279.772 586.462 279.566 586.348 279.419 586.174C279.271 586 279.193 585.777 279.199 585.549C279.205 585.321 279.294 585.103 279.45 584.936C282.807 582.062 291.398 573.451 290.805 568.215C290.785 568.041 290.815 567.865 290.891 567.708C290.967 567.55 291.085 567.417 291.233 567.323C291.381 567.23 291.553 567.18 291.728 567.179C291.903 567.179 292.074 567.227 292.223 567.319L292.207 567.327Z" fill="white"/>
<path d="M298.146 570.274C298.349 570.406 298.492 570.614 298.544 570.851C300.03 577.165 288.013 589.192 286.635 590.546C286.548 590.632 286.444 590.699 286.331 590.745C286.217 590.791 286.096 590.814 285.973 590.813C285.851 590.812 285.73 590.787 285.617 590.739C285.505 590.691 285.403 590.621 285.317 590.534C285.231 590.447 285.163 590.343 285.117 590.23C285.072 590.116 285.049 589.995 285.05 589.873C285.051 589.75 285.076 589.629 285.124 589.517C285.172 589.404 285.241 589.302 285.329 589.216C288.858 585.749 297.783 575.768 296.728 571.277C296.686 571.098 296.698 570.91 296.763 570.738C296.828 570.566 296.942 570.417 297.092 570.309C297.241 570.202 297.419 570.141 297.603 570.135C297.787 570.129 297.969 570.177 298.126 570.274H298.146Z" fill="white"/>
<path d="M294.147 595.463C294.147 595.463 302.112 605.085 305.275 604.345C308.437 603.604 323.66 578.204 319.298 575.505C314.937 572.806 302.837 573.172 300.786 575.007C298.735 576.843 294.147 595.463 294.147 595.463Z" fill="#DD2C00"/>
<path d="M209.762 566.014L248.603 557.657L254.892 572.415L209.762 580.012V566.014Z" fill="#FC7575"/>
<path d="M239.725 553.811L254.892 582.285C254.892 582.285 337.384 558.991 357.362 544.197C377.34 529.402 375.859 512.024 375.859 507.219C375.859 502.414 355.104 496.382 345.693 496.382C336.281 496.382 279.084 553.811 239.725 553.811Z" fill="#77E6F7"/>
<path d="M375.855 507.219C375.277 501.685 348.473 496.641 345.163 497.823C334.146 501.184 279.183 555.925 239.721 553.811C280.111 550.682 334.071 494.34 347.342 495.136C354.63 495.693 375.946 501.737 375.855 507.219Z" fill="#C9F5FC"/>
<path d="M252.673 468.064C252.673 468.064 309.457 456.972 328.507 464.182C347.557 471.392 324.807 487.106 319.075 487.106C313.344 487.106 313.734 475.56 307.804 474.31C301.873 473.06 281.517 471.022 277.458 479.159C273.4 487.297 276.351 492.298 267.657 491.175C258.962 490.052 248.79 483.348 248.79 476.536C248.79 469.724 252.673 468.064 252.673 468.064Z" fill="#1E1D2C"/>
<path d="M222.893 457.856C222.893 457.856 237.877 459.89 237.877 463.585C237.877 467.279 235.842 476.898 235.842 481.898C235.842 486.899 241.019 493.731 244.166 493.731C247.312 493.731 241.378 485.227 241.378 484.303C241.378 483.379 247.85 496.394 250.626 496.394C253.402 496.394 252.88 492.632 250.977 489.001C249.073 485.37 248.778 473.474 250.813 469.358C252.848 465.241 259.297 470.186 263.1 470.186C266.904 470.186 273.225 467.001 270.974 464.767C268.724 462.534 264.108 467.431 261.443 464.767C258.779 462.104 262.097 455.276 254.326 453.62C246.556 451.964 228.617 442.158 228.617 442.158L222.893 457.856Z" fill="#FD9191"/>
<path d="M348.298 440.291C348.298 440.291 341.423 457.86 335.154 455.818C328.885 453.775 320.394 464.389 320.394 466.065C320.394 472.471 329.821 458.576 332.972 461.726C336.122 464.875 330.419 467.972 327.228 470.723C324.038 473.474 313.91 479.952 316.686 481.098C319.462 482.245 330.016 474.262 331.482 472.793C332.948 471.324 332.597 472.793 332.597 472.793C332.597 472.793 316.69 482.993 319.454 485.768C322.218 488.543 335.302 476.5 335.302 476.5C335.302 476.5 349.417 462.872 353.858 458.437C358.298 454.002 367.172 435.641 367.172 435.641L348.298 440.291Z" fill="#FC7575"/>
<path d="M346.545 444.208L356.924 454.392C358.366 452.183 359.919 449.491 361.373 446.828L347.831 441.382C347.537 442.098 347.103 443.082 346.545 444.208Z" fill="#FD5E5A"/>
<path d="M232.325 362.378C232.325 362.378 215.493 364.859 204.023 383.347C192.552 401.836 182.117 426.814 190.708 442.138C194.536 448.958 224.562 463.585 224.562 463.585L235.372 441.975C235.372 441.975 218.245 440.08 214.362 426.954C210.479 413.828 230.246 405.985 230.246 405.985C230.246 405.985 240.466 374.21 232.325 362.378Z" fill="#DD2C00"/>
<path d="M297.831 365.129C297.831 365.129 299.237 399.619 307.131 407.509C307.131 407.509 342.379 409.783 345.338 418.107C348.298 426.432 340.714 440.291 340.714 440.291L361.987 450.833C361.987 450.833 378.448 423.283 374.732 408.68C371.016 394.077 309.27 366.248 297.831 365.129Z" fill="#DD2C00"/>
<path d="M259.448 353.906H257.21C257.21 353.906 250.738 340.601 250.738 334.94V317.952C250.738 309.193 258.03 298.985 273.324 298.985C288.619 298.985 292.016 301.816 298.532 305.495C305.048 309.173 299.986 325.265 298.532 333.522C295.851 348.743 285.687 357.947 285.687 357.947L259.448 353.906Z" fill="#1B0530"/>
<path d="M257.054 348.822L252.721 373.382C256.461 386.051 281.398 392.13 285.257 374.33C285.803 371.83 285.679 351.709 285.679 351.709C287.997 340.963 257.154 346.238 257.054 348.822Z" fill="#FC7575"/>
<path d="M257.054 348.822L256.322 352.983C258.875 364.13 265.303 371.201 270.074 372.598C274.121 373.792 280.601 369.982 285.663 363.64C285.719 357.76 285.683 351.697 285.683 351.697C287.997 340.963 257.154 346.238 257.054 348.822Z" fill="#FD5E5A"/>
<path d="M291.896 334.267C292.331 333.702 295.827 325.508 298.807 328.243C301.786 330.978 296.465 342.715 294.079 343.742C291.693 344.769 291.761 343.921 291.761 343.921L291.896 334.267Z" fill="#FD5E5A"/>
<path d="M256.728 332.627C256.373 332.006 254 323.406 250.678 325.735C247.356 328.064 251.076 340.39 253.303 341.724C255.529 343.057 255.577 342.209 255.577 342.209L256.728 332.627Z" fill="#FD5E5A"/>
<path d="M255.919 332.981C255.919 332.225 255.286 328.498 252.801 328.845C250.315 329.191 252.924 341.425 255.23 339.387C257.536 337.348 255.919 332.981 255.919 332.981Z" fill="#DD4A4A"/>
<path d="M296.477 331.468C297.004 332.257 297.328 333.165 297.42 334.109C297.511 335.054 297.368 336.007 297.002 336.883C295.78 339.618 293.505 344.22 293.099 341.776C292.693 339.331 293.912 328.904 296.477 331.468Z" fill="#DD4A4A"/>
<path d="M273.046 306.912C273.046 306.912 258.886 309.858 256.62 316.546C254.354 323.235 255.202 324.063 255.202 339.295C255.202 354.527 263.965 364.449 270.07 366.057C276.176 367.665 287.77 359.098 291.737 347.859C295.704 336.62 295.513 322.435 295.513 316.009C295.513 309.583 273.046 306.912 273.046 306.912Z" fill="#FC7575"/>
<path d="M249.726 322.104L255.115 330.752C255.115 330.752 257.751 314.269 260.292 313.517C262.834 312.764 260.292 316.821 260.292 316.821C260.292 316.821 270.11 315.229 273.603 314.273C277.096 313.318 273.508 317.104 274.264 318.895C275.021 320.687 289.367 315.312 289.367 315.312C289.367 315.312 287.201 323.147 279.749 323.147C279.749 323.147 284.186 325.138 290.606 323.056C297.026 320.974 296.552 316.073 296.552 316.073L294.099 325.982C294.099 325.982 295.385 325.695 295.385 326.547C295.385 327.399 294.095 338.491 294.095 338.491C294.095 338.491 303.929 324.74 304.578 321.065C305.227 317.391 308.919 316.16 308.919 313.421C308.919 310.682 315.244 291.923 302.877 288.698C290.51 285.473 288.244 291.716 288.244 291.716C288.244 291.716 282.389 285.489 275.897 286.337C269.405 287.185 261.643 298.133 261.643 298.133C261.643 298.133 254.752 299.077 253.808 303.417C253.808 303.417 251.068 305.777 249.18 310.778C247.292 315.778 249.726 322.104 249.726 322.104Z" fill="#36095F"/>
<path d="M309.27 464.755C310.819 454.492 309.298 449.627 312.559 449.925C313.056 449.973 313.514 450.215 313.832 450.6C314.15 450.984 314.303 451.479 314.256 451.976C314.212 452.449 314.364 451.844 309.27 464.755Z" fill="#1E1D2C"/>
<path d="M217.529 558.616H186.462C173.885 558.616 163.9 553.071 161.307 568.601C158.714 584.132 163.151 600.638 171.3 602.231C179.449 603.823 198.674 588.551 206.811 588.551C214.948 588.551 218.277 584.112 215.689 581.524C213.1 578.937 217.529 558.616 217.529 558.616Z" fill="#FE5722"/>
<path d="M167.082 558.617C164.079 561.268 163.613 565.11 163.41 569.33C162.932 578.324 163.382 598.019 171.288 602.247C169.073 602.474 166.839 601.24 165.174 599.719C153.604 588.543 156.75 559.962 167.082 558.617Z" fill="#FFDA88"/>
<path d="M198.841 586.732C188.486 586.652 185.467 572.38 194.882 568.064L195.332 567.861C210.499 561.065 214.661 560.559 218.094 559.186C221.914 557.653 227.143 555.659 230.839 563.792C234.535 571.926 234.129 583.766 230.441 583.766C227.968 583.77 214.422 586.851 198.841 586.732Z" fill="#FFDA88"/>
<path d="M230.847 563.796C227.147 555.663 221.918 557.657 218.102 559.19C214.669 560.563 210.507 561.069 195.34 567.865L194.89 568.068C194.085 568.433 193.33 568.9 192.644 569.458C192.863 569.338 193.094 569.223 193.329 569.115L193.779 568.912C208.945 562.116 213.108 561.611 216.541 560.237C220.36 558.704 225.59 556.71 229.286 564.847C232.321 571.524 232.592 580.693 230.544 583.77C234.145 583.539 234.511 571.85 230.847 563.796Z" fill="white"/>
<path d="M192.409 569.641C192.409 569.641 215.266 570.274 216.198 567.013C217.13 563.752 217.517 558.617 217.517 558.617C217.517 558.617 194.44 560.277 190.561 564.154C186.681 568.032 192.409 569.641 192.409 569.641Z" fill="#DD2C00"/>
<path d="M208.985 588.213C208.838 588.21 208.693 588.173 208.563 588.104C208.433 588.034 208.321 587.936 208.237 587.815C201.358 578.515 208.26 565.691 208.555 565.15C208.614 565.042 208.693 564.948 208.789 564.871C208.884 564.794 208.994 564.737 209.112 564.702C209.229 564.668 209.353 564.657 209.474 564.67C209.596 564.684 209.714 564.721 209.822 564.78C209.929 564.838 210.024 564.918 210.101 565.013C210.178 565.109 210.235 565.218 210.269 565.336C210.304 565.453 210.314 565.577 210.301 565.698C210.288 565.82 210.251 565.938 210.192 566.046C210.124 566.169 203.573 578.387 209.738 586.708C209.84 586.847 209.902 587.011 209.917 587.183C209.932 587.355 209.898 587.527 209.821 587.681C209.743 587.835 209.624 587.964 209.477 588.055C209.331 588.145 209.162 588.193 208.989 588.193L208.985 588.213Z" fill="white"/>
<path d="M199.817 588.758C199.676 588.758 199.536 588.726 199.409 588.664C199.282 588.602 199.171 588.511 199.084 588.4C194.56 582.643 199.419 567.152 199.63 566.503C199.705 566.268 199.87 566.072 200.09 565.958C200.199 565.902 200.317 565.868 200.439 565.858C200.561 565.847 200.684 565.861 200.801 565.898C200.917 565.935 201.026 565.995 201.119 566.074C201.213 566.153 201.29 566.249 201.346 566.358C201.402 566.467 201.436 566.586 201.447 566.707C201.457 566.829 201.443 566.952 201.406 567.069C200.064 571.281 197.3 583.117 200.554 587.253C200.662 587.391 200.73 587.556 200.749 587.73C200.768 587.904 200.737 588.08 200.661 588.238C200.584 588.395 200.465 588.528 200.316 588.621C200.168 588.713 199.996 588.763 199.821 588.762L199.817 588.758Z" fill="white"/>
<path d="M193.205 589.38C193.082 589.38 192.961 589.355 192.847 589.308C192.734 589.261 192.631 589.192 192.544 589.105C187.956 584.518 191.839 567.969 192.297 566.093C192.326 565.974 192.379 565.862 192.451 565.764C192.524 565.665 192.615 565.582 192.72 565.518C192.825 565.455 192.941 565.413 193.063 565.394C193.184 565.376 193.307 565.381 193.426 565.411C193.545 565.44 193.657 565.492 193.756 565.565C193.855 565.637 193.938 565.729 194.002 565.834C194.065 565.938 194.107 566.055 194.126 566.176C194.144 566.297 194.139 566.42 194.109 566.539C192.934 571.345 190.601 584.526 193.862 587.787C193.994 587.917 194.083 588.084 194.119 588.265C194.156 588.446 194.137 588.634 194.066 588.805C193.995 588.976 193.875 589.122 193.721 589.224C193.567 589.326 193.386 589.38 193.201 589.38H193.205Z" fill="white"/>
<path d="M183.352 565.85C183.352 565.85 171.499 561.869 169.213 564.154C166.926 566.44 167.349 596.052 172.475 596.052C177.601 596.052 187.701 589.375 188.478 586.736C189.254 584.096 183.352 565.85 183.352 565.85Z" fill="#DD2C00"/>
<path d="M271.456 487.815C278.625 523.888 316.04 530.577 330.152 515.607C337.5 507.824 334.963 498.221 323.206 499.137C305.924 500.539 292.721 527.778 311.293 551.407C327.224 571.094 360.656 559.719 365.707 544.79C366.901 541.207 366.153 535.709 362.401 535.752C351.169 535.573 327.75 567.407 339.945 587.64C353.328 610.281 407.184 624.697 433.395 627.906L432.945 631.604C405.579 628.141 351.117 613.227 337.082 589.32C323.727 567.001 348.672 532.671 362.496 532.735C368.403 532.774 370.462 540.028 368.522 545.729C362.516 562.92 326.352 574.498 309.222 553.087C289.363 527.567 303.924 498.245 323.022 496.776C336.986 495.801 340.603 507.896 331.785 517.164C315.363 534.403 276.144 524.052 269.608 488.101L271.456 487.815Z" fill="#1E1D2C"/>
<path d="M473.514 620.107H353.041V628.997H473.514V620.107Z" fill="#F7F7FC"/>
<path d="M480.054 613.665H346.501L347.561 620.107H478.995L480.054 613.665Z" fill="#E3DDE2"/>
<path d="M479.098 619.481C455.173 619.147 381.618 617.797 357 613.665H346.501L347.561 620.107H478.995L479.098 619.481Z" fill="#FFFEFF"/>
<path d="M475.629 634.025L474.924 627.241H351.627L350.922 634.025H475.629Z" fill="#FFFDFF"/>
<path d="M428.134 625.569H438.772V622.101H428.134V625.569Z" fill="#24242D"/>
<path d="M447.009 625.569H457.647V622.101H447.009V625.569Z" fill="#24242D"/>
<path d="M409.148 625.569H419.786V622.101H409.148V625.569Z" fill="#24242D"/>
<path d="M356.442 625.565H401.317V623.829H356.442V625.565Z" fill="#492F44"/>
<path d="M475.629 452.649L450.159 423.514C450.159 423.514 444.643 430.425 441.265 447.895C437.888 465.364 435.518 504.826 435.518 504.826L470.356 502.732L475.629 452.649Z" fill="#DD2C00"/>
<path d="M476.884 405.503C476.884 405.503 493.042 392.456 516.031 401.776C539.02 411.097 562.304 487.858 562.304 529.478C562.304 529.478 544.361 572.475 481.596 533.949C481.596 533.949 459.483 432.826 450.159 423.514C450.159 423.514 461.152 411.53 476.884 405.503Z" fill="#FE5722"/>
<path d="M524.113 544.646C524.113 544.646 601.778 509.859 627.894 516.694C631.124 517.538 635.756 518.366 637.851 520.325C652.587 534.204 638.185 572.67 622.935 577.571C605.534 583.145 520.401 566.388 498.65 563.283C476.9 560.177 400.58 574.991 394.423 568.832C388.265 562.673 384.928 530.358 414.138 522.284C443.348 514.21 524.113 544.646 524.113 544.646Z" fill="#0B5965"/>
<path d="M497.423 578.658C491.333 575.501 485.411 572.027 479.684 568.251C472.28 563.418 463.553 557.104 455.544 549.667C436.621 532.149 419.093 527.607 404.822 526.552C390.552 525.497 381.343 559.827 411.23 575.457C441.118 591.088 494.97 591.295 494.97 591.295C500.315 592.139 501.761 582.241 497.423 578.658Z" fill="#49200C"/>
<path d="M404.057 543.365C404.057 543.365 410.932 540.219 410.932 537.659C410.932 535.1 409.418 532.536 406.037 534.873C402.656 537.21 388.337 544.197 387.939 545.821C387.541 547.445 404.057 543.365 404.057 543.365Z" fill="#592C13"/>
<path d="M460.279 503.321C460.279 503.321 452.644 532.647 445.654 542.083C438.665 551.518 426.537 554.313 426.537 554.313L409.872 548.389C409.872 548.389 429.388 540.825 434.925 520.421C439.027 505.344 439.23 504.591 439.23 504.591L460.279 503.321Z" fill="#592C13"/>
<path d="M544.927 573.299C544.927 573.299 543.995 565.843 537.471 562.582C530.947 559.321 515.565 564.911 506.942 566.073C498.32 567.236 476.876 566.312 472.69 575.628C468.504 584.944 464.772 597.286 489.94 598.453C515.107 599.619 550.292 591.7 544.927 573.299Z" fill="#FFDA88"/>
<path d="M472.682 575.632C476.876 566.316 498.324 567.244 506.935 566.077C515.545 564.911 530.939 559.309 537.463 562.586C539.757 563.753 541.657 565.568 542.928 567.805L542.744 567.71C536.221 564.449 520.839 570.039 512.216 571.201C503.593 572.364 482.149 571.44 477.963 580.756C475.813 585.534 473.789 591.107 475.713 595.554C466.724 591.111 469.575 582.544 472.682 575.632Z" fill="#FFF1C5"/>
<path d="M524.296 576.56C524.296 576.56 533.333 573.323 545.405 567.487C554.263 563.211 564.754 557.534 574.516 550.726C597.584 534.626 617.192 519.207 633.565 519.207C649.939 519.207 658.327 566.32 622.907 579.721C587.488 593.122 526.017 589.356 526.017 589.356C519.859 589.793 519.043 579.817 524.296 576.56Z" fill="#723C19"/>
<path d="M501.57 318.661C489.382 303.162 461.562 299.499 450.764 312.928C442.309 323.442 447.913 339.932 448.626 341.935C448.626 341.935 460.176 350.59 472.336 357.637C483.488 364.098 492.979 367.192 499.574 363.688C510.201 358.027 513.1 333.323 501.57 318.661Z" fill="#153D49"/>
<path d="M490.724 372.363C491.736 369.274 499.116 398.998 494.388 413.449C493.592 415.838 468.568 439.021 461.331 430.903C461.331 430.903 466.23 422.097 467.15 409.404C468.07 396.712 461.279 390.362 461.279 390.362C461.279 390.362 489.764 375.341 490.724 372.363Z" fill="#723C19"/>
<path d="M459.172 327.606C455.165 330.142 448.02 337.309 448.626 343.352C449.231 349.396 444.244 357.366 446.148 369.851C448.052 382.336 454.727 390.104 457.886 391.393C461.044 392.683 479.728 388.288 486.793 381.225C493.859 374.163 507.532 361.319 494.444 339.626C481.357 317.932 467.046 322.626 459.172 327.606Z" fill="#7A3E1C"/>
<path d="M462.653 325.691C462.653 325.691 475.514 331.054 481.731 334.315C487.948 337.575 496.643 364.234 498.817 364.234C500.992 364.234 507.516 345.183 498.817 332.758C490.119 320.333 467.038 318.625 462.653 325.691Z" fill="#153D49"/>
<path d="M489.613 353.405C489.613 353.405 491.867 344.789 495.986 348.89C500.104 352.991 498.132 364.847 493.938 365.213C489.744 365.579 489.613 353.405 489.613 353.405Z" fill="#7A3E1C"/>
<path d="M495.97 353.405C495.97 353.405 493.464 351.183 491.589 353.405C489.713 355.626 491.537 362.673 493.779 362.052C496.021 361.431 496.977 354.396 495.97 353.405Z" fill="#512712"/>
<path d="M436.099 567.475L405.571 566.077H398.928L390.221 552.581L387.513 548.385C387.513 548.385 403.591 545.809 404.519 545.809C405.447 545.809 446.989 554.779 446.989 554.779L440.297 565.604L436.099 567.475Z" fill="#1E1D2C"/>
<path d="M445.889 550.121C436.657 541.075 404.926 538.575 394.881 541.617C384.836 544.658 386.354 549.822 391.826 550.73C397.298 551.638 423.988 550.578 436.335 555.002C448.681 559.425 447.769 551.964 445.889 550.121Z" fill="#7675AF"/>
<path d="M388.763 544.73C388.763 544.73 379.579 547.915 379.579 553.031C379.579 558.147 391.579 572.017 398.697 572.83C405.814 573.642 414.843 568.132 414.843 565.588C414.843 563.044 407.467 564.791 406.144 566.097C406.144 566.097 413.433 563.099 410.924 560.599C408.415 558.099 401.365 561.571 401.365 561.571C401.365 561.571 407.423 559.317 404.743 556.642C402.062 553.967 394.387 557.438 394.387 557.438C394.387 557.438 403.548 557.303 401.281 553.692C399.015 550.081 391.121 549.344 388.823 548.707C386.525 548.07 388.763 544.73 388.763 544.73Z" fill="#723C19"/>
<path d="M517.668 474.573C517.668 474.573 510.75 500.077 505.322 523.837C499.893 547.597 463.064 559.552 463.064 559.552C458.384 547.529 440.536 540.442 436.809 540.442C433.081 540.442 431.233 545.104 438.362 547.736C445.491 550.367 445.511 557.37 442.4 560.476C439.29 563.581 421.271 558.923 421.271 558.923C421.271 558.923 421.893 554.11 420.184 552.402C418.475 550.694 412.959 559.003 415.524 561.559C418.089 564.115 423.139 567.614 423.139 567.614C422.675 567.919 422.291 568.331 422.02 568.817C421.75 569.302 421.601 569.846 421.586 570.401C421.586 572.264 428.086 574.283 428.086 575.493C428.086 576.703 430.129 578.945 437.9 578.945C445.67 578.945 454.23 574.442 454.23 574.442C454.23 574.442 487.164 569.473 510.157 553.588C533.15 537.703 548.392 474.553 548.392 474.553L517.668 474.573Z" fill="#723C19"/>
<path d="M504.059 398.679C504.059 398.679 502.067 398.591 499.722 419.322C497.376 440.052 509.977 489.905 509.977 489.905H548.352C548.352 489.905 553.398 485.478 548.352 449.372C543.306 413.266 527.183 393.137 504.059 398.679Z" fill="#DD2C00"/>
<path d="M504.059 398.679C503.195 399.511 502.709 402.955 502.545 404.137C498.487 432.237 504.31 450.045 509.973 489.905C505.652 477.734 501.486 461.16 499.156 444.626C497.658 432.683 496.479 420.138 501.546 403.914C501.95 402.496 502.483 401.118 503.139 399.798C503.382 399.388 503.601 398.882 504.059 398.679Z" fill="#C12708"/>
<path d="M477.688 564.186C477.688 564.186 467.731 564.294 463.414 572.627C454.54 589.829 467.994 592.274 467.994 592.274C467.994 592.274 473.395 571.87 481.6 569.485C489.804 567.101 516.131 564.186 516.131 564.186H477.688Z" fill="#C1272D"/>
<path d="M466.361 573.168C470.559 563.852 492.007 564.807 500.614 563.633C509.221 562.459 524.622 560.938 531.142 564.202C533.767 565.516 535.487 563.47 536.603 565.397L536.419 565.301C529.896 562.037 514.514 567.614 505.887 568.773C497.26 569.931 475.821 568.992 471.635 578.304C469.48 583.081 471.025 588.782 472.949 593.233C459.551 592.278 463.243 580.059 466.361 573.168Z" fill="#C3E2C9"/>
<path d="M544.927 573.299C544.927 573.299 543.995 565.843 537.471 562.582C530.947 559.321 515.565 564.911 506.942 566.073C498.32 567.236 476.876 566.312 472.69 575.628C468.504 584.944 464.772 597.286 489.94 598.453C515.107 599.619 550.292 591.7 544.927 573.299Z" fill="#ED1C24"/>
<path d="M472.682 575.632C476.876 566.316 498.324 567.244 506.935 566.077C515.545 564.911 530.939 559.309 537.463 562.586C539.757 563.753 541.657 565.568 542.928 567.805L542.744 567.71C536.221 564.449 520.839 570.039 512.216 571.201C503.593 572.364 482.149 571.44 477.963 580.756C475.813 585.534 473.789 591.107 475.713 595.554C466.724 591.111 469.575 582.544 472.682 575.632Z" fill="#DBFCE2"/>
<path d="M524.296 576.56C524.296 576.56 533.333 573.323 545.405 567.487C554.263 563.211 564.754 557.534 574.516 550.726C597.584 534.626 617.192 519.207 633.565 519.207C649.939 519.207 658.327 566.32 622.907 579.721C587.488 593.122 526.017 589.356 526.017 589.356C519.859 589.793 519.043 579.817 524.296 576.56Z" fill="#723C19"/>
<path d="M634.242 538.074C630.546 535.263 614.153 528.825 616.487 543.496C618.821 558.167 629.467 560.516 636.194 554.424C642.921 548.333 637.524 540.566 634.242 538.074Z" fill="#512712"/>
<path d="M504.875 594.141C504.628 594.141 504.391 594.043 504.216 593.868C504.042 593.694 503.943 593.457 503.943 593.209C503.943 582.4 514.466 576.488 514.912 576.222C515.129 576.102 515.384 576.074 515.621 576.143C515.859 576.211 516.059 576.371 516.179 576.588C516.298 576.804 516.327 577.059 516.258 577.297C516.189 577.534 516.029 577.735 515.812 577.854C515.713 577.91 505.807 583.511 505.807 593.209C505.807 593.457 505.709 593.694 505.534 593.868C505.36 594.043 505.123 594.141 504.875 594.141Z" fill="#DBFCE2"/>
<path d="M517.111 592.278C517.003 592.278 516.897 592.259 516.796 592.222C505.807 588.305 499.475 579.482 499.212 579.084C499.078 578.882 499.028 578.636 499.073 578.398C499.117 578.16 499.253 577.949 499.451 577.809C499.649 577.669 499.893 577.612 500.133 577.649C500.372 577.686 500.587 577.816 500.733 578.009C500.797 578.097 507.006 586.732 517.425 590.45C517.631 590.525 517.804 590.67 517.914 590.859C518.024 591.048 518.064 591.27 518.026 591.486C517.988 591.702 517.876 591.897 517.709 592.038C517.541 592.18 517.33 592.257 517.111 592.258V592.278Z" fill="#DBFCE2"/>
<path d="M449.179 338.495C449.179 338.495 459.021 317.048 493.592 347.767L489.609 332.818L466.429 321.555C466.429 321.555 449.701 331.655 449.179 338.495Z" fill="#153D49"/>
<defs>
<linearGradient id="paint0_linear" x1="598.142" y1="467.12" x2="638.563" y2="537.16" gradientUnits="userSpaceOnUse">
<stop stop-color="#00ACE4"/>
<stop offset="1" stop-color="#0033A2"/>
</linearGradient>
<linearGradient id="paint1_linear" x1="601.687" y1="479.657" x2="633.578" y2="534.92" gradientUnits="userSpaceOnUse">
<stop stop-color="#00FFFF"/>
<stop offset="0.15" stop-color="#00E7F8"/>
<stop offset="0.35" stop-color="#00CCEF"/>
<stop offset="0.57" stop-color="#00B9E9"/>
<stop offset="0.78" stop-color="#00ADE5"/>
<stop offset="1" stop-color="#00A9E4"/>
</linearGradient>
<linearGradient id="paint2_linear" x1="104755" y1="65362.8" x2="108678" y2="69831.8" gradientUnits="userSpaceOnUse">
<stop stop-color="#00ACE4"/>
<stop offset="1" stop-color="#0033A2"/>
</linearGradient>
<linearGradient id="paint3_linear" x1="182489" y1="122177" x2="207798" y2="145875" gradientUnits="userSpaceOnUse">
<stop stop-color="#FCFFFF"/>
<stop offset="1" stop-color="#0033A2"/>
</linearGradient>
<linearGradient id="paint4_linear" x1="79211.8" y1="108887" x2="92011.1" y2="115022" gradientUnits="userSpaceOnUse">
<stop stop-color="#00FFFF"/>
<stop offset="0.15" stop-color="#00E7F8"/>
<stop offset="0.35" stop-color="#00CCEF"/>
<stop offset="0.57" stop-color="#00B9E9"/>
<stop offset="0.78" stop-color="#00ADE5"/>
<stop offset="1" stop-color="#00A9E4"/>
</linearGradient>
<linearGradient id="paint5_linear" x1="83332.4" y1="52855" x2="86581" y2="56724.9" gradientUnits="userSpaceOnUse">
<stop stop-color="#FCFFFF"/>
<stop offset="1" stop-color="#0033A2"/>
</linearGradient>
<linearGradient id="paint6_linear" x1="20380.3" y1="41754.4" x2="21471" y2="42155.1" gradientUnits="userSpaceOnUse">
<stop stop-color="#00FFFF"/>
<stop offset="0.15" stop-color="#00E7F8"/>
<stop offset="0.35" stop-color="#00CCEF"/>
<stop offset="0.57" stop-color="#00B9E9"/>
<stop offset="0.78" stop-color="#00ADE5"/>
<stop offset="1" stop-color="#00A9E4"/>
</linearGradient>
<linearGradient id="paint7_linear" x1="44556.7" y1="53605.2" x2="46396.2" y2="54708.7" gradientUnits="userSpaceOnUse">
<stop stop-color="#00FFFF"/>
<stop offset="0.15" stop-color="#00E7F8"/>
<stop offset="0.35" stop-color="#00CCEF"/>
<stop offset="0.57" stop-color="#00B9E9"/>
<stop offset="0.78" stop-color="#00ADE5"/>
<stop offset="1" stop-color="#00A9E4"/>
</linearGradient>
<linearGradient id="paint8_linear" x1="106924" y1="123858" x2="130957" y2="151421" gradientUnits="userSpaceOnUse">
<stop stop-color="#FCFFFF"/>
<stop offset="1" stop-color="#0033A2"/>
</linearGradient>
<linearGradient id="paint9_linear" x1="52213.8" y1="110556" x2="67061.1" y2="120246" gradientUnits="userSpaceOnUse">
<stop stop-color="#4A85B0"/>
<stop offset="0.15" stop-color="#00E7F8"/>
<stop offset="0.35" stop-color="#00CCEF"/>
<stop offset="0.57" stop-color="#00B9E9"/>
<stop offset="0.78" stop-color="#00ADE5"/>
<stop offset="1" stop-color="#00A9E4"/>
</linearGradient>
<linearGradient id="paint10_linear" x1="105766" y1="107309" x2="117113" y2="120238" gradientUnits="userSpaceOnUse">
<stop stop-color="#00ACE4"/>
<stop offset="1" stop-color="#0033A2"/>
</linearGradient>
<linearGradient id="paint11_linear" x1="163900" y1="170345" x2="237104" y2="238883" gradientUnits="userSpaceOnUse">
<stop stop-color="#FCFFFF"/>
<stop offset="1" stop-color="#0033A2"/>
</linearGradient>
<linearGradient id="paint12_linear" x1="72240.3" y1="161605" x2="109272" y2="179364" gradientUnits="userSpaceOnUse">
<stop stop-color="#4D87B3"/>
<stop offset="0.15" stop-color="#00E7F8"/>
<stop offset="0.35" stop-color="#00CCEF"/>
<stop offset="0.57" stop-color="#00B9E9"/>
<stop offset="0.78" stop-color="#00ADE5"/>
<stop offset="1" stop-color="#00A9E4"/>
</linearGradient>
<linearGradient id="paint13_linear" x1="75938.8" y1="87353.8" x2="85336.2" y2="98541.9" gradientUnits="userSpaceOnUse">
<stop stop-color="#FCFFFF"/>
<stop offset="1" stop-color="#0033A2"/>
</linearGradient>
<linearGradient id="paint14_linear" x1="18512.3" y1="70139.1" x2="21666.9" y2="71298.1" gradientUnits="userSpaceOnUse">
<stop stop-color="#3D76A1"/>
<stop offset="0.15" stop-color="#00E7F8"/>
<stop offset="0.35" stop-color="#00CCEF"/>
<stop offset="0.57" stop-color="#00B9E9"/>
<stop offset="0.78" stop-color="#00ADE5"/>
<stop offset="1" stop-color="#00A9E4"/>
</linearGradient>
<linearGradient id="paint15_linear" x1="44893.5" y1="89522.5" x2="50215.5" y2="92716.9" gradientUnits="userSpaceOnUse">
<stop stop-color="#00FFFF"/>
<stop offset="0.15" stop-color="#00E7F8"/>
<stop offset="0.35" stop-color="#00CCEF"/>
<stop offset="0.57" stop-color="#00B9E9"/>
<stop offset="0.78" stop-color="#00ADE5"/>
<stop offset="1" stop-color="#00A9E4"/>
</linearGradient>
<linearGradient id="paint16_linear" x1="462462" y1="136581" x2="639503" y2="348467" gradientUnits="userSpaceOnUse">
<stop stop-color="#FCFFFF"/>
<stop offset="0.15" stop-color="#00E7F8"/>
<stop offset="0.35" stop-color="#00CCEF"/>
<stop offset="0.57" stop-color="#00B9E9"/>
<stop offset="0.78" stop-color="#00ADE5"/>
<stop offset="1" stop-color="#00A9E4"/>
</linearGradient>
<linearGradient id="paint17_linear" x1="484733" y1="159535" x2="691593" y2="407199" gradientUnits="userSpaceOnUse">
<stop stop-color="#00ACE4"/>
<stop offset="1" stop-color="#0033A2"/>
</linearGradient>
<linearGradient id="paint18_linear" x1="267893" y1="138471" x2="311693" y2="181543" gradientUnits="userSpaceOnUse">
<stop stop-color="#FCFFFF"/>
<stop offset="0.15" stop-color="#00E7F8"/>
<stop offset="0.35" stop-color="#00CCEF"/>
<stop offset="0.57" stop-color="#00B9E9"/>
<stop offset="0.78" stop-color="#00ADE5"/>
<stop offset="1" stop-color="#00A9E4"/>
</linearGradient>
<linearGradient id="paint19_linear" x1="213856" y1="147266" x2="255374" y2="179882" gradientUnits="userSpaceOnUse">
<stop stop-color="#00ACE4"/>
<stop offset="1" stop-color="#0033A2"/>
</linearGradient>
<linearGradient id="paint20_linear" x1="280719" y1="116287" x2="293907" y2="136098" gradientUnits="userSpaceOnUse">
<stop stop-color="#FCFFFF"/>
<stop offset="0.15" stop-color="#00E7F8"/>
<stop offset="0.35" stop-color="#00CCEF"/>
<stop offset="0.57" stop-color="#00B9E9"/>
<stop offset="0.78" stop-color="#00ADE5"/>
<stop offset="1" stop-color="#00A9E4"/>
</linearGradient>
<linearGradient id="paint21_linear" x1="318017" y1="111795" x2="327547" y2="129399" gradientUnits="userSpaceOnUse">
<stop stop-color="#00ACE4"/>
<stop offset="1" stop-color="#0033A2"/>
</linearGradient>
<linearGradient id="paint22_linear" x1="242.334" y1="476.536" x2="331.73" y2="631.437" gradientUnits="userSpaceOnUse">
<stop stop-color="#DD2C00"/>
<stop offset="0.553527" stop-color="#FFD13C"/>
<stop offset="1" stop-color="#FF9339"/>
</linearGradient>
<linearGradient id="paint23_linear" x1="640350" y1="75191.4" x2="643876" y2="99904.8" gradientUnits="userSpaceOnUse">
<stop stop-color="#DD2C00"/>
<stop offset="0.25" stop-color="#FFD13C"/>
<stop offset="1" stop-color="#FF9339"/>
</linearGradient>
<linearGradient id="paint24_linear" x1="73113.7" y1="51277.4" x2="76226.2" y2="54848.9" gradientUnits="userSpaceOnUse">
<stop stop-color="#FDFEFF"/>
<stop offset="1" stop-color="#0033A2"/>
</linearGradient>
<linearGradient id="paint25_linear" x1="35601.1" y1="44262.6" x2="37524.2" y2="45517" gradientUnits="userSpaceOnUse">
<stop stop-color="#00FFFF"/>
<stop offset="0.15" stop-color="#00E7F8"/>
<stop offset="0.35" stop-color="#00CCEF"/>
<stop offset="0.57" stop-color="#00B9E9"/>
<stop offset="0.78" stop-color="#00ADE5"/>
<stop offset="1" stop-color="#00A9E4"/>
</linearGradient>
<linearGradient id="paint26_linear" x1="60193" y1="41753.1" x2="61662.9" y2="43427.8" gradientUnits="userSpaceOnUse">
<stop stop-color="#FCFFFF"/>
<stop offset="1" stop-color="#0033A2"/>
</linearGradient>
<linearGradient id="paint27_linear" x1="106861" y1="84277.5" x2="116345" y2="93157.2" gradientUnits="userSpaceOnUse">
<stop stop-color="#FCFFFF"/>
<stop offset="1" stop-color="#0033A2"/>
</linearGradient>
<linearGradient id="paint28_linear" x1="46381.8" y1="73068.2" x2="51178.8" y2="75368.5" gradientUnits="userSpaceOnUse">
<stop stop-color="#00FFFF"/>
<stop offset="0.15" stop-color="#00E7F8"/>
<stop offset="0.35" stop-color="#00CCEF"/>
<stop offset="0.57" stop-color="#00B9E9"/>
<stop offset="0.78" stop-color="#00ADE5"/>
<stop offset="1" stop-color="#00A9E4"/>
</linearGradient>
<linearGradient id="paint29_linear" x1="48733.5" y1="33670.7" x2="49951.1" y2="35120" gradientUnits="userSpaceOnUse">
<stop stop-color="#FCFFFF"/>
<stop offset="1" stop-color="#0033A2"/>
</linearGradient>
<linearGradient id="paint30_linear" x1="12068.2" y1="26400.2" x2="12477.1" y2="26550.5" gradientUnits="userSpaceOnUse">
<stop stop-color="#00FFFF"/>
<stop offset="0.15" stop-color="#00E7F8"/>
<stop offset="0.35" stop-color="#00CCEF"/>
<stop offset="0.57" stop-color="#00B9E9"/>
<stop offset="0.78" stop-color="#00ADE5"/>
<stop offset="1" stop-color="#00A9E4"/>
</linearGradient>
<linearGradient id="paint31_linear" x1="25711.5" y1="33982" x2="26401.2" y2="34395.3" gradientUnits="userSpaceOnUse">
<stop stop-color="#00FFFF"/>
<stop offset="0.15" stop-color="#00E7F8"/>
<stop offset="0.35" stop-color="#00CCEF"/>
<stop offset="0.57" stop-color="#00B9E9"/>
<stop offset="0.78" stop-color="#00ADE5"/>
<stop offset="1" stop-color="#00A9E4"/>
</linearGradient>
<linearGradient id="paint32_linear" x1="352260" y1="122038" x2="375997" y2="162223" gradientUnits="userSpaceOnUse">
<stop stop-color="#FE5722"/>
<stop offset="0.25" stop-color="#FFD13C"/>
<stop offset="1" stop-color="#FF9339"/>
</linearGradient>
<linearGradient id="paint33_linear" x1="8605.19" y1="15998.9" x2="8806.17" y2="16117.4" gradientUnits="userSpaceOnUse">
<stop stop-color="#00FFFF"/>
<stop offset="0.15" stop-color="#00E7F8"/>
<stop offset="0.35" stop-color="#00CCEF"/>
<stop offset="0.57" stop-color="#00B9E9"/>
<stop offset="0.78" stop-color="#00ADE5"/>
<stop offset="1" stop-color="#00A9E4"/>
</linearGradient>
<linearGradient id="paint34_linear" x1="3564.41" y1="14823.4" x2="3645.71" y2="14843.3" gradientUnits="userSpaceOnUse">
<stop stop-color="#00FFFF"/>
<stop offset="0.15" stop-color="#00E7F8"/>
<stop offset="0.35" stop-color="#00CCEF"/>
<stop offset="0.57" stop-color="#00B9E9"/>
<stop offset="0.78" stop-color="#00ADE5"/>
<stop offset="1" stop-color="#00A9E4"/>
</linearGradient>
<linearGradient id="paint35_linear" x1="4712.11" y1="4409.85" x2="4723.8" y2="4424.23" gradientUnits="userSpaceOnUse">
<stop stop-color="#00FFFF"/>
<stop offset="0.15" stop-color="#00E7F8"/>
<stop offset="0.35" stop-color="#00CCEF"/>
<stop offset="0.57" stop-color="#00B9E9"/>
<stop offset="0.78" stop-color="#00ADE5"/>
<stop offset="1" stop-color="#00A9E4"/>
</linearGradient>
<linearGradient id="paint36_linear" x1="68259.1" y1="52991" x2="71891" y2="57837.8" gradientUnits="userSpaceOnUse">
<stop stop-color="#00FFFF"/>
<stop offset="0.15" stop-color="#00E7F8"/>
<stop offset="0.35" stop-color="#00CCEF"/>
<stop offset="0.57" stop-color="#00B9E9"/>
<stop offset="0.78" stop-color="#00ADE5"/>
<stop offset="1" stop-color="#00A9E4"/>
</linearGradient>
<linearGradient id="paint37_linear" x1="97937.2" y1="28600.7" x2="98332.7" y2="30012.5" gradientUnits="userSpaceOnUse">
<stop stop-color="#00FFFF"/>
<stop offset="0.15" stop-color="#00E7F8"/>
<stop offset="0.35" stop-color="#00CCEF"/>
<stop offset="0.57" stop-color="#00B9E9"/>
<stop offset="0.78" stop-color="#00ADE5"/>
<stop offset="1" stop-color="#00A9E4"/>
</linearGradient>
<linearGradient id="paint38_linear" x1="94919.7" y1="60117.9" x2="97603.1" y2="64280.6" gradientUnits="userSpaceOnUse">
<stop stop-color="#00FFFF"/>
<stop offset="0.15" stop-color="#00E7F8"/>
<stop offset="0.35" stop-color="#00CCEF"/>
<stop offset="0.57" stop-color="#00B9E9"/>
<stop offset="0.78" stop-color="#00ADE5"/>
<stop offset="1" stop-color="#00A9E4"/>
</linearGradient>
<linearGradient id="paint39_linear" x1="331.785" y1="525.21" x2="358.179" y2="570.948" gradientUnits="userSpaceOnUse">
<stop stop-color="#DEE9EE"/>
<stop offset="0.99" stop-color="#A8C6D4"/>
</linearGradient>
</defs>
</svg>
